<?xml version="1.0" encoding="utf-8"?>
<!-- Generator: Adobe Illustrator 16.0.0, SVG Export Plug-In . SVG Version: 6.00 Build 0)  -->
<!DOCTYPE svg PUBLIC "-//W3C//DTD SVG 1.1//EN" "http://www.w3.org/Graphics/SVG/1.1/DTD/svg11.dtd">
<svg version="1.1" id="Layer_1" xmlns="http://www.w3.org/2000/svg" xmlns:xlink="http://www.w3.org/1999/xlink" x="0px" y="0px"
	 width="841.889px" height="595.281px" viewBox="0 0 841.889 595.281" enable-background="new 0 0 841.889 595.281"
	 xml:space="preserve">
<circle fill="#E2D9C9" cx="421.848" cy="297.641" r="297.641"/>
<path fill="#BEDB89" d="M226.878,489.833h389.939c7.318-7.425,14.226-15.257,20.663-23.474H206.215
	C212.654,474.576,219.558,482.412,226.878,489.833L226.878,489.833z"/>
<path fill="#72CCD3" d="M677.741,194.199C636.813,93.052,537.671,21.686,421.848,21.686c-115.821,0-214.962,71.363-255.892,172.513
	H677.741L677.741,194.199z"/>
<g>
	<defs>
		<path id="SVGID_1_" d="M677.741,194.199C636.813,93.052,537.671,21.686,421.848,21.686c-115.821,0-214.962,71.363-255.892,172.513
			H677.741L677.741,194.199z"/>
	</defs>
	<clipPath id="SVGID_2_">
		<use xlink:href="#SVGID_1_"  overflow="visible"/>
	</clipPath>
	<g clip-path="url(#SVGID_2_)">
		<path fill="#FFFFFF" d="M230.806,187.526h-2.152c0.071-1.787,0.013-4.653-0.825-6.788c-1.312-3.337-4.526-5.24-6.91-5.6
			c-1.861-0.278-6.173-0.124-7.983-0.04c-1.201-5.938-6.949-10.441-13.875-10.441c-7.567,0-13.725,5.38-14.078,12.136
			c-1.819,0.036-3.528,0.046-5.039,0.015c-9.128,2.407-8.795,8.767-8.462,10.719h-2.616c-0.919,0-1.668,0.749-1.668,1.667
			c0,0.921,0.749,1.67,1.668,1.67h61.941c0.922,0,1.668-0.749,1.668-1.67C232.474,188.275,231.728,187.526,230.806,187.526z"/>
	</g>
</g>
<path fill="#CEA697" d="M327.194,252.929v2.714h-1.902v1.899h1.902v2.715h-1.902v147.728h1.811v2.358h-1.808v1.399h1.899v3.526
	h2.715v11.279h39.081v-11.279h2.715v-3.528h1.903v-1.399h-1.813v-2.358h1.813v-69.611h-4.887v55.552h-34.333v-55.548h-5.97
	l23.269-14.023l21.917,13.379v-58.539l-10.891-10.55h-0.397v41.061h-20.767v-41.061h-1.786v-4.834h17.955l-32.427-31.413v20.538
	L327.194,252.929z M471.549,407.985v2.358h-1.811v1.399h1.902v3.528h2.713v11.279h39.523v5.502H329.951v0.148h184.006v-16.93h0.126
	l-22.032-21.348h-15.372v-14.89l-6.937-6.72v35.671H471.549z M304.359,260.26h-1.902v-2.715h1.902v-1.902h-1.902v-2.714h1.902
	v-23.891h18.477l-0.062-0.196h-29.75v-2.358H122.435v170.468h181.924V260.261V260.26z M240.906,268.639v-4.836h23.998v4.835h-1.64
	v41.061H242.5v-41.061h-1.598L240.906,268.639z M240.425,230.677h23.583v13.625h-23.583v-13.627V230.677z M179.574,268.638v-4.837
	h23.999v4.835h-1.626v41.061h-20.765v-41.061h-1.608V268.638z M179.518,230.675h23.584V244.3h-23.584V230.675L179.518,230.675z
	 M207.171,338.37v55.552h-34.33v-55.546h-5.97l23.269-14.023l22.971,14.023h-5.939V338.37z M268.095,338.37v55.552h-34.33v-55.546
	h-5.97l23.27-14.023l22.97,14.023h-5.939V338.37z M553.616,228.842h-27.979v0.196h13.87v23.891h1.902v2.715h-1.902v1.899h1.902
	v2.715h-1.902v136.69h179.592V226.485H553.616v2.358V228.842z M636.143,230.677h23.584v13.625h-23.584v-13.627V230.677z
	 M633.653,263.803h23.999v4.835h-1.51v41.061h-20.763v-41.061h-1.725v-4.835H633.653z M646.482,324.35l22.971,14.021h-5.943v55.552
	h-34.326v-55.548h-5.97l23.269-14.023V324.35z M575.237,230.677h23.583v13.625h-23.583v-13.627V230.677z M572.402,263.803h23.999
	v4.835h-1.576v41.061h-20.763v-41.061h-1.657v-4.835H572.402z M585.555,324.35l22.971,14.021h-5.94v55.552h-34.328v-55.548h-5.97
	l23.27-14.023L585.555,324.35z M396.35,407.985v2.358h-1.809v1.399h1.899v3.528h2.715v11.279h45.029v-11.279h2.717v-3.528h1.902
	v-1.399h-1.813v-2.358h1.812v-55.951l-10.12-9.805v83.14h-34.33v-86.993h-5.97l22.389-13.492l-26.23-25.411v108.516L396.35,407.985z
	"/>
<path fill="#E2D9C9" d="M553.616,209.453v3.802H293.02v-3.8H122.435v9.787l0.7-0.951l169.885,0.021v2.852h260.597v-2.82
	l164.959,0.019l0.525,0.668v-9.574L553.616,209.453z M553.616,224.911v1.572h165.484v-3.487H553.616V224.911z M293.02,225.123v-2.13
	H122.435v3.49h170.588L293.02,225.123z"/>
<path fill="#B8B69A" d="M553.616,218.341v2.82H293.02v-2.852l-169.885-0.021l-0.698,0.951l-2.756,3.755h173.342v-1.802h260.597
	v1.803H722.21l-3.109-3.968l-0.525-0.669L553.616,218.341z M293.02,207.755l-2.084-2.431H120.622l-0.041-0.062h-0.193v4.193h172.635
	L293.02,207.755z M553.616,207.755v1.698h167.89v-4.129H555.696L553.616,207.755z"/>
<path fill="#CDC6AC" d="M290.936,205.324l2.084,2.431h260.597l2.083-2.431h165.828l3.909-6.289H562.33v3.079H284.308v-3.079H116.456
	l4.125,6.227l0.043,0.062H290.936z"/>
<path fill="#E2D9C9" d="M539.509,399.049v8.937h1.808v2.358h-1.808v1.399h1.902v3.528h2.714v14.118h0.044v6.452h-30.211v3.925
	h-0.078v-0.49H329.949v-3.435h-30.21v-20.572h2.715v-3.526h1.902v-1.399h-1.812v-2.358h1.811v-8.938H121.146v48.857h1.206v-0.263
	H299.74v3.75h30.211v-4.55h183.926v-0.098h0.078v4.647h30.212v-3.745h175.37v0.263h1.676v-49.263v0.404L539.509,399.049z"/>
<path fill="#B8B69A" d="M304.359,396.951H121.146v2.098h183.213V396.951z M539.509,399.049h181.703v-2.098H539.509V399.049z"/>
<path fill="#C7B5A4" d="M544.167,447.643v3.748h-30.21v-4.647h-0.079v0.098H329.949v4.552h-30.21v-3.752H122.352v5.503H299.74v8.387
	H122.352v7.599h597.186v-7.598h-175.37v-8.385h175.37v-5.503L544.167,447.643L544.167,447.643z M513.957,459.322h-0.079v2.062
	H329.949v-7.565h183.926v0.49h0.079v5.013H513.957z"/>
<path fill="#DEDEC5" d="M544.167,461.532h176.55v-8.386h-176.55V461.532z M513.877,454.309h0.078v5.013h-0.078V454.309z
	 M299.74,453.146H121.173v8.386H299.74V453.146z"/>
<path fill="#CEA697" d="M322.835,229.038h2.457v3.353l32.428,31.41h6.042v4.836h-1.049l10.891,10.55v-18.93h-1.902v-2.716h1.902
	v-1.902h-1.902v-2.713h1.902v-23.889h20.937v23.89h1.898v2.717h-1.902v1.902h1.902v2.714h-1.902v39.212l26.234,25.407l0.881-0.528
	l22.97,14.024h-5.939v3.854l10.12,9.804v-91.775H446.9v-2.715h1.902v-1.902H446.9v-2.714h1.902v-23.89h20.936v23.89h1.899v2.716
	h-1.902v1.902h1.902v2.713h-1.902v112.054l6.94,6.722v-40.661h-5.972l23.27-14.024l22.97,14.024h-5.939v55.552h-18.958
	l22.037,21.344h2.588v-3.527h1.903v-1.399h-1.809v-2.358h1.809V260.255h-1.903v-2.715h1.903v-1.902h-1.903v-2.714h1.903v-23.892
	h7.062v-0.196H322.771l0.062,0.199L322.835,229.038z M505.421,268.639h-1.604V309.7h-20.766v-41.061h-1.629v-4.834h23.998V268.639
	L505.421,268.639z M481.313,230.678h23.584v13.624h-23.584v-13.626V230.678z M434.68,268.639h-1.614V309.7h-20.765v-41.061h-1.616
	v-4.834h23.999v4.834H434.68z M409.402,230.677h23.584v13.625h-23.584v-13.627V230.677z M340.636,230.677h23.583v13.625h-23.583
	v-13.627V230.677z"/>
<path opacity="0.5" fill="#BD8B79" enable-background="new    " d="M322.835,229.038h2.457v3.353l32.428,31.41h6.042v4.836h-1.049
	l10.891,10.55v-18.93h-1.902v-2.716h1.902v-1.902h-1.902v-2.713h1.902v-23.889h20.937v23.89h1.898v2.717h-1.902v1.902h1.902v2.714
	h-1.902v39.212l26.234,25.407l0.881-0.528l22.97,14.024h-5.939v3.854l10.12,9.804v-91.775H446.9v-2.715h1.902v-1.902H446.9v-2.714
	h1.902v-23.89h20.936v23.89h1.899v2.716h-1.902v1.902h1.902v2.713h-1.902v112.054l6.94,6.722v-40.661h-5.972l23.27-14.024
	l22.97,14.024h-5.939v55.552h-18.958l22.037,21.344h2.588v-3.527h1.903v-1.399h-1.809v-2.358h1.809V260.255h-1.903v-2.715h1.903
	v-1.902h-1.903v-2.714h1.903v-23.892h7.062v-0.196H322.771l0.062,0.199L322.835,229.038z M505.421,268.639h-1.604V309.7h-20.766
	v-41.061h-1.629v-4.834h23.998V268.639L505.421,268.639z M481.313,230.678h23.584v13.624h-23.584v-13.626V230.678z M434.68,268.639
	h-1.614V309.7h-20.765v-41.061h-1.616v-4.834h23.999v4.834H434.68z M409.402,230.677h23.584v13.625h-23.584v-13.627V230.677z
	 M340.636,230.677h23.583v13.625h-23.583v-13.627V230.677z"/>
<path fill="#E2D9C9" d="M513.877,426.551h-39.523v2.838h-4.615v0.544h-20.937v-0.544h-4.616v-2.838h-45.028v2.838h-4.617v0.544
	h-20.938v-0.544h-4.616v-2.838h-39.079v2.838h0.044v2.664h183.926V426.551z M513.877,453.819H329.951v7.565h183.926v-7.075V453.819z
	"/>
<path fill="#DEDEC5" d="M446.99,407.985v2.358h1.812v1.399H446.9v3.528h-2.714v14.117h4.616v0.544h10.078v-0.544h-0.544v-14.119
	h0.544V260.26h-0.271v-2.715h0.27v-1.903h-0.271v-2.712h0.271v-23.892h-10.078v23.892h-1.902v2.714h1.902v1.899h-1.902v2.715h1.902
	v147.726L446.99,407.985z"/>
<path fill="#D6CFB5" d="M458.61,252.929v2.714h0.271v1.899h-0.271v2.715h0.27v155.012h-0.544v14.119h0.544v0.542h10.86v-0.544h4.615
	v-14.115h-2.715v-3.528h-1.902v-1.399h1.812v-2.358h-1.811V260.261h1.902v-2.717h-1.902v-1.902h1.902v-2.713h-1.902v-23.892H458.88
	v23.892H458.61z"/>
<path fill="#DEDEC5" d="M374.66,338.373h-1.057v69.612h-1.811v2.358h1.812v1.399h-1.902v3.528h-2.714v14.117h4.616v0.544h10.078
	v-0.544h-0.544v-14.119h0.544V260.26h-0.272v-2.715h0.272v-1.903h-0.272v-2.712h0.272v-23.892h-10.078v23.892h-1.902v2.714h1.902
	v1.899h-1.902v2.715h1.902v77.471L374.66,338.373z"/>
<path fill="#D6CFB5" d="M383.41,252.929v2.714h0.271v1.899h-0.271v2.715h0.271v155.012h-0.544v14.119h0.544v0.542h10.859v-0.544
	h4.614v-14.115h-2.715v-3.528h-1.902v-1.399h1.811v-2.358h-1.808V260.258h1.899v-2.713h-1.902v-1.902h1.902v-2.713h-1.902v-23.892
	h-10.856v23.892H383.41z"/>
<path fill="#DEDEC5" d="M518.574,252.929h-1.902v2.714h1.902v1.899h-1.902v2.715h1.902v147.728h-1.812v2.358h1.812v1.399h-1.902
	v3.526h-2.714v14.119h14.146v-14.119h0.544V260.258h-0.273v-2.715h0.272v-1.902h-0.273v-2.712h0.271v-23.892h-10.078
	L518.574,252.929z"/>
<path fill="#D6CFB5" d="M528.379,252.929v2.714h0.271v1.899h-0.273v2.715h0.272v155.012h-0.546v14.119h16.02v-14.119h-2.714v-3.528
	h-1.902v-1.399h1.812v-2.358h-1.808V260.258h1.898v-2.717h-1.902v-1.902h1.902v-2.712h-1.902v-23.892h-10.855v23.892
	L528.379,252.929z"/>
<path fill="#C7B5A4" d="M528.653,429.388h-14.7v2.813H329.951v-2.813H299.74v6.453h30.21v3.435h183.926v0.49h0.078v-3.925h30.213
	v-6.453h-4.657H528.653z"/>
<path fill="#DEDEC5" d="M313.891,429.388v-14.119h0.544V260.26h-0.273v-2.715h0.271v-1.903h-0.273v-2.712h0.272v-23.892h-10.078
	v23.892h-1.902v2.714h1.902v1.899h-1.902v2.715h1.902v147.725h-1.813v2.358h1.812v1.399h-1.902v3.527h-2.715v14.119h4.616
	L313.891,429.388z"/>
<path fill="#D6CFB5" d="M314.162,252.929v2.714h0.272v1.899h-0.273v2.715h0.271v155.012h-0.545v14.119h16.02v-14.119h-2.714v-3.528
	h-1.902v-1.399h1.811v-2.358h-1.808V260.257h1.899v-2.714h-1.902v-1.902h1.902v-2.712h-1.902v-23.894h-10.855v23.892
	L314.162,252.929z"/>
<path fill="#DFD6C5" d="M293.02,226.483v2.358h260.597v-3.719H293.02V226.483z"/>
<path fill="#B8B5A5" d="M293.02,225.123h260.597v-3.93H293.02v3.72V225.123z M293.02,207.755v5.5h260.597v-5.498L293.02,207.755z"/>
<path fill="#E2D9C9" d="M562.33,202.114v-3.145h166.51l-3.145-4.195H552.389l4.209-5.764l-136.784-62.364l-137.045,62.89
	l7.754,5.238H116.194l-3.145,4.195h171.259v3.145H562.33z M419.812,131.102l126.041,57.647H295.868L419.812,131.102z"/>
<path fill="#AD8C82" d="M419.812,135.819L535.54,188.75h10.314l-126.041-57.647L295.869,188.75h10.142L419.812,135.819z"/>
<path fill="#CEA697" d="M306.009,188.75h68.208v-22.798h25.445c0.283-11.17,9.437-20.178,20.675-20.178
	c11.236,0,20.392,9.009,20.675,20.178h27.539v22.798h66.988l-115.728-52.931L306.009,188.75z"/>
<path fill="#6C5345" d="M441.012,165.952c0.005,0.174,0.026,0.347,0.026,0.524c0,11.414-9.285,20.701-20.7,20.701
	c-11.414,0-20.701-9.285-20.701-20.701c0-0.177,0.025-0.35,0.028-0.524H374.22v22.798h94.334v-22.798H441.012L441.012,165.952z"/>
<path fill="#E2D9C9" d="M420.337,185.605c10.546,0,19.128-8.584,19.128-19.129s-8.582-19.13-19.128-19.13
	c-10.55,0-19.13,8.585-19.13,19.13S409.789,185.605,420.337,185.605L420.337,185.605z M420.337,149.051
	c9.606,0,17.423,7.817,17.423,17.426c0,9.607-7.816,17.425-17.425,17.425c-9.607,0-17.427-7.817-17.427-17.425
	c0-9.608,7.819-17.426,17.427-17.426H420.337z"/>
<path fill="#B99C8B" d="M420.337,187.177c11.414,0,20.7-9.285,20.7-20.701c0-0.177-0.022-0.35-0.027-0.524
	c-0.283-11.17-9.437-20.178-20.675-20.178c-11.236,0-20.392,9.009-20.675,20.178c0,0.174-0.025,0.347-0.025,0.524
	C399.635,177.89,408.922,187.177,420.337,187.177L420.337,187.177z M420.337,147.346c10.546,0,19.128,8.585,19.128,19.13
	s-8.582,19.129-19.128,19.129c-10.55,0-19.13-8.584-19.13-19.129S409.789,147.346,420.337,147.346L420.337,147.346z"/>
<path fill="#E2D9C9" d="M420.337,183.115c9.174,0,16.637-7.465,16.637-16.639c0-9.175-7.465-16.64-16.639-16.64
	c-9.176,0-16.641,7.465-16.641,16.64c0,9.174,7.465,16.639,16.641,16.639H420.337z M420.337,151.934
	c8.019,0,14.543,6.521,14.543,14.543s-6.524,14.54-14.543,14.54s-14.543-6.521-14.543-14.543S412.319,151.934,420.337,151.934z"/>
<path fill="#B99C8B" d="M420.337,183.901c9.606,0,17.423-7.817,17.423-17.425c0-9.608-7.816-17.426-17.425-17.426
	c-9.607,0-17.427,7.817-17.427,17.426c0,9.607,7.819,17.425,17.427,17.425H420.337z M420.337,149.837
	c9.174,0,16.637,7.465,16.637,16.64c0,9.174-7.465,16.639-16.639,16.639c-9.176,0-16.641-7.465-16.641-16.639
	c0-9.175,7.465-16.64,16.641-16.64H420.337z"/>
<path fill="#E2D9C9" d="M420.337,180.231c7.584,0,13.757-6.169,13.757-13.757s-6.173-13.754-13.757-13.754
	c-7.586,0-13.757,6.169-13.757,13.757S412.751,180.231,420.337,180.231z"/>
<path fill="#B99C8B" d="M420.337,181.017c8.019,0,14.543-6.521,14.543-14.543s-6.524-14.54-14.543-14.54
	s-14.543,6.521-14.543,14.543S412.319,181.017,420.337,181.017z M420.337,152.72c7.584,0,13.757,6.169,13.757,13.757
	s-6.173,13.754-13.757,13.754c-7.586,0-13.757-6.169-13.757-13.757S412.751,152.72,420.337,152.72z"/>
<path fill="#72CCD3" d="M192.253,232.25h9.276v10.481h-9.276V232.25z"/>
<path fill="#576C6E" d="M203.102,244.302v-13.626h-23.584v13.625L203.102,244.302L203.102,244.302z M192.253,232.249h9.276v10.48
	h-9.276v-10.482V232.249z M190.681,242.729h-9.591v-10.482h9.591v10.48V242.729z"/>
<path fill="#72CCD3" d="M181.09,232.25h9.591v10.481h-9.591V232.25z M253.158,232.25h9.276v10.481h-9.276V232.25z"/>
<path fill="#576C6E" d="M264.008,244.302v-13.626h-23.583v13.625L264.008,244.302L264.008,244.302z M253.16,232.249h9.275v10.48
	h-9.275v-10.482V232.249z M251.588,242.729h-9.591v-10.482h9.591v10.48V242.729z"/>
<path fill="#72CCD3" d="M241.997,232.25h9.591v10.481h-9.591V232.25z M353.371,232.25h9.275v10.481h-9.275V232.25z"/>
<path fill="#576C6E" d="M364.219,244.302v-13.626h-23.583v13.625L364.219,244.302L364.219,244.302z M353.371,232.249h9.275v10.48
	h-9.275v-10.482V232.249z M351.799,242.729h-9.591v-10.482h9.591v10.48V242.729z"/>
<path fill="#72CCD3" d="M342.208,232.25h9.591v10.481h-9.591V232.25z M422.137,232.25h9.276v10.481h-9.276V232.25z"/>
<path fill="#576C6E" d="M432.986,244.302v-13.626h-23.584v13.625L432.986,244.302L432.986,244.302z M422.137,232.249h9.276v10.48
	h-9.276v-10.482V232.249z M420.565,242.729h-9.591v-10.482h9.591v10.48V242.729z"/>
<path fill="#72CCD3" d="M410.974,232.25h9.591v10.481h-9.591V232.25z M494.048,232.25h9.276v10.481h-9.276V232.25z"/>
<path fill="#576C6E" d="M504.897,244.302v-13.626h-23.584v13.625L504.897,244.302L504.897,244.302z M494.048,232.249h9.276v10.48
	h-9.276v-10.482V232.249z M492.476,242.729h-9.591v-10.482h9.591v10.48V242.729z"/>
<path fill="#72CCD3" d="M482.885,232.25h9.591v10.481h-9.591V232.25z M587.97,232.25h9.276v10.481h-9.276V232.25z"/>
<path fill="#576C6E" d="M598.822,244.302v-13.626h-23.584v13.625L598.822,244.302L598.822,244.302z M587.97,232.249h9.276v10.48
	h-9.276v-10.482V232.249z M586.398,242.729h-9.591v-10.482h9.591v10.48V242.729z"/>
<path fill="#72CCD3" d="M576.81,232.25h9.591v10.481h-9.591V232.25z M648.876,232.25h9.276v10.481h-9.276V232.25z"/>
<path fill="#576C6E" d="M659.725,244.302v-13.626h-23.583v13.625L659.725,244.302L659.725,244.302z M648.876,232.249h9.276v10.48
	h-9.276v-10.482V232.249z M647.305,242.729h-9.591v-10.482h9.591v10.48V242.729z"/>
<path fill="#72CCD3" d="M637.714,232.25h9.591v10.481h-9.591V232.25z M192.4,270.147h7.976v7.735H192.4V270.147z M192.4,299.215
	h7.976v8.51H192.4V299.215z M192.4,289.536h7.976v8.106H192.4V289.536z M192.4,279.455h7.976v8.509H192.4V279.455z"/>
<path fill="#5B6361" d="M181.18,289.536V309.7h20.763v-41.061H181.18v20.898V289.536z M192.4,270.147h7.976v7.735H192.4V270.147z
	 M192.4,279.455h7.976v8.509H192.4V279.455z M192.4,289.536h7.976v8.106H192.4V289.536z M192.4,299.215h7.976v8.51H192.4V299.215z
	 M182.801,270.147h8.024v7.735h-8.026v-7.735H182.801z M182.801,279.455h8.024v8.509h-8.026v-8.509H182.801z M182.801,289.536h8.024
	v8.106h-8.026v-8.106H182.801z M182.801,299.215h8.024v8.51h-8.026v-8.51H182.801z"/>
<path fill="#72CCD3" d="M182.801,270.147h8.024v7.735h-8.026L182.801,270.147z M182.801,289.536h8.024v8.106h-8.026L182.801,289.536
	z M182.801,299.215h8.024v8.51h-8.026L182.801,299.215z M182.801,279.455h8.024v8.509h-8.026L182.801,279.455z M253.717,270.147
	h7.976v7.735h-7.976V270.147z M253.717,299.215h7.976v8.51h-7.976V299.215z M253.717,289.536h7.976v8.106h-7.976V289.536z
	 M253.717,279.455h7.976v8.509h-7.976V279.455z"/>
<path fill="#5B6361" d="M242.497,289.536V309.7h20.763v-41.061h-20.763v20.898V289.536z M253.717,270.147h7.976v7.735h-7.976
	V270.147z M253.717,279.455h7.976v8.509h-7.976V279.455z M253.717,289.536h7.976v8.106h-7.976V289.536z M253.717,299.215h7.976v8.51
	h-7.976V299.215z M244.118,270.147h8.024v7.735h-8.026v-7.735H244.118z M244.118,279.455h8.024v8.509h-8.026v-8.509H244.118z
	 M244.118,289.536h8.024v8.106h-8.026v-8.106H244.118z M244.118,299.215h8.024v8.51h-8.026v-8.51H244.118z"/>
<path fill="#72CCD3" d="M244.118,270.147h8.024v7.735h-8.026L244.118,270.147z M244.118,289.536h8.024v8.106h-8.026L244.118,289.536
	z M244.118,299.215h8.024v8.51h-8.026L244.118,299.215z M244.118,279.455h8.024v8.509h-8.026L244.118,279.455z M585.277,270.147
	h7.975v7.735h-7.975V270.147z M585.277,299.215h7.975v8.51h-7.975V299.215z M585.277,289.536h7.975v8.106h-7.975V289.536z
	 M585.277,279.455h7.975v8.509h-7.975V279.455z"/>
<path fill="#5B6361" d="M574.059,277.883v31.816h20.765v-41.061h-20.765V277.883z M585.277,270.147h7.975v7.735h-7.975V270.147z
	 M585.277,279.455h7.975v8.509h-7.975V279.455z M585.277,289.536h7.975v8.106h-7.975V289.536z M585.277,299.215h7.975v8.51h-7.975
	V299.215z M575.68,270.147h8.026v7.735h-8.024v-7.735H575.68z M575.68,279.455h8.026v8.509h-8.024v-8.509H575.68z M575.68,289.536
	h8.026v8.106h-8.024v-8.106H575.68z M575.68,299.215h8.026v8.51h-8.024v-8.51H575.68z"/>
<path fill="#72CCD3" d="M575.678,270.147h8.026v7.735h-8.024L575.678,270.147z M575.678,289.536h8.026v8.106h-8.024L575.678,289.536
	z M575.678,299.215h8.026v8.51h-8.024L575.678,299.215z M575.678,279.455h8.026v8.509h-8.024L575.678,279.455z M646.594,270.147
	h7.975v7.735h-7.975V270.147z M646.594,299.215h7.975v8.51h-7.975V299.215z M646.594,289.536h7.975v8.106h-7.975V289.536z
	 M646.594,279.455h7.975v8.509h-7.975V279.455z"/>
<path fill="#5B6361" d="M635.376,277.883v31.816h20.765v-41.061h-20.765V277.883z M646.594,270.147h7.975v7.735h-7.975V270.147z
	 M646.594,279.455h7.975v8.509h-7.975V279.455z M646.594,289.536h7.975v8.106h-7.975V289.536z M646.594,299.215h7.975v8.51h-7.975
	V299.215z M636.997,270.147h8.025v7.735h-8.024L636.997,270.147L636.997,270.147z M636.997,279.455h8.025v8.509h-8.024
	L636.997,279.455L636.997,279.455z M636.997,289.536h8.025v8.106h-8.024L636.997,289.536L636.997,289.536z M636.997,299.215h8.025
	v8.51h-8.024L636.997,299.215L636.997,299.215z"/>
<path fill="#72CCD3" d="M636.995,270.147h8.026v7.735h-8.024L636.995,270.147z M636.995,289.536h8.026v8.106h-8.024L636.995,289.536
	z M636.995,299.215h8.026v8.51h-8.024L636.995,299.215z M636.995,279.455h8.026v8.509h-8.024L636.995,279.455z M352.767,270.147
	h7.977v7.735h-7.977V270.147z M352.767,299.215h7.977v8.51h-7.977V299.215z M352.767,289.536h7.977v8.106h-7.977V289.536z
	 M352.767,279.455h7.977v8.509h-7.977V279.455z"/>
<path fill="#5B6361" d="M341.548,277.883v31.816h20.765v-41.061h-20.77v9.244H341.548z M352.767,270.147h7.977v7.735h-7.977V270.147
	z M352.767,279.455h7.977v8.509h-7.977V279.455z M352.767,289.536h7.977v8.106h-7.977V289.536z M352.767,299.215h7.977v8.51h-7.977
	V299.215z M343.169,270.147h8.024v7.735h-8.026v-7.735H343.169z M343.169,279.455h8.024v8.509h-8.026v-8.509H343.169z
	 M343.169,289.536h8.024v8.106h-8.026v-8.106H343.169z M343.169,299.215h8.024v8.51h-8.026v-8.51H343.169z"/>
<path fill="#72CCD3" d="M343.169,270.147h8.024v7.735h-8.026L343.169,270.147z M343.169,289.536h8.024v8.106h-8.026L343.169,289.536
	z M343.169,299.215h8.024v8.51h-8.026L343.169,299.215z M343.169,279.455h8.024v8.509h-8.026L343.169,279.455z M423.518,270.147
	h7.976v7.735h-7.976V270.147z M423.518,299.215h7.976v8.51h-7.976V299.215z M423.518,289.536h7.976v8.106h-7.976V289.536z
	 M423.518,279.455h7.976v8.509h-7.976V279.455z"/>
<path fill="#5B6361" d="M412.298,277.883v31.816h20.765v-41.061h-20.77v9.244H412.298z M423.518,270.147h7.976v7.735h-7.976V270.147
	z M423.518,279.455h7.976v8.509h-7.976V279.455z M423.518,289.536h7.976v8.106h-7.976V289.536z M423.518,299.215h7.976v8.51h-7.976
	V299.215z M413.919,270.147h8.024v7.735h-8.026v-7.735H413.919z M413.919,279.455h8.024v8.509h-8.026v-8.509H413.919z
	 M413.919,289.536h8.024v8.106h-8.026v-8.106H413.919z M413.919,299.215h8.024v8.51h-8.026v-8.51H413.919z"/>
<path fill="#72CCD3" d="M413.919,270.147h8.024v7.735h-8.026L413.919,270.147z M413.919,289.536h8.024v8.106h-8.026L413.919,289.536
	z M413.919,299.215h8.024v8.51h-8.026L413.919,299.215z M413.919,279.455h8.024v8.509h-8.026L413.919,279.455z M494.268,270.147
	h7.977v7.735h-7.977V270.147z M494.268,299.215h7.977v8.51h-7.977V299.215z M494.268,289.536h7.977v8.106h-7.977V289.536z
	 M494.268,279.455h7.977v8.509h-7.977V279.455z"/>
<path fill="#5B6361" d="M483.048,277.883v31.816h20.765v-41.061h-20.769v9.244H483.048z M494.268,270.147h7.977v7.735h-7.977
	V270.147z M494.268,279.455h7.977v8.509h-7.977V279.455z M494.268,289.536h7.977v8.106h-7.977V289.536z M494.268,299.215h7.977v8.51
	h-7.977V299.215z M484.669,270.147h8.025v7.735h-8.026L484.669,270.147L484.669,270.147z M484.669,279.455h8.025v8.509h-8.026
	L484.669,279.455L484.669,279.455z M484.669,289.536h8.025v8.106h-8.026L484.669,289.536L484.669,289.536z M484.669,299.215h8.025
	v8.51h-8.026L484.669,299.215L484.669,299.215z"/>
<path fill="#72CCD3" d="M484.669,270.147h8.025v7.735h-8.026L484.669,270.147z M484.669,289.536h8.025v8.106h-8.026L484.669,289.536
	z M484.669,299.215h8.025v8.51h-8.026L484.669,299.215z M484.669,279.455h8.025v8.509h-8.026L484.669,279.455z"/>
<path fill="#DFD6C5" d="M203.573,268.639v-4.836h-23.999v4.835h22.373L203.573,268.639z M264.905,268.639v-4.836h-23.998v4.835
	h22.36L264.905,268.639z M339.765,268.639h23.995v-4.836h-23.995V268.639z M410.684,268.639h23.996v-4.836h-23.996V268.639z
	 M481.423,268.639h24v-4.836h-24V268.639z M594.824,268.639h1.577v-4.836h-23.997v4.835h1.656L594.824,268.639z M656.142,268.639
	h1.51v-4.836h-23.999v4.835h1.724L656.142,268.639z"/>
<path fill="#E2D9C9" d="M205.599,339.681h-31.186v52.67h31.186V339.681z M202.416,355.142v35.9h-25.155v-40.617h0.856
	c1.868-4.88,6.509-8.122,11.723-8.122s9.857,3.242,11.724,8.122h0.855v4.717H202.416z"/>
<path fill="#CCC5AB" d="M172.841,393.924h34.33v-55.548h-34.33v55.552V393.924z M174.413,339.681h31.186v52.67h-31.186V339.681z
	 M172.527,336.801h34.991l-17.382-10.612L172.527,336.801z"/>
<path fill="#E2D9C9" d="M166.871,338.373h46.244l-22.974-14.024l-23.269,14.024H166.871z M172.527,336.801l17.609-10.612
	l17.382,10.612H172.527z"/>
<path fill="#72CCD3" d="M178.831,377.678h10.125v11.792h-10.125V377.678z M179.416,351.461l-0.18,0.537h-0.403v3.145h10.125v-11.194
	C184.606,344.302,180.829,347.211,179.416,351.461L179.416,351.461z M200.261,351.461c-1.431-4.312-5.296-7.245-9.729-7.531v11.213
	h10.314v-3.145h-0.402L200.261,351.461L200.261,351.461z M190.529,377.678h10.313v11.792h-10.313V377.678z"/>
<path fill="#576C6E" d="M189.837,342.303c-5.211,0-9.854,3.242-11.722,8.122h-0.854v40.617h25.155v-40.617h-0.854
	c-1.868-4.88-6.509-8.122-11.723-8.122H189.837z M188.956,389.47h-10.125v-11.792h10.125V389.47z M188.956,376.106h-10.125v-19.392
	h10.125V376.106z M188.956,355.142h-10.125v-3.145h0.405l0.18-0.537c1.415-4.25,5.188-7.16,9.543-7.516v11.197H188.956z
	 M200.842,389.47h-10.313v-11.792h10.313V389.47z M200.842,376.106h-10.313v-19.392h10.313V376.106z M200.842,355.142h-10.313
	v-11.21c4.434,0.283,8.298,3.217,9.732,7.528l0.179,0.537h0.402V355.142L200.842,355.142z"/>
<path fill="#72CCD3" d="M190.529,356.715h10.313v19.392h-10.313V356.715z M178.831,356.715h10.125v19.392h-10.125V356.715z"/>
<path fill="#E2D9C9" d="M266.523,339.681h-31.186v52.67h31.186V339.681z M263.34,355.142v35.9h-25.155v-40.617h0.856
	c1.868-4.88,6.509-8.122,11.723-8.122s9.858,3.242,11.725,8.122h0.854v4.717H263.34z"/>
<path fill="#CCC5AB" d="M233.765,393.924h34.33v-55.548h-34.33v55.552V393.924z M235.337,339.681h31.186v52.67h-31.186V339.681z
	 M233.45,336.801h34.992l-17.383-10.612L233.45,336.801z"/>
<path fill="#E2D9C9" d="M227.795,338.373h46.244l-22.974-14.024l-23.269,14.024H227.795z M233.45,336.801l17.609-10.612
	l17.383,10.612H233.45z"/>
<path fill="#72CCD3" d="M239.755,377.678h10.125v11.792h-10.125V377.678z M240.34,351.461l-0.18,0.537h-0.403v3.145h10.125v-11.194
	c-4.353,0.354-8.129,3.263-9.54,7.513H240.34z M261.185,351.461c-1.431-4.312-5.295-7.245-9.729-7.531v11.213h10.314v-3.145h-0.402
	l-0.181-0.537H261.185z M251.452,377.678h10.314v11.792h-10.314V377.678z"/>
<path fill="#576C6E" d="M250.761,342.303c-5.211,0-9.854,3.242-11.721,8.122h-0.855v40.617h25.155v-40.617h-0.854
	c-1.868-4.88-6.509-8.122-11.723-8.122H250.761z M249.88,389.47h-10.125v-11.792h10.125V389.47z M249.88,376.106h-10.125v-19.392
	h10.125V376.106z M249.88,355.142h-10.125v-3.145h0.405l0.18-0.537c1.415-4.25,5.188-7.16,9.543-7.516v11.197H249.88z
	 M261.767,389.47h-10.314v-11.792h10.314V389.47z M261.767,376.106h-10.314v-19.392h10.314V376.106z M261.767,355.142h-10.314
	v-11.21c4.434,0.283,8.299,3.217,9.732,7.528l0.179,0.537h0.403V355.142z"/>
<path fill="#72CCD3" d="M251.452,356.715h10.314v19.392h-10.314V356.715z M239.755,356.715h10.125v19.392h-10.125V356.715z"/>
<path fill="#E2D9C9" d="M601.015,339.681h-31.186v52.67h31.186V339.681z M597.832,355.142v35.9h-25.155v-40.617h0.856
	c1.868-4.88,6.51-8.122,11.723-8.122c5.214,0,9.858,3.242,11.725,8.122h0.855v4.717H597.832z"/>
<path fill="#CCC5AB" d="M568.257,393.924h34.33v-55.548h-34.33v55.552V393.924z M569.829,339.681h31.186v52.67h-31.186V339.681z
	 M585.552,326.191l-17.609,10.609h34.992L585.552,326.191z"/>
<path fill="#E2D9C9" d="M602.587,338.373h5.942l-22.973-14.024l-23.27,14.024H602.587L602.587,338.373z M585.552,326.188
	l17.383,10.612h-34.992L585.552,326.188z"/>
<path fill="#72CCD3" d="M574.247,377.678h10.125v11.792h-10.125V377.678z M574.832,351.461l-0.18,0.537h-0.403v3.145h10.125v-11.194
	c-4.352,0.354-8.129,3.263-9.54,7.513H574.832z M595.677,351.461c-1.431-4.312-5.295-7.245-9.729-7.531v11.213h10.313v-3.145h-0.402
	l-0.181-0.537H595.677z M585.945,377.678h10.314v11.792h-10.314V377.678z"/>
<path fill="#576C6E" d="M585.253,342.303c-5.21,0-9.854,3.242-11.721,8.122h-0.855v40.617h25.155v-40.617h-0.854
	c-1.868-4.88-6.509-8.122-11.723-8.122H585.253z M584.372,389.47h-10.125v-11.792h10.125V389.47z M584.372,376.106h-10.125v-19.392
	h10.125V376.106z M584.372,355.142h-10.125v-3.145h0.405l0.18-0.537c1.415-4.25,5.188-7.16,9.544-7.516v11.197H584.372z
	 M596.259,389.47h-10.314v-11.792h10.314V389.47z M596.259,376.106h-10.314v-19.392h10.314V376.106z M596.259,355.142h-10.314
	v-11.21c4.434,0.283,8.299,3.217,9.732,7.528l0.18,0.537h0.402V355.142L596.259,355.142z"/>
<path fill="#72CCD3" d="M585.945,356.715h10.314v19.392h-10.314V356.715z M574.247,356.715h10.125v19.392h-10.125V356.715z"/>
<path fill="#E2D9C9" d="M478.247,392.351h31.185v-52.67h-31.185V392.351z M481.093,355.142v-4.717h0.856
	c1.868-4.88,6.509-8.122,11.723-8.122s9.857,3.242,11.725,8.122h0.854v40.617h-25.155v-35.9H481.093z"/>
<path fill="#CCC5AB" d="M492.048,393.924h18.958v-55.548h-34.328v55.551h15.37V393.924z M509.432,339.681v52.67h-31.185v-52.67
	H509.432z M493.969,326.191l-17.608,10.609h34.991L493.969,326.191z"/>
<path fill="#E2D9C9" d="M516.948,338.373l-22.971-14.024l-23.269,14.024h46.241H516.948z M476.361,336.801l17.608-10.612
	l17.383,10.612H476.361L476.361,336.801z"/>
<path fill="#72CCD3" d="M482.665,377.678h10.125v11.792h-10.125V377.678z M492.79,343.947c-4.355,0.354-8.129,3.264-9.54,7.515
	l-0.18,0.535h-0.404v3.144h10.125L492.79,343.947L492.79,343.947z M504.676,351.998h-0.4l-0.18-0.537
	c-1.431-4.312-5.295-7.245-9.729-7.531v11.213h10.313v-3.145H504.676z M494.363,377.678h10.313v11.792h-10.313V377.678z"/>
<path fill="#576C6E" d="M481.093,391.043h25.155v-40.617h-0.854c-1.868-4.88-6.509-8.122-11.723-8.122s-9.854,3.242-11.721,8.122
	h-0.855v40.617H481.093z M494.363,343.93c4.434,0.283,8.298,3.219,9.731,7.531l0.18,0.535h0.402v3.144h-10.313V343.93
	L494.363,343.93z M494.363,356.713h10.313v19.394h-10.313v-19.392V356.713z M494.363,377.678h10.313v11.792h-10.313V377.678z
	 M482.665,351.998h0.405l0.18-0.537c1.414-4.25,5.188-7.16,9.543-7.516v11.197h-10.125v-3.145H482.665z M482.665,356.715h10.125
	v19.392h-10.125V356.715z M492.79,377.678v11.792h-10.125v-11.792H492.79z"/>
<path fill="#72CCD3" d="M494.363,356.715h10.313v19.392h-10.313V356.715z M482.665,356.715h10.125v19.392h-10.125V356.715z"/>
<path fill="#E2D9C9" d="M367.146,339.681H335.96v52.67h31.186V339.681z M363.963,355.142v35.9h-25.155v-40.617h0.856
	c1.868-4.88,6.509-8.122,11.723-8.122s9.857,3.242,11.724,8.122h0.855v4.717H363.963z"/>
<path fill="#CCC5AB" d="M334.388,393.924h34.33v-55.548h-34.33v55.552V393.924z M335.96,339.681h31.186v52.67H335.96V339.681z
	 M334.073,336.801h34.991l-17.382-10.612L334.073,336.801z"/>
<path fill="#E2D9C9" d="M373.604,337.728l-21.917-13.38l-23.269,14.024h46.242L373.604,337.728z M334.073,336.801l17.609-10.612
	l17.382,10.612H334.073z"/>
<path fill="#72CCD3" d="M340.378,377.678h10.125v11.792h-10.125V377.678z M340.963,351.461l-0.18,0.537h-0.403v3.145h10.125v-11.194
	C346.153,344.302,342.376,347.211,340.963,351.461L340.963,351.461z M361.808,351.461c-1.431-4.312-5.296-7.245-9.729-7.531v11.213
	h10.314v-3.145h-0.402L361.808,351.461L361.808,351.461z M352.075,377.678h10.313v11.792h-10.313V377.678z"/>
<path fill="#576C6E" d="M351.384,342.303c-5.211,0-9.854,3.242-11.722,8.122h-0.854v40.617h25.155v-40.617h-0.854
	c-1.868-4.88-6.509-8.122-11.723-8.122H351.384z M350.503,389.47h-10.125v-11.792h10.125V389.47z M350.503,376.106h-10.125v-19.392
	h10.125V376.106z M350.503,355.142h-10.125v-3.145h0.405l0.18-0.537c1.415-4.25,5.188-7.16,9.543-7.516v11.197H350.503z
	 M362.389,389.47h-10.313v-11.792h10.313V389.47z M362.389,376.106h-10.313v-19.392h10.313V376.106z M362.389,355.142h-10.313
	v-11.21c4.434,0.283,8.298,3.217,9.732,7.528l0.179,0.537h0.402V355.142z"/>
<path fill="#72CCD3" d="M352.075,356.715h10.313v19.392h-10.313V356.715z M340.378,356.715h10.125v19.392h-10.125V356.715z"/>
<path fill="#E2D9C9" d="M405.924,339.681v84.114h31.186v-84.114H405.924z M433.926,355.142v67.345H408.77v-72.062h0.857
	c1.867-4.88,6.509-8.122,11.723-8.122c5.213,0,9.857,3.242,11.724,8.122h0.855v4.717H433.926z"/>
<path fill="#CCC5AB" d="M404.352,338.373v86.996h34.33v-86.993h-34.33V338.373z M437.11,423.797h-31.186v-84.114h31.186V423.797z
	 M404.037,336.801h34.992l-17.383-10.612L404.037,336.801z"/>
<path fill="#E2D9C9" d="M404.352,338.373h40.274l-22.974-14.024l-0.88,0.531l-22.389,13.493h5.971H404.352z M439.03,336.801h-34.992
	l17.609-10.612L439.03,336.801z"/>
<path fill="#72CCD3" d="M410.342,377.678h10.125v27.515h-10.125V377.678z M410.927,351.461l-0.179,0.537h-0.404v3.145h10.125
	v-11.194c-4.352,0.354-8.129,3.263-9.54,7.513H410.927z M431.772,351.461c-1.431-4.312-5.295-7.245-9.729-7.531v11.213h10.313
	v-3.145h-0.402l-0.181-0.537H431.772z M422.039,377.678h10.314v27.515h-10.314V377.678z"/>
<path fill="#576C6E" d="M421.348,342.303c-5.21,0-9.854,3.242-11.721,8.122h-0.855v72.062h25.155v-72.062h-0.854
	c-1.868-4.88-6.509-8.122-11.723-8.122H421.348z M420.467,405.193h-10.125v-27.515h10.125V405.193z M420.467,376.106h-10.125
	v-19.392h10.125V376.106z M420.467,355.142h-10.125v-3.145h0.406l0.179-0.537c1.415-4.25,5.188-7.16,9.544-7.516v11.197H420.467z
	 M432.354,405.193h-10.314v-27.515h10.314V405.193z M432.354,376.106h-10.314v-19.392h10.314V376.106z M432.354,355.142h-10.314
	v-11.21c4.434,0.283,8.299,3.217,9.732,7.528l0.18,0.537h0.402V355.142L432.354,355.142z"/>
<path fill="#72CCD3" d="M422.039,356.715h10.314v19.392h-10.314V356.715z M410.342,356.715h10.125v19.392h-10.125V356.715z"/>
<path fill="#E2D9C9" d="M661.939,339.681h-31.186v52.67h31.186V339.681z M658.756,355.142v35.9h-25.155v-40.617h0.856
	c1.868-4.88,6.51-8.122,11.723-8.122c5.214,0,9.858,3.242,11.725,8.122h0.855v4.717H658.756z"/>
<path fill="#CCC5AB" d="M629.181,393.924h34.33v-55.548h-34.33v55.552V393.924z M630.753,339.681h31.186v52.67h-31.186V339.681z
	 M646.476,326.191l-17.609,10.609h34.992L646.476,326.191z"/>
<path fill="#E2D9C9" d="M663.511,338.373h5.943l-22.974-14.024l-23.27,14.024h40.302H663.511z M646.476,326.188l17.383,10.612
	h-34.992L646.476,326.188z"/>
<path fill="#72CCD3" d="M635.171,377.678h10.126v11.792h-10.126V377.678z M635.756,351.461l-0.179,0.537h-0.404v3.145h10.125
	v-11.194c-4.352,0.354-8.128,3.263-9.54,7.513H635.756z M656.601,351.461c-1.431-4.312-5.295-7.245-9.729-7.531v11.213h10.313
	v-3.145h-0.402l-0.181-0.537H656.601z M646.869,377.678h10.313v11.792h-10.313V377.678z"/>
<path fill="#576C6E" d="M646.177,342.303c-5.21,0-9.854,3.242-11.721,8.122h-0.855v40.617h25.155v-40.617h-0.854
	c-1.867-4.88-6.509-8.122-11.723-8.122H646.177z M645.297,389.47h-10.126v-11.792h10.126V389.47z M645.297,376.106h-10.126v-19.392
	h10.126V376.106z M645.297,355.142h-10.126v-3.145h0.406l0.179-0.537c1.415-4.25,5.188-7.16,9.544-7.516v11.197H645.297z
	 M657.183,389.47h-10.313v-11.792h10.313V389.47z M657.183,376.106h-10.313v-19.392h10.313V376.106z M657.183,355.142h-10.313
	v-11.21c4.434,0.283,8.298,3.217,9.731,7.528l0.18,0.537h0.402V355.142L657.183,355.142z"/>
<path fill="#72CCD3" d="M646.869,356.715h10.313v19.392h-10.313V356.715z M635.171,356.715h10.126v19.392h-10.126V356.715z"/>
<path d="M420.959,167.144c-0.062,0-0.122,0-0.186-0.01c-0.864-0.101-1.478-0.884-1.377-1.745l1.572-13.364
	c0.099-0.861,0.874-1.483,1.745-1.377c0.86,0.101,1.478,0.884,1.376,1.745l-1.572,13.364
	C422.423,166.559,421.744,167.145,420.959,167.144L420.959,167.144z M420.926,167.191c-0.322,0-0.647-0.099-0.927-0.305
	l-12.161-8.924c-0.7-0.513-0.85-1.497-0.337-2.197c0.513-0.697,1.493-0.849,2.196-0.336l12.16,8.922
	c0.699,0.513,0.849,1.497,0.338,2.197c-0.309,0.419-0.786,0.641-1.271,0.641L420.926,167.191z"/>
<path fill="none" d="M483.901,405.482c-0.786,2.287-0.975,4.355-0.978,5.874C482.947,410.428,483.083,408.173,483.901,405.482z
	 M329.034,368.236c1.683,0.629,3.082,1.152,4.062,1.521l0.786-0.173l-4.851-1.349H329.034z M452.327,420.002
	c2.798-0.028,5.624-0.047,7.919-0.173l-17.304,0.271c2.196,0.072,5.745-0.063,9.386-0.1L452.327,420.002z"/>
<path fill="#434240" d="M371.861,361.037h3.931v-3.271h-8.91v4.796c1.892-0.367,3.56-0.674,4.979-0.912V361.037z"/>
<path fill="#F26A63" d="M333.885,369.585c0.905-0.204,1.815-0.405,2.73-0.608v-7.279h-14.149v4.104
	c2.416,0.89,4.674,1.729,6.568,2.438l4.849,1.346L333.885,369.585z"/>
<path fill="#434240" d="M301.037,377.053c0,0,15.241-3.544,32.059-7.296l-4.062-1.521c-1.895-0.708-4.15-1.544-6.568-2.438
	c-2.819-1.037-5.854-2.148-8.808-3.215l-4.582,12.22l-0.735-0.278l4.58-12.212c-7.651-2.751-14.544-5.114-15.22-4.946
	c-1.572,0.394-5.503,12.185-6.289,14.543s2.752,7.469,2.752,7.469l2.729-0.61c1.096-0.896,2.449-1.516,4.146-1.679v-0.036H301.037z"
	/>
<path fill="#F26A63" d="M309.078,374.804l4.581-12.219l0.136-0.358l-0.739-0.277l-0.136,0.368l-4.579,12.21L309.078,374.804z"/>
<path fill="#434240" d="M531.179,383.413l-48.443-5.601l-1.106,3.135c13.73,1.359,35.983,3.44,49.026,4.749l0.525-2.283H531.179z
	 M549.655,398.247c0-0.098-0.031-0.186-0.083-0.268c-0.252,0.003-2.265,0.02-4.487,0.023c-2.353,0.022-4.707,0.038-7.062,0.056
	l-3.006,0.041c-0.17,3.736-1.154,16.11-6.714,16.516v1.192c0,0,12.053,0.13,17.295,0c-2.358-2.752-3.145-7.075-2.752-8.647
	c6.289,0,6.812-7.469,6.812-8.91L549.655,398.247z"/>
<path fill="#BDBDBD" d="M493.771,392.146c-1.677,0.956-3.094,1.969-4.315,3.015c0.676,0,1.34,0,2.019-0.004
	c3.211-2.075,7.616-3.493,13.691-3.493c5.637,0,9.905,1.355,13.139,3.393c3.72-0.019,7.489-0.039,11.278-0.062
	c-12.125-7.091-26.713-8.029-35.815-2.846L493.771,392.146z M367.471,389.72l-0.196,0.01H340.94c-3.781,0-8.645,0.547-14.257,4.201
	l4.292,0.078c3.439-2.021,7.801-3.343,13.398-3.343c5.87,0,10.35,1.5,13.775,3.766c31.498,0.43,74.822,0.813,126.571,0.734
	c1.836-2.139,4.222-4.202,7.427-6.029c10.638-6.062,27.788-2.866,41.523,5.823c3.29-0.021,6.587-0.042,9.93-0.07
	c-1.045-4.615-3.773-8.17-3.773-8.17c0.338,0,0.645,0.044,0.959,0.076c-1.073-0.174-4.842-0.576-10.135-1.105
	c-13.043-1.306-35.296-3.387-49.025-4.748c-6.635-0.656-11.277-1.144-11.928-1.293c-2.598-0.598-40.166-16.587-46.762-16.587
	s-39.966-1.997-46.56-1.997c-0.157,0-0.362,0.012-0.585,0.028v20.12C375.791,387.284,370.348,389.432,367.471,389.72L367.471,389.72
	z M383.39,364.447c0,0,35.375,0.393,40.484,0.393c3.195,0,14.999,5.994,23.396,10.487c3.039,0.768,8.836,4.843,8.836,4.843
	l-16.509,0.094l-5.011,0.027l-1.845,0.026l0.007-0.019l-47.394,0.264l-2.504,0.055l-0.367-16.193l0.907,0.021L383.39,364.447z
	 M333.099,369.758c-16.818,3.752-32.062,7.296-32.062,7.296v0.04c0.136-0.012,0.265-0.034,0.403-0.042v17.373h0.021v-1.037
	c0.245,0.006,6.847,0.182,18.886,0.424c8.285-7.174,15.718-8.012,20.593-8.012h26.219c0.755-0.1,4.701-0.802,4.701-4.586v-0.654
	l-4.984-0.016l0.399-15.702h4.587v-3.191c-1.42,0.24-3.088,0.547-4.979,0.912c-7.814,1.506-19.172,3.955-30.266,6.414
	c-0.915,0.205-1.824,0.409-2.732,0.608L333.099,369.758L333.099,369.758z M363.737,365.233v15.463l-44.285,0.755v0.031h-7.468
	c-1.703,0-0.786-0.131-0.655-1.835c0.112-1.469,5.955-3.514,7.571-4.054l0.027-0.141L363.737,365.233L363.737,365.233z"/>
<path fill="#9B9B9A" d="M322.678,397.005c-5.456,4.91-8.358,15.466-9.096,18.489c2.044,0.987,4.088,1.925,6.042,2.727
	c-1.132-4.462-0.399-8.439,1.126-11.808c1.269-3.134,3.191-6.509,6.127-9.331l-4.197-0.079L322.678,397.005z M301.462,396.53v-2.106
	h-0.022v2.012l0.048,12.599c0,0-0.072-0.013-0.177-0.036c2.527,1.437,5.531,3.093,8.667,4.701c0.905-3.507,3.27-11.273,7.499-16.8
	C307.267,396.688,301.687,396.538,301.462,396.53L301.462,396.53z M477.465,410.71c0.343-0.89,0.667-1.926,1.007-3.021
	c0.869-2.778,1.899-6.069,3.928-9.355c-3.588,0.009-7.134,0.013-10.565,0.013c-44.171,0-81.511-0.326-109.893-0.702
	c2.813,3.05,4.504,6.669,5.465,9.932c0,0.006-0.072,0.016-0.188,0.028c0.773,1.737,1.387,3.593,1.673,5.578l107.965-1.292
	c0.238-0.378,0.456-0.768,0.613-1.18H477.465z M481.738,408.019c-0.335,1.077-1.018,2.775-1.428,3.826l2.606-0.032
	c0-0.021,0-0.191,0.007-0.459c0-1.519,0.193-3.584,0.978-5.874c0.691-2.279,1.882-4.852,3.899-7.158h-1.392
	c-2.531,3.227-3.706,6.608-4.67,9.694L481.738,408.019z M535.014,398.1l-0.768,0.011l-0.031-0.023
	c-4.057,0.028-8.097,0.056-12.125,0.079c5.525,5.89,6.198,13.894,6.15,15.628c0.007,0.273,0.021,0.546,0.016,0.825
	c0.016,0,0.032-0.005,0.045-0.006C533.859,414.211,534.841,401.836,535.014,398.1L535.014,398.1z"/>
<path fill="#838280" d="M301.439,396.435v-19.382c-0.137,0.006-0.268,0.031-0.401,0.04c-1.697,0.164-3.05,0.783-4.145,1.68
	c-5.081,4.161-4.38,14.656-4.114,17.263c4.162-0.006,8.658-0.021,8.658-0.021v0.421H301.439z"/>
<path fill="#434240" d="M301.439,396.435v-0.421c0,0-4.497,0.016-8.66,0.021h-2.327c0.185,10.2,9.516,12.661,10.859,12.961
	c0.104,0.025,0.174,0.038,0.174,0.038l-0.048-12.597L301.439,396.435z"/>
<path fill="#565A5B" d="M543.605,394.891c-3.346,0.028-6.643,0.048-9.934,0.072c1.533,0.971,3.034,1.992,4.47,3.095h-0.119
	c2.354-0.016,4.709-0.031,7.062-0.052h-1.082c-0.023-1.074-0.176-2.118-0.4-3.113L543.605,394.891z M518.308,395.058
	c1.459,0.918,2.715,1.972,3.781,3.109c4.024-0.023,8.068-0.05,12.121-0.078c-1.483-1.144-3.034-2.17-4.622-3.098
	C525.796,395.017,522.029,395.04,518.308,395.058z M301.462,394.427v2.106c0.227,0.005,5.805,0.157,16.018,0.366
	c0.853-1.113,1.773-2.138,2.78-3.019l0.09-0.07c-12.036-0.239-18.638-0.417-18.883-0.425v1.041H301.462z M322.841,396.847
	c-0.057,0.047-0.106,0.105-0.163,0.157l4.198,0.079c1.187-1.137,2.56-2.17,4.099-3.072l-4.292-0.079
	c-1.249,0.81-2.532,1.768-3.843,2.913L322.841,396.847z M358.153,394.434c1.439,0.952,2.704,2.031,3.789,3.207
	c28.382,0.378,65.722,0.703,109.891,0.703c3.434,0,6.978-0.005,10.568-0.012c0.656-1.062,1.428-2.122,2.324-3.166
	C432.973,395.249,389.652,394.868,358.153,394.434L358.153,394.434z M486.41,398.325h1.393c1.003-1.147,2.217-2.225,3.674-3.168
	c-0.681,0-1.342,0-2.02,0.004c-1.201,1.028-2.201,2.088-3.047,3.166V398.325z"/>
<path fill="#838280" d="M543.605,394.891c0.225,0.999,0.377,2.044,0.399,3.113h1.082c2.223-0.006,4.235-0.022,4.486-0.025h0.057
	c0,0-0.849-10.388-8.84-11.182c-0.318-0.031-0.625-0.078-0.963-0.078c0,0,2.729,3.558,3.773,8.172H543.605z"/>
<path fill="#434240" d="M442.941,420.101l17.306-0.271c1.74-0.095,3.184-0.249,4.036-0.524c2.83-0.915,9.941-3.229,12.573-7.421
	l-107.965,1.293l-0.633,0.008l0.59,8.058l73.644-1.14l0.009-0.022c0.136,0.008,0.295,0.011,0.44,0.016V420.101z M518.308,395.058
	c-3.239-2.038-7.503-3.393-13.14-3.393c-6.075,0-10.48,1.415-13.691,3.493c-1.459,0.943-2.672,2.019-3.674,3.166
	c-2.019,2.307-3.207,4.881-3.899,7.159c-0.817,2.688-0.956,4.947-0.979,5.873c-0.006,0.268-0.005,0.438-0.006,0.456l-2.605,0.032
	l-0.101,0.259c-1.399,3.623-4.299,5.88-7.73,7.537l10.748-0.166v-4.531l1.501-0.031c0.031-0.479,1.462-20.298,20.37-20.298
	c16.662,0,19.092,15.353,19.438,19.396l0.755-0.017l2.938-0.006c0.005-0.051,0.006-0.119,0.009-0.193
	c0.048-1.732-0.625-9.735-6.15-15.625c-1.068-1.142-2.323-2.194-3.782-3.113V395.058z M361.942,397.643
	c-1.085-1.177-2.35-2.255-3.789-3.208c-3.428-2.264-7.904-3.767-13.776-3.767c-5.597,0-9.958,1.32-13.4,3.343
	c-1.54,0.903-2.913,1.934-4.097,3.073c-2.938,2.824-4.858,6.198-6.127,9.333c-0.401,0.99-0.739,1.957-1.022,2.874
	c-0.025,0.083,1.211,0.098,3.276,0.066c2.257-6.691,7.796-15.638,21.308-15.638c12.474,0,17.797,7.622,20.077,14.056
	c1.462-0.075,2.452-0.136,2.83-0.17c0.116-0.013,0.188-0.022,0.188-0.028C366.448,404.314,364.755,400.695,361.942,397.643
	L361.942,397.643z"/>
<path fill="#BDBDBD" d="M344.309,393.716c-13.512,0-19.051,8.946-21.304,15.638c-1.346,3.993-1.522,7.185-1.522,7.185h44.612
	c0,0-0.042-4.065-1.707-8.765c-2.28-6.437-7.605-14.06-20.078-14.06L344.309,393.716z M505.101,394.615
	c-18.911,0-20.342,19.819-20.371,20.298v0.016l-0.025,0.436h39.894v-0.387c0-0.025-0.01-0.378-0.06-0.966
	C524.193,409.968,521.762,394.615,505.101,394.615L505.101,394.615z"/>
<path fill="#434240" d="M321.382,416.566h44.684v5.245h-44.684V416.566z M484.434,415.364v5.245h40.275v-5.245h-40.004H484.434z"/>
<path fill="#F0EFEE" d="M432.749,380.299c0.074-0.189,1.879-4.878,2.391-6.289c0.524-1.438,2.49-0.394,1.965,0.657
	c-0.519,1.044-2.503,5.586-2.519,5.622l5.009-0.028l16.509-0.095h-16.509v-1.965c0-3.013,4.193-3.013,6.814-3.013
	c0.247,0,0.542,0.056,0.858,0.136c-8.396-4.49-20.198-10.487-23.395-10.487c-5.11,0-40.485-0.393-40.485-0.393l1.966,16.115
	L432.749,380.299z M388.622,378.726c0.393-0.195,1.833-0.915,0.196-1.768s1.635-7.336,4.062-7.665
	c2.426-0.328,2.555,3.868,2.292,6.028c-0.26,2.16-1.636,1.701-1.636,1.701s0.197,0.327,0.197,1.639c2.555,0,2.488,1.833,2.488,1.833
	s-7.641,0.041-8.752,0.041c-0.129-0.654,0.762-1.613,1.155-1.809L388.622,378.726z M318.902,375.594l0.421-0.139l0.131,5.996
	l44.286-0.755V365.23l-44.809,10.219l-0.028,0.142L318.902,375.594z"/>
<path fill="#434240" d="M366.875,380.544l4.983,0.016v-15.72h-4.584L366.875,380.544z"/>
<path fill="#8C8C8C" d="M385.355,380.562l-1.965-16.115l-0.906-0.023l0.368,16.193L385.355,380.562z"/>
<path fill="#434240" d="M318.902,375.594c-1.616,0.539-7.459,2.586-7.572,4.053c-0.129,1.704-1.047,1.835,0.657,1.835h7.468v-0.031
	l-0.132-5.995L318.902,375.594L318.902,375.594z M439.595,378.204v1.966h16.509c0,0-5.797-4.075-8.836-4.843
	c-0.314-0.082-0.613-0.137-0.858-0.137C443.788,375.19,439.595,375.19,439.595,378.204z M435.141,374.01
	c-0.513,1.41-2.318,6.101-2.39,6.289l-0.008,0.016l1.843-0.023v-0.003c0.016-0.036,2-4.578,2.521-5.622
	c0.522-1.049-1.443-2.096-1.965-0.656H435.141z M396.22,380.496c0,0,0.066-1.833-2.488-1.833c0-1.312-0.196-1.638-0.196-1.638
	s1.376,0.459,1.635-1.703c0.265-2.163,0.134-6.358-2.29-6.029c-2.425,0.328-5.698,6.812-4.062,7.664
	c1.637,0.853,0.196,1.572-0.196,1.77c-0.394,0.196-1.285,1.153-1.154,1.808c1.116,0.003,8.754-0.039,8.754-0.039L396.22,380.496z"/>
<path fill="#F26A63" d="M480.207,412.104l0.101-0.259c0.412-1.054,1.095-2.752,1.431-3.827c0.963-3.087,2.136-6.468,4.67-9.693
	c0.849-1.078,1.849-2.138,3.05-3.164c1.221-1.046,2.637-2.06,4.314-3.015c9.101-5.185,23.688-4.245,35.815,2.846
	c1.588,0.928,3.139,1.955,4.622,3.098l0.035,0.021l0.767-0.011l3.007-0.041h0.119c-1.434-1.101-2.937-2.122-4.47-3.094
	c-13.735-8.689-30.887-11.886-41.522-5.823c-3.208,1.826-5.591,3.89-7.428,6.029c-0.896,1.042-1.666,2.104-2.323,3.166
	c-2.028,3.283-3.059,6.577-3.926,9.355c-0.34,1.094-0.664,2.129-1.007,3.019c-0.157,0.412-0.372,0.802-0.613,1.179
	c-2.63,4.19-9.741,6.505-12.571,7.421c-0.853,0.274-2.295,0.428-4.034,0.522c-2.296,0.126-5.119,0.142-7.919,0.17
	c-3.641,0.034-7.188,0.17-9.387,0.098l-0.44-0.017l-0.011,0.022l-0.043,0.087c0.96,0.047,5.739,2.764,10.877,2.764
	c4.812,0,9.846,0.09,12.194-0.672c2.369-0.766,4.773-1.583,6.965-2.641c3.434-1.662,6.336-3.92,7.73-7.541H480.207z
	 M322.678,397.005c0.055-0.052,0.105-0.11,0.163-0.16c1.314-1.147,2.595-2.104,3.842-2.915c5.612-3.654,10.474-4.201,14.255-4.201
	h26.335l0.196-0.01c2.877-0.289,8.32-2.437,8.32-8.505v-20.177h-3.931v20.177c0,3.784-3.946,4.486-4.701,4.586h-26.22
	c-4.874,0-12.308,0.836-20.593,8.011l-0.092,0.072c-1.006,0.877-1.927,1.902-2.779,3.019c-4.232,5.526-6.596,13.291-7.5,16.799
	c-0.271,1.033-0.416,1.709-0.439,1.83l3.846,0.807c0.004-0.021,0.073-0.338,0.197-0.844c0.739-3.023,3.641-13.58,9.098-18.489
	L322.678,397.005z"/>
<ellipse fill="#CD9C89" cx="422.58" cy="504.638" rx="69.048" ry="3.538"/>
<path fill="#D3CF77" d="M362.311,452.231h3.145v52.146h-3.145V452.231z"/>
<path fill="#B8BD82" d="M365.455,452.231h1.441v52.146h-1.44L365.455,452.231z"/>
<path fill="#94AE70" d="M366.897,452.231v52.146h1.442v-52.146H366.897z"/>
<path fill="#D3CF77" d="M480.359,452.231h3.145v52.146h-3.145V452.231z"/>
<path fill="#B8BD82" d="M478.918,452.231h1.44v52.146h-1.44V452.231z"/>
<path fill="#94AE70" d="M478.918,452.231v52.146h-1.441v-52.146H478.918z M357.522,449.544H489.46v8.145H357.522V449.544z
	 M357.522,460.539H489.46v8.144H357.522V460.539z M357.522,471.535H489.46v8.145H357.522V471.535z"/>
<path fill="#6A8D3C" d="M354.537,483.171h137.094v1.629H354.537V483.171z"/>
<path fill="#637432" d="M354.403,484.838h137.094v1.629H354.403V484.838z"/>
<path fill="none" d="M268.555,327.386l-0.145-0.817l-2.965,40.629L268.555,327.386z"/>
<path fill="#CD9C89" d="M271.699,499.365v-2.704c-3.506,0.416-5.963,1.387-5.963,2.521c0,1.509,4.37,2.732,9.759,2.732
	c5.388,0,9.759-1.224,9.759-2.732c0-1.156-2.567-2.142-6.187-2.541v2.725H271.699L271.699,499.365z"/>
<g>
	<path fill="#9D6C48" d="M271.699,496.662v2.705h7.371v-50.018h-7.371V496.662z"/>
	<path fill="#A3CE53" d="M268.653,326.124l-0.057,0.761l0.541,1.877L268.653,326.124z M265.446,367.198l-6.001,82.149h30.828
		l-21.714-121.961L265.446,367.198z"/>
	<path fill="#BEDB89" d="M268.458,325.927l-0.056,0.295l0.028,0.09L268.458,325.927z M268.41,326.569l-0.036-0.197L245.66,449.741
		h13.757l0.027-0.394l6.001-82.149L268.41,326.569z"/>
	<path fill="#008E45" d="M269.137,328.76l-0.541-1.876l-0.166-0.57l-0.027-0.09l-0.142-0.492l0.115,0.642l0.036,0.198l0.145,0.817
		l21.714,121.955h13.759L269.137,328.76z"/>
</g>
<path fill="none" d="M562.563,327.386l-0.145-0.817l-2.966,40.629L562.563,327.386z"/>
<path fill="#CD9C89" d="M565.707,499.365v-2.704c-3.506,0.416-5.964,1.387-5.964,2.521c0,1.509,4.371,2.732,9.759,2.732
	c5.389,0,9.759-1.224,9.759-2.732c0-1.156-2.567-2.142-6.187-2.541v2.725h-7.369H565.707z"/>
<path fill="#9D6C48" d="M565.707,496.662v2.705h7.37v-50.018h-7.37V496.662z"/>
<path fill="#A3CE53" d="M562.66,326.124l-0.057,0.761l0.541,1.877L562.66,326.124z M559.452,367.198l-6.001,82.149h30.828
	l-21.714-121.961L559.452,367.198z"/>
<path fill="#BEDB89" d="M562.465,325.927l-0.055,0.295l0.028,0.09L562.465,325.927z M562.418,326.569l-0.036-0.197l-22.714,123.369
	h13.757l0.026-0.394l6.001-82.149L562.418,326.569z"/>
<path fill="#008E45" d="M563.145,328.76l-0.541-1.876l-0.167-0.57l-0.026-0.09l-0.142-0.492l0.114,0.642l0.037,0.198l0.145,0.817
	l21.714,121.955h13.759L563.145,328.76z"/>
<g>
	<path fill="#E4523F" d="M337.414,88.642c-1.957-2.448-5.951-1.666-8.458,4.335l-15.612,38.027l-6.216,0.838l8.436-20.604
		l-9.235,1.241l-3.034,7.462c-13.982,34.011-48.411,18.7-39.72-2.241c3.184-7.663,9.361-8.797,9.361-8.797l1.737,4.408
		c0,0-4.171,1.708-6.085,6.305c-6.14,14.811,18.836,24.829,29.72-1.773l9.572-23.353c-6.174,4.268-16.689,5.864-18.867,11.163
		c-2.326,5.555,3.299,7.028,3.299,7.028l-1.776,4.279c-4.299-1.049-9.704-5.384-6.671-12.846
		c3.852-9.438,17.829-8.128,27.509-18.175l3.863,4.969l-7.591,18.379l9.235-1.242l6.729-16.278
		c5.916-14.238,19.542-9.745,20.577-2.049c0.271,2.013-1.096,3.946-3.108,4.214c-2.013,0.271-3.761-1.06-4.031-3.072
		c-0.104-0.766,0.031-1.567,0.364-2.217L337.414,88.642z M342.392,113.951c0.878,0.245,2.071,1.049,2.598,1.823
		c-4.292,6.604-9.421,12.841-14.512,13.526c-4.973,0.67-7.374-3.286-5.384-8.196l9.485-23.096l6.159-0.834l-10.099,24.811
		c-1.095,2.621-0.196,3.463,1.163,3.279c2.725-0.366,6.493-5.034,10.242-10.782l0.351-0.531H342.392z M357.617,111.899
		c0.878,0.243,2.071,1.049,2.595,1.823c-4.293,6.604-9.418,12.841-14.512,13.526c-4.972,0.67-7.374-3.286-5.382-8.196l15.25-37.136
		l6.155-0.829l-15.863,38.846c-1.093,2.621-0.195,3.462,1.163,3.277c2.725-0.366,6.497-5.03,10.243-10.782l0.351-0.531V111.899z
		 M372.833,109.848c0.878,0.246,2.069,1.049,2.595,1.824c-4.292,6.604-9.418,12.841-14.512,13.525
		c-4.972,0.672-7.374-3.285-5.382-8.194l15.251-37.136l6.155-0.827l-15.864,38.844c-1.093,2.621-0.195,3.464,1.167,3.279
		c2.723-0.366,6.493-5.031,10.241-10.782l0.351-0.531L372.833,109.848z M408.377,118.201l5.793-39.778
		c-7.164,5.425-21.681,8.163-20.599,16.217c0.766,5.684,7.947,5.738,10.703,0.245l3.219,2.4c-1.312,3.25-4.572,5.437-8.065,5.907
		c-10.833,1.459-17.102-14.633,0.921-22.244c5.356-2.289,11.184-5.125,15.71-9.109l4.034,3.557l-4.096,27.733l12.893-25.544
		c6.71-12.84,16.048-10.18,18.018-5.383l-3.778,2.802c-2.318-3.786-5.676-2.309-8.893,3.789l-20.345,38.667l-5.51,0.739
		L408.377,118.201z M460.104,98.092c0.88,0.244,2.072,1.049,2.597,1.824c-4.292,6.603-9.421,12.84-14.512,13.525
		c-3.138,0.425-5.254-0.979-5.87-3.31c-2.632,2.83-5.494,4.843-7.98,5.176c-4.975,0.67-7.374-3.286-5.384-8.196l6.635-16.084
		c1.997-4.847,6.263-8.074,9.58-8.521c4.027-0.542,7.177,2.711,7.292,5.346l3.49-0.472l-7.601,18.746
		c-1.093,2.621-0.196,3.462,1.167,3.278c2.72-0.366,6.493-5.031,10.238-10.782L460.104,98.092L460.104,98.092z M434.496,107.992
		c-1.096,2.621-0.196,3.462,1.164,3.278c2.547-0.343,5.84-3.621,8.782-9.983l3.663-9.054c2.268-5.971-4.503-6.565-7.044-0.377
		l-6.567,16.136H434.496z M475.323,96.04c0.881,0.244,2.072,1.049,2.598,1.824c-4.292,6.603-9.421,12.84-14.512,13.525
		c-4.972,0.67-7.374-3.286-5.384-8.196l15.251-37.136l6.155-0.828l-15.864,38.845c-1.093,2.621-0.196,3.462,1.167,3.278
		c2.72-0.366,6.493-5.031,10.238-10.782L475.323,96.04z M490.542,93.988c0.875,0.247,2.068,1.051,2.594,1.824
		c-4.292,6.606-9.421,12.842-14.512,13.527c-4.972,0.67-7.374-3.286-5.384-8.196l15.251-37.133l6.155-0.829l-15.863,38.844
		c-1.092,2.623-0.195,3.466,1.168,3.281c2.723-0.366,6.493-5.034,10.241-10.782l0.351-0.534L490.542,93.988z M496.164,94.56
		l-0.448,1.147c-2.17,5.355,0.397,7.421,4.187,6.909c4.324-0.582,9.456-5.433,13.201-11.183l0.349-0.529
		c0.88,0.242,2.069,1.047,2.598,1.82c-4.296,6.606-10.487,12.987-17.473,13.927c-7.282,0.981-11.409-4.611-8.446-11.7l4.959-11.939
		c1.997-4.849,5.616-7.99,10.588-8.66c5.031-0.676,8.805,3.154,6.252,9.282l-0.679,1.659c-3.537,8.616-10.896,10.39-15.084,9.267
		H496.164z M497.531,91.3c2.422,0.519,6.404,0.104,8.686-5.33l0.683-1.657c2.806-6.886-3.601-7.048-6.332-0.472l-3.034,7.459
		H497.531z M526.368,91.454l8.344-20.412l6.157-0.829l-12.98,31.162c4.571-2.724,8.386-7.096,12.688-13.643l0.351-0.528
		c0.876,0.245,2.069,1.049,2.595,1.824c-5.696,8.723-11.38,13.948-17.504,16.822l-3.642,8.748
		c-3.421,8.176-12.646,8.153-13.442,2.232c-0.623-4.619,4.122-8.752,12.138-12.364l2.591-6.257
		c-2.448,2.861-5.487,5.802-8.447,6.202c-4.085,0.551-6.021-3.109-3.621-8.978l9.261-22.525l6.158-0.83l-9.194,22.577
		c-0.595,1.407-1.824,3.923-0.195,4.366c1.258,0.373,4.598-2.547,8.742-7.568H526.368z M517.087,114.282l2.17-5.356
		c-4.487,2.477-5.72,4.513-5.503,6.108c0.224,1.659,2.343,1.737,3.333-0.75V114.282z"/>
</g>
</svg>
