<?xml version="1.0" encoding="utf-8"?>
<!-- Generator: Adobe Illustrator 16.0.0, SVG Export Plug-In . SVG Version: 6.00 Build 0)  -->
<!DOCTYPE svg PUBLIC "-//W3C//DTD SVG 1.1//EN" "http://www.w3.org/Graphics/SVG/1.1/DTD/svg11.dtd">
<svg version="1.1" id="Layer_1" xmlns="http://www.w3.org/2000/svg" xmlns:xlink="http://www.w3.org/1999/xlink" x="0px" y="0px"
	 width="380px" height="391.575px" viewBox="0 0 380 391.575" enable-background="new 0 0 380 391.575" xml:space="preserve">
<g>
	<path fill="#6A5629" d="M190,0C85.066,0,0,85.065,0,190c0,104.932,85.066,189.998,190,189.998S380,294.932,380,190
		C380,85.065,294.934,0,190,0z M190,373.102C88.875,373.102,6.896,291.124,6.896,190C6.896,88.875,88.875,6.896,190,6.896
		S373.104,88.875,373.104,190C373.104,291.124,291.125,373.102,190,373.102z"/>
	<circle fill="#333738" cx="190" cy="189.999" r="183.103"/>
	<path fill="#6A5629" d="M190,31.724c-87.414,0-158.275,70.862-158.275,158.277c0,87.411,70.861,158.274,158.275,158.274
		c87.412,0,158.275-70.863,158.275-158.274C348.275,102.586,277.412,31.724,190,31.724z M190,342.53
		c-84.24,0-152.531-68.292-152.531-152.529c0-84.241,68.291-152.532,152.531-152.532c84.238,0,152.531,68.291,152.531,152.532
		C342.531,274.238,274.238,342.53,190,342.53z"/>
</g>
<g>
	<defs>
		<circle id="SVGID_1_" cx="190.987" cy="189.999" r="183.103"/>
	</defs>
	<clipPath id="SVGID_2_">
		<use xlink:href="#SVGID_1_"  overflow="visible"/>
	</clipPath>
	<path clip-path="url(#SVGID_2_)" fill="#141414" d="M12.329,230.684l3.357,2.983V157.02c0,0,7.832-3.73,13.986-2.424
		c1.68,0.746,1.492,3.17,1.492,3.17v12.868c0,0,8.393-0.932,14.732,2.611c-0.186,0.373,0,78.699,0,78.699h6.527v-32.263
		l24.432-0.373c0,0-0.373,3.729,1.865,5.781c0.371,2.61,0,50.166,0,50.166l5.779,0.746v-7.46h6.342v-3.543h8.951v-51.845h23.498
		v47.928c0,0,0.932-4.289,5.781-4.103l0.932-67.323l3.357-7.273h9.139l3.17,7.46l1.119,67.509l2.611,36.739v-103.13h-1.307v-1.119
		h4.289l13.613-25.549v-38.977c0,0-1.119-3.917,5.223-3.917c0-6.713,0-21.26,0-21.26h-1.305v-1.678h8.764V79.626l6.527-5.595V62.469
		l2.799-2.984v-31.89h-0.934v-1.678h2.626V6.588h1.492v19.33h2.167v1.581h-0.877V59.3l2.611,3.17v11.376l5.781,5.408V97.53h9.883
		v2.051h-2.051v22.379c0,0,6.154-0.559,6.154,3.917s0,38.416,0,38.416l12.68,24.617h4.104v2.052h-1.492v24.43l10.07-19.954h9.697
		l9.139,19.396v30.771h4.85v-60.796l11.375,3.17v84.48h4.662l2.426-4.29v-59.49l5.408-6.154h6.34l5.221,6.9v51.285l4.477,7.273
		V166.717l2.797-5.595h19.955l3.543,5.968v56.879h29.652v15.292l9.885-12.867c0,0-20.25,150.348-180.25,150.348
		S12.329,230.684,12.329,230.684z"/>
	<g clip-path="url(#SVGID_2_)">
		<path opacity="0.2" fill="#FDB94C" d="M271.637,175.23c0,0-68.875-9.74-81.009,40.037v0.146c-0.006-0.024-0.013-0.049-0.02-0.073
			c-0.006,0.024-0.013,0.049-0.019,0.073v-0.146c-12.134-49.777-81.01-40.037-81.01-40.037c0.849-33.729-26.84-48.822-30.477-50.657
			l-1.617,0.001l46.667,267l64.012,280l66.321-280l48.026-267.198C302.513,124.377,270.729,139.133,271.637,175.23z"/>
		<path opacity="0.8" fill="#FDB94C" d="M109.58,175.23c0,0,68.876-9.74,81.01,40.037v0.146c0.006-0.024,0.013-0.049,0.019-0.073
			c0.007,0.024,0.014,0.049,0.02,0.073v-0.146c12.134-49.777,81.009-40.037,81.009-40.037
			c-0.908-36.097,30.876-50.854,30.876-50.854s-57.221,0.177-71.03,0.062l-3,0.002c-6.824,24.218-24.502,20.821-28.131,20.367
			c-2.043-0.681-3.178-6.356-3.405-16.8c-2.144,8.578-5.907,7.636-6.318,7.505v-0.013c0,0-0.008,0.003-0.02,0.007
			c-0.011-0.004-0.019-0.007-0.019-0.007v0.013c-0.411,0.131-4.175,1.073-6.318-7.505c-0.228,10.443-1.363,16.119-3.406,16.8
			c-3.625,0.453-21.271,3.842-28.11-20.301l-73.651,0.065C82.74,126.409,110.429,141.501,109.58,175.23z"/>
	</g>
</g>
<g>
	<defs>
		<path id="SVGID_3_" d="M271.637,175.23c0,0-68.875-9.74-81.009,40.037v0.146c-0.006-0.024-0.013-0.049-0.02-0.073
			c-0.006,0.024-0.013,0.049-0.019,0.073v-0.146c-12.134-49.777-81.01-40.037-81.01-40.037c0.849-33.729-26.84-48.822-30.477-50.657
			l-1.617,0.001l46.667,267h130.333l48.026-267.198C302.513,124.377,270.729,139.133,271.637,175.23z"/>
	</defs>
	<clipPath id="SVGID_4_">
		<use xlink:href="#SVGID_3_"  overflow="visible"/>
	</clipPath>
	<g clip-path="url(#SVGID_4_)">
		<text transform="matrix(1 0 0 1 115.3018 326.9058)"><tspan x="0" y="0" fill="#FDB94C" font-family="'JosefinSlab-Bold'" font-size="32">GOTHAM</tspan><tspan x="49.523" y="27" fill="#FDB94C" font-family="'JosefinSlab-Bold'" font-size="20">CITY</tspan></text>
	</g>
</g>
</svg>
