<svg xmlns="http://www.w3.org/2000/svg" xmlns:xlink="http://www.w3.org/1999/xlink" viewBox="0 0 391.667 378.621">
  <circle cx="196.408" cy="189.311" r="189.311" fill="#E2D9C9"/>
  <path fill="#BEDB89" d="M72.4 311.552h248.016c4.655-4.722 9.048-9.704 13.143-14.93H59.257c4.095 5.226 8.487 10.21 13.142 14.93z"/>
  <path fill="#72CCD3" d="M359.166 123.518c-26.032-64.334-89.09-109.725-162.758-109.725-73.667 0-136.724 45.39-162.757 109.725h325.516z"/>
  <defs>
    <path id="a" d="M359.166 123.518c-26.032-64.334-89.09-109.725-162.758-109.725-73.667 0-136.724 45.39-162.757 109.725h325.516z"/>
  </defs>
  <clipPath id="b">
    <use xlink:href="#a" overflow="visible"/>
  </clipPath>
  <g class="cloud-container" clip-path="url(#b)">
    <g class="hill-valley__clouds">
    </g>
    <path class="cloud" fill="#fff" d="M74.898,119.274h-1.369c0.045-1.137,0.008-2.96-0.525-4.318 c-0.834-2.122-2.879-3.333-4.395-3.561c-1.184-0.177-3.926-0.079-5.078-0.026c-0.764-3.777-4.42-6.641-8.825-6.641 c-4.813,0-8.729,3.422-8.954,7.719c-1.157,0.023-2.244,0.029-3.205,0.009c-5.806,1.531-5.594,5.576-5.382,6.818h-1.664 c-0.585,0-1.061,0.476-1.061,1.06c0,0.586,0.476,1.062,1.061,1.062h39.397c0.586,0,1.061-0.476,1.061-1.062 C75.959,119.75,75.484,119.274,74.898,119.274z" />
  </g>
  <path fill="#CEA697" d="M136.204 160.873v1.726h-1.21v1.208h1.21v1.727h-1.21v93.96h1.152v1.5h-1.15v.89h1.208v2.243h1.727v7.174h24.857v-7.174h1.727v-2.244h1.21v-.89h-1.153v-1.5h1.153v-44.276h-3.108v35.333H140.78V215.22h-3.797l14.8-8.92 13.94 8.51v-37.233l-6.927-6.71h-.253v26.116h-13.208v-26.116h-1.136v-3.075h11.42l-20.625-19.98v13.063zM228.02 259.494v1.5h-1.152v.89h1.21v2.244h1.726v7.174h25.138v3.5H137.958v.094h117.035v-10.768h.08L241.06 250.55h-9.777v-9.47l-4.412-4.274v22.688zM121.68 165.535h-1.21v-1.727h1.21v-1.21h-1.21v-1.726h1.21v-15.195h11.752l-.04-.125H114.47v-1.5H5.97v108.424h115.71v-86.94zm-40.358 5.33v-3.076h15.264v3.075h-1.043v26.116H82.336v-26.116H81.32zm-.306-24.146h15v8.666h-15v-8.667zm-38.703 24.145v-3.076h15.264v3.075h-1.034v26.116H43.336v-26.116h-1.023zm-.036-24.146h15v8.666h-15v-8.667zm17.588 68.498v35.333H38.03V215.22h-3.797l14.8-8.92 14.61 8.92h-3.778zm38.75 0v35.333H76.78V215.22h-3.797l14.8-8.92 14.61 8.92h-3.778zM280.218 145.552h-17.796v.125h8.822v15.195h1.21v1.727h-1.21v1.208h1.21v1.727h-1.21v86.94h114.227V144.053H280.218v1.5zm52.49 1.167h15v8.666h-15v-8.667zm-1.584 21.07h15.264v3.075h-.96v26.116h-13.206v-26.116h-1.097v-3.075zm8.16 38.51l14.61 8.918h-3.78v35.333h-21.833V215.22h-3.797l14.8-8.92zm-45.315-59.58h15v8.666h-15v-8.667zm-1.803 21.07h15.264v3.075h-1.002v26.116h-13.206v-26.116h-1.054v-3.075zm8.366 38.51l14.61 8.918h-3.778v35.333H289.53V215.22h-3.797l14.8-8.92zM180.19 259.494v1.5h-1.15v.89h1.208v2.244h1.727v7.174h28.64v-7.174h1.728v-2.244h1.21v-.89H212.4v-1.5h1.152v-35.587l-6.437-6.236v52.88H185.28V215.22h-3.797l14.24-8.582-16.684-16.162v69.02z"/>
  <path fill="#E2D9C9" d="M280.218 133.22v2.418h-165.75v-2.417H5.97v6.225l.445-.605 108.053.013v1.814h165.75v-1.794l104.92.012.334.425v-6.09zM280.218 143.052v1h105.254v-2.218H280.218zM114.468 143.187v-1.355H5.97v2.22H114.47z"/>
  <path fill="#B8B69A" d="M280.218 138.873v1.794h-165.75v-1.814L6.415 138.84l-.444.605-1.753 2.388H114.47v-1.146h165.75v1.147H387.45l-1.978-2.524-.334-.425zM114.468 132.14l-1.325-1.546H4.817l-.026-.04h-.123v2.667H114.47zM280.218 132.14v1.08h106.784v-2.626H281.54z"/>
  <path fill="#CDC6AC" d="M113.143 130.594l1.325 1.546h165.75l1.325-1.546h105.473l2.486-4H285.76v1.958H108.927v-1.958H2.167l2.624 3.96.027.04z"/>
  <path fill="#E2D9C9" d="M271.245 253.81v5.684h1.15v1.5h-1.15v.89h1.21v2.244h1.726v8.98h.028v4.104h-19.215v2.496h-.05v-.312H137.957v-2.184h-19.215v-13.085h1.727v-2.243h1.21v-.89h-1.153v-1.5h1.152v-5.685H5.15v31.075h.767v-.167h112.826V287.102h19.215v-2.894h116.984v-.062h.05v2.956h19.216V284.72H385.75v.167h1.066v-31.333.257z"/>
  <path fill="#B8B69A" d="M121.68 252.476H5.15V253.81h116.53zM271.245 253.81h115.57v-1.334H271.245z"/>
  <path fill="#C7B5A4" d="M274.208 284.718V287.102h-19.215v-2.956h-.05v.062H137.957v2.895h-19.215V284.717H5.917v3.5h112.826v5.334H5.917v4.833H385.75v-4.832H274.208v-5.333H385.75v-3.5H274.208zm-19.215 7.428h-.05v1.312H137.957v-4.812h116.984v.312h.05v3.188z"/>
  <path fill="#DEDEC5" d="M274.208 293.552H386.5v-5.334H274.208zM254.942 288.958h.05v3.188h-.05zM118.743 288.218H5.167v5.334h113.576z"/>
  <path fill="#CEA697" d="M133.432 145.677h1.563v2.132l20.625 19.978h3.843v3.076h-.667l6.927 6.71v-12.04h-1.21v-1.727h1.21v-1.21h-1.21v-1.726h1.21v-15.194h13.316v15.195h1.208v1.728h-1.21v1.21h1.21v1.726h-1.21v24.94l16.686 16.16.56-.336 14.61 8.92h-3.778v2.452l6.437 6.235v-58.372h-1.21v-1.727h1.21v-1.21h-1.21v-1.726h1.21v-15.195h13.316v15.195h1.208v1.727h-1.21v1.21h1.21v1.726h-1.21v71.27l4.414 4.275v-25.862h-3.798l14.8-8.92 14.61 8.92h-3.778v35.333h-12.058l14.017 13.576h1.646v-2.244h1.21v-.89h-1.15v-1.5h1.15v-93.96h-1.21v-1.727h1.21v-1.21h-1.21v-1.726h1.21v-15.196h4.492v-.125h-129.03l.04.127zm116.132 25.188h-1.02v26.116h-13.208v-26.116H234.3v-3.075h15.264v3.075zM234.23 146.72h15v8.666h-15v-8.667zm-29.66 24.145h-1.027v26.116H190.336v-26.116h-1.028v-3.075h15.264v3.075zm-16.078-24.146h15v8.666h-15v-8.667zm-43.738 0h15v8.666h-15v-8.667z"/>
  <path fill="#BD8B79" d="M133.432 145.677h1.563v2.132l20.625 19.978h3.843v3.076h-.667l6.927 6.71v-12.04h-1.21v-1.727h1.21v-1.21h-1.21v-1.726h1.21v-15.194h13.316v15.195h1.208v1.728h-1.21v1.21h1.21v1.726h-1.21v24.94l16.686 16.16.56-.336 14.61 8.92h-3.778v2.452l6.437 6.235v-58.372h-1.21v-1.727h1.21v-1.21h-1.21v-1.726h1.21v-15.195h13.316v15.195h1.208v1.727h-1.21v1.21h1.21v1.726h-1.21v71.27l4.414 4.275v-25.862h-3.798l14.8-8.92 14.61 8.92h-3.778v35.333h-12.058l14.017 13.576h1.646v-2.244h1.21v-.89h-1.15v-1.5h1.15v-93.96h-1.21v-1.727h1.21v-1.21h-1.21v-1.726h1.21v-15.196h4.492v-.125h-129.03l.04.127zm116.132 25.188h-1.02v26.116h-13.208v-26.116H234.3v-3.075h15.264v3.075zM234.23 146.72h15v8.666h-15v-8.667zm-29.66 24.145h-1.027v26.116H190.336v-26.116h-1.028v-3.075h15.264v3.075zm-16.078-24.146h15v8.666h-15v-8.667zm-43.738 0h15v8.666h-15v-8.667z" opacity=".5"/>
  <path fill="#E2D9C9" d="M254.942 271.302h-25.138v1.805h-2.936v.346h-13.316v-.346h-2.936v-1.805h-28.64v1.805h-2.937v.346h-13.317v-.346h-2.936v-1.805H137.93v1.805h.028v1.695h116.984zM254.942 288.646H137.958v4.812h116.984v-4.5z"/>
  <path fill="#DEDEC5" d="M212.4 259.494v1.5h1.152v.89h-1.21v2.244h-1.726V273.107h2.936v.346h6.41v-.346h-.346v-8.98h.346v-98.592h-.173v-1.727h.172v-1.21h-.173v-1.725h.172v-15.196h-6.41v15.196h-1.21v1.726h1.21v1.208h-1.21v1.727h1.21v93.959z"/>
  <path fill="#D6CFB5" d="M219.79 160.873v1.726h.172v1.208h-.173v1.727h.172v98.593h-.346v8.98h.346v.345H226.868v-.346h2.936V264.128h-1.727v-2.244h-1.21v-.89h1.153v-1.5h-1.152v-93.958h1.21v-1.728h-1.21v-1.21h1.21v-1.725h-1.21v-15.196H219.962v15.196z"/>
  <path fill="#DEDEC5" d="M166.395 215.218h-.672v44.276h-1.152v1.5h1.153v.89h-1.21v2.244h-1.726V273.107h2.936v.346h6.41v-.346h-.346v-8.98h.346v-98.592h-.173v-1.727h.173v-1.21h-.173v-1.725h.173v-15.196h-6.41v15.196h-1.21v1.726h1.21v1.208h-1.21v1.727h1.21V214.808z"/>
  <path fill="#D6CFB5" d="M171.96 160.873v1.726h.173v1.208h-.173v1.727h.173v98.593h-.346v8.98h.346v.345H179.04v-.346h2.935V264.128h-1.727v-2.244h-1.21v-.89h1.152v-1.5h-1.15v-93.96h1.208v-1.726h-1.21v-1.21h1.21v-1.725h-1.21v-15.196h-6.905v15.196z"/>
  <path fill="#DEDEC5" d="M257.93 160.873h-1.21v1.726h1.21v1.208h-1.21v1.727h1.21v93.96h-1.153v1.5h1.152v.89h-1.21v2.243h-1.726v8.98h8.998v-8.98h.346v-98.593h-.174v-1.727h.173v-1.21h-.174v-1.725h.173v-15.196h-6.41z"/>
  <path fill="#D6CFB5" d="M264.166 160.873v1.726h.173v1.208h-.174v1.727h.173v98.593h-.347v8.98H274.18v-8.98h-1.726v-2.244h-1.21v-.89h1.152v-1.5h-1.15v-93.959h1.208v-1.728h-1.21v-1.21h1.21v-1.725h-1.21v-15.196h-6.905v15.196z"/>
  <path fill="#C7B5A4" d="M264.34 273.107H254.99v1.79H137.958v-1.79h-19.216v4.105h19.215v2.184h116.984v.312h.05v-2.496h19.216v-4.105h-2.962z"/>
  <path fill="#DEDEC5" d="M127.743 273.107v-8.98h.346v-98.592h-.174v-1.727h.173v-1.21h-.174v-1.725h.173v-15.196h-6.41v15.196h-1.21v1.726h1.21v1.208h-1.21v1.727h1.21v93.958h-1.153v1.5h1.152v.89h-1.21v2.244h-1.727v8.98h2.936z"/>
  <path fill="#D6CFB5" d="M127.916 160.873v1.726h.173v1.208h-.174v1.727h.173v98.593h-.347v8.98H137.93v-8.98h-1.726v-2.244h-1.21v-.89h1.152v-1.5h-1.15v-93.96h1.208v-1.726h-1.21v-1.21h1.21v-1.725h-1.21v-15.197H128.09v15.196z"/>
  <path fill="#DFD6C5" d="M114.468 144.052v1.5h165.75v-2.365h-165.75z"/>
  <path fill="#B8B5A5" d="M114.468 143.187h165.75v-2.5h-165.75V143.053zM114.468 132.14v3.498h165.75v-3.497z"/>
  <path fill="#E2D9C9" d="M285.76 128.552v-2h105.907l-2-2.668h-110.23l2.677-3.666-87-39.666-87.166 40 4.932 3.332H2l-2 2.668h108.927v2H285.76zm-90.647-45.166l80.167 36.666h-159l78.833-36.666z"/>
  <path fill="#AD8C82" d="M195.113 86.386l73.608 33.666h6.56l-80.167-36.666-78.833 36.666h6.45z"/>
  <path fill="#CEA697" d="M122.73 120.052h43.383v-14.5h16.184c.18-7.105 6.002-12.834 13.15-12.834 7.147 0 12.97 5.73 13.15 12.834h17.516v14.5h42.607l-73.607-33.666-72.383 33.666z"/>
  <path fill="#6C5345" d="M208.597 105.552c.003.11.017.22.017.333 0 7.26-5.906 13.167-13.166 13.167-7.26 0-13.167-5.906-13.167-13.167 0-.112.016-.222.018-.333h-16.184v14.5h60v-14.5h-17.517z"/>
  <path fill="#E2D9C9" d="M195.447 118.052c6.708 0 12.166-5.46 12.166-12.167s-5.458-12.167-12.166-12.167c-6.71 0-12.167 5.46-12.167 12.167s5.458 12.167 12.167 12.167zm0-23.25c6.11 0 11.082 4.972 11.082 11.083s-4.972 11.083-11.083 11.083-11.084-4.972-11.084-11.083 4.973-11.083 11.084-11.083z"/>
  <path fill="#B99C8B" d="M195.447 119.052c7.26 0 13.166-5.906 13.166-13.167 0-.112-.014-.222-.017-.333-.18-7.105-6.002-12.834-13.15-12.834-7.147 0-12.97 5.73-13.15 12.834 0 .11-.016.22-.016.333 0 7.26 5.907 13.167 13.167 13.167zm0-25.334c6.708 0 12.166 5.46 12.166 12.167s-5.458 12.167-12.166 12.167c-6.71 0-12.167-5.46-12.167-12.167s5.458-12.167 12.167-12.167z"/>
  <path fill="#E2D9C9" d="M195.447 116.468c5.835 0 10.582-4.748 10.582-10.583s-4.748-10.583-10.583-10.583c-5.836 0-10.584 4.748-10.584 10.583s4.748 10.583 10.584 10.583zm0-19.832c5.1 0 9.25 4.148 9.25 9.25s-4.15 9.248-9.25 9.248-9.25-4.148-9.25-9.25 4.15-9.248 9.25-9.248z"/>
  <path fill="#B99C8B" d="M195.447 116.968c6.11 0 11.082-4.972 11.082-11.083s-4.972-11.083-11.083-11.083-11.084 4.972-11.084 11.083 4.973 11.083 11.084 11.083zm0-21.666c5.835 0 10.582 4.748 10.582 10.583s-4.748 10.583-10.583 10.583c-5.836 0-10.584-4.748-10.584-10.583s4.748-10.583 10.584-10.583z"/>
  <path fill="#E2D9C9" d="M195.447 114.634c4.824 0 8.75-3.924 8.75-8.75s-3.926-8.748-8.75-8.748c-4.825 0-8.75 3.924-8.75 8.75s3.925 8.748 8.75 8.748z"/>
  <path fill="#B99C8B" d="M195.447 115.134c5.1 0 9.25-4.148 9.25-9.25s-4.15-9.248-9.25-9.248-9.25 4.148-9.25 9.25 4.15 9.248 9.25 9.248zm0-17.998c4.824 0 8.75 3.924 8.75 8.75s-3.926 8.748-8.75 8.748c-4.825 0-8.75-3.924-8.75-8.75s3.925-8.748 8.75-8.748z"/>
  <path fill="#72CCD3" d="M50.377 147.72h5.9v6.666h-5.9z"/>
  <path fill="#576C6E" d="M57.277 155.386v-8.667h-15v8.666h15zm-6.9-7.667h5.9v6.666h-5.9v-6.667zm-1 6.666h-6.1v-6.667h6.1v6.666z"/>
  <path fill="#72CCD3" d="M43.277 147.72h6.1v6.666h-6.1zM89.115 147.72h5.9v6.666h-5.9z"/>
  <path fill="#576C6E" d="M96.016 155.386v-8.667h-15v8.666h15zm-6.9-7.667h5.9v6.666h-5.9v-6.667zm-1 6.666h-6.1v-6.667h6.1v6.666z"/>
  <path fill="#72CCD3" d="M82.016 147.72h6.1v6.666h-6.1zM152.854 147.72h5.9v6.666h-5.9z"/>
  <path fill="#576C6E" d="M159.754 155.386v-8.667h-15v8.666h15zm-6.9-7.667h5.9v6.666h-5.9v-6.667zm-1 6.666h-6.1v-6.667h6.1v6.666z"/>
  <path fill="#72CCD3" d="M145.754 147.72h6.1v6.666h-6.1zM196.592 147.72h5.9v6.666h-5.9z"/>
  <path fill="#576C6E" d="M203.492 155.386v-8.667h-15v8.666h15zm-6.9-7.667h5.9v6.666h-5.9v-6.667zm-1 6.666h-6.1v-6.667h6.1v6.666z"/>
  <path fill="#72CCD3" d="M189.492 147.72h6.1v6.666h-6.1zM242.33 147.72h5.9v6.666h-5.9z"/>
  <path fill="#576C6E" d="M249.23 155.386v-8.667h-15v8.666h15zm-6.9-7.667h5.9v6.666h-5.9v-6.667zm-1 6.666h-6.1v-6.667h6.1v6.666z"/>
  <path fill="#72CCD3" d="M235.23 147.72h6.1v6.666h-6.1zM302.068 147.72h5.9v6.666h-5.9z"/>
  <path fill="#576C6E" d="M308.97 155.386v-8.667h-15v8.666h15zm-6.902-7.667h5.9v6.666h-5.9v-6.667zm-1 6.666h-6.1v-6.667h6.1v6.666z"/>
  <path fill="#72CCD3" d="M294.97 147.72h6.1v6.666h-6.1zM340.807 147.72h5.9v6.666h-5.9z"/>
  <path fill="#576C6E" d="M347.707 155.386v-8.667h-15v8.666h15zm-6.9-7.667h5.9v6.666h-5.9v-6.667zm-1 6.666h-6.1v-6.667h6.1v6.666z"/>
  <path fill="#72CCD3" d="M333.707 147.72h6.1v6.666h-6.1zM50.47 171.824h5.073v4.92H50.47zM50.47 190.312h5.073v5.412H50.47zM50.47 184.156h5.073v5.156H50.47zM50.47 177.744h5.073v5.412H50.47z"/>
  <path fill="#5B6361" d="M43.334 184.156v12.825H56.54v-26.116H43.334v13.292zm7.136-12.332h5.073v4.92H50.47v-4.92zm0 5.92h5.073v5.412H50.47v-5.412zm0 6.412h5.073v5.156H50.47v-5.156zm0 6.156h5.073v5.412H50.47v-5.412zm-6.105-18.488h5.104v4.92h-5.105v-4.92zm0 5.92h5.104v5.412h-5.105v-5.412zm0 6.412h5.104v5.156h-5.105v-5.156zm0 6.156h5.104v5.412h-5.105v-5.412z"/>
  <path fill="#72CCD3" d="M44.365 171.824h5.104v4.92h-5.105zM44.365 184.156h5.104v5.156h-5.105zM44.365 190.312h5.104v5.412h-5.105zM44.365 177.744h5.104v5.412h-5.105zM89.47 171.824h5.073v4.92H89.47zM89.47 190.312h5.073v5.412H89.47zM89.47 184.156h5.073v5.156H89.47zM89.47 177.744h5.073v5.412H89.47z"/>
  <path fill="#5B6361" d="M82.334 184.156v12.825H95.54v-26.116H82.334v13.292zm7.136-12.332h5.073v4.92H89.47v-4.92zm0 5.92h5.073v5.412H89.47v-5.412zm0 6.412h5.073v5.156H89.47v-5.156zm0 6.156h5.073v5.412H89.47v-5.412zm-6.105-18.488h5.104v4.92h-5.105v-4.92zm0 5.92h5.104v5.412h-5.105v-5.412zm0 6.412h5.104v5.156h-5.105v-5.156zm0 6.156h5.104v5.412h-5.105v-5.412z"/>
  <path fill="#72CCD3" d="M83.365 171.824h5.104v4.92h-5.105zM83.365 184.156h5.104v5.156h-5.105zM83.365 190.312h5.104v5.412h-5.105zM83.365 177.744h5.104v5.412h-5.105zM300.355 171.824h5.072v4.92h-5.072zM300.355 190.312h5.072v5.412h-5.072zM300.355 184.156h5.072v5.156h-5.072zM300.355 177.744h5.072v5.412h-5.072z"/>
  <path fill="#5B6361" d="M293.22 176.744V196.98h13.207v-26.116H293.22v5.88zm7.135-4.92h5.072v4.92h-5.072v-4.92zm0 5.92h5.072v5.412h-5.072v-5.412zm0 6.412h5.072v5.156h-5.072v-5.156zm0 6.156h5.072v5.412h-5.072v-5.412zm-6.104-18.488h5.105v4.92h-5.104v-4.92zm0 5.92h5.105v5.412h-5.104v-5.412zm0 6.412h5.105v5.156h-5.104v-5.156zm0 6.156h5.105v5.412h-5.104v-5.412z"/>
  <path fill="#72CCD3" d="M294.25 171.824h5.105v4.92h-5.104zM294.25 184.156h5.105v5.156h-5.104zM294.25 190.312h5.105v5.412h-5.104zM294.25 177.744h5.105v5.412h-5.104zM339.355 171.824h5.072v4.92h-5.072zM339.355 190.312h5.072v5.412h-5.072zM339.355 184.156h5.072v5.156h-5.072zM339.355 177.744h5.072v5.412h-5.072z"/>
  <path fill="#5B6361" d="M332.22 176.744V196.98h13.207v-26.116H332.22v5.88zm7.135-4.92h5.072v4.92h-5.072v-4.92zm0 5.92h5.072v5.412h-5.072v-5.412zm0 6.412h5.072v5.156h-5.072v-5.156zm0 6.156h5.072v5.412h-5.072v-5.412zm-6.104-18.488h5.105v4.92h-5.104v-4.92zm0 5.92h5.105v5.412h-5.104v-5.412zm0 6.412h5.105v5.156h-5.104v-5.156zm0 6.156h5.105v5.412h-5.104v-5.412z"/>
  <path fill="#72CCD3" d="M333.25 171.824h5.105v4.92h-5.104zM333.25 184.156h5.105v5.156h-5.104zM333.25 190.312h5.105v5.412h-5.104zM333.25 177.744h5.105v5.412h-5.104zM152.47 171.824h5.073v4.92h-5.073zM152.47 190.312h5.073v5.412h-5.073zM152.47 184.156h5.073v5.156h-5.073zM152.47 177.744h5.073v5.412h-5.073z"/>
  <path fill="#5B6361" d="M145.334 176.744V196.98h13.207v-26.116h-13.21v5.88zm7.136-4.92h5.073v4.92h-5.073v-4.92zm0 5.92h5.073v5.412h-5.073v-5.412zm0 6.412h5.073v5.156h-5.073v-5.156zm0 6.156h5.073v5.412h-5.073v-5.412zm-6.105-18.488h5.104v4.92h-5.105v-4.92zm0 5.92h5.104v5.412h-5.105v-5.412zm0 6.412h5.104v5.156h-5.105v-5.156zm0 6.156h5.104v5.412h-5.105v-5.412z"/>
  <path fill="#72CCD3" d="M146.365 171.824h5.104v4.92h-5.105zM146.365 184.156h5.104v5.156h-5.105zM146.365 190.312h5.104v5.412h-5.105zM146.365 177.744h5.104v5.412h-5.105zM197.47 171.824h5.073v4.92h-5.073zM197.47 190.312h5.073v5.412h-5.073zM197.47 184.156h5.073v5.156h-5.073zM197.47 177.744h5.073v5.412h-5.073z"/>
  <path fill="#5B6361" d="M190.334 176.744V196.98h13.207v-26.116h-13.21v5.88zm7.136-4.92h5.073v4.92h-5.073v-4.92zm0 5.92h5.073v5.412h-5.073v-5.412zm0 6.412h5.073v5.156h-5.073v-5.156zm0 6.156h5.073v5.412h-5.073v-5.412zm-6.105-18.488h5.104v4.92h-5.105v-4.92zm0 5.92h5.104v5.412h-5.105v-5.412zm0 6.412h5.104v5.156h-5.105v-5.156zm0 6.156h5.104v5.412h-5.105v-5.412z"/>
  <path fill="#72CCD3" d="M191.365 171.824h5.104v4.92h-5.105zM191.365 184.156h5.104v5.156h-5.105zM191.365 190.312h5.104v5.412h-5.105zM191.365 177.744h5.104v5.412h-5.105zM242.47 171.824h5.073v4.92h-5.073zM242.47 190.312h5.073v5.412h-5.073zM242.47 184.156h5.073v5.156h-5.073zM242.47 177.744h5.073v5.412h-5.073z"/>
  <path fill="#5B6361" d="M235.334 176.744V196.98h13.207v-26.116h-13.21v5.88zm7.136-4.92h5.073v4.92h-5.073v-4.92zm0 5.92h5.073v5.412h-5.073v-5.412zm0 6.412h5.073v5.156h-5.073v-5.156zm0 6.156h5.073v5.412h-5.073v-5.412zm-6.105-18.488h5.104v4.92h-5.105v-4.92zm0 5.92h5.104v5.412h-5.105v-5.412zm0 6.412h5.104v5.156h-5.105v-5.156zm0 6.156h5.104v5.412h-5.105v-5.412z"/>
  <path fill="#72CCD3" d="M236.365 171.824h5.104v4.92h-5.105zM236.365 184.156h5.104v5.156h-5.105zM236.365 190.312h5.104v5.412h-5.105zM236.365 177.744h5.104v5.412h-5.105z"/>
  <path fill="#DFD6C5" d="M57.577 170.865v-3.076H42.313v3.075h14.23zM96.586 170.865v-3.076H81.322v3.075H95.544zM144.2 170.865H159.462v-3.076H144.2zM189.307 170.865h15.263v-3.076h-15.263zM234.3 170.865H249.565v-3.076H234.3zM306.428 170.865h1.003v-3.076h-15.263v3.075h1.053zM345.428 170.865h.96v-3.076h-15.264v3.075h1.096z"/>
  <path fill="#E2D9C9" d="M58.865 216.05H39.03v33.5h19.835v-33.5zm-2.024 9.834v22.834h-16v-25.834h.545c1.188-3.104 4.14-5.166 7.456-5.166s6.27 2.062 7.457 5.166h.544v3z"/>
  <path fill="#CCC5AB" d="M38.03 250.55h21.835V215.22H38.03v35.333zm1-34.5h19.835v33.5H39.03v-33.5zM37.83 214.218h22.256l-11.056-6.75z"/>
  <path fill="#E2D9C9" d="M34.233 215.218H63.646l-14.612-8.92-14.8 8.92zm3.597-1l11.2-6.75 11.056 6.75H37.83z"/>
  <path fill="#72CCD3" d="M41.84 240.218h6.44v7.5h-6.44zM42.212 223.542l-.114.342h-.257v2h6.44v-7.12c-2.768.225-5.17 2.075-6.068 4.778zM55.47 223.542c-.91-2.742-3.368-4.608-6.188-4.79v7.132h6.56v-2h-.256l-.115-.342zM49.28 240.218h6.56v7.5h-6.56z"/>
  <path fill="#576C6E" d="M48.84 217.718c-3.314 0-6.267 2.062-7.455 5.166h-.544v25.834h16v-25.834h-.543c-1.188-3.104-4.14-5.166-7.456-5.166zm-.56 30h-6.44v-7.5h6.44v7.5zm0-8.5h-6.44v-12.334h6.44v12.334zm0-13.334h-6.44v-2h.258l.114-.342c.9-2.703 3.3-4.554 6.07-4.78v7.122zm7.56 21.834h-6.56v-7.5h6.56v7.5zm0-8.5h-6.56v-12.334h6.56v12.334zm0-13.334h-6.56v-7.13c2.82.18 5.278 2.046 6.19 4.788l.114.342h.256v2z"/>
  <path fill="#72CCD3" d="M49.28 226.884h6.56v12.334h-6.56zM41.84 226.884h6.44v12.334h-6.44z"/>
  <path fill="#E2D9C9" d="M97.615 216.05H77.78v33.5h19.835v-33.5zm-2.024 9.834v22.834h-16v-25.834h.545c1.188-3.104 4.14-5.166 7.456-5.166s6.27 2.062 7.457 5.166h.544v3z"/>
  <path fill="#CCC5AB" d="M76.78 250.55h21.835V215.22H76.78v35.333zm1-34.5h19.835v33.5H77.78v-33.5zM76.58 214.218h22.256l-11.056-6.75z"/>
  <path fill="#E2D9C9" d="M72.983 215.218H102.396l-14.612-8.92-14.8 8.92zm3.597-1l11.2-6.75 11.056 6.75H76.58z"/>
  <path fill="#72CCD3" d="M80.59 240.218h6.44v7.5h-6.44zM80.962 223.542l-.114.342h-.257v2h6.44v-7.12c-2.768.225-5.17 2.075-6.068 4.778zM94.22 223.542c-.91-2.742-3.368-4.608-6.188-4.79v7.132h6.56v-2h-.256l-.115-.342zM88.03 240.218h6.56v7.5h-6.56z"/>
  <path fill="#576C6E" d="M87.59 217.718c-3.314 0-6.267 2.062-7.455 5.166h-.544v25.834h16v-25.834h-.543c-1.188-3.104-4.14-5.166-7.456-5.166zm-.56 30h-6.44v-7.5h6.44v7.5zm0-8.5h-6.44v-12.334h6.44v12.334zm0-13.334h-6.44v-2h.258l.114-.342c.9-2.703 3.3-4.554 6.07-4.78v7.122zm7.56 21.834h-6.56v-7.5h6.56v7.5zm0-8.5h-6.56v-12.334h6.56v12.334zm0-13.334h-6.56v-7.13c2.82.18 5.278 2.046 6.19 4.788l.114.342h.256v2z"/>
  <path fill="#72CCD3" d="M88.03 226.884h6.56v12.334h-6.56zM80.59 226.884h6.44v12.334h-6.44z"/>
  <path fill="#E2D9C9" d="M310.365 216.05H290.53v33.5h19.835v-33.5zm-2.024 9.834v22.834h-16v-25.834h.545c1.188-3.104 4.14-5.166 7.456-5.166s6.27 2.062 7.457 5.166h.544v3z"/>
  <path fill="#CCC5AB" d="M289.53 250.55h21.835V215.22H289.53v35.333zm1-34.5h19.835v33.5H290.53v-33.5zM300.53 207.47l-11.2 6.748h22.256z"/>
  <path fill="#E2D9C9" d="M311.365 215.218h3.78l-14.612-8.92-14.8 8.92H311.366zm-10.835-7.75l11.056 6.75H289.33l11.2-6.75z"/>
  <path fill="#72CCD3" d="M293.34 240.218h6.44v7.5h-6.44zM293.712 223.542l-.114.342h-.257v2h6.44v-7.12c-2.768.225-5.17 2.075-6.068 4.778zM306.97 223.542c-.91-2.742-3.368-4.608-6.188-4.79v7.132h6.56v-2h-.256l-.115-.342zM300.78 240.218h6.56v7.5h-6.56z"/>
  <path fill="#576C6E" d="M300.34 217.718c-3.314 0-6.267 2.062-7.455 5.166h-.544v25.834h16v-25.834h-.543c-1.188-3.104-4.14-5.166-7.456-5.166zm-.56 30h-6.44v-7.5h6.44v7.5zm0-8.5h-6.44v-12.334h6.44v12.334zm0-13.334h-6.44v-2h.258l.114-.342c.9-2.703 3.3-4.554 6.07-4.78v7.122zm7.56 21.834h-6.56v-7.5h6.56v7.5zm0-8.5h-6.56v-12.334h6.56v12.334zm0-13.334h-6.56v-7.13c2.82.18 5.278 2.046 6.19 4.788l.114.342h.256v2z"/>
  <path fill="#72CCD3" d="M300.78 226.884h6.56v12.334h-6.56zM293.34 226.884h6.44v12.334h-6.44z"/>
  <path fill="#E2D9C9" d="M232.28 249.55h19.835v-33.5H232.28v33.5zm1.81-23.666v-3h.545c1.188-3.104 4.14-5.166 7.456-5.166s6.27 2.062 7.457 5.166h.544v25.834h-16v-22.834z"/>
  <path fill="#CCC5AB" d="M241.058 250.55h12.058V215.22h-21.834v35.332h9.776zm11.057-34.5v33.5H232.28v-33.5h19.835zM242.28 207.47l-11.2 6.748h22.256z"/>
  <path fill="#E2D9C9" d="M256.895 215.218l-14.61-8.92-14.8 8.92h29.411zm-25.815-1l11.2-6.75 11.056 6.75H231.08z"/>
  <path fill="#72CCD3" d="M235.09 240.218h6.44v7.5h-6.44zM241.53 218.763c-2.77.226-5.17 2.076-6.068 4.78l-.114.34h-.257v2h6.44v-7.12zM249.09 223.884h-.255l-.114-.342c-.91-2.742-3.368-4.608-6.188-4.79v7.132h6.56v-2zM242.53 240.218h6.56v7.5h-6.56z"/>
  <path fill="#576C6E" d="M234.09 248.718h16v-25.834h-.543c-1.188-3.104-4.14-5.166-7.456-5.166s-6.267 2.062-7.455 5.166h-.544v25.834zm8.44-29.965c2.82.18 5.278 2.047 6.19 4.79l.114.34h.256v2h-6.56v-7.13zm0 8.13h6.56v12.335h-6.56v-12.334zm0 13.335h6.56v7.5h-6.56v-7.5zm-7.44-16.334h.258l.114-.342c.9-2.703 3.3-4.554 6.07-4.78v7.122h-6.44v-2zm0 3h6.44v12.334h-6.44v-12.334zm6.44 13.334v7.5h-6.44v-7.5h6.44z"/>
  <path fill="#72CCD3" d="M242.53 226.884h6.56v12.334h-6.56zM235.09 226.884h6.44v12.334h-6.44z"/>
  <path fill="#E2D9C9" d="M161.615 216.05H141.78v33.5h19.835v-33.5zm-2.024 9.834v22.834h-16v-25.834h.545c1.188-3.104 4.14-5.166 7.456-5.166s6.27 2.062 7.457 5.166h.544v3z"/>
  <path fill="#CCC5AB" d="M140.78 250.55h21.835V215.22H140.78v35.333zm1-34.5h19.835v33.5H141.78v-33.5zM140.58 214.218h22.256l-11.056-6.75z"/>
  <path fill="#E2D9C9" d="M165.723 214.808l-13.94-8.51-14.8 8.92h29.412l-.672-.41zm-25.143-.59l11.2-6.75 11.056 6.75H140.58z"/>
  <path fill="#72CCD3" d="M144.59 240.218h6.44v7.5h-6.44zM144.962 223.542l-.114.342h-.257v2h6.44v-7.12c-2.768.225-5.17 2.075-6.068 4.778zM158.22 223.542c-.91-2.742-3.368-4.608-6.188-4.79v7.132h6.56v-2h-.256l-.115-.342zM152.03 240.218h6.56v7.5h-6.56z"/>
  <path fill="#576C6E" d="M151.59 217.718c-3.314 0-6.267 2.062-7.455 5.166h-.544v25.834h16v-25.834h-.543c-1.188-3.104-4.14-5.166-7.456-5.166zm-.56 30h-6.44v-7.5h6.44v7.5zm0-8.5h-6.44v-12.334h6.44v12.334zm0-13.334h-6.44v-2h.258l.114-.342c.9-2.703 3.3-4.554 6.07-4.78v7.122zm7.56 21.834h-6.56v-7.5h6.56v7.5zm0-8.5h-6.56v-12.334h6.56v12.334zm0-13.334h-6.56v-7.13c2.82.18 5.278 2.046 6.19 4.788l.114.342h.256v2z"/>
  <path fill="#72CCD3" d="M152.03 226.884h6.56v12.334h-6.56zM144.59 226.884h6.44v12.334h-6.44z"/>
  <path fill="#E2D9C9" d="M186.28 216.05v53.5h19.835v-53.5H186.28zm17.81 9.834v42.834h-16v-45.834h.545c1.188-3.104 4.14-5.166 7.456-5.166s6.27 2.062 7.457 5.166h.544v3z"/>
  <path fill="#CCC5AB" d="M185.28 215.218v55.333h21.835V215.22H185.28zm20.835 54.333H186.28v-53.5h19.835v53.5zM185.08 214.218h22.256l-11.056-6.75z"/>
  <path fill="#E2D9C9" d="M185.28 215.218H210.896l-14.612-8.92-.56.338-14.24 8.582h3.798zm22.056-1H185.08l11.2-6.75 11.056 6.75z"/>
  <path fill="#72CCD3" d="M189.09 240.218h6.44v17.5h-6.44zM189.462 223.542l-.114.342h-.257v2h6.44v-7.12c-2.768.225-5.17 2.075-6.068 4.778zM202.72 223.542c-.91-2.742-3.368-4.608-6.188-4.79v7.132h6.56v-2h-.256l-.115-.342zM196.53 240.218h6.56v17.5h-6.56z"/>
  <path fill="#576C6E" d="M196.09 217.718c-3.314 0-6.267 2.062-7.455 5.166h-.544v45.834h16v-45.834h-.543c-1.188-3.104-4.14-5.166-7.456-5.166zm-.56 40h-6.44v-17.5h6.44v17.5zm0-18.5h-6.44v-12.334h6.44v12.334zm0-13.334h-6.44v-2h.258l.114-.342c.9-2.703 3.3-4.554 6.07-4.78v7.122zm7.56 31.834h-6.56v-17.5h6.56v17.5zm0-18.5h-6.56v-12.334h6.56v12.334zm0-13.334h-6.56v-7.13c2.82.18 5.278 2.046 6.19 4.788l.114.342h.256v2z"/>
  <path fill="#72CCD3" d="M196.53 226.884h6.56v12.334h-6.56zM189.09 226.884h6.44v12.334h-6.44z"/>
  <path fill="#E2D9C9" d="M349.115 216.05H329.28v33.5h19.835v-33.5zm-2.024 9.834v22.834h-16v-25.834h.545c1.188-3.104 4.14-5.166 7.456-5.166s6.27 2.062 7.457 5.166h.544v3z"/>
  <path fill="#CCC5AB" d="M328.28 250.55h21.835V215.22H328.28v35.333zm1-34.5h19.835v33.5H329.28v-33.5zM339.28 207.47l-11.2 6.748h22.256z"/>
  <path fill="#E2D9C9" d="M350.115 215.218h3.78l-14.612-8.92-14.8 8.92H350.116zm-10.835-7.75l11.056 6.75H328.08l11.2-6.75z"/>
  <path fill="#72CCD3" d="M332.09 240.218h6.44v7.5h-6.44zM332.462 223.542l-.114.342h-.257v2h6.44v-7.12c-2.768.225-5.17 2.075-6.068 4.778zM345.72 223.542c-.91-2.742-3.368-4.608-6.188-4.79v7.132h6.56v-2h-.256l-.115-.342zM339.53 240.218h6.56v7.5h-6.56z"/>
  <path fill="#576C6E" d="M339.09 217.718c-3.314 0-6.267 2.062-7.455 5.166h-.544v25.834h16v-25.834h-.543c-1.188-3.104-4.14-5.166-7.456-5.166zm-.56 30h-6.44v-7.5h6.44v7.5zm0-8.5h-6.44v-12.334h6.44v12.334zm0-13.334h-6.44v-2h.258l.114-.342c.9-2.703 3.3-4.554 6.07-4.78v7.122zm7.56 21.834h-6.56v-7.5h6.56v7.5zm0-8.5h-6.56v-12.334h6.56v12.334zm0-13.334h-6.56v-7.13c2.82.18 5.278 2.046 6.19 4.788l.114.342h.256v2z"/>
  <path fill="#72CCD3" d="M339.53 226.884h6.56v12.334h-6.56zM332.09 226.884h6.44v12.334h-6.44z"/>
  <path d="M195.843 106.31c-.04 0-.078 0-.118-.006-.55-.064-.94-.562-.876-1.11l1-8.5c.063-.548.556-.944 1.11-.876.547.064.94.562.875 1.11l-1 8.5c-.06.51-.492.883-.992.883zM195.822 106.34c-.205 0-.412-.063-.59-.194l-7.735-5.676c-.445-.326-.54-.952-.214-1.397.326-.444.95-.54 1.397-.214l7.734 5.675c.445.326.54.952.215 1.397-.196.267-.5.408-.808.408z"/>
  <path fill="none" d="M235.876 257.902c-.5 1.455-.62 2.77-.622 3.736.015-.59.102-2.025.622-3.736zM137.375 234.212c1.07.4 1.96.733 2.584.968l.5-.11-3.085-.858zM215.794 267.137c1.78-.018 3.577-.03 5.037-.11l-11.006.172c1.397.046 3.654-.04 5.97-.063z"/>
  <g class="car">
    <path fill="#434240" d="M164.614 229.633h2.5v-2.08h-5.667v3.05c1.203-.233 2.264-.428 3.167-.58v-.39z"/>
    <path fill="#F26A63" d="M140.46 235.07c.576-.13 1.155-.258 1.737-.387v-4.63h-9v2.61c1.537.566 2.973 1.1 4.178 1.55l3.084.856z"/>
    <path fill="#434240" d="M119.568 239.82s9.694-2.254 20.39-4.64l-2.583-.968c-1.205-.45-2.64-.982-4.178-1.55-1.793-.66-3.723-1.367-5.602-2.045l-2.914 7.772-.468-.177 2.913-7.767c-4.866-1.75-9.25-3.253-9.68-3.146-1 .25-3.5 7.75-4 9.25s1.75 4.75 1.75 4.75l1.736-.388c.697-.57 1.558-.964 2.637-1.068v-.023z"/>
    <path fill="#F26A63" d="M124.682 238.39l2.914-7.772.086-.228-.47-.176-.086.234-2.913 7.766z"/>
    <path fill="#434240" d="M265.947 243.865l-30.812-3.562-.704 1.994c8.733.864 22.887 2.188 31.183 3.02l.334-1.452zM277.698 253.3c0-.062-.02-.118-.053-.17-.16.002-1.44.012-2.854.015-1.496.014-2.994.024-4.492.035l-1.912.026c-.108 2.377-.734 10.247-4.27 10.505v.758s7.666.083 11 0c-1.5-1.75-2-4.5-1.75-5.5 4 0 4.332-4.75 4.332-5.667z"/>
    <path fill="#BDBDBD" d="M242.154 249.42c-1.067.608-1.968 1.252-2.745 1.917.43 0 .852 0 1.284-.002 2.042-1.32 4.844-2.222 8.708-2.222 3.585 0 6.3.862 8.357 2.158 2.366-.012 4.763-.025 7.173-.04-7.712-4.51-16.99-5.107-22.78-1.81zM161.822 247.877l-.125.006h-16.75c-2.405 0-5.498.348-9.068 2.672l2.73.05c2.188-1.285 4.962-2.126 8.522-2.126 3.734 0 6.583.954 8.762 2.395 20.034.273 47.59.517 80.504.467 1.168-1.36 2.685-2.673 4.724-3.835 6.766-3.855 17.674-1.823 26.41 3.704 2.093-.014 4.19-.027 6.316-.045-.665-2.935-2.4-5.196-2.4-5.196.215 0 .41.028.61.048-.683-.11-3.08-.366-6.446-.703-8.296-.83-22.45-2.154-31.182-3.02-4.22-.417-7.173-.727-7.587-.822-1.652-.38-25.547-10.55-29.742-10.55s-25.42-1.27-29.614-1.27c-.1 0-.23.007-.372.018v12.797c0 3.86-3.462 5.227-5.292 5.41zm10.125-16.075s22.5.25 25.75.25c2.032 0 9.54 3.812 14.88 6.67 1.933.488 5.62 3.08 5.62 3.08l-10.5.06-3.187.017-1.173.017.004-.012-30.144.168-1.593.035-.233-10.3.577.014zM139.96 235.18c-10.697 2.386-20.392 4.64-20.392 4.64v.026c.086-.008.168-.022.256-.027v11.05h.014v-.66c.156.004 4.355.116 12.012.27 5.27-4.563 9.997-5.096 13.098-5.096h16.676c.48-.063 2.99-.51 2.99-2.917v-.416l-3.17-.01.254-9.987h2.917v-2.03c-.903.153-1.964.348-3.167.58-4.97.958-12.194 2.516-19.25 4.08-.582.13-1.16.26-1.738.387l-.5.11zm19.487-2.878v9.835l-28.167.48v.02h-4.75c-1.083 0-.5-.083-.417-1.167.072-.934 3.788-2.235 4.816-2.578l.017-.09 28.5-6.5z"/>
    <path fill="#9B9B9A" d="M133.332 252.51c-3.47 3.123-5.316 9.837-5.785 11.76 1.3.628 2.6 1.224 3.843 1.734-.72-2.838-.254-5.368.716-7.51.807-1.993 2.03-4.14 3.897-5.935l-2.67-.05zM119.838 252.208v-1.34h-.014v1.28l.03 8.013s-.046-.008-.112-.023c1.607.914 3.518 1.967 5.512 2.99.576-2.23 2.08-7.17 4.77-10.685-6.494-.134-10.043-.23-10.186-.234zM231.783 261.227c.218-.566.424-1.225.64-1.922.553-1.767 1.208-3.86 2.498-5.95-2.282.005-4.537.008-6.72.008-28.094 0-51.844-.208-69.896-.447 1.79 1.94 2.865 4.242 3.476 6.317 0 .004-.046.01-.12.018.492 1.105.882 2.285 1.064 3.548l68.67-.822c.152-.24.29-.488.39-.75zM234.5 259.516c-.213.685-.647 1.765-.908 2.433l1.658-.02c0-.013 0-.122.004-.292 0-.966.123-2.28.622-3.736.44-1.45 1.197-3.086 2.48-4.553h-.885c-1.61 2.052-2.357 4.203-2.97 6.166zM268.386 253.207l-.488.007-.02-.015c-2.58.018-5.15.035-7.712.05 3.514 3.746 3.942 8.837 3.912 9.94.004.174.013.347.01.525.01 0 .02-.003.028-.004 3.535-.256 4.16-8.127 4.27-10.503z"/>
    <path fill="#838280" d="M119.823 252.148V239.82c-.087.004-.17.02-.255.026-1.08.104-1.94.498-2.636 1.068-3.232 2.647-2.786 9.322-2.617 10.98 2.647-.004 5.507-.014 5.507-.014v.268z"/>
    <path fill="#434240" d="M119.823 252.148v-.268s-2.86.01-5.508.013h-1.48c.117 6.488 6.052 8.053 6.907 8.244.066.016.11.024.11.024l-.03-8.012z"/>
    <path fill="#565A5B" d="M273.85 251.166c-2.128.018-4.225.03-6.318.046.975.617 1.93 1.267 2.843 1.968h-.076c1.497-.01 2.995-.02 4.492-.033h-.688c-.015-.683-.112-1.347-.255-1.98zM257.76 251.272c.928.584 1.727 1.254 2.405 1.978 2.56-.015 5.132-.032 7.71-.05-.944-.727-1.93-1.38-2.94-1.97-2.412.016-4.808.03-7.175.042zM119.838 250.87v1.34c.144.003 3.692.1 10.188.233.542-.708 1.128-1.36 1.768-1.92l.057-.045c-7.655-.152-11.854-.265-12.01-.27v.662zM133.436 252.41c-.036.03-.068.067-.104.1l2.67.05c.755-.723 1.628-1.38 2.607-1.954l-2.73-.05c-.794.515-1.61 1.124-2.444 1.853zM155.895 250.875c.916.606 1.72 1.292 2.41 2.04 18.052.24 41.802.447 69.895.447 2.184 0 4.438-.003 6.722-.007.417-.676.908-1.35 1.478-2.014-32.916.052-60.47-.19-80.505-.465zM237.472 253.35h.886c.638-.73 1.41-1.415 2.337-2.015-.433 0-.854 0-1.285.002-.764.654-1.4 1.328-1.938 2.014z"/>
    <path fill="#838280" d="M273.85 251.166c.143.635.24 1.3.254 1.98h.688c1.414-.004 2.694-.014 2.854-.016h.036s-.54-6.607-5.623-7.112c-.202-.02-.397-.05-.612-.05 0 0 1.736 2.263 2.4 5.198z"/>
    <path fill="#434240" d="M209.824 267.2l11.007-.172c1.107-.06 2.025-.158 2.567-.333 1.8-.582 6.323-2.054 7.997-4.72l-68.67.822-.402.005.375 5.125 46.84-.725.006-.014c.086.005.187.007.28.01zM257.76 251.272c-2.06-1.296-4.772-2.158-8.357-2.158-3.864 0-6.666.9-8.708 2.222-.928.6-1.7 1.284-2.337 2.014-1.284 1.467-2.04 3.104-2.48 4.553-.52 1.71-.608 3.147-.623 3.736-.004.17-.003.278-.004.29l-1.657.02-.064.165c-.89 2.304-2.734 3.74-4.917 4.794l6.836-.106v-2.882l.955-.02c.02-.304.93-12.91 12.956-12.91 10.598 0 12.143 9.765 12.364 12.336l.48-.01 1.868-.004c.003-.032.004-.076.006-.123.03-1.102-.398-6.192-3.912-9.938-.68-.726-1.478-1.396-2.406-1.98zM158.305 252.916c-.69-.748-1.494-1.434-2.41-2.04-2.18-1.44-5.027-2.396-8.762-2.396-3.56 0-6.334.84-8.523 2.126-.98.575-1.853 1.23-2.606 1.955-1.868 1.796-3.09 3.942-3.897 5.936-.255.63-.47 1.245-.65 1.828-.016.053.77.062 2.084.042 1.435-4.256 4.958-9.946 13.552-9.946 7.934 0 11.32 4.848 12.77 8.94.93-.048 1.56-.086 1.8-.108.074-.008.12-.014.12-.018-.612-2.076-1.688-4.378-3.477-6.318z"/>
    <path fill="#BDBDBD" d="M147.09 250.418c-8.594 0-12.117 5.69-13.55 9.946-.856 2.54-.968 4.57-.968 4.57h28.375s-.027-2.586-1.086-5.575c-1.45-4.094-4.837-8.942-12.77-8.942zM249.36 250.99c-12.028 0-12.938 12.606-12.957 12.91v.01l-.016.277h25.374v-.246c0-.016-.006-.24-.038-.614-.22-2.572-1.766-12.337-12.363-12.337z"/>
    <path fill="#434240" d="M132.508 264.952h28.42v3.336h-28.42zM236.215 264.187v3.336h25.617v-3.336h-25.444z"/>
    <path fill="#F0EFEE" d="M203.342 241.884c.047-.12 1.195-3.102 1.52-4 .334-.915 1.584-.25 1.25.418-.33.664-1.592 3.553-1.602 3.576l3.186-.018 10.5-.06h-10.5v-1.25c0-1.916 2.667-1.916 4.334-1.916.157 0 .345.035.546.086-5.34-2.856-12.847-6.67-14.88-6.67-3.25 0-25.75-.25-25.75-.25l1.25 10.25 30.146-.166zm-28.067-1c.25-.124 1.166-.582.125-1.124s1.04-4.666 2.583-4.875 1.625 2.46 1.458 3.834c-.165 1.374-1.04 1.082-1.04 1.082s.125.208.125 1.042c1.625 0 1.583 1.166 1.583 1.166s-4.86.026-5.567.026c-.082-.416.485-1.026.735-1.15zM130.93 238.892l.268-.088.083 3.814 28.168-.48V232.3l-28.5 6.5-.018.09z"/>
    <path fill="#434240" d="M161.443 242.04l3.17.01v-9.998h-2.916z"/>
    <path fill="#8C8C8C" d="M173.197 242.052l-1.25-10.25-.576-.015.234 10.3z"/>
    <path fill="#434240" d="M130.93 238.892c-1.028.343-4.744 1.645-4.816 2.578-.082 1.084-.666 1.167.418 1.167h4.75v-.02l-.084-3.813-.268.088zM207.696 240.552v1.25h10.5s-3.687-2.592-5.62-3.08c-.2-.052-.39-.087-.546-.087-1.667 0-4.334 0-4.334 1.917zM204.863 237.885c-.326.897-1.475 3.88-1.52 4l-.005.01 1.172-.015v-.002c.01-.023 1.272-2.912 1.604-3.576.332-.667-.918-1.333-1.25-.417zM180.108 242.01s.042-1.166-1.583-1.166c0-.834-.125-1.042-.125-1.042s.875.292 1.04-1.083c.168-1.376.085-4.044-1.457-3.835s-3.624 4.333-2.583 4.875.125 1-.125 1.125-.817.734-.734 1.15c.71.002 5.568-.025 5.568-.025z"/>
    <path fill="#F26A63" d="M233.527 262.114l.064-.165c.262-.67.696-1.75.91-2.434.612-1.963 1.358-4.114 2.97-6.165.54-.686 1.176-1.36 1.94-2.013.776-.665 1.677-1.31 2.744-1.917 5.788-3.298 15.066-2.7 22.78 1.81 1.01.59 1.996 1.243 2.94 1.97l.022.014.488-.007 1.912-.026h.076c-.912-.7-1.868-1.35-2.843-1.968-8.736-5.527-19.645-7.56-26.41-3.704-2.04 1.162-3.556 2.474-4.724 3.835-.57.663-1.06 1.338-1.478 2.014-1.29 2.088-1.945 4.183-2.497 5.95-.216.696-.422 1.354-.64 1.92-.1.262-.237.51-.39.75-1.673 2.665-6.196 4.137-7.996 4.72-.542.174-1.46.272-2.566.332-1.46.08-3.256.09-5.037.108-2.315.022-4.572.108-5.97.062l-.28-.01-.007.014-.027.055c.61.03 3.65 1.758 6.918 1.758 3.06 0 6.262.057 7.756-.427 1.507-.487 3.036-1.007 4.43-1.68 2.184-1.057 4.03-2.493 4.917-4.796zM133.332 252.51c.035-.033.067-.07.104-.102.836-.73 1.65-1.338 2.443-1.854 3.57-2.324 6.662-2.672 9.067-2.672h16.75l.125-.006c1.83-.184 5.292-1.55 5.292-5.41v-12.833h-2.5v12.833c0 2.407-2.51 2.854-2.99 2.917h-16.677c-3.1 0-7.828.532-13.098 5.095l-.058.046c-.64.558-1.226 1.21-1.768 1.92-2.692 3.515-4.195 8.454-4.77 10.685-.172.657-.265 1.087-.28 1.164l2.446.513c.003-.013.047-.215.126-.537.47-1.923 2.315-8.637 5.786-11.76z"/>
  </g>
  <ellipse cx="196.874" cy="320.969" fill="#CD9C89" rx="43.917" ry="2.25"/>
  <path fill="#D3CF77" d="M158.54 287.636h2v33.167h-2z"/>
  <path fill="#B8BD82" d="M160.54 287.636h.917v33.167h-.916z"/>
  <path fill="#94AE70" d="M161.457 287.636v33.167h.917v-33.167z"/>
  <path fill="#D3CF77" d="M233.623 287.636h2v33.167h-2z"/>
  <path fill="#B8BD82" d="M232.707 287.636h.916v33.167h-.916z"/>
  <path fill="#94AE70" d="M232.707 287.636v33.167h-.917v-33.167zM155.494 285.927h83.918v5.18h-83.918zM155.494 292.92h83.918v5.18h-83.918zM155.494 299.914h83.918v5.18h-83.918z"/>
  <path fill="#6A8D3C" d="M153.596 307.315h87.197v1.036h-87.197z"/>
  <path fill="#637432" d="M153.51 308.375h87.197v1.036H153.51z"/>
  <path fill="none" d="M98.908 208.23l-.092-.52-1.886 25.842z"/>
  <path fill="#CD9C89" d="M100.908 317.615v-1.72c-2.23.265-3.793.882-3.793 1.603 0 .96 2.78 1.738 6.207 1.738s6.207-.778 6.207-1.738c0-.735-1.633-1.362-3.935-1.616v1.733h-4.687z"/>
  <g class="tree">
    <path class="trunk" fill="#9D6C48" d="M100.908 315.896v1.72h4.688v-31.813h-4.688z"/>
    <g class="leaves">
      <path fill="#A3CE53" d="M98.97 207.427l-.036.484.344 1.194zM96.93 233.552l-3.817 52.25h19.608L98.91 208.23z"/>
      <path fill="#BEDB89" d="M98.846 207.302l-.035.188.018.057zM98.816 207.71l-.023-.125-14.447 78.467h8.75l.017-.25 3.817-52.25z"/>
      <path fill="#008E45" d="M99.278 209.104l-.344-1.193-.106-.363-.017-.057-.09-.313.073.408.023.126.092.52L112.72 285.8h8.751z"/>
    </g>
  </g>
  <path fill="none" d="M285.908 208.23l-.092-.52-1.886 25.842z"/>
  <path fill="#CD9C89" d="M287.908 317.615v-1.72c-2.23.265-3.793.882-3.793 1.603 0 .96 2.78 1.738 6.207 1.738s6.207-.778 6.207-1.738c0-.735-1.633-1.362-3.935-1.616v1.733h-4.687z"/>

  <g class="tree">
    <path fill="#9D6C48" d="M287.908 315.896v1.72h4.688v-31.813h-4.688z"/>

    <g class="leaves">
      <path fill="#A3CE53" d="M285.97 207.427l-.036.484.344 1.194zM283.93 233.552l-3.817 52.25h19.608L285.91 208.23z"/>
      <path fill="#BEDB89" d="M285.846 207.302l-.035.188.018.057zM285.816 207.71l-.023-.125-14.447 78.467h8.75l.017-.25 3.817-52.25z"/>
      <path fill="#008E45" d="M286.278 209.104l-.344-1.193-.106-.363-.017-.057-.09-.313.073.408.023.126.092.52L299.72 285.8h8.751z"/>
    </g>
  </g>
  <path id="title" d="M142.705 56.38c-1.245-1.557-3.785-1.06-5.38 2.757l-9.93 24.187-3.953.533 5.365-13.105-5.874.79-1.93 4.746C112.11 97.92 90.212 88.182 95.74 74.862c2.025-4.874 5.954-5.595 5.954-5.595l1.105 2.804s-2.653 1.086-3.87 4.01c-3.905 9.42 11.98 15.792 18.903-1.128L123.92 60.1c-3.927 2.714-10.615 3.73-12 7.1-1.48 3.533 2.098 4.47 2.098 4.47l-1.13 2.722c-2.734-.667-6.172-3.424-4.243-8.17 2.45-6.003 11.34-5.17 17.497-11.56l2.457 3.16-4.828 11.69 5.874-.79 4.28-10.354c3.763-9.056 12.43-6.198 13.088-1.303.172 1.28-.697 2.51-1.977 2.68-1.28.173-2.392-.674-2.564-1.954-.066-.487.02-.997.232-1.41zm3.166 16.097c.558.156 1.317.667 1.652 1.16-2.73 4.2-5.992 8.167-9.23 8.603-3.163.426-4.69-2.09-3.424-5.213l6.033-14.69 3.917-.53-6.423 15.78c-.696 1.667-.125 2.203.74 2.086 1.733-.233 4.13-3.202 6.514-6.858l.223-.338zM155.555 71.172c.558.155 1.317.667 1.65 1.16-2.73 4.2-5.99 8.167-9.23 8.603-3.162.426-4.69-2.09-3.423-5.213l9.7-23.62 3.915-.527-10.09 24.707c-.695 1.667-.124 2.202.74 2.085 1.733-.233 4.132-3.2 6.515-6.858l.223-.338zM165.233 69.868c.558.156 1.316.667 1.65 1.16-2.73 4.2-5.99 8.167-9.23 8.603-3.162.427-4.69-2.09-3.423-5.212l9.7-23.62 3.915-.526-10.09 24.706c-.695 1.667-.124 2.203.742 2.086 1.732-.233 4.13-3.2 6.514-6.858l.223-.338zM187.84 75.18l3.685-25.3c-4.557 3.45-13.79 5.192-13.102 10.314.487 3.615 5.055 3.65 6.808.156l2.047 1.527c-.834 2.067-2.908 3.458-5.13 3.757-6.89.928-10.877-9.307.586-14.148 3.407-1.456 7.113-3.26 9.992-5.794l2.566 2.262-2.605 17.64 8.2-16.247c4.268-8.167 10.207-6.475 11.46-3.424l-2.403 1.782c-1.475-2.408-3.61-1.468-5.656 2.41l-12.94 24.594-3.505.47zM220.74 62.39c.56.155 1.318.667 1.652 1.16-2.73 4.2-5.992 8.167-9.23 8.603-1.996.27-3.342-.623-3.734-2.105-1.674 1.8-3.494 3.08-5.076 3.292-3.164.426-4.69-2.09-3.424-5.213l4.22-10.23c1.27-3.083 3.983-5.136 6.093-5.42 2.562-.345 4.565 1.724 4.638 3.4l2.22-.3-4.834 11.923c-.695 1.667-.125 2.202.742 2.085 1.73-.233 4.13-3.2 6.512-6.858l.222-.337zm-16.287 6.297c-.697 1.667-.125 2.202.74 2.085 1.62-.218 3.715-2.303 5.586-6.35l2.33-5.758c1.442-3.798-2.864-4.176-4.48-.24l-4.177 10.263zM230.42 61.085c.56.155 1.318.667 1.652 1.16-2.73 4.2-5.992 8.167-9.23 8.603-3.162.426-4.69-2.09-3.424-5.213l9.7-23.62 3.915-.527-10.09 24.707c-.695 1.667-.125 2.202.742 2.085 1.73-.233 4.13-3.2 6.512-6.858l.223-.337zM240.1 59.78c.557.157 1.316.668 1.65 1.16-2.73 4.202-5.992 8.168-9.23 8.604-3.162.426-4.69-2.09-3.424-5.213l9.7-23.618 3.915-.527-10.09 24.706c-.694 1.668-.124 2.204.743 2.087 1.732-.233 4.13-3.202 6.514-6.858l.223-.34zM243.676 60.144l-.285.73c-1.38 3.406.253 4.72 2.663 4.394 2.75-.37 6.014-3.455 8.396-7.112l.222-.337c.56.154 1.316.666 1.652 1.158-2.732 4.202-6.67 8.26-11.113 8.858-4.632.624-7.257-2.933-5.372-7.442l3.154-7.594c1.27-3.084 3.572-5.082 6.734-5.508 3.2-.43 5.6 2.006 3.977 5.904l-.432 1.055c-2.25 5.48-6.93 6.608-9.594 5.894zm.87-2.074c1.54.33 4.073.066 5.524-3.39l.434-1.054c1.785-4.38-2.29-4.483-4.027-.3l-1.93 4.744zM262.887 58.168l5.307-12.983 3.916-.527-8.256 19.82c2.908-1.732 5.334-4.513 8.07-8.677l.223-.336c.557.156 1.316.667 1.65 1.16-3.623 5.548-7.238 8.872-11.133 10.7l-2.316 5.564c-2.176 5.2-8.043 5.186-8.55 1.42-.396-2.938 2.622-5.567 7.72-7.864l1.648-3.98c-1.557 1.82-3.49 3.69-5.373 3.945-2.598.35-3.83-1.978-2.303-5.71l5.89-14.327 3.917-.528-5.848 14.36c-.378.895-1.16 2.495-.124 2.777.8.237 2.924-1.62 5.56-4.814zm-5.903 14.52l1.38-3.407c-2.854 1.575-3.638 2.87-3.5 3.885.142 1.055 1.49 1.105 2.12-.477z" />
  <use xlink:href="#title" fill="#FFFFFF" class="text"></use>
  <use xlink:href="#title" fill="#F0C7C6" class="text"></use>
  <use xlink:href="#title" fill="#F0A4A3" class="text"></use>
  <use xlink:href="#title" fill="#EF7B71" class="text"></use>
  <use xlink:href="#title" fill="#E3513E" class="text"></use>
</svg>
