<?xml version="1.0" encoding="utf-8"?>
<!-- Generator: Adobe Illustrator 16.0.0, SVG Export Plug-In . SVG Version: 6.00 Build 0)  -->
<!DOCTYPE svg PUBLIC "-//W3C//DTD SVG 1.1//EN" "http://www.w3.org/Graphics/SVG/1.1/DTD/svg11.dtd">
<svg version="1.1" id="Layer_1" xmlns="http://www.w3.org/2000/svg" xmlns:xlink="http://www.w3.org/1999/xlink" x="0px" y="0px"
	 width="391.668px" height="378.623px" viewBox="0 0 391.668 378.623" enable-background="new 0 0 391.668 378.623"
	 xml:space="preserve">
<circle fill="#E2D9C9" cx="196.408" cy="189.312" r="189.312"/>
<path fill="#BFDC8A" d="M72.4,311.553h248.016c4.654-4.723,9.049-9.703,13.143-14.93H59.257
	C63.353,301.85,67.744,306.834,72.4,311.553L72.4,311.553z"/>
<path fill="#73CCD3" d="M359.166,123.519c-26.031-64.334-89.09-109.725-162.758-109.725c-73.667,0-136.724,45.39-162.757,109.725
	H359.166L359.166,123.519z"/>
<g>
	<defs>
		<path id="SVGID_1_" d="M359.166,123.519c-26.031-64.334-89.09-109.725-162.758-109.725c-73.667,0-136.724,45.39-162.757,109.725
			H359.166L359.166,123.519z"/>
	</defs>
	<clipPath id="SVGID_2_">
		<use xlink:href="#SVGID_1_"  overflow="visible"/>
	</clipPath>
	<g clip-path="url(#SVGID_2_)">
		<path fill="#FFFFFF" d="M74.898,119.274h-1.369c0.045-1.137,0.008-2.96-0.525-4.318c-0.834-2.122-2.879-3.333-4.395-3.562
			c-1.184-0.177-3.926-0.079-5.078-0.025c-0.764-3.777-4.42-6.641-8.825-6.641c-4.813,0-8.729,3.422-8.954,7.719
			c-1.157,0.023-2.244,0.029-3.205,0.009c-5.806,1.531-5.594,5.576-5.382,6.818h-1.664c-0.584,0-1.061,0.476-1.061,1.06
			c0,0.586,0.477,1.062,1.061,1.062h39.397c0.586,0,1.061-0.476,1.061-1.062C75.959,119.75,75.484,119.274,74.898,119.274z"/>
	</g>
</g>
<path fill="#CEA798" d="M136.204,160.874v1.726h-1.21v1.208h1.21v1.727h-1.21v93.96h1.152v1.5h-1.15v0.891h1.208v2.242h1.727v7.176
	h24.857v-7.176h1.727v-2.244h1.211v-0.889h-1.154v-1.5h1.154v-44.275h-3.108v35.332H140.78v-35.33h-3.797l14.8-8.92l13.94,8.51
	v-37.233l-6.927-6.71h-0.252v26.117h-13.208v-26.117h-1.136v-3.075h11.42l-20.625-19.979v13.063L136.204,160.874z M228.02,259.494
	v1.5h-1.15v0.891h1.209v2.244h1.727v7.174h25.137v3.5H137.958v0.094h117.036v-10.768h0.08l-14.014-13.578h-9.777v-9.471
	l-4.412-4.273v22.688H228.02z M121.68,165.536h-1.21v-1.727h1.21v-1.21h-1.21v-1.726h1.21v-15.195h11.752l-0.04-0.125H114.47v-1.5
	H5.97v108.424h115.71V165.536L121.68,165.536z M81.322,170.866v-3.076h15.264v3.075h-1.043v26.116H82.336v-26.116H81.32
	L81.322,170.866z M81.016,146.72h15v8.666h-15v-8.667V146.72z M42.312,170.865v-3.076h15.265v3.075h-1.034v26.117H43.336v-26.117
	L42.312,170.865L42.312,170.865z M42.277,146.718h15v8.666h-15V146.718L42.277,146.718z M59.865,215.217v35.332H38.03v-35.328
	h-3.797l14.8-8.92l14.61,8.92h-3.778V215.217z M98.615,215.217v35.332H76.78v-35.328h-3.797l14.8-8.92l14.61,8.92h-3.778V215.217z
	 M280.219,145.552h-17.797v0.125h8.822v15.195h1.209v1.727h-1.209v1.208h1.209v1.727h-1.209v86.94h114.227V144.054H280.219v1.5
	V145.552z M332.707,146.72h15.002v8.666h-15.002v-8.667V146.72z M331.125,167.79h15.264v3.075h-0.961v26.116h-13.205v-26.116h-1.098
	V167.79L331.125,167.79z M339.283,206.299l14.611,8.92h-3.781v35.332h-21.832v-35.33h-3.797l14.799-8.92V206.299z M293.969,146.72
	h15v8.666h-15v-8.667V146.72z M292.166,167.79h15.264v3.075h-1.002v26.116h-13.205v-26.116h-1.055v-3.075H292.166z M300.531,206.299
	l14.611,8.92h-3.779v35.332h-21.834v-35.33h-3.797l14.801-8.92L300.531,206.299z M180.19,259.494v1.5h-1.15v0.891h1.208v2.244h1.727
	v7.174h28.641v-7.174h1.729v-2.244h1.209v-0.891H212.4v-1.5h1.152v-35.586l-6.438-6.236v52.879H185.28v-55.33h-3.797l14.24-8.582
	l-16.684-16.162v69.02L180.19,259.494z"/>
<path fill="#E2D9C9" d="M280.219,133.221v2.418h-165.75v-2.417H5.97v6.225l0.445-0.605l108.053,0.013v1.813h165.75v-1.794
	l104.92,0.012l0.334,0.425v-6.09L280.219,133.221z M280.219,143.052v1h105.254v-2.218H280.219V143.052z M114.468,143.187v-1.354
	H5.97v2.22h108.5L114.468,143.187z"/>
<path fill="#B9B69B" d="M280.219,138.874v1.794h-165.75v-1.814L6.415,138.84l-0.444,0.605l-1.752,2.389H114.47v-1.146h165.75v1.146
	h107.229l-1.977-2.524l-0.334-0.425L280.219,138.874z M114.468,132.14l-1.325-1.546H4.817l-0.026-0.04H4.668v2.667H114.47
	L114.468,132.14z M280.219,132.14v1.081h106.783v-2.626H281.541L280.219,132.14z"/>
<path fill="#CDC6AC" d="M113.143,130.594l1.325,1.546h165.75l1.324-1.546h105.473l2.486-4H285.76v1.958H108.927v-1.958H2.167
	l2.624,3.96l0.027,0.04H113.143z"/>
<path fill="#E2D9C9" d="M271.244,253.811v5.684h1.15v1.5h-1.15v0.891h1.211v2.244h1.727v8.98h0.027v4.104h-19.215v2.496h-0.051
	v-0.312H137.957v-2.184h-19.215v-13.086h1.727v-2.242h1.21v-0.891h-1.153v-1.5h1.151v-5.686H5.15v31.076h0.767v-0.168h112.826v2.387
	h19.215v-2.895h116.983v-0.062h0.051v2.957h19.215v-2.383H385.75v0.168h1.066v-31.334v0.258L271.244,253.811z"/>
<path fill="#B9B69B" d="M121.68,252.477H5.15v1.334h116.53V252.477z M271.244,253.811h115.57v-1.334h-115.57V253.811z"/>
<path fill="#C8B5A4" d="M274.207,284.719v2.385h-19.213v-2.957h-0.051v0.062H137.957v2.895h-19.215v-2.387H5.917v3.5h112.826v5.336
	H5.917v4.832H385.75v-4.832H274.207v-5.334H385.75v-3.5H274.207L274.207,284.719z M254.994,292.146h-0.051v1.312H137.957v-4.812
	h116.984v0.312h0.051v3.188H254.994z"/>
<path fill="#DEDEC5" d="M274.207,293.553H386.5v-5.334H274.207V293.553z M254.941,288.959h0.051v3.188h-0.051V288.959z
	 M118.743,288.219H5.167v5.334h113.576V288.219z"/>
<path fill="#CEA798" d="M133.432,145.677h1.563v2.132l20.625,19.978h3.843v3.076h-0.667l6.927,6.71v-12.04h-1.21v-1.728h1.21v-1.21
	h-1.21v-1.726h1.21v-15.194h13.316v15.195h1.207v1.728h-1.21v1.21h1.21v1.726h-1.21v24.941l16.687,16.16l0.56-0.338l14.609,8.922
	h-3.777v2.451l6.438,6.234v-58.372h-1.211v-1.727h1.211v-1.21h-1.211v-1.726h1.211v-15.195h13.314v15.195h1.209v1.727h-1.211v1.21
	h1.211v1.726h-1.211v71.271l4.414,4.275v-25.861h-3.797l14.801-8.92l14.609,8.92h-3.777v35.332h-12.059l14.016,13.576h1.646v-2.244
	h1.211v-0.891h-1.15v-1.5h1.15v-93.96h-1.211v-1.727h1.211v-1.21h-1.211v-1.726h1.211v-15.196h4.492v-0.125H133.391l0.04,0.126
	L133.432,145.677z M249.564,170.866h-1.02v26.117h-13.209v-26.117h-1.035v-3.075h15.264V170.866L249.564,170.866z M234.23,146.721
	h15v8.666h-15V146.721L234.23,146.721z M204.57,170.866h-1.027v26.117h-13.207v-26.117h-1.028v-3.075h15.264v3.075H204.57z
	 M188.492,146.72h15v8.666h-15v-8.667V146.72z M144.754,146.72h15v8.666h-15v-8.667V146.72z"/>
<path opacity="0.5" fill="#BC8B79" enable-background="new    " d="M133.432,145.677h1.563v2.132l20.625,19.978h3.843v3.076h-0.667
	l6.927,6.71v-12.04h-1.21v-1.728h1.21v-1.21h-1.21v-1.726h1.21v-15.194h13.316v15.195h1.207v1.728h-1.21v1.21h1.21v1.726h-1.21
	v24.941l16.687,16.16l0.56-0.338l14.609,8.922h-3.777v2.451l6.438,6.234v-58.372h-1.211v-1.727h1.211v-1.21h-1.211v-1.726h1.211
	v-15.195h13.314v15.195h1.209v1.727h-1.211v1.21h1.211v1.726h-1.211v71.271l4.414,4.275v-25.861h-3.797l14.801-8.92l14.609,8.92
	h-3.777v35.332h-12.059l14.016,13.576h1.646v-2.244h1.211v-0.891h-1.15v-1.5h1.15v-93.96h-1.211v-1.727h1.211v-1.21h-1.211v-1.726
	h1.211v-15.196h4.492v-0.125H133.391l0.04,0.126L133.432,145.677z M249.564,170.866h-1.02v26.117h-13.209v-26.117h-1.035v-3.075
	h15.264V170.866L249.564,170.866z M234.23,146.721h15v8.666h-15V146.721L234.23,146.721z M204.57,170.866h-1.027v26.117h-13.207
	v-26.117h-1.028v-3.075h15.264v3.075H204.57z M188.492,146.72h15v8.666h-15v-8.667V146.72z M144.754,146.72h15v8.666h-15v-8.667
	V146.72z"/>
<path fill="#E2D9C9" d="M254.941,271.303h-25.137v1.805h-2.936v0.346h-13.316v-0.346h-2.938v-1.805h-28.639v1.805h-2.937v0.346
	h-13.317v-0.346h-2.936v-1.805H137.93v1.805h0.028v1.695h116.983V271.303z M254.941,288.646H137.958v4.812h116.983v-4.5V288.646z"/>
<path fill="#DEDEC5" d="M212.4,259.494v1.5h1.152v0.891h-1.211v2.244h-1.727v8.979h2.938v0.346h6.41v-0.346h-0.348v-8.98h0.348
	v-98.591h-0.174v-1.727h0.172v-1.21h-0.172v-1.725h0.172v-15.196h-6.41v15.196h-1.211v1.726h1.211v1.208h-1.211v1.727h1.211v93.96
	H212.4z"/>
<path fill="#D6D0B6" d="M219.789,160.874v1.726h0.174v1.208h-0.174v1.727h0.172v98.593h-0.346v8.98h0.346v0.346h6.908v-0.346h2.936
	v-8.979h-1.729v-2.244h-1.209v-0.891h1.152v-1.5h-1.15v-93.958h1.209v-1.728h-1.209v-1.21h1.209v-1.725h-1.209v-15.196h-6.906
	v15.196H219.789z"/>
<path fill="#DEDEC5" d="M166.395,215.219h-0.672v44.275h-1.152v1.5h1.153v0.891h-1.21v2.244h-1.726v8.979h2.936v0.346h6.41v-0.346
	h-0.346v-8.98h0.346v-98.591h-0.173v-1.727h0.173v-1.21h-0.173v-1.725h0.173v-15.196h-6.41v15.196h-1.21v1.726h1.21v1.208h-1.21
	v1.727h1.21v49.274L166.395,215.219z"/>
<path fill="#D6D0B6" d="M171.96,160.874v1.726h0.172v1.208h-0.172v1.727h0.172v98.593h-0.346v8.98h0.346v0.346h6.907v-0.346h2.935
	v-8.979h-1.727v-2.244h-1.21v-0.891h1.152v-1.5h-1.15v-93.96h1.208v-1.726h-1.21v-1.21h1.21v-1.725h-1.21v-15.196h-6.905v15.196
	H171.96z"/>
<path fill="#DEDEC5" d="M257.93,160.874h-1.209v1.726h1.209v1.208h-1.209v1.727h1.209v93.96h-1.152v1.5h1.152v0.891h-1.211v2.242
	h-1.725v8.98h8.996v-8.98h0.346v-98.593h-0.174v-1.727h0.174v-1.21h-0.174v-1.725h0.174v-15.196h-6.41L257.93,160.874z"/>
<path fill="#D6D0B6" d="M264.166,160.874v1.726h0.172v1.208h-0.174v1.727h0.174v98.593h-0.348v8.98h10.189v-8.98h-1.727v-2.244
	h-1.209v-0.889h1.152v-1.5h-1.15v-93.96h1.207v-1.728h-1.209v-1.21h1.209v-1.725h-1.209v-15.196h-6.904v15.196L264.166,160.874z"/>
<path fill="#C8B5A4" d="M264.34,273.107h-9.35v1.791H137.958v-1.791h-19.216v4.105h19.215v2.184h116.984v0.312h0.049v-2.496h19.217
	v-4.105h-2.963H264.34z"/>
<path fill="#DEDEC5" d="M127.743,273.107v-8.98h0.346v-98.591h-0.174v-1.727h0.173v-1.21h-0.174v-1.725h0.173v-15.196h-6.41v15.196
	h-1.21v1.726h1.21v1.208h-1.21v1.727h1.21v93.958h-1.153v1.5h1.152v0.891h-1.21v2.244h-1.727v8.98h2.936H127.743z"/>
<path fill="#D6D0B6" d="M127.916,160.874v1.726h0.173v1.208h-0.174v1.727h0.173v98.593h-0.347v8.98h10.189v-8.98h-1.726v-2.244
	h-1.21v-0.889h1.152v-1.5h-1.15v-93.96h1.208v-1.726h-1.21v-1.21h1.21v-1.725h-1.21v-15.197h-6.904v15.196L127.916,160.874z"/>
<path fill="#DFD6C6" d="M114.468,144.052v1.5h165.75v-2.365h-165.75V144.052z"/>
<path fill="#B8B5A5" d="M114.468,143.187h165.75v-2.499h-165.75v2.366V143.187z M114.468,132.14v3.499h165.75v-3.497L114.468,132.14
	z"/>
<path fill="#E2D9C9" d="M285.76,128.553v-2h105.908l-2.002-2.668H279.438l2.678-3.666l-87.001-39.666l-87.166,40l4.932,3.332H2
	l-2,2.668h108.927v2H285.76z M195.113,83.387l80.167,36.666H116.28L195.113,83.387z"/>
<path fill="#AD8C82" d="M195.113,86.387l73.608,33.666h6.561l-80.167-36.666l-78.833,36.666h6.451L195.113,86.387z"/>
<path fill="#CEA798" d="M122.73,120.053h43.383v-14.5h16.185c0.18-7.104,6.002-12.834,13.15-12.834
	c7.146,0,12.971,5.73,13.15,12.834h17.516v14.5h42.607l-73.608-33.666L122.73,120.053z"/>
<path fill="#6D5446" d="M208.598,105.552c0.002,0.11,0.016,0.221,0.016,0.333c0,7.26-5.904,13.167-13.166,13.167
	c-7.26,0-13.167-5.906-13.167-13.167c0-0.112,0.016-0.222,0.018-0.333h-16.184v14.5h60v-14.5H208.598L208.598,105.552z"/>
<path fill="#E2D9C9" d="M195.447,118.052c6.707,0,12.166-5.459,12.166-12.167s-5.459-12.167-12.166-12.167
	c-6.71,0-12.167,5.46-12.167,12.167S188.738,118.052,195.447,118.052L195.447,118.052z M195.447,94.802
	c6.109,0,11.082,4.972,11.082,11.083c0,6.111-4.973,11.083-11.083,11.083c-6.11,0-11.084-4.972-11.084-11.083
	c0-6.111,4.974-11.083,11.084-11.083H195.447z"/>
<path fill="#B99C8B" d="M195.447,119.053c7.26,0,13.166-5.906,13.166-13.167c0-0.112-0.014-0.222-0.018-0.333
	c-0.18-7.104-6.002-12.834-13.15-12.834c-7.146,0-12.97,5.73-13.15,12.834c0,0.11-0.016,0.221-0.016,0.333
	C182.28,113.146,188.187,119.053,195.447,119.053L195.447,119.053z M195.447,93.718c6.707,0,12.166,5.46,12.166,12.167
	s-5.459,12.167-12.166,12.167c-6.71,0-12.167-5.459-12.167-12.167S188.738,93.718,195.447,93.718L195.447,93.718z"/>
<path fill="#E2D9C9" d="M195.447,116.469c5.834,0,10.582-4.748,10.582-10.583c0-5.835-4.748-10.583-10.583-10.583
	c-5.836,0-10.584,4.748-10.584,10.583c0,5.835,4.748,10.583,10.584,10.583H195.447z M195.447,96.637c5.1,0,9.25,4.148,9.25,9.25
	c0,5.102-4.15,9.248-9.25,9.248c-5.1,0-9.25-4.148-9.25-9.25C186.197,100.783,190.347,96.637,195.447,96.637z"/>
<path fill="#B99C8B" d="M195.447,116.969c6.109,0,11.082-4.972,11.082-11.083c0-6.111-4.973-11.083-11.083-11.083
	c-6.11,0-11.084,4.972-11.084,11.083c0,6.111,4.974,11.083,11.084,11.083H195.447z M195.447,95.302
	c5.834,0,10.582,4.748,10.582,10.583c0,5.835-4.748,10.583-10.583,10.583c-5.836,0-10.584-4.748-10.584-10.583
	c0-5.835,4.748-10.583,10.584-10.583H195.447z"/>
<path fill="#E2D9C9" d="M195.447,114.634c4.824,0,8.75-3.923,8.75-8.75c0-4.826-3.926-8.748-8.75-8.748
	c-4.825,0-8.75,3.923-8.75,8.75S190.622,114.634,195.447,114.634z"/>
<path fill="#B99C8B" d="M195.447,115.134c5.1,0,9.25-4.148,9.25-9.25c0-5.102-4.15-9.248-9.25-9.248c-5.1,0-9.25,4.148-9.25,9.25
	C186.197,110.988,190.347,115.134,195.447,115.134z M195.447,97.137c4.824,0,8.75,3.923,8.75,8.75s-3.926,8.748-8.75,8.748
	c-4.825,0-8.75-3.923-8.75-8.75C186.697,101.058,190.622,97.137,195.447,97.137z"/>
<path fill="#73CCD3" d="M50.377,147.72h5.9v6.667h-5.9V147.72z"/>
<path fill="#586D6F" d="M57.277,155.386v-8.667h-15v8.666L57.277,155.386L57.277,155.386z M50.377,147.72h5.9v6.666h-5.9v-6.667
	V147.72z M49.377,154.386h-6.1v-6.667h6.1v6.666V154.386z"/>
<path fill="#73CCD3" d="M43.277,147.72h6.1v6.667h-6.1V147.72z M89.115,147.72h5.9v6.667h-5.9V147.72z"/>
<path fill="#586D6F" d="M96.016,155.386v-8.667h-15v8.666L96.016,155.386L96.016,155.386z M89.116,147.72h5.899v6.666h-5.899v-6.667
	V147.72z M88.116,154.386h-6.1v-6.667h6.1v6.666V154.386z"/>
<path fill="#73CCD3" d="M82.016,147.72h6.1v6.667h-6.1V147.72z M152.854,147.72h5.899v6.667h-5.899V147.72z"/>
<path fill="#586D6F" d="M159.754,155.386v-8.667h-15v8.666L159.754,155.386L159.754,155.386z M152.854,147.72h5.899v6.666h-5.899
	v-6.667V147.72z M151.854,154.386h-6.1v-6.667h6.1v6.666V154.386z"/>
<path fill="#73CCD3" d="M145.754,147.72h6.1v6.667h-6.1V147.72z M196.592,147.72h5.9v6.667h-5.9V147.72z"/>
<path fill="#586D6F" d="M203.492,155.386v-8.667h-15v8.666L203.492,155.386L203.492,155.386z M196.592,147.72h5.9v6.666h-5.9v-6.667
	V147.72z M195.592,154.386h-6.1v-6.667h6.1v6.666V154.386z"/>
<path fill="#73CCD3" d="M189.492,147.72h6.1v6.667h-6.1V147.72z M242.33,147.72h5.9v6.667h-5.9V147.72z"/>
<path fill="#586D6F" d="M249.23,155.386v-8.667h-15v8.666L249.23,155.386L249.23,155.386z M242.33,147.72h5.9v6.666h-5.9v-6.667
	V147.72z M241.33,154.386h-6.1v-6.667h6.1v6.666V154.386z"/>
<path fill="#73CCD3" d="M235.23,147.72h6.1v6.667h-6.1V147.72z M302.068,147.72h5.9v6.667h-5.9V147.72z"/>
<path fill="#586D6F" d="M308.971,155.386v-8.667h-15v8.666L308.971,155.386L308.971,155.386z M302.068,147.72h5.9v6.666h-5.9v-6.667
	V147.72z M301.068,154.386h-6.1v-6.667h6.1v6.666V154.386z"/>
<path fill="#73CCD3" d="M294.971,147.72h6.1v6.667h-6.1V147.72z M340.807,147.72h5.9v6.667h-5.9V147.72z"/>
<path fill="#586D6F" d="M347.707,155.386v-8.667h-15v8.666L347.707,155.386L347.707,155.386z M340.807,147.72h5.9v6.666h-5.9v-6.667
	V147.72z M339.807,154.386h-6.1v-6.667h6.1v6.666V154.386z"/>
<path fill="#73CCD3" d="M333.707,147.72h6.1v6.667h-6.1V147.72z M50.47,171.825h5.073v4.92H50.47V171.825z M50.47,190.312h5.073
	v5.412H50.47V190.312z M50.47,184.156h5.073v5.156H50.47V184.156z M50.47,177.745h5.073v5.412H50.47V177.745z"/>
<path fill="#5C6462" d="M43.334,184.156v12.826H56.54v-26.117H43.334v13.292V184.156z M50.47,171.825h5.073v4.92H50.47V171.825z
	 M50.47,177.745h5.073v5.412H50.47V177.745z M50.47,184.156h5.073v5.156H50.47V184.156z M50.47,190.312h5.073v5.412H50.47V190.312z
	 M44.365,171.825h5.104v4.92h-5.105L44.365,171.825L44.365,171.825z M44.365,177.745h5.104v5.412h-5.105L44.365,177.745
	L44.365,177.745z M44.365,184.156h5.104v5.156h-5.105L44.365,184.156L44.365,184.156z M44.365,190.312h5.104v5.412h-5.105
	L44.365,190.312L44.365,190.312z"/>
<path fill="#73CCD3" d="M44.365,171.825h5.104v4.92h-5.105L44.365,171.825z M44.365,184.156h5.104v5.156h-5.105L44.365,184.156z
	 M44.365,190.312h5.104v5.412h-5.105L44.365,190.312z M44.365,177.745h5.104v5.412h-5.105L44.365,177.745z M89.47,171.825h5.073
	v4.92H89.47V171.825z M89.47,190.312h5.073v5.412H89.47V190.312z M89.47,184.156h5.073v5.156H89.47V184.156z M89.47,177.745h5.073
	v5.412H89.47V177.745z"/>
<path fill="#5C6462" d="M82.334,184.156v12.826H95.54v-26.117H82.334v13.292V184.156z M89.47,171.825h5.073v4.92H89.47V171.825z
	 M89.47,177.745h5.073v5.412H89.47V177.745z M89.47,184.156h5.073v5.156H89.47V184.156z M89.47,190.312h5.073v5.412H89.47V190.312z
	 M83.365,171.825h5.104v4.92h-5.105v-4.92H83.365z M83.365,177.745h5.104v5.412h-5.105v-5.412H83.365z M83.365,184.156h5.104v5.156
	h-5.105v-5.156H83.365z M83.365,190.312h5.104v5.412h-5.105v-5.412H83.365z"/>
<path fill="#73CCD3" d="M83.365,171.825h5.104v4.92h-5.105L83.365,171.825z M83.365,184.156h5.104v5.156h-5.105L83.365,184.156z
	 M83.365,190.312h5.104v5.412h-5.105L83.365,190.312z M83.365,177.745h5.104v5.412h-5.105L83.365,177.745z M300.355,171.825h5.072
	v4.92h-5.072V171.825z M300.355,190.312h5.072v5.412h-5.072V190.312z M300.355,184.156h5.072v5.156h-5.072V184.156z
	 M300.355,177.745h5.072v5.412h-5.072V177.745z"/>
<path fill="#5C6462" d="M293.221,176.745v20.236h13.207v-26.116h-13.207V176.745z M300.355,171.825h5.072v4.92h-5.072V171.825z
	 M300.355,177.745h5.072v5.412h-5.072V177.745z M300.355,184.156h5.072v5.156h-5.072V184.156z M300.355,190.312h5.072v5.412h-5.072
	V190.312z M294.252,171.825h5.104v4.92h-5.104V171.825L294.252,171.825z M294.252,177.745h5.104v5.412h-5.104V177.745
	L294.252,177.745z M294.252,184.156h5.104v5.156h-5.104V184.156L294.252,184.156z M294.252,190.312h5.104v5.412h-5.104V190.312
	L294.252,190.312z"/>
<path fill="#73CCD3" d="M294.25,171.825h5.105v4.92h-5.104L294.25,171.825z M294.25,184.156h5.105v5.156h-5.104L294.25,184.156z
	 M294.25,190.312h5.105v5.412h-5.104L294.25,190.312z M294.25,177.745h5.105v5.412h-5.104L294.25,177.745z M339.355,171.825h5.072
	v4.92h-5.072V171.825z M339.355,190.312h5.072v5.412h-5.072V190.312z M339.355,184.156h5.072v5.156h-5.072V184.156z
	 M339.355,177.745h5.072v5.412h-5.072V177.745z"/>
<path fill="#5C6462" d="M332.221,176.745v20.236h13.207v-26.116h-13.207V176.745z M339.355,171.825h5.072v4.92h-5.072V171.825z
	 M339.355,177.745h5.072v5.412h-5.072V177.745z M339.355,184.156h5.072v5.156h-5.072V184.156z M339.355,190.312h5.072v5.412h-5.072
	V190.312z M333.252,171.825h5.104v4.92h-5.104V171.825L333.252,171.825z M333.252,177.745h5.104v5.412h-5.104V177.745
	L333.252,177.745z M333.252,184.156h5.104v5.156h-5.104V184.156L333.252,184.156z M333.252,190.312h5.104v5.412h-5.104V190.312
	L333.252,190.312z"/>
<path fill="#73CCD3" d="M333.25,171.825h5.105v4.92h-5.104L333.25,171.825z M333.25,184.156h5.105v5.156h-5.104L333.25,184.156z
	 M333.25,190.312h5.105v5.412h-5.104L333.25,190.312z M333.25,177.745h5.105v5.412h-5.104L333.25,177.745z M152.47,171.825h5.074
	v4.92h-5.074V171.825z M152.47,190.312h5.074v5.412h-5.074V190.312z M152.47,184.156h5.074v5.156h-5.074V184.156z M152.47,177.745
	h5.074v5.412h-5.074V177.745z"/>
<path fill="#5C6462" d="M145.334,176.745v20.236h13.207v-26.116h-13.21v5.88H145.334z M152.47,171.825h5.074v4.92h-5.074V171.825z
	 M152.47,177.745h5.074v5.412h-5.074V177.745z M152.47,184.156h5.074v5.156h-5.074V184.156z M152.47,190.312h5.074v5.412h-5.074
	V190.312z M146.365,171.825h5.104v4.92h-5.105L146.365,171.825L146.365,171.825z M146.365,177.745h5.104v5.412h-5.105
	L146.365,177.745L146.365,177.745z M146.365,184.156h5.104v5.156h-5.105L146.365,184.156L146.365,184.156z M146.365,190.312h5.104
	v5.412h-5.105L146.365,190.312L146.365,190.312z"/>
<path fill="#73CCD3" d="M146.365,171.825h5.104v4.92h-5.105L146.365,171.825z M146.365,184.156h5.104v5.156h-5.105L146.365,184.156z
	 M146.365,190.312h5.104v5.412h-5.105L146.365,190.312z M146.365,177.745h5.104v5.412h-5.105L146.365,177.745z M197.471,171.825
	h5.072v4.92h-5.072V171.825z M197.471,190.312h5.072v5.412h-5.072V190.312z M197.471,184.156h5.072v5.156h-5.072V184.156z
	 M197.471,177.745h5.072v5.412h-5.072V177.745z"/>
<path fill="#5C6462" d="M190.334,176.745v20.236h13.207v-26.116h-13.21v5.88H190.334z M197.471,171.825h5.072v4.92h-5.072V171.825z
	 M197.471,177.745h5.072v5.412h-5.072V177.745z M197.471,184.156h5.072v5.156h-5.072V184.156z M197.471,190.312h5.072v5.412h-5.072
	V190.312z M191.365,171.825h5.104v4.92h-5.105v-4.92H191.365z M191.365,177.745h5.104v5.412h-5.105v-5.412H191.365z
	 M191.365,184.156h5.104v5.156h-5.105v-5.156H191.365z M191.365,190.312h5.104v5.412h-5.105v-5.412H191.365z"/>
<path fill="#73CCD3" d="M191.365,171.825h5.104v4.92h-5.105L191.365,171.825z M191.365,184.156h5.104v5.156h-5.105L191.365,184.156z
	 M191.365,190.312h5.104v5.412h-5.105L191.365,190.312z M191.365,177.745h5.104v5.412h-5.105L191.365,177.745z M242.471,171.825
	h5.072v4.92h-5.072V171.825z M242.471,190.312h5.072v5.412h-5.072V190.312z M242.471,184.156h5.072v5.156h-5.072V184.156z
	 M242.471,177.745h5.072v5.412h-5.072V177.745z"/>
<path fill="#5C6462" d="M235.334,176.745v20.236h13.207v-26.116h-13.209v5.88H235.334z M242.471,171.825h5.072v4.92h-5.072V171.825z
	 M242.471,177.745h5.072v5.412h-5.072V177.745z M242.471,184.156h5.072v5.156h-5.072V184.156z M242.471,190.312h5.072v5.412h-5.072
	V190.312z M236.365,171.825h5.104v4.92h-5.105v-4.92H236.365z M236.365,177.745h5.104v5.412h-5.105v-5.412H236.365z
	 M236.365,184.156h5.104v5.156h-5.105v-5.156H236.365z M236.365,190.312h5.104v5.412h-5.105v-5.412H236.365z"/>
<path fill="#73CCD3" d="M236.365,171.825h5.104v4.92h-5.105L236.365,171.825z M236.365,184.156h5.104v5.156h-5.105L236.365,184.156z
	 M236.365,190.312h5.104v5.412h-5.105L236.365,190.312z M236.365,177.745h5.104v5.412h-5.105L236.365,177.745z"/>
<path fill="#DFD6C6" d="M57.577,170.866v-3.076H42.312v3.075h14.23L57.577,170.866z M96.586,170.866v-3.076H81.322v3.075h14.222
	L96.586,170.866z M144.2,170.866h15.262v-3.076H144.2V170.866z M189.307,170.866h15.263v-3.076h-15.263V170.866z M234.301,170.866
	h15.264v-3.076h-15.264V170.866z M306.428,170.866h1.004v-3.076h-15.264v3.075h1.053L306.428,170.866z M345.428,170.866h0.961
	v-3.076h-15.264v3.075h1.096L345.428,170.866z"/>
<path fill="#E2D9C9" d="M58.865,216.051H39.03v33.5h19.835V216.051z M56.841,225.885v22.834h-16v-25.834h0.545
	c1.188-3.104,4.14-5.166,7.456-5.166c3.316,0,6.27,2.062,7.457,5.166h0.544v3H56.841z"/>
<path fill="#CCC5AB" d="M38.03,250.551h21.835v-35.33H38.03v35.332V250.551z M39.03,216.051h19.835v33.5H39.03V216.051z
	 M37.83,214.219h22.256l-11.056-6.75L37.83,214.219z"/>
<path fill="#E2D9C9" d="M34.233,215.219h29.413l-14.612-8.92l-14.8,8.92H34.233z M37.83,214.219l11.2-6.75l11.056,6.75H37.83z"/>
<path fill="#73CCD3" d="M41.84,240.219h6.44v7.5h-6.44V240.219z M42.212,223.543l-0.114,0.342h-0.256v2h6.44v-7.121
	C45.513,218.99,43.111,220.84,42.212,223.543L42.212,223.543z M55.47,223.543c-0.91-2.742-3.369-4.607-6.188-4.791v7.133h6.561v-2
	h-0.256L55.47,223.543L55.47,223.543z M49.28,240.219h6.56v7.5h-6.56V240.219z"/>
<path fill="#586D6F" d="M48.84,217.719c-3.314,0-6.268,2.062-7.456,5.166h-0.543v25.834h16v-25.834h-0.542
	c-1.188-3.104-4.14-5.166-7.456-5.166H48.84z M48.28,247.719h-6.44v-7.5h6.44V247.719z M48.28,239.219h-6.44v-12.334h6.44V239.219z
	 M48.28,225.885h-6.44v-2h0.258l0.114-0.342c0.9-2.703,3.3-4.555,6.07-4.779v7.121H48.28z M55.84,247.719h-6.56v-7.5h6.56V247.719z
	 M55.84,239.219h-6.56v-12.334h6.56V239.219z M55.84,225.885h-6.56v-7.131c2.82,0.182,5.278,2.047,6.19,4.789l0.114,0.342h0.256
	V225.885L55.84,225.885z"/>
<path fill="#73CCD3" d="M49.28,226.885h6.56v12.334h-6.56V226.885z M41.84,226.885h6.44v12.334h-6.44V226.885z"/>
<path fill="#E2D9C9" d="M97.615,216.051H77.78v33.5h19.835V216.051z M95.591,225.885v22.834h-16v-25.834h0.544
	c1.188-3.104,4.14-5.166,7.456-5.166c3.316,0,6.271,2.062,7.458,5.166h0.543v3H95.591z"/>
<path fill="#CCC5AB" d="M76.78,250.551h21.835v-35.33H76.78v35.332V250.551z M77.78,216.051h19.835v33.5H77.78V216.051z
	 M76.58,214.219h22.256l-11.056-6.75L76.58,214.219z"/>
<path fill="#E2D9C9" d="M72.983,215.219h29.413l-14.612-8.92l-14.799,8.92H72.983z M76.58,214.219l11.2-6.75l11.056,6.75H76.58z"/>
<path fill="#73CCD3" d="M80.59,240.219h6.44v7.5h-6.44V240.219z M80.962,223.543l-0.114,0.342h-0.256v2h6.44v-7.121
	c-2.769,0.227-5.17,2.076-6.068,4.779H80.962z M94.22,223.543c-0.91-2.742-3.368-4.607-6.188-4.791v7.133h6.561v-2h-0.256
	L94.22,223.543L94.22,223.543z M88.03,240.219h6.561v7.5H88.03V240.219z"/>
<path fill="#586D6F" d="M87.59,217.719c-3.314,0-6.268,2.062-7.455,5.166h-0.544v25.834h16v-25.834h-0.543
	c-1.188-3.104-4.14-5.166-7.456-5.166H87.59z M87.03,247.719h-6.44v-7.5h6.44V247.719z M87.03,239.219h-6.44v-12.334h6.44V239.219z
	 M87.03,225.885h-6.44v-2h0.258l0.114-0.342c0.9-2.703,3.3-4.555,6.07-4.779v7.121H87.03z M94.59,247.719H88.03v-7.5h6.561V247.719z
	 M94.59,239.219H88.03v-12.334h6.561V239.219z M94.59,225.885H88.03v-7.131c2.82,0.182,5.278,2.047,6.19,4.789l0.114,0.342h0.256
	V225.885z"/>
<path fill="#73CCD3" d="M88.03,226.885h6.561v12.334H88.03V226.885z M80.59,226.885h6.44v12.334h-6.44V226.885z"/>
<path fill="#E2D9C9" d="M310.365,216.051h-19.836v33.5h19.836V216.051z M308.342,225.885v22.834h-16v-25.834h0.545
	c1.188-3.104,4.141-5.166,7.455-5.166c3.316,0,6.271,2.062,7.457,5.166h0.545v3H308.342z"/>
<path fill="#CCC5AB" d="M289.529,250.551h21.836v-35.33h-21.836v35.332V250.551z M290.529,216.051h19.836v33.5h-19.836V216.051z
	 M300.529,207.471l-11.199,6.748h22.256L300.529,207.471z"/>
<path fill="#E2D9C9" d="M311.365,215.219h3.779l-14.611-8.92l-14.801,8.92H311.365L311.365,215.219z M300.529,207.469l11.057,6.75
	H289.33L300.529,207.469z"/>
<path fill="#73CCD3" d="M293.34,240.219h6.439v7.5h-6.439V240.219z M293.713,223.543l-0.115,0.342h-0.256v2h6.439v-7.121
	C297.014,218.99,294.611,220.84,293.713,223.543L293.713,223.543z M306.971,223.543c-0.91-2.742-3.369-4.607-6.188-4.791v7.133
	h6.559v-2h-0.256L306.971,223.543L306.971,223.543z M300.779,240.219h6.561v7.5h-6.561V240.219z"/>
<path fill="#586D6F" d="M300.34,217.719c-3.312,0-6.268,2.062-7.455,5.166h-0.543v25.834h16v-25.834h-0.543
	c-1.189-3.104-4.141-5.166-7.457-5.166H300.34z M299.779,247.719h-6.439v-7.5h6.439V247.719z M299.779,239.219h-6.439v-12.334h6.439
	V239.219z M299.779,225.885h-6.439v-2h0.258l0.115-0.342c0.898-2.703,3.299-4.555,6.07-4.779v7.121H299.779z M307.34,247.719h-6.561
	v-7.5h6.561V247.719z M307.34,239.219h-6.561v-12.334h6.561V239.219z M307.34,225.885h-6.561v-7.131
	c2.82,0.182,5.279,2.047,6.191,4.789l0.113,0.342h0.256V225.885L307.34,225.885z"/>
<path fill="#73CCD3" d="M300.779,226.885h6.561v12.334h-6.561V226.885z M293.34,226.885h6.439v12.334h-6.439V226.885z"/>
<path fill="#E2D9C9" d="M232.281,249.551h19.834v-33.5h-19.834V249.551z M234.09,225.885v-3h0.545
	c1.188-3.104,4.141-5.166,7.457-5.166s6.27,2.062,7.457,5.166h0.543v25.834h-16v-22.834H234.09z"/>
<path fill="#CCC5AB" d="M241.059,250.551h12.057v-35.33h-21.834v35.332h9.777V250.551z M252.115,216.051v33.5h-19.834v-33.5H252.115
	z M242.279,207.471l-11.199,6.748h22.256L242.279,207.471z"/>
<path fill="#E2D9C9" d="M256.895,215.219l-14.609-8.92l-14.801,8.92h29.412H256.895z M231.08,214.219l11.199-6.75l11.057,6.75
	H231.08L231.08,214.219z"/>
<path fill="#73CCD3" d="M235.09,240.219h6.439v7.5h-6.439V240.219z M241.529,218.764c-2.77,0.227-5.17,2.076-6.066,4.779
	l-0.115,0.342h-0.256v1.998h6.439v-7.119H241.529z M249.09,223.885h-0.254l-0.115-0.342c-0.91-2.742-3.367-4.607-6.188-4.791v7.133
	h6.561v-2H249.09z M242.529,240.219h6.561v7.5h-6.561V240.219z"/>
<path fill="#586D6F" d="M234.09,248.719h16v-25.834h-0.543c-1.188-3.104-4.139-5.166-7.455-5.166s-6.268,2.062-7.455,5.166h-0.545
	v25.834H234.09z M242.529,218.754c2.82,0.18,5.279,2.047,6.191,4.789l0.113,0.342h0.256v1.998h-6.561V218.754L242.529,218.754z
	 M242.529,226.883h6.561v12.336h-6.561v-12.334V226.883z M242.529,240.219h6.561v7.5h-6.561V240.219z M235.09,223.885h0.258
	l0.115-0.342c0.898-2.703,3.299-4.555,6.068-4.779v7.121h-6.439v-2H235.09z M235.09,226.885h6.439v12.334h-6.439V226.885z
	 M241.529,240.219v7.5h-6.439v-7.5H241.529z"/>
<path fill="#73CCD3" d="M242.529,226.885h6.561v12.334h-6.561V226.885z M235.09,226.885h6.439v12.334h-6.439V226.885z"/>
<path fill="#E2D9C9" d="M161.615,216.051H141.78v33.5h19.835V216.051z M159.591,225.885v22.834h-16v-25.834h0.545
	c1.188-3.104,4.14-5.166,7.456-5.166c3.316,0,6.27,2.062,7.457,5.166h0.544v3H159.591z"/>
<path fill="#CCC5AB" d="M140.78,250.551h21.835v-35.33H140.78v35.332V250.551z M141.78,216.051h19.835v33.5H141.78V216.051z
	 M140.58,214.219h22.256l-11.056-6.75L140.58,214.219z"/>
<path fill="#E2D9C9" d="M165.723,214.809l-13.94-8.51l-14.8,8.92h29.412L165.723,214.809z M140.58,214.219l11.2-6.75l11.056,6.75
	H140.58z"/>
<path fill="#73CCD3" d="M144.59,240.219h6.439v7.5h-6.439V240.219z M144.962,223.543l-0.114,0.342h-0.257v2h6.44v-7.121
	C148.263,218.99,145.861,220.84,144.962,223.543L144.962,223.543z M158.22,223.543c-0.91-2.742-3.368-4.607-6.188-4.791v7.133h6.561
	v-2h-0.256L158.22,223.543L158.22,223.543z M152.03,240.219h6.56v7.5h-6.56V240.219z"/>
<path fill="#586D6F" d="M151.59,217.719c-3.314,0-6.267,2.062-7.456,5.166h-0.543v25.834h16v-25.834h-0.543
	c-1.188-3.104-4.14-5.166-7.456-5.166H151.59z M151.03,247.719h-6.439v-7.5h6.439V247.719z M151.03,239.219h-6.439v-12.334h6.439
	V239.219z M151.03,225.885h-6.439v-2h0.258l0.114-0.342c0.9-2.703,3.3-4.555,6.069-4.779v7.121H151.03z M158.59,247.719h-6.56v-7.5
	h6.56V247.719z M158.59,239.219h-6.56v-12.334h6.56V239.219z M158.59,225.885h-6.56v-7.131c2.82,0.182,5.277,2.047,6.19,4.789
	l0.114,0.342h0.256V225.885z"/>
<path fill="#73CCD3" d="M152.03,226.885h6.56v12.334h-6.56V226.885z M144.59,226.885h6.439v12.334h-6.439V226.885z"/>
<path fill="#E2D9C9" d="M186.28,216.051v53.5h19.835v-53.5H186.28z M204.09,225.885v42.834h-16v-45.834h0.545
	c1.188-3.104,4.14-5.166,7.456-5.166c3.315,0,6.27,2.062,7.458,5.166h0.543v3H204.09z"/>
<path fill="#CCC5AB" d="M185.28,215.219v55.332h21.835v-55.33H185.28V215.219z M206.115,269.551H186.28v-53.5h19.835V269.551z
	 M185.08,214.219h22.256l-11.056-6.75L185.08,214.219z"/>
<path fill="#E2D9C9" d="M185.28,215.219h25.617l-14.613-8.92l-0.56,0.338l-14.24,8.582h3.798H185.28z M207.336,214.219H185.08
	l11.201-6.75L207.336,214.219z"/>
<path fill="#73CCD3" d="M189.09,240.219h6.44v17.5h-6.44V240.219z M189.462,223.543l-0.114,0.342h-0.257v2h6.439v-7.121
	c-2.768,0.227-5.17,2.076-6.067,4.779H189.462z M202.721,223.543c-0.91-2.742-3.369-4.607-6.188-4.791v7.133h6.559v-2h-0.256
	L202.721,223.543L202.721,223.543z M196.53,240.219h6.56v17.5h-6.56V240.219z"/>
<path fill="#586D6F" d="M196.09,217.719c-3.313,0-6.267,2.062-7.455,5.166h-0.544v45.834h16v-45.834h-0.543
	c-1.189-3.104-4.141-5.166-7.457-5.166H196.09z M195.53,257.719h-6.44v-17.5h6.44V257.719z M195.53,239.219h-6.44v-12.334h6.44
	V239.219z M195.53,225.885h-6.44v-2h0.258l0.114-0.342c0.9-2.703,3.3-4.555,6.07-4.779v7.121H195.53z M203.09,257.719h-6.56v-17.5
	h6.56V257.719z M203.09,239.219h-6.56v-12.334h6.56V239.219z M203.09,225.885h-6.56v-7.131c2.82,0.182,5.279,2.047,6.191,4.789
	l0.113,0.342h0.256V225.885L203.09,225.885z"/>
<path fill="#73CCD3" d="M196.53,226.885h6.56v12.334h-6.56V226.885z M189.09,226.885h6.44v12.334h-6.44V226.885z"/>
<path fill="#E2D9C9" d="M349.115,216.051h-19.836v33.5h19.836V216.051z M347.092,225.885v22.834h-16v-25.834h0.545
	c1.188-3.104,4.139-5.166,7.455-5.166s6.27,2.062,7.457,5.166h0.545v3H347.092z"/>
<path fill="#CCC5AB" d="M328.279,250.551h21.836v-35.33h-21.836v35.332V250.551z M329.279,216.051h19.836v33.5h-19.836V216.051z
	 M339.279,207.471l-11.199,6.748h22.256L339.279,207.471z"/>
<path fill="#E2D9C9" d="M350.115,215.219h3.779l-14.611-8.92l-14.801,8.92h25.635H350.115z M339.279,207.469l11.057,6.75H328.08
	L339.279,207.469z"/>
<path fill="#73CCD3" d="M332.09,240.219h6.441v7.5h-6.441V240.219z M332.463,223.543l-0.115,0.342h-0.256v2h6.439v-7.121
	C335.764,218.99,333.361,220.84,332.463,223.543L332.463,223.543z M345.721,223.543c-0.91-2.742-3.369-4.607-6.188-4.791v7.133
	h6.559v-2h-0.256L345.721,223.543L345.721,223.543z M339.531,240.219h6.559v7.5h-6.559V240.219z"/>
<path fill="#586D6F" d="M339.09,217.719c-3.314,0-6.268,2.062-7.455,5.166h-0.543v25.834h16v-25.834h-0.543
	c-1.188-3.104-4.141-5.166-7.457-5.166H339.09z M338.531,247.719h-6.441v-7.5h6.441V247.719z M338.531,239.219h-6.441v-12.334h6.441
	V239.219z M338.531,225.885h-6.441v-2h0.258l0.115-0.342c0.898-2.703,3.299-4.555,6.07-4.779v7.121H338.531z M346.09,247.719h-6.559
	v-7.5h6.559V247.719z M346.09,239.219h-6.559v-12.334h6.559V239.219z M346.09,225.885h-6.559v-7.131
	c2.818,0.182,5.277,2.047,6.189,4.789l0.113,0.342h0.256V225.885L346.09,225.885z"/>
<path fill="#73CCD3" d="M339.531,226.885h6.559v12.334h-6.559V226.885z M332.09,226.885h6.441v12.334h-6.441V226.885z"/>
<path fill="#010101" d="M195.843,106.311c-0.04,0-0.078,0-0.118-0.006c-0.549-0.064-0.939-0.562-0.875-1.11l1-8.5
	c0.062-0.548,0.556-0.943,1.109-0.876c0.547,0.064,0.94,0.562,0.875,1.11l-1,8.5C196.774,105.938,196.342,106.311,195.843,106.311
	L195.843,106.311z M195.822,106.34c-0.205,0-0.412-0.062-0.589-0.194l-7.735-5.676c-0.446-0.326-0.541-0.952-0.214-1.397
	c0.326-0.443,0.95-0.54,1.397-0.214l7.734,5.675c0.444,0.326,0.539,0.952,0.215,1.397
	C196.433,106.198,196.129,106.339,195.822,106.34L195.822,106.34z"/>
<path fill="none" d="M235.877,257.902c-0.5,1.455-0.621,2.771-0.623,3.736C235.27,261.049,235.355,259.613,235.877,257.902z
	 M137.375,234.213c1.07,0.4,1.96,0.732,2.584,0.967l0.5-0.109L137.375,234.213L137.375,234.213z M215.795,267.139
	c1.779-0.02,3.576-0.031,5.035-0.111l-11.006,0.172c1.398,0.047,3.654-0.039,5.971-0.062V267.139z"/>
<path fill="#444341" d="M164.614,229.635h2.5v-2.082h-5.667v3.051c1.203-0.232,2.264-0.428,3.167-0.58V229.635z"/>
<path fill="#F26A63" d="M140.46,235.07c0.576-0.129,1.154-0.258,1.736-0.387v-4.631h-9v2.611c1.537,0.566,2.973,1.1,4.178,1.551
	l3.084,0.855H140.46z"/>
<path fill="#444341" d="M119.568,239.82c0,0,9.694-2.254,20.391-4.641l-2.583-0.967c-1.205-0.451-2.64-0.982-4.178-1.551
	c-1.793-0.66-3.723-1.365-5.602-2.045l-2.914,7.773l-0.468-0.178l2.913-7.768c-4.867-1.75-9.25-3.252-9.68-3.146
	c-1,0.252-3.5,7.75-4,9.25s1.75,4.752,1.75,4.752l1.736-0.389c0.697-0.57,1.558-0.965,2.636-1.068L119.568,239.82L119.568,239.82z"
	/>
<path fill="#F26A63" d="M124.682,238.391l2.914-7.771l0.086-0.229l-0.47-0.176l-0.086,0.234l-2.913,7.766L124.682,238.391z"/>
<path fill="#444341" d="M265.947,243.865l-30.812-3.562l-0.703,1.994c8.732,0.865,22.887,2.189,31.182,3.021L265.947,243.865
	L265.947,243.865z M277.697,253.301c0-0.062-0.02-0.117-0.053-0.17c-0.16,0.002-1.439,0.012-2.854,0.016
	c-1.496,0.014-2.994,0.023-4.492,0.035l-1.912,0.025c-0.107,2.377-0.734,10.246-4.27,10.504v0.76c0,0,7.666,0.082,11,0
	c-1.5-1.752-2-4.5-1.75-5.5c4,0,4.332-4.752,4.332-5.668L277.697,253.301z"/>
<path fill="#BDBDBD" d="M242.154,249.42c-1.066,0.609-1.969,1.252-2.746,1.918c0.43,0,0.854,0,1.285-0.002
	c2.041-1.32,4.844-2.223,8.707-2.223c3.586,0,6.301,0.863,8.357,2.158c2.365-0.012,4.764-0.025,7.174-0.039
	c-7.713-4.51-16.99-5.107-22.781-1.811L242.154,249.42z M161.822,247.877l-0.125,0.008h-16.75c-2.405,0-5.498,0.348-9.068,2.672
	l2.73,0.049c2.188-1.285,4.961-2.125,8.522-2.125c3.733,0,6.583,0.953,8.762,2.395c20.034,0.273,47.589,0.518,80.503,0.467
	c1.168-1.359,2.686-2.672,4.725-3.834c6.766-3.855,17.674-1.824,26.41,3.703c2.092-0.014,4.189-0.027,6.316-0.045
	c-0.666-2.936-2.4-5.197-2.4-5.197c0.215,0,0.41,0.029,0.609,0.049c-0.682-0.109-3.08-0.365-6.445-0.703
	c-8.297-0.83-22.449-2.154-31.182-3.02c-4.221-0.418-7.174-0.727-7.588-0.822c-1.652-0.381-25.547-10.551-29.742-10.551
	c-4.195,0-25.419-1.27-29.613-1.27c-0.1,0-0.23,0.008-0.372,0.018v12.797C167.114,246.328,163.652,247.695,161.822,247.877
	L161.822,247.877z M171.947,231.803c0,0,22.5,0.25,25.75,0.25c2.031,0,9.539,3.812,14.881,6.67c1.932,0.488,5.619,3.08,5.619,3.08
	l-10.5,0.061l-3.188,0.018l-1.174,0.016l0.006-0.012l-30.145,0.168l-1.592,0.035l-0.234-10.301l0.577,0.014L171.947,231.803z
	 M139.96,235.18c-10.697,2.387-20.393,4.641-20.393,4.641v0.025c0.086-0.006,0.168-0.021,0.256-0.025v11.049h0.014v-0.658
	c0.156,0.002,4.355,0.115,12.012,0.27c5.27-4.564,9.997-5.096,13.098-5.096h16.676c0.48-0.064,2.99-0.512,2.99-2.918v-0.416
	l-3.17-0.01l0.254-9.986h2.917v-2.031c-0.903,0.152-1.964,0.348-3.167,0.58c-4.97,0.959-12.194,2.516-19.25,4.08
	c-0.582,0.131-1.16,0.26-1.738,0.387L139.96,235.18L139.96,235.18z M159.447,232.303v9.836l-28.167,0.479v0.021h-4.75
	c-1.083,0-0.5-0.084-0.417-1.168c0.071-0.934,3.788-2.234,4.816-2.578l0.017-0.09L159.447,232.303L159.447,232.303z"/>
<path fill="#9B9B9A" d="M133.332,252.51c-3.47,3.123-5.316,9.838-5.785,11.762c1.3,0.627,2.6,1.223,3.843,1.732
	c-0.72-2.838-0.254-5.367,0.716-7.51c0.807-1.992,2.03-4.139,3.897-5.934l-2.669-0.051H133.332z M119.838,252.209v-1.34h-0.014
	v1.279l0.03,8.014c0,0-0.046-0.008-0.112-0.023c1.607,0.914,3.518,1.967,5.513,2.99c0.576-2.23,2.08-7.17,4.77-10.686
	C123.53,252.309,119.981,252.213,119.838,252.209L119.838,252.209z M231.783,261.229c0.217-0.566,0.424-1.227,0.641-1.922
	c0.553-1.768,1.207-3.861,2.498-5.951c-2.283,0.006-4.537,0.008-6.721,0.008c-28.094,0-51.844-0.207-69.896-0.447
	c1.79,1.941,2.865,4.242,3.476,6.318c0,0.004-0.046,0.01-0.12,0.018c0.492,1.105,0.882,2.285,1.064,3.547l68.669-0.82
	c0.152-0.24,0.291-0.488,0.391-0.75H231.783z M234.5,259.516c-0.213,0.686-0.646,1.766-0.908,2.434l1.658-0.02
	c0-0.014,0-0.121,0.004-0.293c0-0.965,0.123-2.279,0.623-3.734c0.439-1.451,1.195-3.086,2.479-4.555h-0.885
	c-1.609,2.053-2.357,4.205-2.971,6.166V259.516z M268.387,253.207l-0.488,0.008l-0.02-0.016c-2.582,0.018-5.15,0.035-7.713,0.051
	c3.514,3.746,3.941,8.836,3.912,9.939c0.004,0.174,0.014,0.348,0.01,0.525c0.01,0,0.02-0.004,0.029-0.004
	C267.65,263.455,268.275,255.584,268.387,253.207L268.387,253.207z"/>
<path fill="#838381" d="M119.823,252.148V239.82c-0.087,0.004-0.17,0.021-0.255,0.025c-1.08,0.105-1.94,0.498-2.636,1.068
	c-3.231,2.646-2.786,9.322-2.617,10.98c2.647-0.004,5.507-0.014,5.507-0.014v0.268H119.823z"/>
<path fill="#444341" d="M119.823,252.148v-0.268c0,0-2.86,0.01-5.508,0.014h-1.48c0.117,6.486,6.052,8.053,6.907,8.242
	c0.066,0.018,0.111,0.025,0.111,0.025l-0.031-8.012L119.823,252.148z"/>
<path fill="#575B5C" d="M273.85,251.166c-2.127,0.02-4.225,0.031-6.318,0.047c0.977,0.617,1.93,1.268,2.844,1.969h-0.076
	c1.498-0.01,2.996-0.021,4.492-0.033h-0.688c-0.016-0.684-0.113-1.348-0.256-1.98L273.85,251.166z M257.76,251.273
	c0.928,0.584,1.727,1.254,2.406,1.977c2.559-0.014,5.131-0.031,7.709-0.049c-0.943-0.729-1.93-1.381-2.939-1.971
	C262.523,251.246,260.127,251.262,257.76,251.273z M119.838,250.871v1.34c0.144,0.002,3.692,0.1,10.188,0.232
	c0.542-0.707,1.128-1.359,1.769-1.92l0.057-0.045c-7.656-0.152-11.854-0.266-12.01-0.27v0.662H119.838z M133.436,252.41
	c-0.036,0.031-0.068,0.068-0.104,0.1l2.67,0.051c0.754-0.723,1.628-1.379,2.607-1.953l-2.73-0.051
	C135.085,251.072,134.269,251.682,133.436,252.41L133.436,252.41z M155.896,250.875c0.916,0.607,1.72,1.293,2.41,2.041
	c18.052,0.24,41.802,0.447,69.894,0.447c2.186,0,4.439-0.004,6.723-0.008c0.418-0.676,0.908-1.35,1.479-2.014
	c-32.916,0.053-60.47-0.189-80.505-0.465V250.875z M237.473,253.35h0.885c0.639-0.729,1.41-1.414,2.338-2.014
	c-0.434,0-0.854,0-1.285,0.002c-0.764,0.654-1.4,1.328-1.938,2.014V253.35z"/>
<path fill="#838381" d="M273.85,251.166c0.143,0.637,0.24,1.301,0.254,1.98h0.689c1.414-0.004,2.693-0.014,2.854-0.016h0.035
	c0,0-0.539-6.607-5.623-7.111c-0.201-0.021-0.396-0.051-0.611-0.051c0,0,1.736,2.264,2.4,5.197H273.85z"/>
<path fill="#444341" d="M209.824,267.201l11.006-0.172c1.107-0.061,2.025-0.158,2.568-0.334c1.799-0.582,6.322-2.053,7.996-4.721
	l-68.669,0.824l-0.402,0.004l0.375,5.125l46.841-0.725l0.004-0.014c0.088,0.004,0.188,0.006,0.281,0.01V267.201z M257.76,251.273
	c-2.061-1.297-4.771-2.158-8.357-2.158c-3.863,0-6.666,0.9-8.707,2.221c-0.928,0.602-1.699,1.285-2.338,2.014
	c-1.283,1.469-2.039,3.105-2.48,4.555c-0.52,1.709-0.607,3.146-0.621,3.734c-0.004,0.172-0.004,0.279-0.004,0.291l-1.658,0.02
	l-0.064,0.166c-0.889,2.305-2.734,3.74-4.916,4.793l6.836-0.105v-2.881l0.955-0.021c0.02-0.303,0.93-12.91,12.955-12.91
	c10.598,0,12.145,9.766,12.365,12.336l0.479-0.01l1.869-0.004c0.004-0.031,0.004-0.076,0.006-0.123
	c0.029-1.102-0.398-6.191-3.912-9.938c-0.68-0.727-1.479-1.396-2.406-1.98V251.273z M158.305,252.916
	c-0.69-0.748-1.494-1.434-2.41-2.039c-2.18-1.439-5.028-2.396-8.762-2.396c-3.56,0-6.334,0.84-8.523,2.127
	c-0.979,0.574-1.853,1.229-2.605,1.955c-1.869,1.795-3.09,3.941-3.897,5.936c-0.255,0.629-0.47,1.244-0.65,1.828
	c-0.016,0.053,0.77,0.062,2.084,0.041c1.435-4.256,4.958-9.945,13.552-9.945c7.934,0,11.319,4.848,12.77,8.939
	c0.93-0.047,1.56-0.086,1.8-0.107c0.074-0.008,0.12-0.014,0.12-0.018c-0.612-2.076-1.688-4.379-3.477-6.318L158.305,252.916z"/>
<path fill="#BDBDBD" d="M147.09,250.418c-8.594,0-12.117,5.691-13.55,9.947c-0.856,2.539-0.968,4.57-0.968,4.57h28.375
	c0,0-0.026-2.586-1.085-5.576C158.411,255.266,155.024,250.418,147.09,250.418L147.09,250.418z M249.359,250.99
	c-12.027,0-12.938,12.607-12.955,12.91v0.01l-0.018,0.277h25.375v-0.246c0-0.016-0.008-0.24-0.039-0.613
	C261.504,260.756,259.957,250.99,249.359,250.99L249.359,250.99z"/>
<path fill="#444341" d="M132.508,264.953h28.42v3.336h-28.42V264.953z M236.215,264.188v3.336h25.617v-3.336h-25.443H236.215z"/>
<path fill="#F1EFEE" d="M203.342,241.885c0.047-0.121,1.195-3.102,1.52-4c0.334-0.914,1.584-0.25,1.25,0.418
	c-0.33,0.664-1.592,3.553-1.602,3.576l3.186-0.018l10.5-0.061h-10.5v-1.25c0-1.916,2.668-1.916,4.334-1.916
	c0.158,0,0.346,0.035,0.547,0.086c-5.34-2.855-12.848-6.67-14.879-6.67c-3.251,0-25.751-0.25-25.751-0.25l1.25,10.25
	L203.342,241.885z M175.275,240.885c0.25-0.123,1.166-0.582,0.125-1.123c-1.041-0.543,1.04-4.666,2.583-4.877
	c1.543-0.207,1.625,2.461,1.458,3.836c-0.166,1.373-1.041,1.08-1.041,1.08s0.125,0.209,0.125,1.043c1.625,0,1.583,1.166,1.583,1.166
	s-4.86,0.025-5.566,0.025c-0.082-0.416,0.484-1.025,0.735-1.15H175.275z M130.93,238.893l0.268-0.088l0.083,3.814l28.167-0.48
	v-9.838l-28.5,6.5l-0.018,0.09L130.93,238.893z"/>
<path fill="#444341" d="M161.443,242.041l3.169,0.01v-9.998h-2.916L161.443,242.041z"/>
<path fill="#8C8C8C" d="M173.197,242.053l-1.25-10.25l-0.577-0.016l0.234,10.301L173.197,242.053z"/>
<path fill="#444341" d="M130.93,238.893c-1.028,0.344-4.744,1.645-4.816,2.578c-0.082,1.084-0.666,1.168,0.418,1.168h4.75v-0.021
	l-0.084-3.812L130.93,238.893L130.93,238.893z M207.695,240.553v1.25h10.5c0,0-3.686-2.592-5.619-3.08
	c-0.199-0.053-0.391-0.086-0.547-0.086C210.363,238.637,207.695,238.637,207.695,240.553z M204.863,237.885
	c-0.326,0.898-1.475,3.881-1.52,4l-0.006,0.012l1.172-0.016v-0.002c0.01-0.023,1.271-2.912,1.604-3.576
	C206.445,237.637,205.195,236.971,204.863,237.885L204.863,237.885z M180.108,242.01c0,0,0.042-1.166-1.583-1.166
	c0-0.834-0.125-1.041-0.125-1.041s0.875,0.293,1.04-1.082c0.168-1.377,0.085-4.045-1.457-3.836
	c-1.542,0.209-3.625,4.334-2.583,4.875s0.125,1-0.125,1.125c-0.25,0.125-0.817,0.734-0.734,1.15
	C175.251,242.037,180.109,242.01,180.108,242.01L180.108,242.01z"/>
<path fill="#F26A63" d="M233.527,262.115l0.064-0.166c0.262-0.67,0.695-1.75,0.908-2.434c0.613-1.963,1.359-4.113,2.971-6.166
	c0.541-0.686,1.176-1.359,1.939-2.012c0.777-0.666,1.678-1.311,2.744-1.918c5.789-3.297,15.066-2.699,22.781,1.811
	c1.01,0.59,1.996,1.244,2.939,1.971l0.021,0.014l0.488-0.008l1.912-0.025h0.076c-0.912-0.699-1.867-1.35-2.844-1.969
	c-8.736-5.525-19.645-7.559-26.408-3.703c-2.041,1.162-3.557,2.475-4.725,3.836c-0.57,0.662-1.061,1.338-1.479,2.014
	c-1.289,2.088-1.945,4.182-2.496,5.949c-0.217,0.695-0.424,1.354-0.641,1.92c-0.1,0.262-0.236,0.51-0.391,0.75
	c-1.672,2.666-6.195,4.137-7.996,4.721c-0.541,0.174-1.459,0.271-2.564,0.332c-1.461,0.08-3.258,0.09-5.037,0.107
	c-2.316,0.021-4.572,0.109-5.971,0.062l-0.281-0.01l-0.006,0.014l-0.027,0.055c0.611,0.029,3.65,1.758,6.918,1.758
	c3.061,0,6.262,0.057,7.756-0.428c1.508-0.486,3.037-1.006,4.43-1.68c2.184-1.057,4.031-2.492,4.918-4.795H233.527z M133.332,252.51
	c0.035-0.031,0.067-0.068,0.104-0.102c0.836-0.729,1.65-1.338,2.443-1.854c3.57-2.324,6.662-2.672,9.066-2.672h16.75l0.125-0.006
	c1.83-0.184,5.292-1.551,5.292-5.41v-12.832h-2.5v12.832c0,2.406-2.51,2.854-2.99,2.918h-16.677c-3.1,0-7.828,0.531-13.098,5.094
	l-0.058,0.047c-0.64,0.557-1.226,1.209-1.768,1.92c-2.692,3.514-4.195,8.453-4.77,10.684c-0.172,0.658-0.265,1.088-0.28,1.164
	l2.446,0.514c0.002-0.014,0.046-0.215,0.125-0.537c0.47-1.922,2.315-8.637,5.786-11.76H133.332z"/>
<ellipse fill="#CE9D8A" cx="196.874" cy="320.97" rx="43.917" ry="2.251"/>
<path fill="#D3CE77" d="M158.54,287.637h2v33.166h-2V287.637z"/>
<path fill="#B8BD82" d="M160.54,287.637h0.917v33.166h-0.916L160.54,287.637z"/>
<path fill="#94AE6F" d="M161.457,287.637v33.166h0.917v-33.166H161.457z"/>
<path fill="#D3CE77" d="M233.623,287.637h2v33.166h-2V287.637z"/>
<path fill="#B8BD82" d="M232.707,287.637h0.916v33.166h-0.916V287.637z"/>
<path fill="#94AE6F" d="M232.707,287.637v33.166h-0.916v-33.166H232.707z M155.494,285.928h83.918v5.18h-83.918V285.928z
	 M155.494,292.922h83.918v5.178h-83.918V292.922z M155.494,299.914h83.918v5.182h-83.918V299.914z"/>
<path fill="#6B8E3C" d="M153.596,307.316h87.197v1.035h-87.197V307.316z"/>
<path fill="#647432" d="M153.51,308.375h87.197v1.037H153.51V308.375z"/>
<path fill="none" d="M98.908,208.23l-0.092-0.52l-1.886,25.842L98.908,208.23z"/>
<path fill="#CE9D8A" d="M100.908,317.615v-1.719c-2.23,0.264-3.792,0.881-3.792,1.604c0,0.959,2.779,1.736,6.207,1.736
	c3.427,0,6.207-0.777,6.207-1.736c0-0.736-1.633-1.363-3.935-1.617v1.732H100.908L100.908,317.615z"/>
<g>
	<g>
		<path fill="#9E6C49" d="M101.197,315.795c-0.116,0.727-0.173,1.09-0.289,1.822c1.875,0,2.812,0,4.688,0
			c1.437-10.715,3.209-21.377,4.643-32.092c-1.788-0.033-2.682-0.049-4.47-0.082C104.539,295.602,102.829,305.695,101.197,315.795z"
			/>
		<path fill="#A3CE55" d="M86.411,207.457c0.111,0.215,0.166,0.32,0.276,0.535c0.445,0.529,0.667,0.793,1.107,1.316
			C87.246,208.572,86.969,208.203,86.411,207.457z M97.754,234.41c4.504,17.555,3.344,33.145,0.585,50.896
			c6.23,0.115,12.461,0.227,18.691,0.342c-1.225-31.02-12.039-52.471-30.163-77.303C91.019,216.852,94.994,225.334,97.754,234.41z"
			/>
		<path fill="#BFDC8A" d="M86.206,207.318c0.034,0.082,0.052,0.125,0.086,0.209c0.022,0.025,0.033,0.037,0.055,0.062
			C86.291,207.48,86.262,207.426,86.206,207.318z M86.44,207.771c-0.042-0.057-0.062-0.084-0.104-0.141
			c10.75,27.779,10.692,49.129,3.627,77.764c3.334,0.062,5.001,0.094,8.335,0.156c0.017-0.098,0.025-0.146,0.042-0.244
			c2.759-17.752,3.918-33.342-0.585-50.896C94.598,225.17,90.773,216.521,86.44,207.771z"/>
		<path fill="#088F46" d="M87.793,209.307c-0.44-0.523-0.662-0.785-1.107-1.314c-0.136-0.16-0.203-0.24-0.339-0.4
			c-0.021-0.025-0.033-0.039-0.055-0.064c-0.117-0.141-0.175-0.209-0.292-0.35c0.135,0.184,0.203,0.273,0.337,0.455
			c0.042,0.057,0.062,0.084,0.104,0.141c0.17,0.229,0.257,0.346,0.426,0.574c18.123,24.832,28.938,46.283,30.162,77.301
			c3.337,0.061,5.005,0.09,8.343,0.15C121.508,254.508,107.728,233.189,87.793,209.307z"/>
	</g>
</g>
<path fill="none" d="M285.908,208.23l-0.092-0.52l-1.887,25.842L285.908,208.23z"/>
<path fill="#CE9D8A" d="M287.908,317.615v-1.719c-2.23,0.264-3.793,0.881-3.793,1.604c0,0.959,2.779,1.736,6.207,1.736
	s6.207-0.777,6.207-1.736c0-0.736-1.633-1.363-3.936-1.617v1.732h-4.688H287.908z"/>
<g>
	<path fill="#9E6C49" d="M287.908,315.896v1.721h4.688v-31.812h-4.688V315.896z"/>
	<path fill="#A3CE55" d="M285.971,207.428l-0.037,0.484l0.346,1.193L285.971,207.428z M283.93,233.553l-3.816,52.25h19.607
		L285.91,208.23L283.93,233.553z"/>
	<path fill="#BFDC8A" d="M285.846,207.303l-0.035,0.188l0.02,0.057L285.846,207.303z M285.816,207.711l-0.023-0.125l-14.447,78.467
		h8.75l0.018-0.25l3.816-52.25L285.816,207.711z"/>
	<path fill="#088F46" d="M286.279,209.105l-0.346-1.193l-0.105-0.363l-0.018-0.057l-0.09-0.314l0.072,0.408l0.025,0.127l0.092,0.52
		l13.811,77.568h8.75L286.279,209.105z"/>
</g>
<g>
	<path fill="#E4533F" d="M142.705,56.38c-1.245-1.557-3.785-1.06-5.38,2.757l-9.93,24.187l-3.954,0.533l5.365-13.104l-5.874,0.789
		l-1.93,4.746C112.11,97.92,90.212,88.182,95.74,74.863c2.025-4.874,5.955-5.595,5.955-5.595l1.105,2.804
		c0,0-2.653,1.086-3.871,4.01c-3.905,9.42,11.98,15.792,18.903-1.128L123.92,60.1c-3.927,2.714-10.615,3.73-12,7.101
		c-1.479,3.533,2.098,4.47,2.098,4.47l-1.13,2.722c-2.734-0.667-6.172-3.424-4.243-8.17c2.45-6.002,11.34-5.17,17.497-11.56
		l2.457,3.161l-4.828,11.689l5.874-0.79l4.28-10.354c3.763-9.056,12.43-6.198,13.088-1.303c0.172,1.28-0.697,2.51-1.977,2.68
		c-1.28,0.173-2.392-0.674-2.564-1.954c-0.066-0.487,0.02-0.997,0.231-1.41L142.705,56.38z M145.871,72.478
		c0.558,0.156,1.317,0.667,1.652,1.16c-2.729,4.2-5.992,8.167-9.23,8.604c-3.163,0.426-4.69-2.09-3.424-5.213l6.033-14.69
		l3.917-0.53l-6.423,15.78c-0.696,1.667-0.125,2.203,0.74,2.086c1.733-0.233,4.13-3.202,6.514-6.858l0.223-0.338H145.871z
		 M155.555,71.172c0.558,0.155,1.317,0.667,1.65,1.16c-2.731,4.2-5.99,8.167-9.23,8.604c-3.162,0.426-4.69-2.09-3.423-5.213
		l9.7-23.62l3.915-0.527l-10.09,24.708c-0.695,1.667-0.124,2.202,0.74,2.084c1.733-0.233,4.132-3.2,6.515-6.858L155.555,71.172
		L155.555,71.172z M165.233,69.868c0.558,0.157,1.316,0.667,1.65,1.16c-2.73,4.2-5.99,8.167-9.23,8.603
		c-3.163,0.427-4.69-2.09-3.423-5.212l9.7-23.62l3.915-0.526l-10.09,24.706c-0.695,1.667-0.124,2.203,0.742,2.086
		c1.732-0.233,4.13-3.2,6.514-6.858l0.223-0.338L165.233,69.868z M187.84,75.181l3.685-25.3c-4.557,3.45-13.79,5.192-13.102,10.314
		c0.487,3.615,5.055,3.649,6.808,0.156l2.047,1.527c-0.834,2.067-2.908,3.458-5.13,3.757c-6.89,0.928-10.877-9.307,0.586-14.148
		c3.407-1.456,7.113-3.26,9.992-5.794l2.566,2.262l-2.605,17.64l8.2-16.247c4.268-8.167,10.207-6.475,11.461-3.424l-2.404,1.782
		c-1.475-2.408-3.609-1.468-5.656,2.41l-12.939,24.594l-3.504,0.47L187.84,75.181z M220.74,62.391
		c0.561,0.155,1.318,0.667,1.652,1.16c-2.73,4.199-5.992,8.167-9.23,8.603c-1.996,0.27-3.342-0.623-3.734-2.105
		c-1.674,1.8-3.494,3.08-5.076,3.292c-3.164,0.426-4.689-2.09-3.424-5.213l4.221-10.23c1.27-3.083,3.982-5.135,6.094-5.42
		c2.561-0.345,4.564,1.724,4.637,3.4l2.221-0.3L213.266,67.5c-0.695,1.667-0.125,2.202,0.742,2.085
		c1.729-0.233,4.129-3.2,6.512-6.858L220.74,62.391L220.74,62.391z M204.453,68.688c-0.697,1.667-0.125,2.202,0.74,2.085
		c1.619-0.218,3.715-2.303,5.586-6.35l2.33-5.759c1.441-3.797-2.865-4.176-4.48-0.24l-4.178,10.263H204.453z M230.42,61.085
		c0.561,0.155,1.318,0.667,1.652,1.16c-2.73,4.2-5.992,8.167-9.23,8.603c-3.162,0.426-4.689-2.09-3.424-5.213l9.699-23.62
		l3.916-0.527l-10.09,24.707c-0.695,1.667-0.125,2.202,0.742,2.085c1.729-0.233,4.129-3.2,6.512-6.858L230.42,61.085z M240.1,59.78
		c0.557,0.157,1.316,0.668,1.65,1.161c-2.73,4.202-5.992,8.167-9.23,8.604c-3.162,0.426-4.689-2.09-3.424-5.213l9.701-23.618
		l3.914-0.527l-10.09,24.706c-0.693,1.668-0.125,2.205,0.742,2.087c1.732-0.233,4.131-3.202,6.516-6.858l0.223-0.34L240.1,59.78z
		 M243.676,60.145l-0.285,0.729c-1.379,3.407,0.254,4.72,2.664,4.395c2.75-0.37,6.014-3.455,8.396-7.112l0.221-0.337
		c0.561,0.154,1.316,0.666,1.652,1.158c-2.732,4.202-6.67,8.261-11.113,8.858c-4.631,0.624-7.256-2.933-5.373-7.442l3.154-7.594
		c1.271-3.083,3.572-5.082,6.734-5.508c3.201-0.43,5.602,2.006,3.977,5.904l-0.432,1.055c-2.25,5.48-6.93,6.608-9.594,5.894H243.676
		z M244.545,58.07c1.541,0.33,4.074,0.066,5.525-3.39l0.434-1.054c1.785-4.38-2.289-4.483-4.027-0.3l-1.93,4.744H244.545z
		 M262.887,58.168l5.307-12.983l3.916-0.527l-8.256,19.82c2.908-1.732,5.334-4.513,8.07-8.677l0.223-0.336
		c0.559,0.156,1.316,0.667,1.65,1.16c-3.623,5.548-7.238,8.872-11.133,10.7l-2.316,5.564c-2.176,5.2-8.043,5.186-8.549,1.42
		c-0.396-2.938,2.621-5.566,7.719-7.864l1.648-3.98c-1.557,1.82-3.49,3.69-5.373,3.945c-2.598,0.351-3.83-1.978-2.303-5.71
		l5.891-14.327l3.916-0.528l-5.848,14.36c-0.379,0.895-1.16,2.495-0.125,2.777c0.801,0.237,2.926-1.62,5.561-4.814H262.887z
		 M256.984,72.688l1.379-3.407c-2.854,1.575-3.637,2.87-3.5,3.885c0.143,1.055,1.49,1.105,2.121-0.477V72.688z"/>
</g>
</svg>
