<svg xmlns="http://www.w3.org/2000/svg" xmlns:xlink="http://www.w3.org/1999/xlink" width="600" height="600" viewBox="0 0 379.311 379.31" enable-background="new 0 0 379.311 379.31">
  <g fill="none" stroke="#000" stroke-miterlimit="10">
    <path data-transform-element=".explosion" class="cannon-path" xmlns="http://www.w3.org/2000/svg" d="M194.492 172.272s60.92 8.235 68.282 50.73"/>
    <path data-transform-element=".explosion-2" class="cannon-path-2" xmlns="http://www.w3.org/2000/svg" d="M158.576 146.92s142.387 8.002 159.592 88.28"/>
    <path class="arrows-path" xmlns="http://www.w3.org/2000/svg" d="M144.637 179.87s42.25-33.75 99-13.5 69.5 68.75 69.5 68.75"/>
  </g>
  <path fill="#FFF6E7" d="M379.31 189.655c0 104.744-84.91 189.655-189.654 189.655S0 294.4 0 189.655 84.912 0 189.655 0C294.4 0 379.31 84.91 379.31 189.655"/>
  <path fill="#B2DFDB" d="M369.655 189.655c0 99.412-80.588 180-180 180-99.41 0-180-80.588-180-180 0-99.41 80.59-180 180-180 99.412 0 180 80.59 180 180"/>
  <g clip-path="url(#a)">
    <defs>
      <path id="b" d="M369.655 189.655c0 99.412-80.588 180-180 180-99.41 0-180-80.588-180-180 0-99.41 80.59-180 180-180 99.412 0 180 80.59 180 180"/>
    </defs>
    <clipPath id="a">
      <use xlink:href="#b" overflow="visible"/>
    </clipPath>
    <g clip-path="url(#a)">
      <path fill="#5C2823" d="M347.92 275.472c-27.278-.13-283.133-1.296-294.885.01-8.82.98-9.63 12.748-9.362 19.48 32.695 45.245 85.896 74.692 145.98 74.692 68.34 0 127.784-38.08 158.268-94.182"/>
      <path class="explosion-2 scale0" xmlns="http://www.w3.org/2000/svg" fill="#FDFDFE" d="M316.27 233.28s-2.67-1.02-2.84-2.384-4.937-1.704-2.78-6.02 2.725-.623 2.725-.623-.34-.17-.567-3.69 2.725-5.167 3.747-5.11 3.123-.454 3.18 1.533.624 1.135 3.18 1.078 4.657.114 4.146 3.35 1.932 2.157-.396 5.054-4.372.852-4.315 2.385 3.01-.567 2.838 2.612-4.202 4.03-4.997 4.43-3.92-2.614-3.92-2.614z"/>
      <path class="explosion scale0" xmlns="http://www.w3.org/2000/svg" fill="#FDFDFE" d="M255.27 222.28s-2.67-1.02-2.84-2.384-4.937-1.704-2.78-6.02 2.725-.623 2.725-.623-.34-.17-.567-3.69 2.725-5.167 3.747-5.11 3.123-.454 3.18 1.533.624 1.135 3.18 1.078 4.657.114 4.146 3.35 1.932 2.157-.396 5.054-4.372.852-4.315 2.385 3.01-.567 2.838 2.612-4.202 4.03-4.997 4.43-3.92-2.614-3.92-2.614z"/>
      <path class="cloud" fill="#fff" d="M70.21 41.895h-1.497c.048-1.244.01-3.24-.576-4.73-.912-2.322-3.152-3.65-4.812-3.898-1.295-.194-4.3-.085-5.56-.028-.838-4.137-4.84-7.274-9.663-7.274-5.27 0-9.56 3.748-9.807 8.452-1.267.027-2.457.034-3.51.01-6.356 1.677-6.125 6.107-5.893 7.467H27.07c-.64 0-1.16.52-1.16 1.16 0 .643.52 1.163 1.16 1.163h43.14c.643 0 1.162-.52 1.162-1.162 0-.64-.52-1.16-1.16-1.16" />
      <path class="building" fill="none" d="M113.656 130.94h.002v9.314h-.002z"/>
      <path fill="#F37042" d="M287.89 239.86l4.948 15h40.746v-5.832h-1.375v-4h1.374v-5.167H287.89zm10.526 9.784c0 .783-.502 1.42-1.12 1.42-.618 0-1.118-.637-1.118-1.42v-5.31c0-.78.5-1.418 1.12-1.418.616 0 1.118.637 1.118 1.42v5.308zm10.5 0c0 .783-.502 1.42-1.12 1.42-.618 0-1.118-.637-1.118-1.42v-5.31c0-.78.5-1.418 1.12-1.418.616 0 1.118.637 1.118 1.42v5.308zm10.24 0c0 .783-.502 1.42-1.12 1.42-.618 0-1.118-.637-1.118-1.42v-5.31c0-.78.5-1.418 1.12-1.418.616 0 1.118.637 1.118 1.42v5.308zm10 0c0 .783-.502 1.42-1.12 1.42-.618 0-1.118-.637-1.118-1.42v-5.31c0-.78.5-1.418 1.12-1.418.616 0 1.118.637 1.118 1.42v5.308zM286.205 230.61h-1.365l1.95 5.917h46.794v-7.333h-47.38v.667zM293.937 258.195l5.936 18h33.71v-18z"/>
      <path fill="#F47C54" d="M287.56 238.86h46.024v-2.333H286.79z"/>
      <path fill="#E8602E" d="M287.89 239.86h45.694v-1H287.56z"/>
      <path fill="#F47C54" d="M293.607 257.195h39.977v-2.334h-40.746z"/>
      <path fill="#E8602E" d="M293.937 258.195h39.647v-1h-39.977z"/>
      <path fill="#D54D28" d="M286.205 226.61v2.584h47.38v-1.175h-2.202v-2.016h-2.92v2.015h-3.492v-2.016h-2.92v2.015h-3.206v-2.016h-2.918v2.015h-3.494v-2.016h-2.918v2.015h-3.166v-2.016h-2.918v2.015h-3.494v-2.016h-2.918v2.015h-3.207v-2.016h-2.92v2.015H287.4v-2.016h-2.568v.607z"/>
      <path fill="#F37042" d="M340.084 245.028h11.25v-17.023h-11.25v17.023zm2.953-15.574c.617 0 1.12.637 1.12 1.42v11.308c0 .783-.503 1.42-1.12 1.42-.62 0-1.12-.637-1.12-1.42v-11.31c0-.782.5-1.418 1.12-1.418zM340.084 249.028h11.25v27.166h-11.25z"/>
      <path fill="#E25A29" d="M333.584 249.028v27.168h6.5v-27.167zM333.584 236.527v8.502h6.5v-17.023h-6.5v8.522zm2.46-5.654c0-.782.5-1.42 1.118-1.42.617 0 1.12.638 1.12 1.42v11.31c0 .782-.503 1.418-1.12 1.418-.62 0-1.12-.635-1.12-1.418v-11.31z"/>
      <path fill="#F47C59" d="M333.584 245.028h-1.375v3.25h20.5v-3.25h-12.626z"/>
      <path fill="#DE592A" d="M332.21 248.278v.75H352.708v-.75z"/>
      <path fill="#F47C59" d="M332.21 224.004h20.5v3.25h-20.5z"/>
      <path fill="#DE592A" d="M332.21 228.004H352.708v-.75h-20.5z"/>
      <path fill="#D54D28" d="M350.146 223.028v-2.25h-2.875v2.25h-3.5v-2.25h-2.874v2.25h-3.25v-2.25h-2.875v2.25h-2.56v.976h20.5v-.976z"/>
      <path fill="#734433" d="M337.162 243.6c.617 0 1.12-.636 1.12-1.42v-11.308c0-.782-.503-1.42-1.12-1.42-.62 0-1.12.638-1.12 1.42v11.31c0 .782.5 1.418 1.12 1.418zM343.037 243.6c.617 0 1.12-.636 1.12-1.42v-11.308c0-.782-.503-1.42-1.12-1.42-.62 0-1.12.638-1.12 1.42v11.31c0 .782.5 1.418 1.12 1.418z"/>
      <path fill="#F37042" d="M287.89 239.86h-3.06v15h8.008l-4.947-15zm-.593 11.203c-.62 0-1.12-.636-1.12-1.42v-5.308c0-.782.5-1.42 1.12-1.42.617 0 1.12.638 1.12 1.42v5.31c0 .782-.503 1.418-1.12 1.418z"/>
      <path opacity=".6" fill="#F05223" d="M287.89 239.86h-3.06v15h8.008l-4.947-15zm-.593 11.203c-.62 0-1.12-.636-1.12-1.42v-5.308c0-.782.5-1.42 1.12-1.42.617 0 1.12.638 1.12 1.42v5.31c0 .782-.503 1.418-1.12 1.418z"/>
      <path fill="#F37042" d="M284.84 230.61h-.01v5.917h1.96z"/>
      <path opacity=".6" fill="#F05223" d="M284.84 230.61h-.01v5.917h1.96z"/>
      <path fill="#F37042" d="M284.83 258.195v17.916h-.457v.084h15.5l-5.936-18z"/>
      <path opacity=".6" fill="#F05223" d="M284.83 258.195v17.916h-.457v.084h15.5l-5.936-18z"/>
      <path fill="#F47C54" d="M286.79 236.527h-1.96v2.334h2.73z"/>
      <path opacity=".6" fill="#F05223" d="M286.79 236.527h-1.96v2.334h2.73z"/>
      <path fill="#E8602E" d="M287.56 238.86h-2.73v1h3.06z"/>
      <path opacity=".6" fill="#F05223" d="M287.56 238.86h-2.73v1h3.06z"/>
      <path fill="#F47C54" d="M292.838 254.86h-8.008v2.335h8.777z"/>
      <path opacity=".6" fill="#F05223" d="M292.838 254.86h-8.008v2.335h8.777z"/>
      <path fill="#E8602E" d="M284.83 257.195v1h9.107l-.33-1z"/>
      <path opacity=".6" fill="#F05223" d="M284.83 257.195v1h9.107l-.33-1z"/>
      <path fill="#734433" d="M297.297 242.917c-.62 0-1.12.637-1.12 1.42v5.308c0 .783.5 1.42 1.12 1.42.617 0 1.12-.637 1.12-1.42v-5.31c0-.782-.503-1.418-1.12-1.418zM307.797 242.917c-.62 0-1.12.637-1.12 1.42v5.308c0 .783.5 1.42 1.12 1.42.617 0 1.12-.637 1.12-1.42v-5.31c0-.782-.503-1.418-1.12-1.418zM318.037 242.917c-.62 0-1.12.637-1.12 1.42v5.308c0 .783.5 1.42 1.12 1.42.617 0 1.12-.637 1.12-1.42v-5.31c0-.782-.503-1.418-1.12-1.418zM328.037 242.917c-.62 0-1.12.637-1.12 1.42v5.308c0 .783.5 1.42 1.12 1.42.617 0 1.12-.637 1.12-1.42v-5.31c0-.782-.503-1.418-1.12-1.418zM287.297 242.917c-.62 0-1.12.637-1.12 1.42v5.308c0 .783.5 1.42 1.12 1.42.617 0 1.12-.637 1.12-1.42v-5.31c0-.782-.503-1.418-1.12-1.418z"/>
      <path fill="#B93926" d="M198.705 229.86v-3.25h1.375v-9.5H195.152v22.12h1.118v1.837h3.736v-1.837h.074v-8.62h-1.375z"/>
      <path fill="#CD4C28" d="M195.627 217.11h4.453v-.827h-.328v-1.297h-2v1.297h-2.125v-1.297h-.475v2.125z"/>
      <path fill="#F37042" d="M273.58 226.61h11.25V209.59h-11.25v17.023zm2.953-15.573c.617 0 1.12.637 1.12 1.42v11.308c0 .783-.503 1.42-1.12 1.42-.62 0-1.12-.637-1.12-1.42v-11.31c0-.782.5-1.418 1.12-1.418zM284.83 276.11V230.613h-11.25v45.5h10.338v.084h.455v-.083z"/>
      <path fill="#E25A29" d="M267.246 219.865v2.537h-.08v4.21h6.414v-17.024h-6.5v8.64h.086l.08 1.637zm2.293-7.41c0-.78.5-1.418 1.118-1.418.617 0 1.12.637 1.12 1.42v11.308c0 .783-.503 1.42-1.12 1.42-.62 0-1.12-.637-1.12-1.42v-11.31zM267.166 230.61v45.501h6.414v-45.5z"/>
      <path fill="#F47C59" d="M286.205 229.86v-3.249h-19.039v3.25z"/>
      <path fill="#DE592A" d="M286.205 230.61v-.75h-19.04v.75h17.675z"/>
      <path fill="#F47C59" d="M265.705 205.587h20.5v3.25h-20.5z"/>
      <path fill="#DE592A" d="M284.83 209.587h1.375v-.75h-20.5v.75h7.875z"/>
      <path fill="#D54D28" d="M286.205 204.61h-2.562v-2.25h-2.875v2.25h-3.5v-2.25h-2.875v2.25h-3.25v-2.25h-2.875v2.25h-2.563v.977h20.5z"/>
      <path fill="#734433" d="M270.658 225.183c.617 0 1.12-.636 1.12-1.42v-11.308c0-.782-.503-1.42-1.12-1.42-.62 0-1.12.638-1.12 1.42v11.31c0 .782.5 1.418 1.12 1.418zM276.533 225.183c.617 0 1.12-.636 1.12-1.42v-11.308c0-.782-.503-1.42-1.12-1.42-.62 0-1.12.638-1.12 1.42v11.31c0 .782.5 1.418 1.12 1.418z"/>
      <path fill="#F37042" d="M236.623 258.403h9.264v17.708h-9.264zM236.623 231.07v24h9.264v-24h-9.264zm4.588 11.2c-.618 0-1.118-.635-1.118-1.418v-5.31c0-.78.5-1.418 1.12-1.418.616 0 1.118.637 1.118 1.42v5.308c0 .783-.502 1.42-1.12 1.42zM246.762 231.07v24h9.375v-24h-9.375zm4.687 11.2c-.62 0-1.12-.635-1.12-1.418v-5.31c0-.78.5-1.418 1.12-1.418.616 0 1.118.637 1.118 1.42v5.308c0 .783-.502 1.42-1.12 1.42zM220.286 231.07l1.108 3.358c.263.26.436.66.436 1.115v.206l3.668 11.12V231.07h-5.212zM246.762 258.403h9.375v17.708h-9.375zM226.373 231.07v18.455l1.828 5.544h7.548v-24h-9.375zm4.338 11.2c-.618 0-1.118-.635-1.118-1.418v-5.31c0-.78.5-1.418 1.12-1.418.616 0 1.118.637 1.118 1.42v5.308c0 .783-.502 1.42-1.12 1.42zM229.3 258.403l5.84 17.708h.608v-17.707zM257.012 258.403v17.708h10.154v-17.707z"/>
      <path fill="#B93926" d="M267.246 219.865H217.83v2.537h49.416z"/>
      <path fill="#F47C54" d="M219.957 230.07h47.168v-2.335h-47.92v.057z"/>
      <path fill="#E8602E" d="M219.957 230.07l.33 1h5.21v15.802l.876 2.653V231.07h9.375v24h.875v-24h9.264v24h.875v-24h9.375v24h.875v-24h10.113v-1z"/>
      <path fill="#F47C54" d="M257.012 255.07H228.2l.77 2.333h38.196v-2.334z"/>
      <path fill="#E8602E" d="M267.166 258.403v-1H228.97l.33 1h6.448v17.708h.875v-17.707h9.264v17.708h.875v-17.707h9.375v17.708h.875v-17.707z"/>
      <path fill="#D54D28" d="M267.246 219.865l-.08-1.638h-2.371v-2.015h-2.918v2.015h-3.494v-2.015h-2.918v2.015h-3.207v-2.015h-2.92v2.015h-3.492v-2.015h-2.92v2.015h-3.164v-2.015h-2.92v2.015h-3.492v-2.015h-2.92v2.015h-3.207v-2.015h-2.918v2.015h-3.494v-2.015h-2.917v2.015l-.063.007v1.63z"/>
      <path opacity=".6" fill="#F05223" d="M225.498 276.11h-8.166v.084h17.836l-.027-.083h-8.767z"/>
      <path fill="#F37042" d="M217.83 223.623v2.988h.986z"/>
      <path opacity=".6" fill="#F05223" d="M217.83 223.623v2.988h.986z"/>
      <path fill="#F37042" d="M226.373 255.07h1.828l-1.827-5.545z"/>
      <path opacity=".6" fill="#F05223" d="M226.373 255.07h1.828l-1.827-5.545z"/>
      <path fill="#F37042" d="M225.498 246.872l-3.668-11.122v5.103c0 .783-.502 1.42-1.12 1.42-.618 0-1.118-.637-1.118-1.42v-5.31c0-.78.5-1.418 1.12-1.418.257 0 .492.116.683.304l-1.108-3.36h-2.456v24h7.67v-8.198z"/>
      <path opacity=".6" fill="#F05223" d="M225.498 246.872l-3.668-11.122v5.103c0 .783-.502 1.42-1.12 1.42-.618 0-1.118-.637-1.118-1.42v-5.31c0-.78.5-1.418 1.12-1.418.257 0 .492.116.683.304l-1.108-3.36h-2.456v24h7.67v-8.198z"/>
      <path fill="#F37042" d="M217.83 258.403h7.668v17.708h-7.668z"/>
      <path opacity=".6" fill="#F05223" d="M217.83 258.403h7.668v17.708h-7.668z"/>
      <path fill="#F37042" d="M226.373 258.403v17.708h8.768l-5.84-17.707z"/>
      <path opacity=".6" fill="#F05223" d="M226.373 258.403v17.708h8.768l-5.84-17.707z"/>
      <path fill="#E8602E" d="M225.498 246.872v8.197h.875v-5.545z"/>
      <path opacity=".6" fill="#F05223" d="M225.498 246.872v8.197h.875v-5.545z"/>
      <path fill="#F47C54" d="M219.205 229.86v.21h.752l-.752-2.278z"/>
      <path opacity=".6" fill="#F05223" d="M219.205 229.86v.21h.752l-.752-2.278z"/>
      <path fill="#E8602E" d="M219.957 230.07h-.752v.54h-1.375v.46h2.456z"/>
      <path opacity=".6" fill="#F05223" d="M219.957 230.07h-.752v.54h-1.375v.46h2.456z"/>
      <path fill="#F47C54" d="M226.373 255.07h-8.543v2.333h11.14l-.77-2.334z"/>
      <path opacity=".6" fill="#F05223" d="M226.373 255.07h-8.543v2.333h11.14l-.77-2.334z"/>
      <path fill="#E8602E" d="M217.83 257.403v1h7.668v17.708h.875v-17.707h2.928l-.33-1z"/>
      <path opacity=".6" fill="#F05223" d="M217.83 257.403v1h7.668v17.708h.875v-17.707h2.928l-.33-1z"/>
      <path fill="#734433" d="M230.71 234.125c-.618 0-1.118.637-1.118 1.42v5.308c0 .783.5 1.42 1.12 1.42.616 0 1.118-.637 1.118-1.42v-5.31c0-.782-.502-1.418-1.12-1.418zM241.21 234.125c-.618 0-1.118.637-1.118 1.42v5.308c0 .783.5 1.42 1.12 1.42.616 0 1.118-.637 1.118-1.42v-5.31c0-.782-.502-1.418-1.12-1.418zM251.45 234.125c-.62 0-1.12.637-1.12 1.42v5.308c0 .783.5 1.42 1.12 1.42.616 0 1.118-.637 1.118-1.42v-5.31c0-.782-.502-1.418-1.12-1.418zM261.45 234.125c-.62 0-1.12.637-1.12 1.42v5.308c0 .783.5 1.42 1.12 1.42.616 0 1.118-.637 1.118-1.42v-5.31c0-.782-.502-1.418-1.12-1.418zM221.395 234.428c-.19-.188-.426-.304-.684-.304-.618 0-1.118.637-1.118 1.42v5.308c0 .783.5 1.42 1.12 1.42.616 0 1.118-.637 1.118-1.42v-5.31c0-.454-.173-.855-.435-1.115z"/>
      <path fill="#F37042" d="M206.58 226.61h11.25v-2.987l.986 2.988h.39v1.125h47.92v3.334H257.01v24h10.154V222.4H217.83v-12.814h-11.25v17.023zm55.988 14.242c0 .783-.502 1.42-1.12 1.42-.618 0-1.118-.637-1.118-1.42v-5.31c0-.78.5-1.418 1.12-1.418.616 0 1.118.637 1.118 1.42v5.308zm-53.035-29.815c.617 0 1.12.637 1.12 1.42v11.308c0 .783-.503 1.42-1.12 1.42-.62 0-1.12-.637-1.12-1.42v-11.31c0-.782.5-1.418 1.12-1.418zM217.83 258.403V230.61h-11.25v45.5h11.25z"/>
      <path fill="#E25A29" d="M200.08 230.61v8.62h2.84v1.837h1.076v12.108h.5v1.167h-.5v16.146h.5v1.167h-.5v4.456h2.584v-45.5zM200.08 226.61h6.5V209.59h-6.5v17.023zm2.46-14.154c0-.782.5-1.42 1.118-1.42.617 0 1.12.638 1.12 1.42v11.31c0 .782-.503 1.418-1.12 1.418-.62 0-1.12-.636-1.12-1.42v-11.308z"/>
      <path fill="#F47C59" d="M198.705 229.86h20.5v-3.249h-20.5z"/>
      <path fill="#DE592A" d="M219.205 230.07v-.21h-20.5v.75h20.5z"/>
      <path fill="#F47C59" d="M198.705 205.587h20.5v3.25h-20.5z"/>
      <path fill="#DE592A" d="M217.83 209.587h1.375v-.75h-20.5v.75h7.875z"/>
      <path fill="#D54D28" d="M219.205 204.61h-2.562v-2.25h-2.875v2.25h-3.5v-2.25h-2.875v2.25h-3.25v-2.25h-2.875v2.25h-2.563v.977h20.5z"/>
      <path fill="#734433" d="M203.658 225.183c.617 0 1.12-.636 1.12-1.42v-11.308c0-.782-.503-1.42-1.12-1.42-.62 0-1.12.638-1.12 1.42v11.31c0 .782.5 1.418 1.12 1.418zM209.533 225.183c.617 0 1.12-.636 1.12-1.42v-11.308c0-.782-.503-1.42-1.12-1.42-.62 0-1.12.638-1.12 1.42v11.31c0 .782.5 1.418 1.12 1.418z"/>
      <path fill="#D54D28" d="M146.19 154.227v7.464l5.554-3.644v-5.166h-5.634v.44h.08zM146.254 172.502v-1.312h.957v-9.228h-1.02v21.658h1.02v-11.118z"/>
      <path fill="#F37042" d="M151.744 158.046l.012-.007 5.848 3.922h-5.518v9.228h5.043v1.312h-5.044v38.974h.014v-1.47h2.807v1.47h.686v-5.303h-1.375v-2.875h1.375v-4.625c0-.14.064-.424.185-.794V189.4h1.354v-1.526h2.52v1.527h1.954V152.88h-9.86v5.166zm3.38 9.432c0 .555-.354 1.005-.793 1.005s-.792-.45-.792-1.005v-3.76c0-.555.354-1.006.793-1.006s.795.45.795 1.005v3.76zM163.088 152.058h.002v-7.863h-5.852v7.863h-.002 5.852zm-4.04-5.52c0-.468.435-.848.97-.848.537 0 .97.38.97.85v3.174c0 .468-.433.848-.97.848-.535 0-.97-.38-.97-.848v-3.175z"/>
      <path fill="#D54D28" d="M150.478 152.058v-7.863h-5.853v7.863h5.853zm-3.754-5.52c0-.468.435-.848.97-.848.537 0 .97.38.97.85v3.174c0 .468-.433.848-.97.848-.535 0-.97-.38-.97-.848v-3.175z"/>
      <path fill="#DD552B" d="M150.478 152.058h6.76v-7.863h-6.76v7.863zm2.41-5.52c0-.468.433-.848.968-.848.537 0 .97.38.97.85v3.174c0 .468-.433.848-.97.848-.535 0-.97-.38-.97-.848v-3.175z"/>
      <path fill="#C74427" d="M161.605 152.88h1.483v-.822h-18.465v.822h7.121z"/>
      <path fill="#B93926" d="M155.088 139.366v-2.215h-2.465v2.216l1.232-.454z"/>
      <path fill="#D54D28" d="M166.3 143.49h-.003zM155.088 139.366l-1.233-.454-1.232.454-11.205 4.123h24.877z"/>
      <path fill="#BF4127" d="M166.297 143.49h-24.883v.704h24.883z"/>
      <path fill="#734433" d="M160.018 150.562c.537 0 .97-.38.97-.848v-3.175c0-.47-.433-.85-.97-.85-.535 0-.97.38-.97.85v3.174c0 .468.434.848.97.848zM147.693 150.562c.537 0 .97-.38.97-.848v-3.175c0-.47-.433-.85-.97-.85-.535 0-.97.38-.97.85v3.174c0 .468.435.848.97.848zM153.855 150.562c.537 0 .97-.38.97-.848v-3.175c0-.47-.433-.85-.97-.85-.535 0-.97.38-.97.85v3.174c.002.468.435.848.97.848z"/>
      <path fill="#B93926" d="M119.014 182.093v1.527h2.41v-1.527h2.523v1.527h2.252v-1.527h2.522v1.527h3.516v-1.527h2.522v1.527h2.502v-1.527h2.52v1.527h2.718v-1.527h2.522v1.527h1.168v-21.658h-.412l.412-.27v-7.465H135.567v4.95h.834v1.312h-.833v21.575h-9.084v-11.923h-7.656v11.95zM125.526 160.49v-1.313h.958v-4.95H118.83v8.69h7.656v-2.428z"/>
      <path fill="#CD4C28" d="M137.692 154.227h8.497v-.906h-2.64v-1.26h-2.087v1.26h-1.686v-1.26h-2.085v1.26h-2.125v.907zM121.516 154.227H126.485v-.906H123.6v-1.26h-2.084v1.26h-2.688v.907z"/>
      <path fill="#D54D28" d="M105.658 153.688v.54h-1.182v16.52h1.182v3.915h-1.182v8.957h1.202v-1.527h1.473v-11.95h19.334v-1.175h-21.97v-.772h21.97v-5.28H107.15v-21.69h-6.67v6.04h-.61v2.026h-2.124v-2.025H94.12v2.025h-3v-2.025h-3.624v2.025h-1.418v1.02H100.482v.002h5.178z"/>
      <path fill="#F37042" d="M107.15 162.916h11.678v-21.688H107.15zM108.2 183.62h2.102v-1.527h2.522v1.527h3.668v-1.527h2.336v-11.95H107.15v11.95h1.05zM113.658 140.254H120.59v-9.314h-6.932v9.314zm2.145-6.538c0-.555.514-1.005 1.147-1.005.636 0 1.15.45 1.15 1.006v3.76c0 .556-.515 1.006-1.15 1.006-.634 0-1.147-.45-1.147-1.005v-3.76z"/>
      <path fill="#D54D28" d="M105.65 140.254v-9.314h-6.93v9.314h6.93zm-4.445-6.538c0-.555.514-1.005 1.148-1.005.636 0 1.15.45 1.15 1.006v3.76c0 .556-.515 1.006-1.15 1.006-.635 0-1.148-.45-1.148-1.005v-3.76z"/>
      <path fill="#DD552B" d="M105.65 130.94v9.314h8.006v-9.314h-8.005zm5.152 6.537c0 .555-.515 1.005-1.15 1.005s-1.147-.45-1.147-1.005v-3.76c0-.556.514-1.006 1.148-1.006s1.15.45 1.15 1.006v3.76z"/>
      <path fill="#C74427" d="M118.828 141.227h1.76v-.973H98.72v.973h8.433z"/>
      <path fill="#B93926" d="M111.113 125.22v-2.62h-2.92v2.62l1.46-.537z"/>
      <path fill="#D54D28" d="M124.39 130.105l-13.277-4.885-1.46-.537-1.46.537-13.276 4.885z"/>
      <path fill="#BF4127" d="M113.656 130.94h10.734v-.834H94.917v.834h10.732z"/>
      <path fill="#734433" d="M116.95 138.482c.636 0 1.15-.45 1.15-1.005v-3.76c0-.556-.515-1.006-1.15-1.006-.634 0-1.147.45-1.147 1.006v3.76c0 .556.513 1.006 1.147 1.006zM102.354 138.482c.636 0 1.15-.45 1.15-1.005v-3.76c0-.556-.515-1.006-1.15-1.006-.635 0-1.148.45-1.148 1.006v3.76c0 .556.513 1.006 1.148 1.006zM109.652 132.71c-.635 0-1.148.45-1.148 1.006v3.76c0 .556.514 1.006 1.148 1.006s1.15-.45 1.15-1.005v-3.76c0-.556-.515-1.006-1.15-1.006z"/>
      <path fill="#902A1D" d="M84.373 174.662v-.33h-13.65v9.43c.678-1.242 2.926-4.68 7.025-4.68 5 0 6.375 5.374 6.375 5.374v34.5c-.584-.51-1.194-.875-1.75-.875-1.875 0-2.25 2-2.25 2v55.75h6.142V174.663h-1.892z"/>
      <path fill="#F37042" d="M66.515 172.268h4.208-4.208zM66.515 171.393h4.208v-9.228h-4.208v9.228zm2.245-8.477c.438 0 .793.45.793 1.005v3.762c0 .555-.355 1.005-.793 1.005-.438 0-.793-.45-.793-1.005v-3.76c0-.555.354-1.006.793-1.006zM70.723 172.706h-4.208v17.555h.483v-2.024h3.625v2.025h.1v-15.928zM70.723 161.268h-.03l.03.02z"/>
      <path fill="#E15A29" d="M64.873 190.26h1.642v-17.554h5.042v-.437h-5.042v-.002h-5.833v.438h.958v15.53h3.233zM66.515 171.393v-9.228H61.64v9.228h4.875zm-1.646-3.71c0 .554-.355 1.004-.794 1.004-.438 0-.793-.45-.793-1.005v-3.76c0-.555.355-1.006.793-1.006.438 0 .793.45.793 1.005v3.762z"/>
      <path fill="#F47C59" d="M66.515 172.268h5.042v-.875H60.682v.875h.958z"/>
      <path fill="#734433" d="M64.076 162.916c-.438 0-.793.45-.793 1.005v3.762c0 .555.355 1.005.793 1.005.438 0 .793-.45.793-1.005v-3.76c0-.555-.355-1.006-.794-1.006zM68.76 168.687c.438 0 .793-.45.793-1.005v-3.76c0-.555-.355-1.006-.793-1.006-.438 0-.793.45-.793 1.005v3.762c0 .555.354 1.005.793 1.005z"/>
      <path fill="#D9552D" d="M66.515 162.166h5.516l-1.307-.878-.03-.02-4.51-3.025-5.977 3.923h1.434z"/>
      <path fill="#E15A29" d="M53.205 211.03h7.94v77.856h-7.94z"/>
      <path fill="#F37042" d="M61.146 207.117h10.49v-11.92h-10.49v11.92zm6.306-9.114c0-.828.495-1.5 1.104-1.5.61 0 1.106.672 1.106 1.5v5.607c0 .828-.495 1.5-1.106 1.5-.61 0-1.104-.672-1.104-1.5v-5.607zm-3.227-1.5c.61 0 1.105.672 1.105 1.5v5.607c0 .828-.496 1.5-1.105 1.5-.61 0-1.105-.672-1.105-1.5v-5.607c0-.828.493-1.5 1.105-1.5zM61.146 211.03h10.49v77.856h-10.49z"/>
      <path fill="#F47C59" d="M53.205 207.117h-1.428v3.374h21.286v-3.373H61.146zM66.998 191.283H51.777v3.374h21.286v-3.374h-2.44z"/>
      <path fill="#E15A29" d="M51.777 194.657v.54h1.428v11.92h7.94v-11.92h11.918v-.54H51.777zm6.514 8.954c0 .83-.494 1.5-1.104 1.5s-1.105-.67-1.105-1.5v-5.606c0-.828.496-1.5 1.106-1.5s1.105.672 1.105 1.5v5.607z"/>
      <path fill="#D54D28" d="M51.777 210.49v.54h21.286v-.54z"/>
      <path fill="#734433" d="M57.186 196.503c-.61 0-1.105.672-1.105 1.5v5.607c0 .828.496 1.5 1.106 1.5s1.105-.672 1.105-1.5v-5.607c0-.828-.494-1.5-1.104-1.5zM64.225 205.11c.61 0 1.105-.67 1.105-1.5v-5.606c0-.828-.496-1.5-1.105-1.5-.61 0-1.105.672-1.105 1.5v5.607c0 .83.493 1.5 1.105 1.5zM68.557 205.11c.61 0 1.106-.67 1.106-1.5v-5.606c0-.828-.495-1.5-1.106-1.5-.61 0-1.104.672-1.104 1.5v5.607c0 .83.494 1.5 1.104 1.5z"/>
      <path fill="#D54D28" d="M70.623 188.236h-3.625v2.025h-2.125v-2.024h-3.625v2.025h-3v-2.024h-3.625v2.025h-1.418v1.023H71.636v-1.022H70.623z"/>
      <path fill="#F37042" d="M135.567 149.05h-.03l.03.02zM131.36 159.177h4.207V149.95h-4.208v9.227zm2.244-8.478c.44 0 .794.45.794 1.004v3.76c0 .556-.354 1.006-.794 1.006-.438 0-.792-.45-.792-1.005v-3.76c0-.555.354-1.006.792-1.006zM131.36 160.49h4.207v21.575h-4.208z"/>
      <path fill="#E15A29" d="M131.36 182.065V160.49H136.4v-.438h-10.874v.437h.958v21.575zM126.484 159.177h4.875v-9.228h-4.876v9.227zm1.645-7.473c0-.554.354-1.005.79-1.005.44 0 .795.45.795 1.004v3.76c0 .556-.355 1.006-.794 1.006-.436 0-.79-.45-.79-1.005v-3.76z"/>
      <path fill="#F47C59" d="M125.526 160.052H136.4v-.875H125.526z"/>
      <path fill="#734433" d="M128.13 155.465c0 .555.354 1.005.79 1.005.44 0 .795-.45.795-1.005v-3.76c0-.555-.355-1.006-.794-1.006-.436 0-.79.45-.79 1.004v3.76zM132.812 155.465c0 .555.354 1.005.792 1.005.44 0 .794-.45.794-1.005v-3.76c0-.555-.354-1.006-.794-1.006-.438 0-.792.45-.792 1.004v3.76z"/>
      <path fill="#D9552D" d="M135.567 149.95h1.31l-1.31-.88-.03-.02-4.51-3.024-5.976 3.923h6.309z"/>
      <path fill="#F37042" d="M104.513 168.196h21.972v.772h-21.972z"/>
      <path fill="#E15A29" d="M147.21 161.962v9.228h4.876v-9.228h-4.875zm3.23 5.516c0 .555-.354 1.005-.793 1.005-.437 0-.792-.45-.792-1.005v-3.76c0-.555.355-1.006.792-1.006.438 0 .794.45.794 1.005v3.76z"/>
      <path fill="#F47C59" d="M147.21 171.19h-.956v.875h10.875v-.875h-5.044z"/>
      <path fill="#E15A29" d="M146.254 172.065v.437h.957v11.118h.24v26.384h2.02v1.47h2.616v-38.973h5.043v-.437z"/>
      <path fill="#734433" d="M149.647 162.712c-.437 0-.792.45-.792 1.005v3.76c0 .556.355 1.006.792 1.006.438 0 .794-.45.794-1.005v-3.76c0-.555-.354-1.006-.793-1.006zM154.33 162.712c-.437 0-.792.45-.792 1.005v3.76c0 .556.354 1.006.793 1.006s.795-.45.795-1.005v-3.76c0-.555-.355-1.006-.794-1.006z"/>
      <path fill="#D9552D" d="M145.778 161.962h11.826l-5.848-3.923-.012.006-5.554 3.645z"/>
      <path fill="#E96439" d="M130.268 190.84v19.165h1.71v1.47h3.068v-1.47h2.806v1.47h.035V190.84h-7.62zm4.744 9.34c0 .71-.434 1.285-.97 1.285s-.97-.575-.97-1.284v-4.806c0-.71.434-1.284.97-1.284s.97.575.97 1.284v4.807zM106.043 210.005h2.807v1.47h3.006V190.84h-7.38v20.636h1.567v-1.47zm1.03-14.63c0-.71.433-1.284.968-1.284.538 0 .972.576.972 1.285v4.807c0 .71-.434 1.284-.97 1.284s-.97-.575-.97-1.284v-4.807zM110.854 188.086h1v-2.622h-7.378v3.668h6.378zM112.823 190.84v19.165h2.188v1.47h2.256v-1.47h2.807v1.47h.938V190.84h-8.187zm4.69 9.34c0 .71-.435 1.285-.972 1.285-.534 0-.968-.575-.968-1.284v-4.806c0-.71.434-1.284.97-1.284s.97.575.97 1.284v4.807zM136.887 188.086h1v-2.622h-6.65v2.622h1v.873l-.995.172h5.645zM121.978 190.84v20.636h1.187v-1.47h2.806v1.47h3.2v-1.47h.132v-19.167h-7.324zm3.91 9.34c0 .71-.435 1.285-.972 1.285-.535 0-.97-.575-.97-1.284v-4.806c0-.71.435-1.284.97-1.284.537 0 .97.575.97 1.284v4.807zM128.3 188.086h1v-2.622h-6.353v2.622h1v.873l-.994.172h5.346zM120.01 188.086h1v-2.622h-7.217v2.622h1v.873l-.994.172h6.21zM138.855 190.84v20.636h1.867v-1.47h2.807v1.47h3.134v-1.47h.785v-19.167h-8.595zm4.907 9.34c0 .71-.434 1.285-.97 1.285s-.97-.575-.97-1.284v-4.806c0-.71.434-1.284.97-1.284s.97.575.97 1.284v4.807zM147.45 189.132v-3.668h-7.626v2.622h1v.873l-.994.172z"/>
      <path fill="#F47C59" d="M121.01 189.133h-8.187v1.706h8.187zM111.855 189.133h-7.38v1.706h7.38zM129.3 189.133h-7.323v1.706h7.324zM137.887 189.133H130.267v1.706h7.62zM147.45 190.84v-1.708h-8.596v1.707z"/>
      <path fill="#734433" d="M124.916 194.09c-.535 0-.97.575-.97 1.284v4.807c0 .71.435 1.285.97 1.285.537 0 .97-.575.97-1.284v-4.806c0-.708-.433-1.284-.97-1.284zM134.04 194.09c-.534 0-.968.575-.968 1.284v4.807c0 .71.434 1.285.97 1.285s.97-.575.97-1.284v-4.806c0-.708-.434-1.284-.97-1.284zM142.79 194.09c-.534 0-.968.575-.968 1.284v4.807c0 .71.434 1.285.97 1.285s.97-.575.97-1.284v-4.806c0-.708-.434-1.284-.97-1.284zM116.54 194.09c-.534 0-.968.575-.968 1.284v4.807c0 .71.434 1.285.97 1.285s.97-.575.97-1.284v-4.806c0-.708-.434-1.284-.97-1.284zM108.04 201.465c.538 0 .972-.575.972-1.284v-4.806c0-.71-.434-1.284-.97-1.284s-.97.575-.97 1.284v4.807c0 .71.434 1.285.97 1.285z"/>
      <path fill="#CD4C28" d="M108.2 184.715H147.447v-1.095h-2.428v-1.527H142.5v1.527h-2.717v-1.527h-2.52v1.527h-2.503v-1.527h-2.522v1.527h-3.516v-1.527H126.2v1.527h-2.253v-1.527h-2.523v1.527h-2.41v-1.527h-2.522v1.527h-3.668v-1.527h-2.522v1.527H108.2v-1.527H105.677v1.527h-1.202v1.095h1.202z"/>
      <path fill="#B93926" d="M111.855 188.086h-1v1.046h1v22.343h.35v-1.47h.618V189.13h.976l.993-.174v-.874h-1v-2.622h7.217v2.622h-1v1.046h1v22.343h.968v-22.344h.975l.994-.174v-.874h-1v-2.622h6.354v2.622h-1v1.046h1v20.872h.968v-20.873h.974l.995-.174v-.874h-1v-2.622h6.65v2.622h-1v1.046h1v22.343h.968v-22.344h.975l.994-.174v-.874h-1v-2.622h7.625v-.75h-42.976v.75h7.38z"/>
      <path fill="#E15A29" d="M93.076 154.227h12.582v-.54H84.373v.54h1.892v16.522h6.812v-16.523zm-3.406 14.62c-.61 0-1.105-.67-1.105-1.498V156.74c0-.83.496-1.5 1.105-1.5.61 0 1.105.67 1.105 1.5v10.607c0 .827-.494 1.498-1.105 1.498z"/>
      <path fill="#F37042" d="M101.678 288.842V256.71s-.426-3.397 1.69-5.61v-17.124h-.958v-1.313h.957v-9.228h-1.433l2.103-1.38v-8.58h.27v-2h.17V174.66h-11.4v114.225h11.398v-.044h-2.798zM93.076 154.227v16.522h11.4v-16.523h-11.4zm4.15 13.242c0 .827-.495 1.498-1.105 1.498s-1.103-.67-1.103-1.5v-10.606c0-.83.494-1.5 1.104-1.5s1.107.67 1.107 1.5v10.607z"/>
      <path fill="#F47C59" d="M105.658 174.123v-3.374H84.373v3.373z"/>
      <path fill="#E15A29" d="M104.476 174.662h1.182v-.54H84.373v.54h1.892v114.224h6.81V174.662z"/>
      <path fill="#F47C59" d="M105.658 153.688v-3.374H84.373v3.374z"/>
      <path fill="#734433" d="M96.12 155.362c-.61 0-1.104.67-1.104 1.5v10.607c0 .827.494 1.498 1.104 1.498s1.106-.67 1.106-1.5v-10.606c0-.83-.496-1.5-1.106-1.5zM89.67 155.242c-.61 0-1.105.67-1.105 1.5v10.607c0 .827.496 1.498 1.105 1.498.61 0 1.105-.67 1.105-1.5v-10.606c0-.83-.494-1.5-1.105-1.5z"/>
      <path fill="#CD4C28" d="M159.652 187.876h-2.52v1.528h-1.356v.88h19.687v-.88h-1.445v-1.528h-2.524v1.528h-2.29v-1.528h-2.52v1.528h-2.41v-1.528h-2.52v1.528h-2.102zM193.814 190.283h1.338v.216h.098v-1.096h-.926v-1.528h-.51z"/>
      <path fill="#B93926" d="M183.158 240.796h3.863v.27h-3.862zM176.508 240.796h3.736v.27h-3.736zM189.936 240.796h3.42v.27h-3.42zM193.814 239.23h1.338V198.11h-1.338zM159.467 193.048v10.25h1.375v2.875h-1.375v10.25h1.094V218.86h-1.093v22.206h1.016v-1.837h2.912v1.836h2.572V218.86h-1.094V216.423h1.094v-10.25h-1.375v-2.875h1.375v-4.625s1.875-5.625 3.875-5.625v10.25h1.375v2.875h-1.375v10.25h1.094V218.86h-1.094v22.206h3.752v-1.837h1.87v-41.122h-1.47v-3.153h1.47v-4.673h-19.688v7.596c.52-1.606 2.064-4.83 3.69-4.83zM193.814 190.283v4.673h1.338V190.282z"/>
      <path fill="#D54D28" d="M176.508 239.23v1.566h3.736v-1.566h1.893v-41.12h-6.674v41.12zM175.463 194.956h6.674v-16.56h-6.674v11.888z"/>
      <path fill="#F37042" d="M182.137 194.956h11.677V178.396h-11.677zM183.158 239.23v1.566h3.863v-1.566h2.916v1.566h3.42v-1.566h.458v-41.12h-11.677v41.12zM188.643 177.424H195.575v-9.314h-6.932v9.314zm2.144-6.538c0-.554.514-1.005 1.148-1.005.637 0 1.15.452 1.15 1.006v3.76c0 .556-.514 1.006-1.15 1.006-.635 0-1.148-.45-1.148-1.005v-3.76z"/>
      <path fill="#D54D28" d="M180.637 177.424v-9.314h-6.932v9.314h6.932zm-4.446-6.538c0-.554.515-1.005 1.147-1.005.637 0 1.15.452 1.15 1.006v3.76c0 .556-.514 1.006-1.15 1.006-.633 0-1.146-.45-1.146-1.005v-3.76z"/>
      <path fill="#DD552B" d="M180.637 168.11v9.314h8.006v-9.314h-8.006zm5.15 6.537c0 .555-.514 1.005-1.15 1.005-.633 0-1.148-.45-1.148-1.005v-3.76c0-.555.515-1.006 1.147-1.006.637 0 1.15.452 1.15 1.006v3.76z"/>
      <path fill="#C74427" d="M193.814 178.397h1.758v-.973H173.703v.973H182.137z"/>
      <path fill="#B93926" d="M186.098 162.39v-2.62h-2.918v2.62l1.46-.536z"/>
      <path fill="#D54D28" d="M199.373 167.275l-13.275-4.885-1.46-.536-1.458.536-13.278 4.885z"/>
      <path fill="#BF4127" d="M188.643 168.11h10.73v-.834h-29.47v.834h10.734z"/>
      <path fill="#734433" d="M191.936 175.652c.637 0 1.15-.45 1.15-1.005v-3.76c0-.555-.514-1.006-1.15-1.006-.635 0-1.148.452-1.148 1.006v3.76c0 .556.513 1.006 1.148 1.006zM177.338 175.652c.637 0 1.15-.45 1.15-1.005v-3.76c0-.555-.514-1.006-1.15-1.006-.633 0-1.146.452-1.146 1.006v3.76c0 .556.513 1.006 1.146 1.006zM184.637 169.88c-.633 0-1.148.452-1.148 1.006v3.76c0 .556.515 1.006 1.147 1.006.637 0 1.15-.45 1.15-1.005v-3.76c0-.555-.514-1.006-1.15-1.006z"/>
      <path fill="#F47C59" d="M182.137 194.956h-8.144v2.614h21.288v-2.614H193.815z"/>
      <path fill="#E15A29" d="M173.994 197.57v.54h21.288v-.54z"/>
      <path fill="#E96439" d="M135.367 232.665v-9.228h-1.433l.72-.472h-21.598l.703.472h-1.31v9.228h.834v1.312h-.834v.51l1.472 4.516h21.444v-5.025h-.957v-1.311h.957zm-15.08.293c0 .783-.5 1.42-1.12 1.42-.618 0-1.118-.637-1.118-1.42v-5.31c0-.78.5-1.418 1.118-1.418.618 0 1.12.637 1.12 1.42v5.308zm10.424 0c0 .783-.5 1.42-1.12 1.42-.617 0-1.12-.637-1.12-1.42v-5.31c0-.78.503-1.418 1.12-1.418.62 0 1.12.637 1.12 1.42v5.308zM152.33 253.175V243.705h-.082v-2.566h-5.594l5.676 17.412v-4.21zM135.367 251.1v-9.96H114.62l15.546 47.702h3.512V256.71s-.426-3.397 1.69-5.61zM104.305 220.828h1.604l2.002-1.314 1.96 1.314h28.038l2.002-1.314 1.96 1.314h13.343v2.138h-10.158l.703.472h-1.31v9.228h.835v1.313h-.834v.4l1.508 4.625h9.547v.23h.087v-20.37h-1.094V216.426h1.094v-2.945H104.036v8.58l.27-.176v-1.056zm46.984 12.13c0 .783-.503 1.42-1.12 1.42s-1.12-.637-1.12-1.42v-5.31c0-.78.5-1.418 1.12-1.418s1.12.637 1.12 1.42v5.308z"/>
      <path fill="#F47C59" d="M137.91 220.828h-28.04l2.55 1.71h.03v.02l.607.407h21.596zM144.45 222.54v.02l.607.405h10.158v-2.137H141.87l2.55 1.71zM104.305 220.828v1.053l1.604-1.052zM152.248 241.067h1.457v-1.837h1.8V239h-9.547l.696 2.14h5.594zM113.923 239l.696 2.14h20.747V239z"/>
      <path fill="#734433" d="M119.168 226.23c-.62 0-1.12.638-1.12 1.42v5.31c0 .782.5 1.418 1.12 1.418.618 0 1.12-.636 1.12-1.42v-5.308c0-.782-.502-1.42-1.12-1.42zM129.59 226.23c-.617 0-1.12.638-1.12 1.42v5.31c0 .782.503 1.418 1.12 1.418.62 0 1.12-.636 1.12-1.42v-5.308c0-.782-.5-1.42-1.12-1.42zM150.17 226.23c-.62 0-1.12.638-1.12 1.42v5.31c0 .782.5 1.418 1.12 1.418s1.12-.636 1.12-1.42v-5.308c0-.782-.503-1.42-1.12-1.42z"/>
      <path fill="#D54D28" d="M155.592 213.478v-2.002h-.686v-1.47H152.1v1.47h-2.629v-1.47h-2.806v1.47h-3.135v-1.47h-2.807v1.47H137.852v-1.47h-2.806v1.47h-3.07v-1.47H129.172v1.47h-3.2v-1.47h-2.806v1.47H120.072v-1.47h-2.806v1.47h-2.255v-1.47H112.206v1.47h-3.355v-1.47h-2.807v1.47H104.306v2.002z"/>
      <path fill="#F37042" d="M152.33 254.342v4.21l3.074 9.436h48.426v2.5h.166v-16.146H152.33zm5.334 8.344c0 .783-.502 1.42-1.12 1.42-.618 0-1.118-.637-1.118-1.42v-5.31c0-.78.5-1.418 1.12-1.418.616 0 1.118.637 1.118 1.42v5.308zm10.56 0c0 .783-.5 1.42-1.118 1.42-.62 0-1.12-.637-1.12-1.42v-5.31c0-.78.5-1.418 1.12-1.418.617 0 1.12.637 1.12 1.42v5.308zm10.335 0c0 .783-.503 1.42-1.122 1.42-.617 0-1.12-.637-1.12-1.42v-5.31c0-.78.503-1.418 1.12-1.418.62 0 1.12.637 1.12 1.42v5.308zm10.063 0c0 .783-.502 1.42-1.12 1.42-.618 0-1.118-.637-1.118-1.42v-5.31c0-.78.5-1.418 1.12-1.418.616 0 1.118.637 1.118 1.42v5.308zm10.523 0c0 .783-.502 1.42-1.12 1.42-.618 0-1.12-.637-1.12-1.42v-5.31c0-.78.502-1.418 1.12-1.418.618 0 1.12.637 1.12 1.42v5.308zM152.33 243.705v6.97h51.5v2.5h.166v-9.47zM156.6 271.655l5.6 17.187h41.796v-17.187z"/>
      <path fill="#F47C59" d="M152.33 250.675h51.5v2.5h-51.5z"/>
      <path fill="#D26239" d="M152.33 253.175v1.167h52.166v-1.167h-.666z"/>
      <path fill="#F47C59" d="M156.22 270.488h47.61v-2.5h-48.426z"/>
      <path fill="#D26239" d="M156.22 270.488l.38 1.167h47.896v-1.167h-.666z"/>
      <path fill="#734433" d="M156.545 255.958c-.62 0-1.12.637-1.12 1.42v5.308c0 .783.5 1.42 1.12 1.42.617 0 1.12-.637 1.12-1.42v-5.31c0-.78-.503-1.418-1.12-1.418zM167.105 255.958c-.62 0-1.12.637-1.12 1.42v5.308c0 .783.5 1.42 1.12 1.42.617 0 1.12-.637 1.12-1.42v-5.31c0-.78-.502-1.418-1.12-1.418zM177.438 255.958c-.617 0-1.12.637-1.12 1.42v5.308c0 .783.503 1.42 1.12 1.42.62 0 1.12-.637 1.12-1.42v-5.31c0-.78-.5-1.418-1.12-1.418zM187.504 255.958c-.62 0-1.12.637-1.12 1.42v5.308c0 .783.5 1.42 1.12 1.42.617 0 1.12-.637 1.12-1.42v-5.31c0-.78-.503-1.418-1.12-1.418zM198.025 255.958c-.617 0-1.12.637-1.12 1.42v5.308c0 .783.503 1.42 1.12 1.42.62 0 1.12-.637 1.12-1.42v-5.31c0-.78-.5-1.418-1.12-1.418z"/>
      <path fill="#D54D28" d="M200.006 241.067h-3.736v-1.837H193.354v1.836h-3.418v-1.836h-2.915v1.836h-3.862v-1.836H180.244v1.836h-3.736v-1.836h-2.915v1.837h-3.75v.23h-3.876v-.23h-2.572v-1.837h-2.913v1.837h-1.015v.23h-3.876v-2.067h-1.887v1.837h-1.457v2.637h51.748v-2.638h-1.076v-1.837H200.006z"/>
      <path fill="#E96439" d="M112.45 239h1.473l-1.472-4.515z"/>
      <path opacity=".6" fill="#E04A26" d="M112.45 239h1.473l-1.472-4.515z"/>
      <path fill="#E96439" d="M112.45 241.14v10.274c.823.948 1.603 2.43 1.603 4.67v32.758h16.113L114.62 241.14h-2.17z"/>
      <path opacity=".6" fill="#E04A26" d="M112.45 241.14v10.274c.823.948 1.603 2.43 1.603 4.67v32.758h16.113L114.62 241.14h-2.17z"/>
      <path fill="#F47C59" d="M112.45 239v2.14h2.17l-.697-2.14z"/>
      <path opacity=".6" fill="#E04A26" d="M112.45 239v2.14h2.17l-.697-2.14z"/>
      <path fill="#E96439" d="M144.45 239h1.508l-1.507-4.623z"/>
      <path opacity=".6" fill="#E04A26" d="M144.45 239h1.508l-1.507-4.623z"/>
      <path fill="#E96439" d="M152.33 270.488v-11.936l-5.676-17.413h-2.203v10.274c.823.948 1.603 2.43 1.603 4.67v32.758h6.277v-18.354z"/>
      <path opacity=".6" fill="#E04A26" d="M152.33 270.488v-11.936l-5.676-17.413h-2.203v10.274c.823.948 1.603 2.43 1.603 4.67v32.758h6.277v-18.354z"/>
      <path fill="#F47C59" d="M144.45 239v2.14h2.204l-.696-2.14z"/>
      <path opacity=".6" fill="#E04A26" d="M144.45 239v2.14h2.204l-.696-2.14z"/>
      <path fill="#F37042" d="M152.33 271.655v17.187H162.2l-5.6-17.187z"/>
      <path opacity=".6" fill="#E04A26" d="M152.33 271.655v17.187H162.2l-5.6-17.187z"/>
      <path fill="#F37042" d="M152.33 258.552v9.436h3.074z"/>
      <path opacity=".6" fill="#E04A26" d="M152.33 258.552v9.436h3.074z"/>
      <path fill="#F47C59" d="M156.22 270.488l-.816-2.5h-3.074v2.5z"/>
      <path opacity=".6" fill="#E04A26" d="M156.22 270.488l-.816-2.5h-3.074v2.5z"/>
      <path fill="#D26239" d="M152.33 270.488v1.167h4.27l-.38-1.167z"/>
      <path opacity=".6" fill="#E04A26" d="M152.33 270.488v1.167h4.27l-.38-1.167z"/>
      <path fill="#F37042" d="M108.242 223.437v9.228h4.21v-9.228h-4.21zm2.245 6.52c-.438 0-.793-.45-.793-1.004v-3.76c0-.555.354-1.006.793-1.006s.794.45.794 1.005v3.76c0 .555-.354 1.006-.793 1.006zM112.42 222.54l.03.02v-.02zM112.45 234.485v-.51h-4.208v15.985h.31s2 1.125 2 4.875v-4.875s.978.39 1.9 1.454v-16.93z"/>
      <path fill="#E15A29" d="M108.242 232.665v-9.228h-4.875v9.228h4.875zm-3.23-7.473c0-.554.355-1.005.792-1.005.438 0 .794.45.794 1.005v3.76c0 .556-.355 1.006-.794 1.006-.437 0-.792-.45-.792-1.005v-3.76zM108.242 233.976h5.043v-.437H102.41v.436h.957V251.1c.418-.437.924-.83 1.56-1.14h3.315v-15.984z"/>
      <path fill="#F47C59" d="M113.285 233.54v-.875H102.41v.875z"/>
      <path fill="#734433" d="M105.804 229.958c.438 0 .794-.45.794-1.005v-3.76c0-.555-.355-1.006-.794-1.006-.437 0-.792.45-.792 1.005v3.76c0 .555.355 1.006.792 1.006zM110.487 224.187c-.438 0-.793.45-.793 1.005v3.76c0 .556.354 1.006.793 1.006s.794-.45.794-1.005v-3.76c0-.555-.354-1.006-.793-1.006z"/>
      <path fill="#D9552D" d="M108.242 223.437h5.518l-.703-.472-.606-.406-.03-.02-2.55-1.712-1.958-1.315-2.003 1.315-1.605 1.053-.268.177-2.102 1.38h1.432z"/>
      <path fill="#D54D28" d="M104.928 249.96c-.637.31-1.143.703-1.56 1.14-2.116 2.213-1.69 5.61-1.69 5.61v32.132H104.927V249.96z"/>
      <path fill="#E25A29" d="M110.553 254.835c0-3.75-2-4.875-2-4.875h-3.625v38.882h5.625v-34.007z"/>
      <path fill="#F37042" d="M112.45 251.415c-.92-1.063-1.897-1.454-1.897-1.454V288.844h3.5v-32.757c0-2.24-.78-3.723-1.602-4.67zM140.242 232.665h4.21v-9.228h-4.21v9.228zm2.245-8.478c.438 0 .794.45.794 1.005v3.76c0 .556-.354 1.006-.793 1.006s-.793-.45-.793-1.005v-3.76c0-.555.355-1.006.793-1.006zM144.45 234.377v-.4h-4.208v15.983h.31s2 1.125 2 4.875v-4.875s.978.39 1.9 1.454v-17.038zM144.42 222.54l.03.02v-.02z"/>
      <path fill="#E15A29" d="M135.367 223.437v9.228h4.875v-9.228h-4.875zm2.437 6.52c-.437 0-.792-.45-.792-1.004v-3.76c0-.555.355-1.006.792-1.006.438 0 .794.45.794 1.005v3.76c0 .555-.356 1.006-.794 1.006zM140.242 233.976h5.043v-.437H134.41v.436h.957V251.1c.417-.437.923-.83 1.56-1.14h3.315v-15.984z"/>
      <path fill="#F47C59" d="M144.45 232.665H134.41v.875h10.875v-.875z"/>
      <path fill="#734433" d="M137.804 224.187c-.437 0-.792.45-.792 1.005v3.76c0 .556.355 1.006.792 1.006.438 0 .794-.45.794-1.005v-3.76c0-.555-.356-1.006-.794-1.006zM142.487 229.958c.438 0 .794-.45.794-1.005v-3.76c0-.555-.354-1.006-.793-1.006s-.793.45-.793 1.005v3.76c0 .555.355 1.006.793 1.006z"/>
      <path fill="#D9552D" d="M133.935 223.437h11.825l-.703-.472-.606-.406-.03-.02-2.55-1.712-1.958-1.315-2.002 1.315-3.257 2.137z"/>
      <path fill="#D54D28" d="M136.928 249.96c-.638.31-1.144.703-1.56 1.14-2.116 2.213-1.69 5.61-1.69 5.61v32.132h3.25V249.96z"/>
      <path fill="#E25A29" d="M142.553 254.835c0-3.75-2-4.875-2-4.875h-3.625v38.882h5.625v-34.007z"/>
      <path fill="#F37042" d="M144.45 251.415c-.92-1.063-1.897-1.454-1.897-1.454V288.844h3.501v-32.757c0-2.24-.78-3.723-1.602-4.67zM157.53 206.173h1.937v10.25h-1.938zM157.53 218.86V241.3h1.937V218.86z"/>
      <path fill="#E45929" d="M157.53 218.86h-1.938V241.3h1.937zM155.592 213.478v2.945h1.937v-10.25h-1.938v5.303z"/>
      <path fill="#DD552B" d="M160.842 205.298v-2h-1.375v-10.25c-1.627 0-3.17 3.224-3.69 4.83-.12.37-.185.654-.185.795v4.625h-1.375v2h6.625z"/>
      <path fill="#CD4C28" d="M157.53 206.173H160.84v-.875h-6.625v.875h1.375z"/>
      <path fill="#F47855" d="M160.56 218.236v-1.813h-6.063v1.813z"/>
      <path fill="#DD552B" d="M157.53 218.86h3.031v-.624H154.5v.625h1.094z"/>
      <path fill="#F37042" d="M167.904 218.86V241.3h1.938V218.86zM167.904 206.173h1.938v10.25h-1.938z"/>
      <path fill="#E45929" d="M165.967 206.173h1.938v10.25h-1.938zM167.904 218.86h-1.937v22.437h1.937z"/>
      <path fill="#DD552B" d="M171.217 203.298h-1.375v-10.25c-2 0-3.875 4.875-3.875 5.625v4.625h-1.375v2h6.625v-2z"/>
      <path fill="#CD4C28" d="M169.842 206.173h1.375v-.875h-6.625v.875H167.904z"/>
      <path fill="#F47855" d="M170.936 218.236v-1.813H164.873v1.813z"/>
      <path fill="#DD552B" d="M169.842 218.86h1.094v-.624h-6.063v.625h3.031z"/>
    </g>
    <path data-transform-path="M555.383,391.46c-0.081,0-484.705,0-484.705,0l0.391-67.014c0,0,4.511,5.569,10.639,5.096 c0,0,7.264-1.095,11.465-6.672c0,0,4.51,4.999,10.639,4.291c0,0,7.265-1.3,11.466-6.871c0,0,4.509,5.216,10.638,4.975      c0,0,7.262-0.674,11.464-5.683c0,0,4.511,5.896,10.639,6.453c0,0,7.265,0.216,11.466-4.383c0,0,4.514,6.151,10.643,6.845 c0,0,7.265,0.373,11.466-4.416c0,0,4.505,5.905,10.634,5.94c0,0,7.264-0.188,11.465-5.097c0,0,4.511,6.018,10.64,6.824 c0,0,7.263,0.687,11.464-4.025c0,0,4.51,6.396,10.639,7.166c0,0,7.265,0.619,11.466-4.701c0,0,4.062,6.066,10.191,5.7 c0,0,6.816-0.863,11.018-6.771c0,0,4.512,5.091,10.64,4.178c0,0,7.265-1.463,11.466-7.298c0,0,4.515,5.016,10.644,4.518 c0,0,7.262-0.929,11.463-6.072c0,0,4.512,5.581,10.64,5.111c0,0,7.267-1.095,11.468-6.671c0,0,4.51,4.999,10.639,4.29 c0,0,7.266-1.3,11.468-6.873c0,0,4.507,5.218,10.636,4.973c0,0,7.264-0.683,11.466-5.693c0,0,4.511,5.892,10.639,6.446 c0,0,7.263,0.217,11.464-4.382c0,0,4.51,6.146,10.639,6.839c0,0,7.265,0.379,11.466-4.407c0,0,4.506,5.928,10.635,5.945 c0,0,7.263-0.231,11.464-5.206c0,0,4.509,5.955,10.638,6.649c0,0,7.265,0.555,11.466-4.276c0,0,4.51,6.358,10.639,7.056 c0,0,7.261,0.535,11.462-4.879c0,0,4.063,6.132,10.193,5.805c0,0,6.817-0.831,11.019-6.734c0,0,4.513,5.213,10.641,4.405 c0,0,7.265-1.343,11.466-7.111c0,0,4.511,5.127,10.64,4.706c0,0,7.265-0.851,11.466-5.991L555.383,391.46z" class="sea" fill="#009B97" d="M555.383 391.46H70.678c.13-22.337.257-44.675.392-67.012 0 0 4.51 5.61 10.638 6.003 0 0 7.265.13 11.466-4.465 0 0 4.51 5.935 10.64 6.68 0 0 7.264.55 11.465-4.11 0 0 4.51 5.986 10.638 6.274 0 0 7.26-.194 11.463-5.53 0 0 4.512 5.273 10.64 4.626 0 0 7.265-1.218 11.466-6.77 0 0 4.516 4.843 10.645 4.214 0 0 7.264-1.085 11.465-6.48 0 0 4.505 5.207 10.634 5.125 0 0 7.265-.575 11.466-6.117 0 0 4.508 5.37 10.637 4.938 0 0 7.265-.847 11.466-6.762 0 0 4.51 5.776 10.638 5.606 0 0 7.263-.503 11.464-6.694 0 0 4.063 6.418 10.193 6.488 0 0 6.818-.43 11.02-6.05 0 0 4.51 6.356 10.638 6.687 0 0 7.266-.057 11.467-5.062 0 0 4.514 6.164 10.643 6.532 0 0 7.262-.04 11.463-5.136 0 0 4.514 5.606 10.642 5.993 0 0 7.265.118 11.466-4.48 0 0 4.51 5.93 10.64 6.676 0 0 7.264.55 11.466-4.104 0 0 4.505 5.99 10.634 6.29 0 0 7.266-.177 11.468-5.504 0 0 4.51 5.28 10.64 4.637 0 0 7.264-1.207 11.465-6.758 0 0 4.508 4.84 10.637 4.205 0 0 7.265-1.086 11.466-6.487 0 0 4.506 5.19 10.635 5.108 0 0 7.265-.603 11.466-6.202 0 0 4.508 5.315 10.637 4.764 0 0 7.267-.993 11.468-7.024 0 0 4.508 5.71 10.637 5.438 0 0 7.26-.628 11.462-6.9 0 0 4.063 6.434 10.193 6.543 0 0 6.815-.397 11.017-5.986 0 0 4.514 6.475 10.642 6.926 0 0 7.267.082 11.468-4.848 0 0 4.51 6.282 10.638 6.74 0 0 7.265.074 11.466-5.028-.07 22.337-.13 44.676-.195 67.016z"/>
  </g>
  <g xmlns="http://www.w3.org/2000/svg">
    <path class="path-to-follow" fill="#F37042" d="M297.708 88.754c.438.1.877.19 1.313.294.064-9.292.11-18.583.136-27.874v-.34c.007-2.41.01-4.824.013-7.236v-2.71c-.002-2.793-.007-5.587-.026-8.38-.016-2.148.02-4.314-.122-6.46-1.133-.04-2.27-.24-3.39-.402-22.173-3.2-44.885-8.005-67.386-6.203-16.046 1.284-31.805 4.962-47.744 7.083-13.853 1.844-27.47 1.957-41.36.707-19.647-1.766-39.226-4.617-58.685-7.834l-1.103-.185V78.23c0 .545-.012.936 0 1.23.02.53.126.727.528.852.327.102.85.158 1.695.313.032.006.064.01.097.018 2.402.44 4.807.866 7.212 1.29.134.024.27.05.403.072 9.394 1.653 18.81 3.188 28.247 4.573 12.31 1.807 24.766 3.63 37.22 3.946 11.732.298 23.56-1.513 35.155-3.065 27.64-3.698 54.018-7.718 81.868-3.594 5.97.883 11.92 1.934 17.84 3.14 1.507.305 2.873.59 4.065.846 1.345.293 2.685.59 4.023.902z"/>
    <path fill="#D54D28" d="M299.17 49.948v3.65c-.002 2.34-.007 4.78-.014 7.235v.34c-.037 13.73-.135 27.874-.135 27.874-.436-.103-.875-.193-1.312-.294l-8.89 13.547 29.586-.616V49.62l-19.235.328z"/>
    <path fill="#9B3821" d="M293.688 87.853c-1.192-.255-2.56-.54-4.066-.847-.553-.11-1.12-.225-1.712-.342l.495 16.27.415-.633 8.89-13.546c-1.34-.31-2.68-.61-4.022-.9z"/>
    <path fill="#D54D28" d="M79.354 79.46c-.012-.294 0-.685 0-1.23V43.015l-20.063-.34v52.062l30 .625-6.624-10.098-3.312-5.05v-.752z"/>
    <path fill="#9B3821" d="M81.675 80.644l-.097-.018c-.846-.155-1.368-.212-1.695-.313l-.35-.065c-.118-.02-.178-.033-.178-.033l3.31 5.05 6.626 10.097V82.006l-.402-.072c-3.077-.54-5.556-.988-7.213-1.29z"/>
  </g>
  <g xmlns="http://www.w3.org/2000/svg" fill="#fff">
    <path d="M150.26 78.683c-.202-.03-.393.102-.573.396-.752 1.057-1.828 1.792-3.23 2.204-1.4.412-2.818.514-4.254.303-2.49-.367-4.24-2.41-5.25-6.134-.34-1.265-.603-2.626-.79-4.085s-.266-2.44-.237-2.94c.027-.5.057-.854.088-1.068.03-.213.074-.35.13-.41 3.062-.31 7.017-1.858 11.838-4.613.044.15.11.294.213.423.22.276.524.418.91.426.385.008.738-.12 1.06-.387.323-.267.522-.59.6-.975s-.004-.714-.236-.99c-.006-.007-.012-.008-.017-.013 4.396-2.785 8.007-5.887 10.823-9.31.196-.245.307-.446.33-.603.022-.158 0-.275-.07-.355-.067-.078-.135-.123-.202-.133-.202-.03-.48.148-.834.53-2.004 2.25-4.445 4.404-7.326 6.466-2.88 2.062-5.597 3.702-8.146 4.92-2.55 1.217-4.802 2.15-6.753 2.803-1.952.654-3.265.93-3.937.83-.046-.005-.08-.01-.102-.014-.19.04-.322.325-.4.853-.077.526-.13 1.04-.157 1.54-.03.5-.03 1.14-.01 1.922.213 4.477 1.403 7.904 3.573 10.285 1.242 1.374 2.658 2.18 4.25 2.413 1.593.233 3.216-.015 4.87-.745 1.653-.73 2.874-1.668 3.66-2.812.32-.46.38-.7.177-.73zM141.478 52.646c1.57.07 2.762-.166 3.575-.71.48-.32.745-.625.788-.916.043-.29-.004-.596-.14-.914-.137-.318-.38-.503-.727-.554-.348-.052-.714-.054-1.1-.007s-.874.34-1.47.883c-.595.543-1.047 1.01-1.356 1.398-.433-.018-1.436-.09-3.01-.22-1.573-.128-2.975-.214-4.205-.257-4.055-.162-7.252.388-9.59 1.646-2.532 1.323-3.977 3.207-4.336 5.65-.254 1.728.145 3.218 1.198 4.473.778.938 1.728 1.49 2.85 1.655.65.096 1.365.063 2.144-.097 1.277-.27 2.356-1.062 3.236-2.377.548-.765.87-1.47.963-2.108.094-.64.075-1.21-.058-1.71-.1-.265-.235-.435-.407-.505-.113-.018-.165.102-.155.354.008.255-.032.684-.12 1.29-.09.604-.382 1.34-.876 2.208-1.02 1.797-2.45 2.56-4.29 2.29-1.457-.215-2.322-1.11-2.594-2.685-.098-.587-.103-1.172-.017-1.756.163-1.098.643-2.185 1.443-3.258 1.656-2.23 4.083-3.548 7.282-3.948 1.706-.23 4.046-.252 7.02-.066 1.612.1 2.59.152 2.933.156-1.426 2.06-3.11 4.63-5.052 7.71s-3.28 5.12-4.01 6.112-1.7 2.127-2.906 3.404c-1.208 1.277-2.43 2.347-3.667 3.207-1.238.86-2.726 1.627-4.462 2.3-1.736.67-3.556 1.085-5.457 1.24-.654.087-1.397.07-2.226-.052-.83-.122-1.866-.4-3.107-.836-1.81-.633-3.292-1.767-4.448-3.402-.953-1.31-1.294-2.883-1.024-4.722.264-1.794.978-3.224 2.143-4.29.898-.807 1.635-1.294 2.21-1.462.144-.047.224-.126.24-.238.026-.18-.11-.268-.407-.267-.57-.015-1.345.3-2.322.947-.977.647-1.666 1.444-2.07 2.394s-.672 1.89-.81 2.818c-.136.932-.094 1.895.126 2.89.733 3.27 3.083 5.676 7.048 7.222 1.084.41 2.104.688 3.057.828.954.14 1.83.21 2.632.215 2.475-.004 4.76-.464 6.853-1.382s3.84-2.076 5.236-3.474c1.397-1.397 2.76-3.07 4.09-5.018 1.328-1.946 2.433-3.806 3.312-5.578 2.413-4.864 4.427-8.36 6.046-10.482zm2.267-1.985c.29-.175.558-.244.805-.208.2.03.284.168.248.414-.053.36-.403.64-1.052.843-.363.13-.876.19-1.54.185.737-.648 1.25-1.06 1.54-1.234zM144.48 71.49c-.31.72-.47 1.386-.48 1.998-.013.612.157 1.17.51 1.677.352.506.94.768 1.77.783.827.018 1.716-.498 2.666-1.544.348-.378.738-.92 1.173-1.626.432-.705.726-1.215.88-1.53l.515-1.06c.188-.393.284-.64.286-.742.004-.103-.018-.176-.062-.223-.155-.14-.316-.04-.48.296-1.345 2.557-2.445 4.246-3.3 5.068-.484.42-.942.627-1.373.617-.702-.014-1.047-.35-1.034-1.006.014-.59.22-1.3.622-2.132l2.848-6.302c.234-.403.31-.702.223-.896-.087-.194-.392-.297-.912-.308l-1.87-.004c.266.37.396.666.39.893s-.03.408-.078.544l-2.29 5.497zM186.333 65.17c-.112.017-.182.085-.21.204-.843 2.54-1.454 4.137-1.834 4.793-.71 1.188-1.514 1.853-2.41 1.992-.11.017-.316.025-.614.025.58-.55 1.05-1.218 1.408-2.01.358-.788.48-1.553.365-2.292s-.522-1.65-1.218-2.735c-.297-.436-.566-.84-.81-1.216s-.41-.877-.508-1.504c-.185-1.188.075-2.02.78-2.496.125-.088.276-.146.456-.174.18-.027.4-.005.664.068.264.074.42.016.472-.176.05-.19-.087-.336-.412-.436-.325-.098-.645-.123-.958-.074-1.188.185-2.08 1.3-2.68 3.342-.36 1.26-.786 2.636-1.267 4.11-.032 0-.056-.018-.095-.004-.154.053-.256.15-.308.294-.05.143-.15.458-.298.943-.118.39-.267.788-.42 1.188-.153.128-.295.305-.42.546-.155.298-.214.594-.23.887-.1.19-.192.373-.31.576-.37.638-1.026 1.39-1.972 2.257.264-1.79.314-3.364.15-4.727-.164-1.36-.397-2.538-.7-3.528-.1.104-.308.186-.62.246s-.59.186-.828.374c-.24.19-.413.598-.52 1.227-.107.63-.428 1.53-.96 2.702s-1.144 2.158-1.835 2.96-1.296 1.235-1.813 1.298c-.157.02-.32.004-.484-.045-.48-.193-.764-.655-.852-1.387-.088-.73.158-1.816.738-3.256.478-1.154 1.075-2.254 1.794-3.3 1.285-1.843 2.523-2.837 3.717-2.98.652-.08 1.175.28 1.568 1.078.06.13.173.26.337.388s.303.09.414-.12c.112-.206.156-.41.132-.613s-.234-.43-.63-.678c-1.05-.56-2.08-.776-3.092-.655-.384.047-.76.148-1.128.307-1.377.508-2.52 1.456-3.425 2.843-.684 1.055-1.198 2.055-1.56 3.004-.033-.03-.066-.06-.117-.08-.14-.06-.27.073-.385.398-1.706 4.033-3.136 6.084-4.29 6.155-.43.026-.663-.255-.7-.843-.09-1.494 1.106-4.77 3.59-9.826-.116-.036-.24-.052-.377-.044-.564.035-1.437.424-2.62 1.166-1.18.742-2.182 1.53-3.005 2.363s-1.727 1.94-2.71 3.316c1.668-3.915 2.906-6.126 3.716-6.63-.177.057-.455.062-.832.018-.378-.046-.612-.065-.702-.06-.475.028-.84.187-1.095.476-.553.602-1.658 2.94-3.317 7.016-.926 2.305-1.548 3.83-1.865 4.576.152-.1.478-.178.974-.23.496-.053.827-.113.993-.18.167-.066.31-.217.433-.45 1.333-3.08 2.77-5.417 4.307-7.01 1.023-1.085 1.727-1.638 2.112-1.662.384-.023.584.083.6.32.014.238-.092.568-.315.99-.918 1.692-1.47 2.907-1.65 3.645-.183.736-.258 1.36-.227 1.87.03.508.17.903.413 1.183.47.607 1.115.886 1.94.836.827-.052 1.625-.56 2.395-1.527.65-.817 1.403-2.188 2.256-4.1-.133.714-.17 1.396-.092 2.04.173 1.44.875 2.337 2.104 2.69 1.326.206 2.544-.58 3.654-2.356.94-1.483 1.648-2.904 2.124-4.264.07.197.13.5.178.904.243 2.025.176 3.93-.204 5.71-.513.288-1.343.696-2.49 1.224-2.484 1.167-4.5 2.335-6.05 3.503-1.82 1.383-2.643 2.795-2.47 4.235.21 1.732 1.37 2.472 3.486 2.218 1.53-.185 3.003-.944 4.417-2.28 1.415-1.333 2.543-2.816 3.386-4.446.843-1.632 1.442-3.245 1.798-4.84 1.084-.68 1.902-1.514 2.456-2.505.068-.122.143-.28.214-.42.034.12.07.242.11.345.53 1.203 1.59 1.68 3.182 1.433.403-.063.845-.247 1.325-.55.818.102 1.62-.047 2.408-.444.49-.237.896-.576 1.22-1.016l.59-.85c.192-.236.373-.55.54-.944.17-.393.307-.724.414-.993s.23-.62.368-1.055c.14-.436.236-.766.293-.992s.12-.454.188-.684c.067-.228.098-.364.09-.41-.023-.177-.137-.24-.335-.187zm-16.87 14.317c-.926 1.596-1.806 2.82-2.64 3.674-.49.472-1.124.946-1.898 1.43-.776.48-1.49.76-2.143.84-1.103.132-1.705-.23-1.81-1.085-.028-.248-.007-.547.064-.897.207-1.12.798-2.095 1.77-2.92 1.327-1.118 3.673-2.495 7.038-4.134l1.132-.547c-.316 1.156-.82 2.37-1.512 3.64zm9.448-6.728c-.648.1-1.11-.138-1.383-.716-.047-.152-.08-.297-.102-.432-.073-.47.06-.938.4-1.404.25 1.155.827 1.926 1.736 2.312-.164.118-.38.196-.65.24zm1.177-.632c-1.01-.3-1.618-1.113-1.824-2.435-.104-.672-.392-.972-.862-.897.29-.803 1.02-3.037 2.192-6.707.002.16.036.452.102.878s.27 1.23.617 2.416c.346 1.186.572 2.125.68 2.818.265 1.703-.037 3.012-.903 3.926zM223.336 70.907c-.8-1.562-2.037-2.785-3.71-3.668-3.29-1.73-7.242-2.757-11.853-3.083l.505-1.262c.413-1.198 1.062-3.29 1.946-6.273 2.297-.813 4.42-2.2 6.37-4.16 1.947-1.96 3.367-4.112 4.26-6.453.894-2.342 1.172-4.483.834-6.426-.043-.246-.1-.5-.168-.766-.153-.617-.574-1.09-1.265-1.42-.69-.328-1.375-.434-2.056-.314-.683.118-1.355.385-2.02.8-2.522 1.634-4.328 5.146-5.416 10.535l-1.6 7.66c-.548.166-1.15.306-1.81.42-.66.114-1.45.126-2.375.032-.927-.092-1.698-.4-2.32-.926-.62-.523-1.06-1.062-1.315-1.617-.257-.554-.42-1.037-.493-1.45s-.08-.854-.023-1.324c.228-1.996.977-3.575 2.247-4.74.732-.68 1.57-1.157 2.51-1.437.283-.096.528-.208.736-.336s.28-.243.216-.35c-.065-.103-.197-.137-.398-.103-.2.036-.44.112-.72.23-1.758.743-3.162 1.63-4.213 2.665-1.052 1.033-1.68 1.982-1.888 2.847-.206.864-.25 1.643-.13 2.334.23 1.318.905 2.42 2.025 3.307.854.68 1.925 1.15 3.213 1.408 1.287.26 2.635.27 4.04.024l.37-.064c-.863 2.98-1.66 5.34-2.394 7.076-.97-.016-2.035.078-3.195.28-3.237.56-5.71 1.567-7.413 3.013-1.508 1.25-2.15 2.513-1.93 3.786.22 1.273 1.022 2.11 2.404 2.516.804.25 1.68.295 2.63.13.948-.165 1.984-.656 3.107-1.473 1.884-1.34 3.544-3.504 4.98-6.492 1.915.036 3.45.098 4.604.184 1.155.088 2.543.33 4.165.727 1.62.395 2.922.894 3.9 1.495.98.6 1.7 1.32 2.17 2.158.468.84.766 1.627.894 2.364.128.737.11 1.4-.05 1.993-.163.592-.234.943-.215 1.055s.097.156.23.133.343-.14.63-.352c.284-.21.51-.543.672-.996.162-.454.19-.982.086-1.586-.1-.602-.36-1.304-.777-2.107zm-10.748-22.03c.782-2.447 1.672-4.574 2.67-6.38 1.284-2.272 2.496-3.507 3.635-3.704.78-.137 1.246.22 1.394 1.068.52 2.993-.23 6.063-2.247 9.21-2.02 3.145-4.52 5.335-7.503 6.565.584-2.056 1.27-4.31 2.05-6.757zM201.35 71.486c-1.127.794-2.215 1.283-3.265 1.465-.76.133-1.49.07-2.19-.19-.7-.257-1.1-.676-1.2-1.256-.036-.2-.028-.42.022-.66.232-1.306 1.575-2.517 4.027-3.634 1.17-.548 2.335-.923 3.496-1.125 1.16-.2 2.31-.274 3.447-.22-1.193 2.532-2.638 4.406-4.336 5.62zM258.39 50.83c-.347.233-.576.538-.688.913-.09.378-.038.715.156 1.01.193.297.48.47.864.513.383.045.747-.05 1.094-.283s.576-.537.688-.912c.112-.373.066-.71-.14-1.008-.204-.298-.498-.47-.88-.514-.383-.045-.748.05-1.094.283zM284.885 64.785c-.163-.005-.293.05-.392.166s-.303.377-.61.778c-.31.403-.648.804-1.016 1.204-.366.4-.835.833-1.405 1.3-.57.466-1.45.937-2.642 1.415.88-1.58 1.482-3.037 1.81-4.37.33-1.33.526-2.513.595-3.547-.132.062-.354.065-.668.01-.314-.053-.616-.034-.907.058s-.598.413-.92.965c-.322.55-.94 1.28-1.852 2.188-.912.91-1.833 1.615-2.764 2.122-.93.506-1.647.697-2.154.572-.154-.038-.3-.11-.438-.213-.38-.35-.482-.882-.307-1.598s.79-1.644 1.84-2.786c.855-.91 1.804-1.727 2.846-2.45 1.855-1.272 3.364-1.764 4.53-1.477.64.156 1 .678 1.087 1.562.012.143.07.303.18.48.106.18.25.19.428.037.18-.155.292-.333.34-.53.05-.2-.067-.484-.35-.857-.783-.893-1.67-1.46-2.66-1.705-.375-.092-.763-.13-1.163-.11-1.468-.013-2.87.472-4.21 1.45-.883.648-1.634 1.305-2.26 1.967-.087.04-.185.135-.294.305-.053.072-.1.132-.153.203-.27.32-.52.642-.73.965-2.13 2.73-3.7 4.012-4.704 3.84-.424-.074-.586-.4-.486-.98.254-1.476 2.17-4.39 5.747-8.74-.103-.064-.222-.107-.355-.13-.56-.098-1.498.08-2.817.532s-2.477.988-3.47 1.61c-.99.623-2.124 1.492-3.396 2.606 2.52-3.43 4.234-5.297 5.138-5.602-.187.014-.458-.045-.815-.175-.356-.13-.58-.204-.67-.22-.47-.08-.86-.01-1.174.212-.504.342-1.527 1.553-3.068 3.627-.097.025-.2.122-.314.307-1.582 2.417-2.84 3.993-3.77 4.73-.522.37-.998.532-1.425.482-.698-.082-1.01-.45-.933-1.103.068-.585.342-1.272.822-2.06l3.438-6c.27-.38.374-.67.307-.872s-.36-.333-.878-.394l-1.862-.182c.228.392.33.7.303.925-.025.226-.07.402-.13.533l-1.42 2.66c-.116.043-.206.123-.266.247-.063.133-.132.266-.207.397-1.944 3.467-3.448 5.172-4.513 5.12-.59-.03-.864-.407-.828-1.132.02-.43.162-.97.422-1.613.677-1.736 2.575-5.182 5.693-10.336 2.45-4.03 3.947-6.27 4.492-6.72-.205.013-.493-.02-.863-.095-.372-.074-.586-.114-.643-.117l-.475-.023c-.26-.014-.55.08-.865.28-.316.2-.652.665-1.007 1.395-1.21 2.413-2.658 5.03-4.343 7.85-.772-.446-1.48-.687-2.126-.72-.645-.03-1.208.02-1.69.154-1.334.318-2.492 1.01-3.476 2.072-.7.756-1.29 1.543-1.78 2.36-.114 0-.223.128-.325.4-1.76 4.01-3.216 6.044-4.37 6.1-.43.02-.66-.264-.69-.853-.07-1.494 1.168-4.754 3.718-9.777-.116-.04-.24-.057-.377-.05-.565.026-1.443.403-2.634 1.13s-2.203 1.502-3.037 2.325-1.753 1.918-2.753 3.28c1.72-3.894 2.985-6.087 3.802-6.58-.18.054-.458.056-.835.005-.377-.05-.61-.072-.7-.068-.476.023-.843.178-1.102.462-.414.437-1.144 1.824-2.183 4.143-.1.045-.184.158-.245.36-.17.48-.342.942-.518 1.382l-.352.822c-.43.984-.875 1.863-1.34 2.605-.54.862-1.022 1.318-1.45 1.368-.337.04-.53-.16-.583-.6-.052-.438-.046-1.02.018-1.747s.383-1.848.96-3.365c.574-1.516 1.04-2.5 1.398-2.953-.175.066-.452.087-.83.062-.38-.023-.615-.03-.705-.02-.45.053-.805.248-1.062.586s-.55.95-.88 1.832c-1.698 4.398-3.224 6.676-4.574 6.834-.562.065-.896-.34-.998-1.22s.2-2.1.905-3.666c.556-1.297 1.187-2.443 1.892-3.438 1.238-1.696 2.342-2.603 3.31-2.716.833-.098 1.42.244 1.764 1.026.297.01.478-.102.542-.337.063-.237-.032-.466-.286-.687-.805-.637-1.725-.895-2.76-.772-.384.045-.782.15-1.196.313-1.53.566-2.764 1.544-3.696 2.932-1.647 2.498-2.342 4.85-2.084 7.056.135 1.148.567 1.92 1.298 2.314.32.19.66.265 1.02.223 1.305-.153 2.688-1.787 4.15-4.902-.13.837-.163 1.537-.097 2.1.066.562.22 1.002.463 1.315.48.583 1.044.836 1.697.76.47-.056.947-.366 1.435-.887-.14.323-.256.594-.347.8.154-.1.48-.172.978-.218.496-.047.83-.103.996-.167s.312-.214.438-.447c1.373-3.06 2.84-5.378 4.397-6.95 1.037-1.07 1.748-1.615 2.134-1.635.386-.018.584.092.596.33.01.237-.098.566-.327.985-.94 1.68-1.508 2.886-1.7 3.622-.19.735-.274 1.357-.25 1.867.025.508.157.905.398 1.188.46.613 1.104.9 1.93.86.827-.04 1.63-.538 2.413-1.495.362-.442.758-1.055 1.184-1.822-.01.09-.026.18-.03.27-.074 1.47.437 2.382 1.53 2.73.246.08.5.128.76.142.26.012.53-.03.807-.13.966-.247 2.16-1.424 3.582-3.53-.136.446-.217.936-.244 1.468-.026.532.128 1.08.463 1.64.335.562.81.857 1.42.89 1.18.058 2.392-.74 3.638-2.38-.02.1-.04.2-.052.297-.07.607.044 1.18.347 1.718.302.538.864.854 1.687.95.55.064 1.152-.127 1.802-.53-.225.313-.413.573-.555.767.172-.062.505-.062 1 0s.832.08 1.01.053c.176-.027.35-.14.523-.342 2.004-2.69 3.938-4.635 5.8-5.832 1.244-.82 2.057-1.198 2.437-1.133s.55.216.51.45c-.04.234-.22.53-.533.89-1.282 1.437-2.097 2.493-2.442 3.17-.347.677-.563 1.265-.65 1.77-.086.5-.043.917.13 1.245.317.7.884 1.118 1.7 1.26.814.14 1.707-.173 2.68-.938.47-.37 1.018-.914 1.637-1.62-.01.026-.02.053-.026.08-.347 1.408-.008 2.495 1.018 3.262 1.168.66 2.585.356 4.252-.915 1.403-1.054 2.567-2.132 3.493-3.235-.005.21-.057.512-.153.908-.488 1.98-1.225 3.737-2.208 5.27-.582.09-1.503.178-2.762.265-2.737.213-5.036.593-6.897 1.138-2.19.65-3.46 1.682-3.808 3.09-.418 1.695.408 2.797 2.477 3.307 1.497.368 3.143.178 4.938-.57 1.795-.75 3.375-1.738 4.74-2.965 1.363-1.23 2.494-2.526 3.39-3.893 1.254-.252 2.314-.744 3.184-1.475.867-.732 2.032-1.98 3.494-3.744.104-.14.17-.262.196-.372.035-.174-.024-.264-.185-.27zm-38.703-3.22c-1.212 1.527-2.202 2.27-2.972 2.233-.317-.017-.542-.175-.674-.477-.133-.3-.19-.633-.17-.994.038-.793.417-1.783 1.136-2.973 1.09-1.807 2.424-3.306 4.004-4.498.99-.744 1.752-1.104 2.284-1.076.53.026.938.194 1.217.503-2.005 3.327-3.613 5.755-4.825 7.282zm26.66 12.457c-1.432 1.165-2.688 2-3.77 2.504-.625.267-1.386.487-2.28.664-.897.176-1.663.186-2.302.03-1.078-.267-1.515-.817-1.31-1.654.06-.242.187-.515.378-.817.59-.977 1.486-1.68 2.688-2.105 1.636-.577 4.317-1.038 8.044-1.382l1.253-.11c-.705.968-1.606 1.926-2.702 2.87z"/>
  </g>
</svg>
