<?xml version="1.0" encoding="utf-8"?>
<!-- Generator: Adobe Illustrator 16.0.0, SVG Export Plug-In . SVG Version: 6.00 Build 0)  -->
<!DOCTYPE svg PUBLIC "-//W3C//DTD SVG 1.1//EN" "http://www.w3.org/Graphics/SVG/1.1/DTD/svg11.dtd">
<svg version="1.1" xmlns="http://www.w3.org/2000/svg" xmlns:xlink="http://www.w3.org/1999/xlink" x="0px" y="0px"
	 width="600px" height="600px" viewBox="0 0 379.311 379.31" enable-background="new 0 0 379.311 379.31"
	 xml:space="preserve">
<g>
	<path data-transform-element=".explosion" class="cannon-path" xmlns="http://www.w3.org/2000/svg" fill="none" stroke="#000000" stroke-miterlimit="10" d="M194.492,172.272c0,0,60.921,8.235,68.282,50.731"/>
	<path  data-transform-element=".explosion-2" class="cannon-path-2" xmlns="http://www.w3.org/2000/svg" fill="none" stroke="#000000" stroke-miterlimit="10" d="M158.576,146.92c0,0,142.387,8.002,159.592,88.281"/>
	<path class="arrows-path" xmlns="http://www.w3.org/2000/svg" fill="none" stroke="#000000" stroke-miterlimit="10" d="M144.637,179.869c0,0,42.25-33.75,99-13.5s69.5,68.75,69.5,68.75" />
</g>
<g>
	<path fill="#FFF6E7" d="M379.311,189.655c0,104.744-84.911,189.655-189.655,189.655C84.912,379.31,0,294.399,0,189.655
		S84.912,0,189.655,0C294.399,0,379.311,84.911,379.311,189.655"/>
	<path fill="#B2DFDB" d="M369.655,189.655c0,99.412-80.588,180-180,180c-99.411,0-180-80.588-180-180c0-99.411,80.589-180,180-180
		C289.067,9.655,369.655,90.244,369.655,189.655"/>
</g>
<g clip-path="url(#SVGID_2_)">
	<defs>
		<path id="SVGID_1_" d="M369.655,189.655c0,99.412-80.588,180-180,180c-99.411,0-180-80.588-180-180c0-99.411,80.589-180,180-180
			C289.067,9.655,369.655,90.244,369.655,189.655"/>
	</defs>
	<clipPath id="SVGID_2_">
		<use xlink:href="#SVGID_1_"  overflow="visible"/>
	</clipPath>
	<g clip-path="url(#SVGID_2_)">
		<path class="cloud" fill="#ffffff" d="M70.211,41.895h-1.498c0.048-1.244,0.009-3.24-0.576-4.729c-0.912-2.323-3.152-3.65-4.812-3.899    c-1.295-0.194-4.299-0.085-5.561-0.028c-0.837-4.136-4.84-7.273-9.662-7.273c-5.271,0-9.561,3.748-9.807,8.452    c-1.267,0.027-2.457,0.034-3.509,0.011c-6.357,1.676-6.126,6.106-5.894,7.466H27.07c-0.641,0-1.161,0.52-1.161,1.161    c0,0.642,0.521,1.162,1.161,1.162h43.141c0.642,0,1.161-0.52,1.161-1.162C71.372,42.415,70.853,41.895,70.211,41.895"/>
	</g>
	<g clip-path="url(#SVGID_2_)">
		<path fill="#5C2823" d="M347.921,275.472c-27.279-0.129-283.134-1.296-294.886,0.011c-8.82,0.98-9.631,12.747-9.362,19.48
			c32.695,45.244,85.896,74.691,145.981,74.691C257.994,369.655,317.437,331.573,347.921,275.472"/>
		<g>
			<path class="explosion-2 scale0" xmlns="http://www.w3.org/2000/svg" fill="#FDFDFE" d="M316.271,233.281c0,0-2.67-1.022-2.84-2.385s-4.938-1.704-2.781-6.019s2.725-0.624,2.725-0.624   s-0.34-0.17-0.567-3.69s2.725-5.167,3.747-5.11s3.123-0.454,3.18,1.533s0.624,1.135,3.18,1.078s4.657,0.114,4.146,3.351   s1.931,2.156-0.397,5.053s-4.372,0.852-4.315,2.385s3.01-0.567,2.839,2.612s-4.202,4.031-4.997,4.429   S316.271,233.281,316.271,233.281z" />
			<path class="explosion scale0" xmlns="http://www.w3.org/2000/svg" fill="#FDFDFE" d="M255.271,222.281c0,0-2.67-1.022-2.84-2.385s-4.938-1.704-2.781-6.019s2.725-0.624,2.725-0.624   s-0.34-0.17-0.567-3.69s2.725-5.167,3.747-5.11s3.123-0.454,3.18,1.533s0.624,1.135,3.18,1.078s4.657,0.114,4.146,3.351   s1.931,2.156-0.397,5.053s-4.372,0.852-4.315,2.385s3.01-0.567,2.839,2.612s-4.202,4.031-4.997,4.429   S255.271,222.281,255.271,222.281z"/>
			<rect class="building" x="113.656" y="130.94" fill="none" width="0.002" height="9.314"/>
			<path fill="#F37042" d="M287.891,239.861l4.947,15h40.746v-5.833h-1.375v-0.75v-3.25h1.375v-5.167H287.891z M298.416,249.644
				c0,0.783-0.502,1.419-1.119,1.419c-0.619,0-1.119-0.636-1.119-1.419v-5.309c0-0.782,0.5-1.419,1.119-1.419
				c0.617,0,1.119,0.637,1.119,1.419V249.644z M308.916,249.644c0,0.783-0.502,1.419-1.119,1.419c-0.619,0-1.119-0.636-1.119-1.419
				v-5.309c0-0.782,0.5-1.419,1.119-1.419c0.617,0,1.119,0.637,1.119,1.419V249.644z M319.156,249.644
				c0,0.783-0.502,1.419-1.119,1.419c-0.619,0-1.119-0.636-1.119-1.419v-5.309c0-0.782,0.5-1.419,1.119-1.419
				c0.617,0,1.119,0.637,1.119,1.419V249.644z M329.156,249.644c0,0.783-0.502,1.419-1.119,1.419c-0.619,0-1.119-0.636-1.119-1.419
				v-5.309c0-0.782,0.5-1.419,1.119-1.419c0.617,0,1.119,0.637,1.119,1.419V249.644z"/>
			<polygon fill="#F37042" points="286.205,230.611 284.84,230.611 286.791,236.527 333.584,236.527 333.584,229.194 
				286.205,229.194 286.205,229.861 			"/>
			<polygon fill="#F37042" points="293.937,258.195 299.873,276.194 333.584,276.194 333.584,258.195 			"/>
			<polygon fill="#F47C54" points="287.561,238.861 333.584,238.861 333.584,236.527 286.791,236.527 			"/>
			<polygon fill="#E8602E" points="287.891,239.861 333.584,239.861 333.584,238.861 287.561,238.861 			"/>
			<polygon fill="#F47C54" points="293.607,257.195 333.584,257.195 333.584,254.861 292.838,254.861 			"/>
			<polygon fill="#E8602E" points="293.937,258.195 333.584,258.195 333.584,257.195 293.607,257.195 			"/>
			<polygon fill="#D54D28" points="286.205,226.611 286.205,229.194 333.584,229.194 333.584,228.019 331.383,228.019 
				331.383,226.004 328.463,226.004 328.463,228.019 324.971,228.019 324.971,226.004 322.051,226.004 322.051,228.019 
				318.844,228.019 318.844,226.004 315.926,226.004 315.926,228.019 312.432,228.019 312.432,226.004 309.514,226.004 
				309.514,228.019 306.348,228.019 306.348,226.004 303.43,226.004 303.43,228.019 299.936,228.019 299.936,226.004 
				297.018,226.004 297.018,228.019 293.811,228.019 293.811,226.004 290.891,226.004 290.891,228.019 287.398,228.019 
				287.398,226.004 284.83,226.004 284.83,226.611 			"/>
			<path fill="#F37042" d="M340.084,245.028h11.25v-17.023h-11.25V245.028z M343.037,229.454c0.617,0,1.119,0.637,1.119,1.419
				v11.309c0,0.783-0.502,1.419-1.119,1.419c-0.619,0-1.119-0.636-1.119-1.419v-11.309
				C341.918,230.09,342.418,229.454,343.037,229.454z"/>
			<rect x="340.084" y="249.028" fill="#F37042" width="11.25" height="27.166"/>
			<polygon fill="#E25A29" points="333.584,249.028 333.584,254.861 333.584,257.195 333.584,258.195 333.584,276.194 
				333.752,276.194 340.084,276.194 340.084,249.028 			"/>
			<path fill="#E25A29" d="M333.584,236.527v2.334v1v5.167h6.5v-17.023h-6.5v0.015v1.175V236.527z M336.043,230.873
				c0-0.782,0.5-1.419,1.119-1.419c0.617,0,1.119,0.637,1.119,1.419v11.309c0,0.783-0.502,1.419-1.119,1.419
				c-0.619,0-1.119-0.636-1.119-1.419V230.873z"/>
			<polygon fill="#F47C59" points="333.584,245.028 332.209,245.028 332.209,248.278 352.709,248.278 352.709,245.028 
				351.334,245.028 340.084,245.028 			"/>
			<polygon fill="#DE592A" points="332.209,248.278 332.209,249.028 333.584,249.028 340.084,249.028 351.334,249.028 
				352.709,249.028 352.709,248.278 			"/>
			<rect x="332.209" y="224.004" fill="#F47C59" width="20.5" height="3.25"/>
			<polygon fill="#DE592A" points="332.209,228.004 333.584,228.004 340.084,228.004 351.334,228.004 352.709,228.004 
				352.709,227.254 332.209,227.254 			"/>
			<polygon fill="#D54D28" points="350.146,223.028 350.146,220.778 347.271,220.778 347.271,223.028 343.771,223.028 
				343.771,220.778 340.896,220.778 340.896,223.028 337.646,223.028 337.646,220.778 334.771,220.778 334.771,223.028 
				332.209,223.028 332.209,224.004 352.709,224.004 352.709,223.028 			"/>
			<path fill="#734433" d="M337.162,243.6c0.617,0,1.119-0.636,1.119-1.419v-11.309c0-0.782-0.502-1.419-1.119-1.419
				c-0.619,0-1.119,0.637-1.119,1.419v11.309C336.043,242.964,336.543,243.6,337.162,243.6z"/>
			<path fill="#734433" d="M343.037,243.6c0.617,0,1.119-0.636,1.119-1.419v-11.309c0-0.782-0.502-1.419-1.119-1.419
				c-0.619,0-1.119,0.637-1.119,1.419v11.309C341.918,242.964,342.418,243.6,343.037,243.6z"/>
			<path fill="#F37042" d="M287.891,239.861h-3.061v15h8.008L287.891,239.861z M287.297,251.063c-0.619,0-1.119-0.636-1.119-1.419
				v-5.309c0-0.782,0.5-1.419,1.119-1.419c0.617,0,1.119,0.637,1.119,1.419v5.309C288.416,250.427,287.914,251.063,287.297,251.063z
				"/>
			<path opacity="0.6" fill="#F05223" d="M287.891,239.861h-3.061v15h8.008L287.891,239.861z M287.297,251.063
				c-0.619,0-1.119-0.636-1.119-1.419v-5.309c0-0.782,0.5-1.419,1.119-1.419c0.617,0,1.119,0.637,1.119,1.419v5.309
				C288.416,250.427,287.914,251.063,287.297,251.063z"/>
			<polygon fill="#F37042" points="284.84,230.611 284.83,230.611 284.83,236.527 286.791,236.527 			"/>
			<polygon opacity="0.6" fill="#F05223" points="284.84,230.611 284.83,230.611 284.83,236.527 286.791,236.527 			"/>
			<polygon fill="#F37042" points="284.83,258.195 284.83,276.111 284.373,276.111 284.373,276.194 299.873,276.194 
				293.937,258.195 			"/>
			<polygon opacity="0.6" fill="#F05223" points="284.83,258.195 284.83,276.111 284.373,276.111 284.373,276.194 299.873,276.194 
				293.937,258.195 			"/>
			<polygon fill="#F47C54" points="286.791,236.527 284.83,236.527 284.83,238.861 287.561,238.861 			"/>
			<polygon opacity="0.6" fill="#F05223" points="286.791,236.527 284.83,236.527 284.83,238.861 287.561,238.861 			"/>
			<polygon fill="#E8602E" points="287.561,238.861 284.83,238.861 284.83,239.861 287.891,239.861 			"/>
			<polygon opacity="0.6" fill="#F05223" points="287.561,238.861 284.83,238.861 284.83,239.861 287.891,239.861 			"/>
			<polygon fill="#F47C54" points="292.838,254.861 284.83,254.861 284.83,257.195 293.607,257.195 			"/>
			<polygon opacity="0.6" fill="#F05223" points="292.838,254.861 284.83,254.861 284.83,257.195 293.607,257.195 			"/>
			<polygon fill="#E8602E" points="284.83,257.195 284.83,258.195 293.937,258.195 293.607,257.195 			"/>
			<polygon opacity="0.6" fill="#F05223" points="284.83,257.195 284.83,258.195 293.937,258.195 293.607,257.195 			"/>
			<path fill="#734433" d="M297.297,242.917c-0.619,0-1.119,0.637-1.119,1.419v5.309c0,0.783,0.5,1.419,1.119,1.419
				c0.617,0,1.119-0.636,1.119-1.419v-5.309C298.416,243.553,297.914,242.917,297.297,242.917z"/>
			<path fill="#734433" d="M307.797,242.917c-0.619,0-1.119,0.637-1.119,1.419v5.309c0,0.783,0.5,1.419,1.119,1.419
				c0.617,0,1.119-0.636,1.119-1.419v-5.309C308.916,243.553,308.414,242.917,307.797,242.917z"/>
			<path fill="#734433" d="M318.037,242.917c-0.619,0-1.119,0.637-1.119,1.419v5.309c0,0.783,0.5,1.419,1.119,1.419
				c0.617,0,1.119-0.636,1.119-1.419v-5.309C319.156,243.553,318.654,242.917,318.037,242.917z"/>
			<path fill="#734433" d="M328.037,242.917c-0.619,0-1.119,0.637-1.119,1.419v5.309c0,0.783,0.5,1.419,1.119,1.419
				c0.617,0,1.119-0.636,1.119-1.419v-5.309C329.156,243.553,328.654,242.917,328.037,242.917z"/>
			<path fill="#734433" d="M287.297,242.917c-0.619,0-1.119,0.637-1.119,1.419v5.309c0,0.783,0.5,1.419,1.119,1.419
				c0.617,0,1.119-0.636,1.119-1.419v-5.309C288.416,243.553,287.914,242.917,287.297,242.917z"/>
			<polygon fill="#B93926" points="198.705,229.861 198.705,226.611 200.08,226.611 200.08,217.111 199.752,217.111 
				197.752,217.111 195.627,217.111 195.152,217.111 195.152,239.23 196.27,239.23 196.27,241.067 200.006,241.067 200.006,239.23 
				200.08,239.23 200.08,230.611 198.705,230.611 			"/>
			<polygon fill="#CD4C28" points="195.627,217.111 197.752,217.111 199.752,217.111 200.08,217.111 200.08,216.283 
				199.752,216.283 199.752,214.986 197.752,214.986 197.752,216.283 195.627,216.283 195.627,214.986 195.152,214.986 
				195.152,217.111 			"/>
			<path fill="#F37042" d="M273.58,226.611h11.25v-0.606v-16.417h-11.25V226.611z M276.533,211.037c0.617,0,1.119,0.637,1.119,1.419
				v11.309c0,0.783-0.502,1.419-1.119,1.419c-0.619,0-1.119-0.636-1.119-1.419v-11.309
				C275.414,211.673,275.914,211.037,276.533,211.037z"/>
			<polygon fill="#F37042" points="284.83,276.111 284.83,258.195 284.83,257.195 284.83,254.861 284.83,239.861 284.83,238.861 
				284.83,236.527 284.83,230.611 273.58,230.611 273.58,276.111 283.918,276.111 283.918,276.194 284.373,276.194 284.373,276.111 
							"/>
			<path fill="#E25A29" d="M267.246,219.865v2.537h-0.08v4.209h6.414v-17.023h-6.5v8.64h0.086L267.246,219.865z M269.539,212.456
				c0-0.782,0.5-1.419,1.119-1.419c0.617,0,1.119,0.637,1.119,1.419v11.309c0,0.783-0.502,1.419-1.119,1.419
				c-0.619,0-1.119-0.636-1.119-1.419V212.456z"/>
			<polygon fill="#E25A29" points="267.166,230.611 267.166,255.069 267.166,257.403 267.166,258.403 267.166,276.111 
				273.58,276.111 273.58,230.611 			"/>
			<polygon fill="#F47C59" points="286.205,229.861 286.205,229.194 286.205,226.611 284.83,226.611 273.58,226.611 
				267.166,226.611 267.166,229.861 			"/>
			<polygon fill="#DE592A" points="286.205,230.611 286.205,229.861 267.166,229.861 267.166,230.611 273.58,230.611 
				284.83,230.611 284.84,230.611 			"/>
			<rect x="265.705" y="205.587" fill="#F47C59" width="20.5" height="3.25"/>
			<polygon fill="#DE592A" points="284.83,209.587 286.205,209.587 286.205,208.837 265.705,208.837 265.705,209.587 
				267.08,209.587 273.58,209.587 			"/>
			<polygon fill="#D54D28" points="286.205,204.611 283.643,204.611 283.643,202.361 280.768,202.361 280.768,204.611 
				277.268,204.611 277.268,202.361 274.393,202.361 274.393,204.611 271.143,204.611 271.143,202.361 268.268,202.361 
				268.268,204.611 265.705,204.611 265.705,205.587 286.205,205.587 			"/>
			<path fill="#734433" d="M270.658,225.183c0.617,0,1.119-0.636,1.119-1.419v-11.309c0-0.782-0.502-1.419-1.119-1.419
				c-0.619,0-1.119,0.637-1.119,1.419v11.309C269.539,224.547,270.039,225.183,270.658,225.183z"/>
			<path fill="#734433" d="M276.533,225.183c0.617,0,1.119-0.636,1.119-1.419v-11.309c0-0.782-0.502-1.419-1.119-1.419
				c-0.619,0-1.119,0.637-1.119,1.419v11.309C275.414,224.547,275.914,225.183,276.533,225.183z"/>
			<rect x="236.623" y="258.403" fill="#F37042" width="9.264" height="17.708"/>
			<path fill="#F37042" d="M236.623,231.069v24h9.264v-24H236.623z M241.211,242.271c-0.619,0-1.119-0.636-1.119-1.419v-5.309
				c0-0.782,0.5-1.419,1.119-1.419c0.617,0,1.119,0.637,1.119,1.419v5.309C242.33,241.635,241.828,242.271,241.211,242.271z"/>
			<path fill="#F37042" d="M246.762,231.069v24h9.375v-24H246.762z M251.449,242.271c-0.619,0-1.119-0.636-1.119-1.419v-5.309
				c0-0.782,0.5-1.419,1.119-1.419c0.617,0,1.119,0.637,1.119,1.419v5.309C252.568,241.635,252.066,242.271,251.449,242.271z"/>
			<path fill="#F37042" d="M220.286,231.069l1.108,3.359c0.263,0.26,0.436,0.661,0.436,1.115v0.206l3.668,11.122v-15.803H220.286z"
				/>
			<rect x="246.762" y="258.403" fill="#F37042" width="9.375" height="17.708"/>
			<path fill="#F37042" d="M226.373,231.069v18.456l1.828,5.544h7.547v-24H226.373z M230.711,242.271
				c-0.619,0-1.119-0.636-1.119-1.419v-5.309c0-0.782,0.5-1.419,1.119-1.419c0.617,0,1.119,0.637,1.119,1.419v5.309
				C231.83,241.635,231.328,242.271,230.711,242.271z"/>
			<polygon fill="#F37042" points="229.301,258.403 235.141,276.111 235.748,276.111 235.748,258.403 			"/>
			<polygon fill="#F37042" points="257.012,258.403 257.012,276.111 267.08,276.111 267.166,276.111 267.166,258.403 			"/>
			<polygon fill="#B93926" points="267.246,219.865 217.83,219.865 217.83,222.402 267.166,222.402 267.246,222.402 			"/>
			<polygon fill="#F47C54" points="219.957,230.069 267.125,230.069 267.125,227.735 219.205,227.735 219.205,227.792 			"/>
			<polygon fill="#E8602E" points="219.957,230.069 220.286,231.069 225.498,231.069 225.498,246.872 226.373,249.525 
				226.373,231.069 235.748,231.069 235.748,255.069 236.623,255.069 236.623,231.069 245.887,231.069 245.887,255.069 
				246.762,255.069 246.762,231.069 256.137,231.069 256.137,255.069 257.012,255.069 257.012,231.069 267.125,231.069 
				267.125,230.069 			"/>
			<polygon fill="#F47C54" points="257.012,255.069 256.137,255.069 246.762,255.069 245.887,255.069 236.623,255.069 
				235.748,255.069 228.201,255.069 228.971,257.403 267.166,257.403 267.166,255.069 			"/>
			<polygon fill="#E8602E" points="267.166,258.403 267.166,257.403 228.971,257.403 229.301,258.403 235.748,258.403 
				235.748,276.111 236.623,276.111 236.623,258.403 245.887,258.403 245.887,276.111 246.762,276.111 246.762,258.403 
				256.137,258.403 256.137,276.111 257.012,276.111 257.012,258.403 			"/>
			<polygon fill="#D54D28" points="267.246,219.865 267.166,218.227 267.08,218.227 264.795,218.227 264.795,216.212 
				261.877,216.212 261.877,218.227 258.383,218.227 258.383,216.212 255.465,216.212 255.465,218.227 252.258,218.227 
				252.258,216.212 249.338,216.212 249.338,218.227 245.846,218.227 245.846,216.212 242.926,216.212 242.926,218.227 
				239.762,218.227 239.762,216.212 236.842,216.212 236.842,218.227 233.35,218.227 233.35,216.212 230.43,216.212 230.43,218.227 
				227.223,218.227 227.223,216.212 224.305,216.212 224.305,218.227 220.811,218.227 220.811,216.212 217.893,216.212 
				217.893,218.227 217.83,218.234 217.83,219.865 			"/>
			<polygon opacity="0.6" fill="#F05223" points="225.498,276.111 217.83,276.111 217.332,276.111 217.332,276.194 235.168,276.194 
				235.141,276.111 226.373,276.111 			"/>
			<polygon fill="#F37042" points="217.83,223.623 217.83,226.611 218.816,226.611 			"/>
			<polygon opacity="0.6" fill="#F05223" points="217.83,223.623 217.83,226.611 218.816,226.611 			"/>
			<polygon fill="#F37042" points="226.373,255.069 228.201,255.069 226.373,249.525 			"/>
			<polygon opacity="0.6" fill="#F05223" points="226.373,255.069 228.201,255.069 226.373,249.525 			"/>
			<path fill="#F37042" d="M225.498,246.872l-3.668-11.122v5.103c0,0.783-0.502,1.419-1.119,1.419c-0.619,0-1.119-0.636-1.119-1.419
				v-5.309c0-0.782,0.5-1.419,1.119-1.419c0.258,0,0.493,0.116,0.684,0.304l-1.108-3.359h-2.456v24h7.668V246.872z"/>
			<path opacity="0.6" fill="#F05223" d="M225.498,246.872l-3.668-11.122v5.103c0,0.783-0.502,1.419-1.119,1.419
				c-0.619,0-1.119-0.636-1.119-1.419v-5.309c0-0.782,0.5-1.419,1.119-1.419c0.258,0,0.493,0.116,0.684,0.304l-1.108-3.359h-2.456
				v24h7.668V246.872z"/>
			<rect x="217.83" y="258.403" fill="#F37042" width="7.668" height="17.708"/>
			<rect x="217.83" y="258.403" opacity="0.6" fill="#F05223" width="7.668" height="17.708"/>
			<polygon fill="#F37042" points="226.373,258.403 226.373,276.111 235.141,276.111 229.301,258.403 			"/>
			<polygon opacity="0.6" fill="#F05223" points="226.373,258.403 226.373,276.111 235.141,276.111 229.301,258.403 			"/>
			<polygon fill="#E8602E" points="225.498,246.872 225.498,255.069 226.373,255.069 226.373,249.525 			"/>
			<polygon opacity="0.6" fill="#F05223" points="225.498,246.872 225.498,255.069 226.373,255.069 226.373,249.525 			"/>
			<polygon fill="#F47C54" points="219.205,229.861 219.205,230.069 219.957,230.069 219.205,227.792 			"/>
			<polygon opacity="0.6" fill="#F05223" points="219.205,229.861 219.205,230.069 219.957,230.069 219.205,227.792 			"/>
			<polygon fill="#E8602E" points="219.957,230.069 219.205,230.069 219.205,230.611 217.83,230.611 217.83,231.069 
				220.286,231.069 			"/>
			<polygon opacity="0.6" fill="#F05223" points="219.957,230.069 219.205,230.069 219.205,230.611 217.83,230.611 217.83,231.069 
				220.286,231.069 			"/>
			<polygon fill="#F47C54" points="226.373,255.069 225.498,255.069 217.83,255.069 217.83,257.403 228.971,257.403 
				228.201,255.069 			"/>
			<polygon opacity="0.6" fill="#F05223" points="226.373,255.069 225.498,255.069 217.83,255.069 217.83,257.403 228.971,257.403 
				228.201,255.069 			"/>
			<polygon fill="#E8602E" points="217.83,257.403 217.83,258.403 225.498,258.403 225.498,276.111 226.373,276.111 
				226.373,258.403 229.301,258.403 228.971,257.403 			"/>
			<polygon opacity="0.6" fill="#F05223" points="217.83,257.403 217.83,258.403 225.498,258.403 225.498,276.111 226.373,276.111 
				226.373,258.403 229.301,258.403 228.971,257.403 			"/>
			<path fill="#734433" d="M230.711,234.125c-0.619,0-1.119,0.637-1.119,1.419v5.309c0,0.783,0.5,1.419,1.119,1.419
				c0.617,0,1.119-0.636,1.119-1.419v-5.309C231.83,234.761,231.328,234.125,230.711,234.125z"/>
			<path fill="#734433" d="M241.211,234.125c-0.619,0-1.119,0.637-1.119,1.419v5.309c0,0.783,0.5,1.419,1.119,1.419
				c0.617,0,1.119-0.636,1.119-1.419v-5.309C242.33,234.761,241.828,234.125,241.211,234.125z"/>
			<path fill="#734433" d="M251.449,234.125c-0.619,0-1.119,0.637-1.119,1.419v5.309c0,0.783,0.5,1.419,1.119,1.419
				c0.617,0,1.119-0.636,1.119-1.419v-5.309C252.568,234.761,252.066,234.125,251.449,234.125z"/>
			<path fill="#734433" d="M261.449,234.125c-0.619,0-1.119,0.637-1.119,1.419v5.309c0,0.783,0.5,1.419,1.119,1.419
				c0.617,0,1.119-0.636,1.119-1.419v-5.309C262.568,234.761,262.066,234.125,261.449,234.125z"/>
			<path fill="#734433" d="M221.395,234.428c-0.19-0.188-0.426-0.304-0.684-0.304c-0.619,0-1.119,0.637-1.119,1.419v5.309
				c0,0.783,0.5,1.419,1.119,1.419c0.617,0,1.119-0.636,1.119-1.419v-5.103v-0.206C221.83,235.089,221.657,234.688,221.395,234.428z
				"/>
			<path fill="#F37042" d="M206.58,226.611h11.25v-2.988l0.986,2.988h0.389v1.124h47.92v2.334v1h-10.113v24h10.154v-24.458v-0.75
				v-3.25v-4.209H217.83v-2.537v-1.631v-8.646h-11.25V226.611z M262.568,240.852c0,0.783-0.502,1.419-1.119,1.419
				c-0.619,0-1.119-0.636-1.119-1.419v-5.309c0-0.782,0.5-1.419,1.119-1.419c0.617,0,1.119,0.637,1.119,1.419V240.852z
				 M209.533,211.037c0.617,0,1.119,0.637,1.119,1.419v11.309c0,0.783-0.502,1.419-1.119,1.419c-0.619,0-1.119-0.636-1.119-1.419
				v-11.309C208.414,211.673,208.914,211.037,209.533,211.037z"/>
			<polygon fill="#F37042" points="217.83,258.403 217.83,257.403 217.83,255.069 217.83,231.069 217.83,230.611 206.58,230.611 
				206.58,276.111 217.332,276.111 217.83,276.111 			"/>
			<polygon fill="#E25A29" points="200.08,230.611 200.08,239.23 202.92,239.23 202.92,241.067 203.996,241.067 203.996,243.675 
				203.996,243.705 203.996,253.175 204.496,253.175 204.496,254.342 203.996,254.342 203.996,270.488 204.496,270.488 
				204.496,271.655 203.996,271.655 203.996,276.111 206.58,276.111 206.58,230.611 			"/>
			<path fill="#E25A29" d="M200.08,226.611h6.5v-17.023h-6.5v6.695v0.828V226.611z M202.539,212.456c0-0.782,0.5-1.419,1.119-1.419
				c0.617,0,1.119,0.637,1.119,1.419v11.309c0,0.783-0.502,1.419-1.119,1.419c-0.619,0-1.119-0.636-1.119-1.419V212.456z"/>
			<polygon fill="#F47C59" points="198.705,229.861 219.205,229.861 219.205,227.792 219.205,227.735 219.205,226.611 
				218.816,226.611 217.83,226.611 206.58,226.611 200.08,226.611 198.705,226.611 			"/>
			<polygon fill="#DE592A" points="219.205,230.069 219.205,229.861 198.705,229.861 198.705,230.611 200.08,230.611 
				206.58,230.611 217.83,230.611 219.205,230.611 			"/>
			<rect x="198.705" y="205.587" fill="#F47C59" width="20.5" height="3.25"/>
			<polygon fill="#DE592A" points="217.83,209.587 219.205,209.587 219.205,208.837 198.705,208.837 198.705,209.587 
				200.08,209.587 206.58,209.587 			"/>
			<polygon fill="#D54D28" points="219.205,204.611 216.643,204.611 216.643,202.361 213.768,202.361 213.768,204.611 
				210.268,204.611 210.268,202.361 207.393,202.361 207.393,204.611 204.143,204.611 204.143,202.361 201.268,202.361 
				201.268,204.611 198.705,204.611 198.705,205.587 219.205,205.587 			"/>
			<path fill="#734433" d="M203.658,225.183c0.617,0,1.119-0.636,1.119-1.419v-11.309c0-0.782-0.502-1.419-1.119-1.419
				c-0.619,0-1.119,0.637-1.119,1.419v11.309C202.539,224.547,203.039,225.183,203.658,225.183z"/>
			<path fill="#734433" d="M209.533,225.183c0.617,0,1.119-0.636,1.119-1.419v-11.309c0-0.782-0.502-1.419-1.119-1.419
				c-0.619,0-1.119,0.637-1.119,1.419v11.309C208.414,224.547,208.914,225.183,209.533,225.183z"/>
			<polygon fill="#D54D28" points="146.19,154.227 146.19,161.691 151.744,158.046 151.744,152.88 146.11,152.88 146.11,153.321 
				146.19,153.321 			"/>
			<polygon fill="#D54D28" points="146.254,172.502 146.254,172.065 146.254,171.19 147.211,171.19 147.211,161.962 146.19,161.962 
				146.19,183.62 147.211,183.62 147.211,172.502 			"/>
			<path fill="#F37042" d="M151.744,158.046l0.012-0.007l5.848,3.923h-5.518v9.228h5.043v0.875v0.437h-5.043v38.974h0.014v-1.471
				h2.807v1.471h0.686v-5.303h-1.375v-0.875v-2h1.375c0,0,0-3.875,0-4.625c0-0.141,0.064-0.424,0.185-0.794v-7.381v-0.216v-0.879
				h1.354v-1.527h2.521v1.527h1.953V152.88h-9.861V158.046z M155.125,167.478c0,0.555-0.355,1.005-0.794,1.005
				s-0.793-0.45-0.793-1.005v-3.761c0-0.554,0.354-1.005,0.793-1.005s0.794,0.451,0.794,1.005V167.478z"/>
			<path fill="#F37042" d="M163.088,152.058L163.088,152.058l0.002,0.001v-7.864h-5.852v7.863h-0.002v0H163.088z M159.049,146.539
				c0-0.469,0.434-0.849,0.969-0.849c0.537,0,0.971,0.38,0.971,0.849v3.175c0,0.468-0.434,0.848-0.971,0.848
				c-0.535,0-0.969-0.38-0.969-0.848V146.539z"/>
			<path fill="#D54D28" d="M150.478,152.058v-7.863h-5.853v7.863H150.478z M146.724,146.539c0-0.469,0.435-0.849,0.97-0.849
				c0.537,0,0.971,0.38,0.971,0.849v3.175c0,0.468-0.434,0.848-0.971,0.848c-0.535,0-0.97-0.38-0.97-0.848V146.539z"/>
			<path fill="#DD552B" d="M150.478,152.058h6.759v0v-7.863h-6.759V152.058z M152.887,146.539c0-0.469,0.434-0.849,0.969-0.849
				c0.537,0,0.971,0.38,0.971,0.849v3.175c0,0.468-0.434,0.848-0.971,0.848c-0.535,0-0.969-0.38-0.969-0.848V146.539z"/>
			<polygon fill="#C74427" points="161.605,152.88 163.088,152.88 163.088,152.059 163.088,152.058 157.236,152.058 
				150.478,152.058 144.625,152.058 144.623,152.058 144.623,152.88 146.11,152.88 151.744,152.88 			"/>
			<polygon fill="#B93926" points="155.088,139.366 155.088,137.151 152.623,137.151 152.623,139.366 153.855,138.912 			"/>
			<polygon fill="#D54D28" points="166.299,143.49 166.297,143.49 166.297,143.49 			"/>
			<polygon fill="#D54D28" points="155.088,139.366 153.855,138.912 152.623,139.366 141.418,143.489 166.295,143.489 			"/>
			<polygon fill="#BF4127" points="166.297,143.49 166.297,143.49 166.297,143.489 166.295,143.489 141.418,143.489 
				141.414,143.489 141.414,144.194 166.297,144.194 			"/>
			<path fill="#734433" d="M160.018,150.562c0.537,0,0.971-0.38,0.971-0.848v-3.175c0-0.469-0.434-0.849-0.971-0.849
				c-0.535,0-0.969,0.38-0.969,0.849v3.175C159.049,150.182,159.482,150.562,160.018,150.562z"/>
			<path fill="#734433" d="M147.693,150.562c0.537,0,0.971-0.38,0.971-0.848v-3.175c0-0.469-0.434-0.849-0.971-0.849
				c-0.535,0-0.97,0.38-0.97,0.849v3.175C146.724,150.182,147.158,150.562,147.693,150.562z"/>
			<path fill="#734433" d="M153.855,150.562c0.537,0,0.971-0.38,0.971-0.848v-3.175c0-0.469-0.434-0.849-0.971-0.849
				c-0.535,0-0.969,0.38-0.969,0.849v3.175C152.887,150.182,153.32,150.562,153.855,150.562z"/>
			<polygon fill="#B93926" points="119.014,182.093 119.014,183.62 121.424,183.62 121.424,182.093 123.947,182.093 123.947,183.62 
				126.199,183.62 126.199,182.093 128.722,182.093 128.722,183.62 132.238,183.62 132.238,182.093 134.76,182.093 134.76,183.62 
				137.262,183.62 137.262,182.093 139.783,182.093 139.783,183.62 142.5,183.62 142.5,182.093 145.022,182.093 145.022,183.62 
				146.19,183.62 146.19,161.962 145.778,161.962 146.19,161.691 146.19,154.227 143.549,154.227 141.463,154.227 139.777,154.227 
				137.692,154.227 135.567,154.227 135.567,159.177 136.401,159.177 136.401,160.052 136.401,160.489 135.567,160.489 
				135.567,182.065 131.359,182.065 126.484,182.065 126.484,170.142 118.828,170.142 118.828,182.093 			"/>
			<polygon fill="#B93926" points="125.526,160.489 125.526,160.052 125.526,159.177 126.484,159.177 126.484,154.227 
				123.601,154.227 121.516,154.227 118.828,154.227 118.828,162.916 126.484,162.916 126.484,160.489 			"/>
			<polygon fill="#CD4C28" points="137.692,154.227 139.777,154.227 141.463,154.227 143.549,154.227 146.19,154.227 
				146.19,153.321 146.11,153.321 143.549,153.321 143.549,152.059 141.463,152.059 141.463,153.321 139.777,153.321 
				139.777,152.059 137.692,152.059 137.692,153.321 135.567,153.321 135.567,154.227 			"/>
			<polygon fill="#CD4C28" points="121.516,154.227 123.601,154.227 126.484,154.227 126.484,153.321 123.601,153.321 
				123.601,152.059 121.516,152.059 121.516,153.321 118.828,153.321 118.828,154.227 			"/>
			<polygon fill="#D54D28" points="105.658,153.688 105.658,154.227 104.476,154.227 104.476,170.749 105.658,170.749 
				105.658,174.123 105.658,174.662 104.476,174.662 104.476,183.62 105.678,183.62 105.678,182.093 107.151,182.093 
				107.151,170.142 118.828,170.142 126.484,170.142 126.484,168.968 104.513,168.968 104.513,168.196 126.484,168.196 
				126.484,162.916 118.828,162.916 107.151,162.916 107.151,141.227 100.479,141.227 100.479,147.267 99.871,147.267 
				99.871,149.292 97.746,149.292 97.746,147.267 94.121,147.267 94.121,149.292 91.121,149.292 91.121,147.267 87.496,147.267 
				87.496,149.292 86.078,149.292 86.078,150.313 87.496,150.313 91.121,150.313 94.121,150.313 97.746,150.313 99.871,150.313 
				100.479,150.313 100.479,150.314 105.658,150.314 			"/>
			<polygon fill="#F37042" points="107.151,162.916 118.828,162.916 118.828,154.227 118.828,153.321 118.828,141.227 
				107.151,141.227 			"/>
			<polygon fill="#F37042" points="108.199,183.62 110.302,183.62 110.302,182.093 112.824,182.093 112.824,183.62 116.492,183.62 
				116.492,182.093 118.828,182.093 118.828,170.142 107.151,170.142 107.151,182.093 108.199,182.093 			"/>
			<path fill="#F37042" d="M113.658,140.254h5.17h1.76h0.002v-9.314h-6.932V140.254z M115.803,133.716
				c0-0.555,0.514-1.005,1.147-1.005c0.636,0,1.149,0.45,1.149,1.005v3.761c0,0.555-0.514,1.005-1.149,1.005
				c-0.634,0-1.147-0.45-1.147-1.005V133.716z"/>
			<path fill="#D54D28" d="M105.651,140.254v-9.314H98.72v9.314h1.759H105.651z M101.205,133.716c0-0.555,0.514-1.005,1.148-1.005
				c0.636,0,1.15,0.45,1.15,1.005v3.761c0,0.555-0.515,1.005-1.15,1.005c-0.635,0-1.148-0.45-1.148-1.005V133.716z"/>
			<path fill="#DD552B" d="M105.651,130.94v9.314h1.5h6.505v-9.314H105.651z M110.802,137.477c0,0.555-0.515,1.005-1.149,1.005
				s-1.148-0.45-1.148-1.005v-3.761c0-0.555,0.514-1.005,1.148-1.005s1.149,0.45,1.149,1.005V137.477z"/>
			<polygon fill="#C74427" points="118.828,141.227 120.588,141.227 120.588,140.254 118.828,140.254 113.658,140.254 
				113.656,140.254 107.151,140.254 105.651,140.254 100.479,140.254 98.72,140.254 98.718,140.254 98.718,141.227 100.479,141.227 
				107.151,141.227 			"/>
			<polygon fill="#B93926" points="111.113,125.22 111.113,122.599 108.193,122.599 108.193,125.22 109.652,124.683 			"/>
			<polygon fill="#D54D28" points="124.389,130.105 111.113,125.22 109.652,124.683 108.193,125.22 94.917,130.105 			"/>
			<polygon fill="#BF4127" points="113.656,130.94 113.658,130.94 120.59,130.94 124.389,130.94 124.389,130.106 94.918,130.106 
				94.918,130.94 98.72,130.94 105.651,130.94 			"/>
			<path fill="#734433" d="M116.95,138.482c0.636,0,1.149-0.45,1.149-1.005v-3.761c0-0.555-0.514-1.005-1.149-1.005
				c-0.634,0-1.147,0.45-1.147,1.005v3.761C115.803,138.032,116.316,138.482,116.95,138.482z"/>
			<path fill="#734433" d="M102.354,138.482c0.636,0,1.15-0.45,1.15-1.005v-3.761c0-0.555-0.515-1.005-1.15-1.005
				c-0.635,0-1.148,0.45-1.148,1.005v3.761C101.205,138.032,101.719,138.482,102.354,138.482z"/>
			<path fill="#734433" d="M109.652,132.711c-0.635,0-1.148,0.45-1.148,1.005v3.761c0,0.555,0.514,1.005,1.148,1.005
				s1.149-0.45,1.149-1.005v-3.761C110.802,133.161,110.287,132.711,109.652,132.711z"/>
			<path fill="#902A1D" d="M84.373,174.662v-0.331h-13.65v9.431c0.678-1.242,2.926-4.681,7.025-4.681c5,0,6.375,5.375,6.375,5.375
				v34.501c-0.584-0.51-1.194-0.876-1.75-0.876c-1.875,0-2.25,2-2.25,2v55.75h6.142V174.662H84.373z"/>
			<rect x="66.515" y="172.268" fill="#F37042" width="4.208" height="0.001"/>
			<path fill="#F37042" d="M66.515,171.393h4.208v-9.228h-4.208V171.393z M68.76,162.916c0.438,0,0.793,0.451,0.793,1.005v3.761
				c0,0.555-0.355,1.005-0.793,1.005c-0.438,0-0.793-0.45-0.793-1.005v-3.761C67.967,163.367,68.321,162.916,68.76,162.916z"/>
			<polygon fill="#F37042" points="70.723,172.706 66.515,172.706 66.515,190.261 66.998,190.261 66.998,188.236 70.623,188.236 
				70.623,190.261 70.723,190.261 70.723,183.762 70.723,174.331 			"/>
			<polygon fill="#F37042" points="70.723,161.268 70.693,161.268 70.723,161.288 			"/>
			<polygon fill="#E15A29" points="64.873,190.261 66.515,190.261 66.515,172.706 70.723,172.706 71.557,172.706 71.557,172.269 
				70.723,172.269 66.515,172.269 66.515,172.268 61.64,172.268 61.64,172.269 60.682,172.269 60.682,172.706 61.64,172.706 
				61.64,188.236 64.873,188.236 			"/>
			<path fill="#E15A29" d="M66.515,171.393v-9.228H61.64v9.228H66.515z M64.869,167.682c0,0.555-0.354,1.005-0.793,1.005
				c-0.438,0-0.793-0.45-0.793-1.005v-3.761c0-0.554,0.355-1.005,0.793-1.005c0.438,0,0.793,0.451,0.793,1.005V167.682z"/>
			<polygon fill="#F47C59" points="66.515,172.268 70.723,172.268 71.557,172.268 71.557,171.393 70.723,171.393 66.515,171.393 
				61.64,171.393 60.682,171.393 60.682,172.268 61.64,172.268 			"/>
			<path fill="#734433" d="M64.076,162.916c-0.438,0-0.793,0.451-0.793,1.005v3.761c0,0.555,0.355,1.005,0.793,1.005
				c0.438,0,0.793-0.45,0.793-1.005v-3.761C64.869,163.367,64.515,162.916,64.076,162.916z"/>
			<path fill="#734433" d="M68.76,168.687c0.438,0,0.793-0.45,0.793-1.005v-3.761c0-0.554-0.355-1.005-0.793-1.005
				c-0.438,0-0.793,0.451-0.793,1.005v3.761C67.967,168.237,68.321,168.687,68.76,168.687z"/>
			<polygon fill="#D9552D" points="66.515,162.166 70.723,162.166 72.031,162.166 70.723,161.288 70.693,161.268 66.184,158.243 
				60.206,162.166 61.64,162.166 			"/>
			<rect x="53.205" y="211.03" fill="#E15A29" width="7.941" height="77.856"/>
			<path fill="#F37042" d="M61.146,207.117h10.489v-11.921H61.146V207.117z M67.452,198.003c0-0.828,0.495-1.5,1.104-1.5
				c0.611,0,1.106,0.672,1.106,1.5v5.607c0,0.828-0.495,1.499-1.106,1.499c-0.609,0-1.104-0.671-1.104-1.499V198.003z
				 M64.225,196.503c0.609,0,1.105,0.672,1.105,1.5v5.607c0,0.828-0.496,1.499-1.105,1.499c-0.611,0-1.105-0.671-1.105-1.499v-5.607
				C63.119,197.175,63.613,196.503,64.225,196.503z"/>
			<rect x="61.146" y="211.03" fill="#F37042" width="10.489" height="77.856"/>
			<polygon fill="#F47C59" points="53.205,207.117 51.777,207.117 51.777,210.491 73.063,210.491 73.063,207.117 71.636,207.117 
				61.146,207.117 			"/>
			<polygon fill="#F47C59" points="66.998,191.283 64.873,191.283 61.248,191.283 58.248,191.283 54.623,191.283 53.205,191.283 
				51.777,191.283 51.777,194.657 73.063,194.657 73.063,191.283 71.636,191.283 70.623,191.283 			"/>
			<path fill="#E15A29" d="M51.777,194.657v0.539h1.428v11.921h7.941v-11.921h10.489h1.428v-0.539H51.777z M58.291,203.611
				c0,0.828-0.495,1.499-1.105,1.499s-1.105-0.671-1.105-1.499v-5.607c0-0.828,0.495-1.5,1.105-1.5s1.105,0.672,1.105,1.5V203.611z"
				/>
			<polygon fill="#D54D28" points="51.777,210.491 51.777,211.03 53.205,211.03 61.146,211.03 71.636,211.03 73.063,211.03 
				73.063,210.491 			"/>
			<path fill="#734433" d="M57.186,196.503c-0.61,0-1.105,0.672-1.105,1.5v5.607c0,0.828,0.495,1.499,1.105,1.499
				s1.105-0.671,1.105-1.499v-5.607C58.291,197.175,57.796,196.503,57.186,196.503z"/>
			<path fill="#734433" d="M64.225,205.11c0.609,0,1.105-0.671,1.105-1.499v-5.607c0-0.828-0.496-1.5-1.105-1.5
				c-0.611,0-1.105,0.672-1.105,1.5v5.607C63.119,204.439,63.613,205.11,64.225,205.11z"/>
			<path fill="#734433" d="M68.557,205.11c0.611,0,1.106-0.671,1.106-1.499v-5.607c0-0.828-0.495-1.5-1.106-1.5
				c-0.609,0-1.104,0.672-1.104,1.5v5.607C67.452,204.439,67.947,205.11,68.557,205.11z"/>
			<polygon fill="#D54D28" points="70.623,188.236 66.998,188.236 66.998,190.261 66.515,190.261 64.873,190.261 64.873,188.236 
				61.64,188.236 61.248,188.236 61.248,190.261 58.248,190.261 58.248,188.236 54.623,188.236 54.623,190.261 53.205,190.261 
				53.205,191.283 54.623,191.283 58.248,191.283 61.248,191.283 64.873,191.283 66.998,191.283 70.623,191.283 71.636,191.283 
				71.636,190.261 70.723,190.261 70.623,190.261 			"/>
			<polygon fill="#F37042" points="135.567,149.051 135.537,149.051 135.567,149.071 			"/>
			<path fill="#F37042" d="M131.359,159.177h4.208v-4.95v-0.906v-3.372h-4.208V159.177z M133.604,150.699
				c0.439,0,0.794,0.451,0.794,1.005v3.761c0,0.555-0.354,1.005-0.794,1.005c-0.438,0-0.792-0.45-0.792-1.005v-3.761
				C132.812,151.15,133.166,150.699,133.604,150.699z"/>
			<rect x="131.359" y="160.489" fill="#F37042" width="4.208" height="21.576"/>
			<polygon fill="#E15A29" points="131.359,182.065 131.359,160.489 135.567,160.489 136.401,160.489 136.401,160.052 
				125.526,160.052 125.526,160.489 126.484,160.489 126.484,162.916 126.484,168.196 126.484,168.968 126.484,170.142 
				126.484,182.065 			"/>
			<path fill="#E15A29" d="M126.484,159.177h4.875v-9.228h-4.875v3.372v0.906V159.177z M128.129,151.704
				c0-0.554,0.355-1.005,0.792-1.005c0.438,0,0.794,0.451,0.794,1.005v3.761c0,0.555-0.355,1.005-0.794,1.005
				c-0.437,0-0.792-0.45-0.792-1.005V151.704z"/>
			<polygon fill="#F47C59" points="125.526,160.052 136.401,160.052 136.401,159.177 135.567,159.177 131.359,159.177 
				126.484,159.177 125.526,159.177 			"/>
			<path fill="#734433" d="M128.129,155.465c0,0.555,0.355,1.005,0.792,1.005c0.438,0,0.794-0.45,0.794-1.005v-3.761
				c0-0.554-0.355-1.005-0.794-1.005c-0.437,0-0.792,0.451-0.792,1.005V155.465z"/>
			<path fill="#734433" d="M132.812,155.465c0,0.555,0.354,1.005,0.792,1.005c0.439,0,0.794-0.45,0.794-1.005v-3.761
				c0-0.554-0.354-1.005-0.794-1.005c-0.438,0-0.792,0.451-0.792,1.005V155.465z"/>
			<polygon fill="#D9552D" points="135.567,149.949 136.877,149.949 135.567,149.071 135.537,149.051 131.028,146.026 
				125.051,149.949 126.484,149.949 131.359,149.949 			"/>
			<rect x="104.513" y="168.196" fill="#F37042" width="21.972" height="0.772"/>
			<path fill="#E15A29" d="M147.211,161.962v9.228h4.875v-9.228H147.211z M150.441,167.478c0,0.555-0.355,1.005-0.794,1.005
				c-0.437,0-0.792-0.45-0.792-1.005v-3.761c0-0.554,0.355-1.005,0.792-1.005c0.438,0,0.794,0.451,0.794,1.005V167.478z"/>
			<polygon fill="#F47C59" points="147.211,171.19 146.254,171.19 146.254,172.065 157.129,172.065 157.129,171.19 152.086,171.19 
							"/>
			<polygon fill="#E15A29" points="146.254,172.065 146.254,172.502 147.211,172.502 147.211,183.62 147.449,183.62 
				147.449,184.715 147.449,185.464 147.449,189.132 147.449,190.839 147.449,210.005 149.471,210.005 149.471,211.476 
				152.086,211.476 152.086,172.502 157.129,172.502 157.129,172.065 			"/>
			<path fill="#734433" d="M149.647,162.712c-0.437,0-0.792,0.451-0.792,1.005v3.761c0,0.555,0.355,1.005,0.792,1.005
				c0.438,0,0.794-0.45,0.794-1.005v-3.761C150.441,163.163,150.086,162.712,149.647,162.712z"/>
			<path fill="#734433" d="M154.331,162.712c-0.438,0-0.793,0.451-0.793,1.005v3.761c0,0.555,0.354,1.005,0.793,1.005
				s0.794-0.45,0.794-1.005v-3.761C155.125,163.163,154.77,162.712,154.331,162.712z"/>
			<polygon fill="#D9552D" points="145.778,161.962 146.19,161.962 147.211,161.962 152.086,161.962 157.604,161.962 
				151.756,158.039 151.744,158.046 146.19,161.691 			"/>
			<path fill="#E96439" d="M130.268,190.839v19.166h1.709v1.471h3.069v-1.471h2.806v1.471h0.035v-20.637H130.268z M135.012,200.181
				c0,0.709-0.434,1.284-0.971,1.284c-0.535,0-0.969-0.575-0.969-1.284v-4.807c0-0.709,0.434-1.284,0.969-1.284
				c0.537,0,0.971,0.575,0.971,1.284V200.181z"/>
			<path fill="#E96439" d="M106.043,210.005h2.807v1.471h3.006v-20.637h-7.38v20.637h1.567V210.005z M107.072,195.375
				c0-0.709,0.434-1.284,0.969-1.284c0.537,0,0.971,0.575,0.971,1.284v4.807c0,0.709-0.434,1.284-0.971,1.284
				c-0.535,0-0.969-0.575-0.969-1.284V195.375z"/>
			<polygon fill="#E96439" points="110.854,188.086 111.855,188.086 111.855,185.464 104.476,185.464 104.476,189.132 
				110.854,189.132 			"/>
			<path fill="#E96439" d="M112.823,190.839v19.166h2.188v1.471h2.255v-1.471h2.807v1.471h0.938v-20.637H112.823z M117.512,200.181
				c0,0.709-0.434,1.284-0.971,1.284c-0.535,0-0.969-0.575-0.969-1.284v-4.807c0-0.709,0.434-1.284,0.969-1.284
				c0.537,0,0.971,0.575,0.971,1.284V200.181z"/>
			<polygon fill="#E96439" points="136.887,188.086 137.887,188.086 137.887,185.464 131.237,185.464 131.237,188.086 
				132.237,188.086 132.237,188.959 131.242,189.132 136.887,189.132 			"/>
			<path fill="#E96439" d="M121.978,190.839v20.637h1.187v-1.471h2.806v1.471h3.2v-1.471h0.131v-19.166H121.978z M125.887,200.181
				c0,0.709-0.434,1.284-0.971,1.284c-0.535,0-0.969-0.575-0.969-1.284v-4.807c0-0.709,0.434-1.284,0.969-1.284
				c0.537,0,0.971,0.575,0.971,1.284V200.181z"/>
			<polygon fill="#E96439" points="128.299,188.086 129.301,188.086 129.301,185.464 122.947,185.464 122.947,188.086 
				123.947,188.086 123.947,188.959 122.953,189.132 128.299,189.132 			"/>
			<polygon fill="#E96439" points="120.009,188.086 121.01,188.086 121.01,185.464 113.793,185.464 113.793,188.086 
				114.793,188.086 114.793,188.959 113.799,189.132 120.009,189.132 			"/>
			<path fill="#E96439" d="M138.855,190.839v20.637h1.867v-1.471h2.807v1.471h3.135v-1.471h0.785v-19.166H138.855z M143.762,200.181
				c0,0.709-0.434,1.284-0.971,1.284c-0.535,0-0.969-0.575-0.969-1.284v-4.807c0-0.709,0.434-1.284,0.969-1.284
				c0.537,0,0.971,0.575,0.971,1.284V200.181z"/>
			<polygon fill="#E96439" points="147.449,189.132 147.449,185.464 139.824,185.464 139.824,188.086 140.824,188.086 
				140.824,188.959 139.83,189.132 			"/>
			<polygon fill="#F47C59" points="121.01,189.133 120.009,189.133 120.009,189.132 113.799,189.132 113.793,189.133 
				112.823,189.133 112.823,190.839 121.01,190.839 			"/>
			<polygon fill="#F47C59" points="111.855,189.133 110.854,189.133 110.854,189.132 104.476,189.132 104.476,190.839 
				111.855,190.839 			"/>
			<polygon fill="#F47C59" points="129.301,189.133 128.299,189.133 128.299,189.132 122.953,189.132 122.947,189.133 
				121.978,189.133 121.978,190.839 129.301,190.839 			"/>
			<polygon fill="#F47C59" points="137.887,189.133 136.887,189.133 136.887,189.132 131.242,189.132 131.237,189.133 
				130.268,189.133 130.268,190.839 137.887,190.839 			"/>
			<polygon fill="#F47C59" points="147.449,190.839 147.449,189.132 139.83,189.132 139.824,189.133 138.855,189.133 
				138.855,190.839 			"/>
			<path fill="#734433" d="M124.916,194.09c-0.535,0-0.969,0.575-0.969,1.284v4.807c0,0.709,0.434,1.284,0.969,1.284
				c0.537,0,0.971-0.575,0.971-1.284v-4.807C125.887,194.666,125.453,194.09,124.916,194.09z"/>
			<path fill="#734433" d="M134.041,194.09c-0.535,0-0.969,0.575-0.969,1.284v4.807c0,0.709,0.434,1.284,0.969,1.284
				c0.537,0,0.971-0.575,0.971-1.284v-4.807C135.012,194.666,134.578,194.09,134.041,194.09z"/>
			<path fill="#734433" d="M142.791,194.09c-0.535,0-0.969,0.575-0.969,1.284v4.807c0,0.709,0.434,1.284,0.969,1.284
				c0.537,0,0.971-0.575,0.971-1.284v-4.807C143.762,194.666,143.328,194.09,142.791,194.09z"/>
			<path fill="#734433" d="M116.541,194.09c-0.535,0-0.969,0.575-0.969,1.284v4.807c0,0.709,0.434,1.284,0.969,1.284
				c0.537,0,0.971-0.575,0.971-1.284v-4.807C117.512,194.666,117.078,194.09,116.541,194.09z"/>
			<path fill="#734433" d="M108.041,201.465c0.537,0,0.971-0.575,0.971-1.284v-4.807c0-0.709-0.434-1.284-0.971-1.284
				c-0.535,0-0.969,0.575-0.969,1.284v4.807C107.072,200.89,107.506,201.465,108.041,201.465z"/>
			<polygon fill="#CD4C28" points="108.199,184.715 110.302,184.715 112.824,184.715 116.492,184.715 119.014,184.715 
				121.424,184.715 123.947,184.715 126.199,184.715 128.722,184.715 132.238,184.715 134.76,184.715 137.262,184.715 
				139.783,184.715 142.5,184.715 145.022,184.715 147.449,184.715 147.449,183.62 147.211,183.62 146.19,183.62 145.022,183.62 
				145.022,182.093 142.5,182.093 142.5,183.62 139.783,183.62 139.783,182.093 137.262,182.093 137.262,183.62 134.76,183.62 
				134.76,182.093 132.238,182.093 132.238,183.62 128.722,183.62 128.722,182.093 126.199,182.093 126.199,183.62 123.947,183.62 
				123.947,182.093 121.424,182.093 121.424,183.62 119.014,183.62 119.014,182.093 118.828,182.093 116.492,182.093 
				116.492,183.62 112.824,183.62 112.824,182.093 110.302,182.093 110.302,183.62 108.199,183.62 108.199,182.093 107.151,182.093 
				105.678,182.093 105.678,183.62 104.476,183.62 104.476,184.715 105.678,184.715 			"/>
			<polygon fill="#B93926" points="111.855,188.086 110.854,188.086 110.854,189.132 110.854,189.133 111.855,189.133 
				111.855,190.839 111.855,211.476 112.205,211.476 112.205,210.005 112.823,210.005 112.823,190.839 112.823,189.133 
				113.793,189.133 113.799,189.132 114.793,188.959 114.793,188.086 113.793,188.086 113.793,185.464 121.01,185.464 
				121.01,188.086 120.009,188.086 120.009,189.132 120.009,189.133 121.01,189.133 121.01,190.839 121.01,211.476 121.978,211.476 
				121.978,190.839 121.978,189.133 122.947,189.133 122.953,189.132 123.947,188.959 123.947,188.086 122.947,188.086 
				122.947,185.464 129.301,185.464 129.301,188.086 128.299,188.086 128.299,189.132 128.299,189.133 129.301,189.133 
				129.301,190.839 129.301,210.005 130.268,210.005 130.268,190.839 130.268,189.133 131.237,189.133 131.242,189.132 
				132.237,188.959 132.237,188.086 131.237,188.086 131.237,185.464 137.887,185.464 137.887,188.086 136.887,188.086 
				136.887,189.132 136.887,189.133 137.887,189.133 137.887,190.839 137.887,211.476 138.855,211.476 138.855,190.839 
				138.855,189.133 139.824,189.133 139.83,189.132 140.824,188.959 140.824,188.086 139.824,188.086 139.824,185.464 
				147.449,185.464 147.449,184.715 145.022,184.715 142.5,184.715 139.783,184.715 137.262,184.715 134.76,184.715 
				132.238,184.715 128.722,184.715 126.199,184.715 123.947,184.715 121.424,184.715 119.014,184.715 116.492,184.715 
				112.824,184.715 110.302,184.715 108.199,184.715 105.678,184.715 104.476,184.715 104.476,185.464 111.855,185.464 			"/>
			<path fill="#E15A29" d="M93.076,154.227h11.399h1.183v-0.539H84.373v0.539h1.892v16.522h6.812V154.227z M89.67,168.848
				c-0.609,0-1.105-0.671-1.105-1.499v-10.607c0-0.829,0.496-1.5,1.105-1.5c0.611,0,1.105,0.671,1.105,1.5v10.607
				C90.775,168.177,90.281,168.848,89.67,168.848z"/>
			<path fill="#F37042" d="M101.678,288.842V256.71c0,0-0.426-3.397,1.689-5.61v-17.124h-0.957v-0.437v-0.875h0.957v-9.228h-1.433
				l2.103-1.38v-8.579h0.269v-2.002h0.17v-20.637v-1.707v-3.668v-0.75v-1.095v-8.958H93.076v114.225h11.399v-0.044h-0.438H101.678z"
				/>
			<path fill="#F37042" d="M93.076,154.227v16.522h11.399v-16.522H93.076z M97.227,167.469c0,0.828-0.496,1.499-1.106,1.499
				s-1.104-0.671-1.104-1.499v-10.607c0-0.829,0.494-1.5,1.104-1.5s1.106,0.671,1.106,1.5V167.469z"/>
			<polygon fill="#F47C59" points="105.658,174.123 105.658,170.749 104.476,170.749 93.076,170.749 86.265,170.749 84.373,170.749 
				84.373,174.123 			"/>
			<polygon fill="#E15A29" points="104.476,174.662 105.658,174.662 105.658,174.123 84.373,174.123 84.373,174.331 84.373,174.662 
				86.265,174.662 86.265,275.831 86.265,288.886 93.076,288.886 93.076,174.662 			"/>
			<polygon fill="#F47C59" points="105.658,153.688 105.658,150.314 100.479,150.314 84.373,150.314 84.373,153.688 			"/>
			<path fill="#734433" d="M96.12,155.362c-0.61,0-1.104,0.671-1.104,1.5v10.607c0,0.828,0.494,1.499,1.104,1.499
				s1.106-0.671,1.106-1.499v-10.607C97.227,156.033,96.73,155.362,96.12,155.362z"/>
			<path fill="#734433" d="M89.67,155.242c-0.609,0-1.105,0.671-1.105,1.5v10.607c0,0.828,0.496,1.499,1.105,1.499
				c0.611,0,1.105-0.671,1.105-1.499v-10.607C90.775,155.913,90.281,155.242,89.67,155.242z"/>
			<polygon fill="#CD4C28" points="159.652,187.876 157.131,187.876 157.131,189.404 155.776,189.404 155.776,190.283 
				175.463,190.283 175.463,189.404 174.018,189.404 174.018,187.876 171.494,187.876 171.494,189.404 169.205,189.404 
				169.205,187.876 166.684,187.876 166.684,189.404 164.275,189.404 164.275,187.876 161.754,187.876 161.754,189.404 
				161.605,189.404 159.652,189.404 			"/>
			<polygon fill="#CD4C28" points="193.814,190.283 195.152,190.283 195.152,190.499 195.25,190.499 195.25,189.404 
				194.324,189.404 194.324,187.876 193.814,187.876 			"/>
			<rect x="183.158" y="240.796" fill="#B93926" width="3.863" height="0.271"/>
			<rect x="176.508" y="240.796" fill="#B93926" width="3.736" height="0.271"/>
			<rect x="189.936" y="240.796" fill="#B93926" width="3.42" height="0.271"/>
			<polygon fill="#B93926" points="193.814,239.23 195.152,239.23 195.152,217.111 195.152,214.986 195.152,198.109 
				193.814,198.109 			"/>
			<path fill="#B93926" d="M159.467,193.048v0.312v9.938h1.375v2v0.875h-1.375v10.25h1.094v1.812v0.625h-1.094v22.206h1.016v-1.837
				h2.912v1.837h2.572v-22.206h-1.094v-0.625v-1.812h1.094v-10.25h-1.375v-0.875v-2h1.375c0,0,0-3.875,0-4.625
				s1.875-5.625,3.875-5.625v0.312v9.938h1.375v2v0.875h-1.375v10.25h1.094v1.812v0.625h-1.094v22.206h3.752v-1.837h1.869v-41.121
				h-1.469v-0.539v-2.614h1.469v-4.673h-19.687v0.216v7.381C156.297,196.272,157.84,193.048,159.467,193.048z"/>
			<polygon fill="#B93926" points="193.814,190.283 193.814,194.956 195.152,194.956 195.152,190.499 195.152,190.283 			"/>
			<polygon fill="#D54D28" points="176.508,239.23 176.508,240.796 180.244,240.796 180.244,239.23 182.137,239.23 182.137,198.109 
				175.463,198.109 175.463,239.23 			"/>
			<polygon fill="#D54D28" points="175.463,194.956 182.137,194.956 182.137,178.397 175.463,178.397 175.463,189.404 
				175.463,190.283 			"/>
			<polygon fill="#F37042" points="182.137,194.956 193.814,194.956 193.814,190.283 193.814,187.876 193.814,178.397 
				182.137,178.397 			"/>
			<polygon fill="#F37042" points="183.158,239.23 183.158,240.796 187.021,240.796 187.021,239.23 189.936,239.23 189.936,240.796 
				193.355,240.796 193.355,239.23 193.814,239.23 193.814,198.109 182.137,198.109 182.137,239.23 			"/>
			<path fill="#F37042" d="M188.643,177.424h5.172h1.758h0.002v-9.314h-6.932V177.424z M190.787,170.886
				c0-0.554,0.514-1.005,1.148-1.005c0.637,0,1.15,0.451,1.15,1.005v3.761c0,0.555-0.514,1.005-1.15,1.005
				c-0.635,0-1.148-0.45-1.148-1.005V170.886z"/>
			<path fill="#D54D28" d="M180.637,177.424v-9.314h-6.932v9.314h1.758H180.637z M176.191,170.886c0-0.554,0.514-1.005,1.146-1.005
				c0.637,0,1.15,0.451,1.15,1.005v3.761c0,0.555-0.514,1.005-1.15,1.005c-0.633,0-1.146-0.45-1.146-1.005V170.886z"/>
			<path fill="#DD552B" d="M180.637,168.11v9.314h1.5h6.506v-9.314H180.637z M185.787,174.647c0,0.555-0.514,1.005-1.15,1.005
				c-0.633,0-1.148-0.45-1.148-1.005v-3.761c0-0.554,0.516-1.005,1.148-1.005c0.637,0,1.15,0.451,1.15,1.005V174.647z"/>
			<polygon fill="#C74427" points="193.814,178.397 195.572,178.397 195.572,177.424 193.814,177.424 188.643,177.424 
				182.137,177.424 180.637,177.424 175.463,177.424 173.705,177.424 173.703,177.424 173.703,178.397 175.463,178.397 
				182.137,178.397 			"/>
			<polygon fill="#B93926" points="186.098,162.39 186.098,159.769 183.18,159.769 183.18,162.39 184.639,161.854 			"/>
			<polygon fill="#D54D28" points="199.373,167.275 186.098,162.39 184.639,161.854 183.18,162.39 169.902,167.275 			"/>
			<polygon fill="#BF4127" points="188.643,168.11 195.574,168.11 199.373,168.11 199.373,167.276 169.902,167.276 169.902,168.11 
				173.705,168.11 180.637,168.11 			"/>
			<path fill="#734433" d="M191.936,175.652c0.637,0,1.15-0.45,1.15-1.005v-3.761c0-0.554-0.514-1.005-1.15-1.005
				c-0.635,0-1.148,0.451-1.148,1.005v3.761C190.787,175.202,191.301,175.652,191.936,175.652z"/>
			<path fill="#734433" d="M177.338,175.652c0.637,0,1.15-0.45,1.15-1.005v-3.761c0-0.554-0.514-1.005-1.15-1.005
				c-0.633,0-1.146,0.451-1.146,1.005v3.761C176.191,175.202,176.705,175.652,177.338,175.652z"/>
			<path fill="#734433" d="M184.637,169.881c-0.633,0-1.148,0.451-1.148,1.005v3.761c0,0.555,0.516,1.005,1.148,1.005
				c0.637,0,1.15-0.45,1.15-1.005v-3.761C185.787,170.332,185.273,169.881,184.637,169.881z"/>
			<polygon fill="#F47C59" points="182.137,194.956 175.463,194.956 173.994,194.956 173.994,197.57 195.281,197.57 
				195.281,194.956 195.152,194.956 193.814,194.956 			"/>
			<polygon fill="#E15A29" points="173.994,197.57 173.994,198.109 175.463,198.109 182.137,198.109 193.814,198.109 
				195.152,198.109 195.281,198.109 195.281,197.57 			"/>
			<path fill="#E96439" d="M135.367,232.665v-9.228h-1.433l0.719-0.472h-21.597l0.703,0.472h-1.309v9.228h0.834v0.875v0.437h-0.834
				v0.509l1.472,4.517h21.444v-5.025h-0.957v-0.437v-0.875H135.367z M120.287,232.958c0,0.783-0.501,1.419-1.119,1.419
				c-0.619,0-1.119-0.636-1.119-1.419v-5.309c0-0.782,0.5-1.419,1.119-1.419c0.618,0,1.119,0.637,1.119,1.419V232.958z
				 M130.711,232.958c0,0.783-0.502,1.419-1.121,1.419c-0.617,0-1.119-0.636-1.119-1.419v-5.309c0-0.782,0.502-1.419,1.119-1.419
				c0.619,0,1.121,0.637,1.121,1.419V232.958z"/>
			<polygon fill="#E96439" points="152.33,253.175 152.33,250.675 152.33,243.705 152.248,243.705 152.248,241.139 146.654,241.139 
				152.33,258.552 152.33,254.342 			"/>
			<path fill="#E96439" d="M135.367,251.1v-9.961h-20.748l15.547,47.703h3.512V256.71C133.678,256.71,133.252,253.313,135.367,251.1
				z"/>
			<path fill="#E96439" d="M104.305,220.828h1.604l2.003-1.314l1.959,1.314h28.039l2.002-1.314l1.959,1.314h13.344v2.138h-10.158
				l0.703,0.472h-1.309v9.228h0.834v0.875v0.437h-0.834v0.401l1.507,4.624h9.547v0.229h0.087v-20.369h-1.094v-0.625v-1.812h1.094
				v-2.945h-51.286h-0.269v8.579l0.268-0.176V220.828z M151.289,232.958c0,0.783-0.502,1.419-1.12,1.419s-1.119-0.636-1.119-1.419
				v-5.309c0-0.782,0.501-1.419,1.119-1.419s1.12,0.637,1.12,1.419V232.958z"/>
			<polygon fill="#F47C59" points="137.91,220.828 109.871,220.828 112.421,222.539 112.451,222.539 112.451,222.559 
				113.057,222.965 134.653,222.965 			"/>
			<polygon fill="#F47C59" points="144.451,222.539 144.451,222.559 145.057,222.965 155.215,222.965 155.215,220.828 
				141.871,220.828 144.421,222.539 			"/>
			<polygon fill="#F47C59" points="104.305,220.828 104.305,221.881 105.909,220.828 			"/>
			<polygon fill="#F47C59" points="152.248,241.067 153.705,241.067 153.705,239.23 155.505,239.23 155.505,239.001 
				145.958,239.001 146.654,241.139 152.248,241.139 			"/>
			<polygon fill="#F47C59" points="113.923,239.001 114.619,241.139 135.367,241.139 135.367,239.001 			"/>
			<path fill="#734433" d="M119.168,226.231c-0.619,0-1.119,0.637-1.119,1.419v5.309c0,0.783,0.5,1.419,1.119,1.419
				c0.618,0,1.119-0.636,1.119-1.419v-5.309C120.287,226.868,119.786,226.231,119.168,226.231z"/>
			<path fill="#734433" d="M129.59,226.231c-0.617,0-1.119,0.637-1.119,1.419v5.309c0,0.783,0.502,1.419,1.119,1.419
				c0.619,0,1.121-0.636,1.121-1.419v-5.309C130.711,226.868,130.209,226.231,129.59,226.231z"/>
			<path fill="#734433" d="M150.169,226.231c-0.618,0-1.119,0.637-1.119,1.419v5.309c0,0.783,0.501,1.419,1.119,1.419
				s1.12-0.636,1.12-1.419v-5.309C151.289,226.868,150.787,226.231,150.169,226.231z"/>
			<polygon fill="#D54D28" points="155.592,213.478 155.592,211.476 154.906,211.476 154.906,210.005 152.1,210.005 152.1,211.476 
				152.086,211.476 149.471,211.476 149.471,210.005 147.449,210.005 146.664,210.005 146.664,211.476 143.529,211.476 
				143.529,210.005 140.723,210.005 140.723,211.476 138.855,211.476 137.887,211.476 137.852,211.476 137.852,210.005 
				135.046,210.005 135.046,211.476 131.977,211.476 131.977,210.005 130.268,210.005 129.301,210.005 129.17,210.005 
				129.17,211.476 125.97,211.476 125.97,210.005 123.164,210.005 123.164,211.476 121.978,211.476 121.01,211.476 120.072,211.476 
				120.072,210.005 117.266,210.005 117.266,211.476 115.011,211.476 115.011,210.005 112.823,210.005 112.205,210.005 
				112.205,211.476 111.855,211.476 108.85,211.476 108.85,210.005 106.043,210.005 106.043,211.476 104.476,211.476 
				104.306,211.476 104.306,213.478 			"/>
			<path fill="#F37042" d="M152.33,254.342v4.21l3.074,9.436h48.426v2.5h0.166v-16.146H152.33z M157.664,262.686
				c0,0.783-0.502,1.419-1.119,1.419c-0.619,0-1.119-0.636-1.119-1.419v-5.309c0-0.782,0.5-1.419,1.119-1.419
				c0.617,0,1.119,0.637,1.119,1.419V262.686z M168.225,262.686c0,0.783-0.502,1.419-1.119,1.419c-0.619,0-1.119-0.636-1.119-1.419
				v-5.309c0-0.782,0.5-1.419,1.119-1.419c0.617,0,1.119,0.637,1.119,1.419V262.686z M178.559,262.686
				c0,0.783-0.502,1.419-1.121,1.419c-0.617,0-1.119-0.636-1.119-1.419v-5.309c0-0.782,0.502-1.419,1.119-1.419
				c0.619,0,1.121,0.637,1.121,1.419V262.686z M188.623,262.686c0,0.783-0.502,1.419-1.119,1.419c-0.619,0-1.119-0.636-1.119-1.419
				v-5.309c0-0.782,0.5-1.419,1.119-1.419c0.617,0,1.119,0.637,1.119,1.419V262.686z M199.146,262.686
				c0,0.783-0.502,1.419-1.121,1.419c-0.617,0-1.119-0.636-1.119-1.419v-5.309c0-0.782,0.502-1.419,1.119-1.419
				c0.619,0,1.121,0.637,1.121,1.419V262.686z"/>
			<polygon fill="#F37042" points="152.33,243.705 152.33,250.675 203.83,250.675 203.83,253.175 203.996,253.175 203.996,243.705 
							"/>
			<polygon fill="#F37042" points="156.6,271.655 162.201,288.842 203.996,288.842 203.996,276.111 203.996,271.655 			"/>
			<rect x="152.33" y="250.675" fill="#F47C59" width="51.5" height="2.5"/>
			<polygon fill="#D26239" points="152.33,253.175 152.33,254.342 203.996,254.342 204.496,254.342 204.496,253.175 
				203.996,253.175 203.83,253.175 			"/>
			<polygon fill="#F47C59" points="156.219,270.488 203.83,270.488 203.83,267.988 155.404,267.988 			"/>
			<polygon fill="#D26239" points="156.219,270.488 156.6,271.655 203.996,271.655 204.496,271.655 204.496,270.488 
				203.996,270.488 203.83,270.488 			"/>
			<path fill="#734433" d="M156.545,255.958c-0.619,0-1.119,0.637-1.119,1.419v5.309c0,0.783,0.5,1.419,1.119,1.419
				c0.617,0,1.119-0.636,1.119-1.419v-5.309C157.664,256.595,157.162,255.958,156.545,255.958z"/>
			<path fill="#734433" d="M167.105,255.958c-0.619,0-1.119,0.637-1.119,1.419v5.309c0,0.783,0.5,1.419,1.119,1.419
				c0.617,0,1.119-0.636,1.119-1.419v-5.309C168.225,256.595,167.723,255.958,167.105,255.958z"/>
			<path fill="#734433" d="M177.438,255.958c-0.617,0-1.119,0.637-1.119,1.419v5.309c0,0.783,0.502,1.419,1.119,1.419
				c0.619,0,1.121-0.636,1.121-1.419v-5.309C178.559,256.595,178.057,255.958,177.438,255.958z"/>
			<path fill="#734433" d="M187.504,255.958c-0.619,0-1.119,0.637-1.119,1.419v5.309c0,0.783,0.5,1.419,1.119,1.419
				c0.617,0,1.119-0.636,1.119-1.419v-5.309C188.623,256.595,188.121,255.958,187.504,255.958z"/>
			<path fill="#734433" d="M198.025,255.958c-0.617,0-1.119,0.637-1.119,1.419v5.309c0,0.783,0.502,1.419,1.119,1.419
				c0.619,0,1.121-0.636,1.121-1.419v-5.309C199.146,256.595,198.645,255.958,198.025,255.958z"/>
			<polygon fill="#D54D28" points="200.006,241.067 196.27,241.067 196.27,239.23 195.152,239.23 193.814,239.23 193.355,239.23 
				193.355,240.796 193.355,241.067 189.936,241.067 189.936,240.796 189.936,239.23 187.021,239.23 187.021,240.796 
				187.021,241.067 183.158,241.067 183.158,240.796 183.158,239.23 182.137,239.23 180.244,239.23 180.244,240.796 
				180.244,241.067 176.508,241.067 176.508,240.796 176.508,239.23 175.463,239.23 173.594,239.23 173.594,241.067 
				169.842,241.067 169.842,241.298 167.904,241.298 165.967,241.298 165.967,241.067 163.395,241.067 163.395,239.23 
				160.482,239.23 160.482,241.067 159.467,241.067 159.467,241.298 157.529,241.298 155.592,241.298 155.592,239.23 
				155.505,239.23 153.705,239.23 153.705,241.067 152.248,241.067 152.248,241.139 152.248,243.705 152.33,243.705 
				203.996,243.705 203.996,243.675 203.996,241.067 202.92,241.067 202.92,239.23 200.08,239.23 200.006,239.23 			"/>
			<polygon fill="#E96439" points="112.451,239.001 113.923,239.001 112.451,234.485 			"/>
			<polygon opacity="0.6" fill="#E04A26" points="112.451,239.001 113.923,239.001 112.451,234.485 			"/>
			<path fill="#E96439" d="M112.451,241.139v10.275c0.822,0.948,1.602,2.431,1.602,4.671c0,4.75,0,32.757,0,32.757h16.113
				l-15.547-47.703H112.451z"/>
			<path opacity="0.6" fill="#E04A26" d="M112.451,241.139v10.275c0.822,0.948,1.602,2.431,1.602,4.671c0,4.75,0,32.757,0,32.757
				h16.113l-15.547-47.703H112.451z"/>
			<polygon fill="#F47C59" points="112.451,239.001 112.451,241.139 114.619,241.139 113.923,239.001 			"/>
			<polygon opacity="0.6" fill="#E04A26" points="112.451,239.001 112.451,241.139 114.619,241.139 113.923,239.001 			"/>
			<polygon fill="#E96439" points="144.451,239.001 145.958,239.001 144.451,234.377 			"/>
			<polygon opacity="0.6" fill="#E04A26" points="144.451,239.001 145.958,239.001 144.451,234.377 			"/>
			<path fill="#E96439" d="M152.33,270.488v-2.5v-9.436l-5.676-17.413h-2.203v10.275c0.822,0.948,1.602,2.431,1.602,4.671
				c0,4.75,0,32.757,0,32.757h6.277v-17.188V270.488z"/>
			<path opacity="0.6" fill="#E04A26" d="M152.33,270.488v-2.5v-9.436l-5.676-17.413h-2.203v10.275
				c0.822,0.948,1.602,2.431,1.602,4.671c0,4.75,0,32.757,0,32.757h6.277v-17.188V270.488z"/>
			<polygon fill="#F47C59" points="144.451,239.001 144.451,241.139 146.654,241.139 145.958,239.001 			"/>
			<polygon opacity="0.6" fill="#E04A26" points="144.451,239.001 144.451,241.139 146.654,241.139 145.958,239.001 			"/>
			<polygon fill="#F37042" points="152.33,271.655 152.33,288.842 155.75,288.842 162.201,288.842 156.6,271.655 			"/>
			<polygon opacity="0.6" fill="#E04A26" points="152.33,271.655 152.33,288.842 155.75,288.842 162.201,288.842 156.6,271.655 			
				"/>
			<polygon fill="#F37042" points="152.33,258.552 152.33,267.988 155.404,267.988 			"/>
			<polygon opacity="0.6" fill="#E04A26" points="152.33,258.552 152.33,267.988 155.404,267.988 			"/>
			<polygon fill="#F47C59" points="156.219,270.488 155.404,267.988 152.33,267.988 152.33,270.488 			"/>
			<polygon opacity="0.6" fill="#E04A26" points="156.219,270.488 155.404,267.988 152.33,267.988 152.33,270.488 			"/>
			<polygon fill="#D26239" points="152.33,270.488 152.33,271.655 156.6,271.655 156.219,270.488 			"/>
			<polygon opacity="0.6" fill="#E04A26" points="152.33,270.488 152.33,271.655 156.6,271.655 156.219,270.488 			"/>
			<path fill="#F37042" d="M108.242,223.437v9.228h4.209v-9.228H108.242z M110.487,229.958c-0.438,0-0.793-0.45-0.793-1.005v-3.761
				c0-0.554,0.354-1.005,0.793-1.005s0.794,0.451,0.794,1.005v3.761C111.281,229.507,110.926,229.958,110.487,229.958z"/>
			<polygon fill="#F37042" points="112.421,222.539 112.451,222.559 112.451,222.539 			"/>
			<path fill="#F37042" d="M112.451,234.485v-0.509h-4.209v15.984h0.311c0,0,2,1.125,2,4.875v-4.875c0,0,0.977,0.391,1.898,1.454
				v-10.275v-2.138V234.485z"/>
			<path fill="#E15A29" d="M108.242,232.665v-9.228h-4.875v9.228H108.242z M105.012,225.192c0-0.554,0.355-1.005,0.792-1.005
				c0.438,0,0.794,0.451,0.794,1.005v3.761c0,0.555-0.355,1.005-0.794,1.005c-0.437,0-0.792-0.45-0.792-1.005V225.192z"/>
			<path fill="#E15A29" d="M108.242,233.976h4.209h0.834v-0.437H102.41v0.437h0.957V251.1c0.418-0.437,0.924-0.831,1.561-1.14h3.314
				V233.976z"/>
			<polygon fill="#F47C59" points="113.285,233.54 113.285,232.665 112.451,232.665 108.242,232.665 103.367,232.665 
				102.41,232.665 102.41,233.54 			"/>
			<path fill="#734433" d="M105.804,229.958c0.438,0,0.794-0.45,0.794-1.005v-3.761c0-0.554-0.355-1.005-0.794-1.005
				c-0.437,0-0.792,0.451-0.792,1.005v3.761C105.012,229.507,105.367,229.958,105.804,229.958z"/>
			<path fill="#734433" d="M110.487,224.187c-0.438,0-0.793,0.451-0.793,1.005v3.761c0,0.555,0.354,1.005,0.793,1.005
				s0.794-0.45,0.794-1.005v-3.761C111.281,224.638,110.926,224.187,110.487,224.187z"/>
			<polygon fill="#D9552D" points="108.242,223.437 112.451,223.437 113.76,223.437 113.057,222.965 112.451,222.559 
				112.421,222.539 109.871,220.828 107.912,219.513 105.909,220.828 104.305,221.881 104.037,222.057 101.935,223.437 
				103.367,223.437 			"/>
			<path fill="#D54D28" d="M104.928,249.96c-0.637,0.309-1.143,0.703-1.561,1.14c-2.115,2.213-1.689,5.61-1.689,5.61v32.132h2.359
				h0.438h0.452C104.928,288.842,104.928,256.585,104.928,249.96z"/>
			<path fill="#E25A29" d="M110.553,254.835c0-3.75-2-4.875-2-4.875h-0.311h-3.314c0,6.625,0,38.882,0,38.882h5.625
				C110.553,288.842,110.553,258.585,110.553,254.835z"/>
			<path fill="#F37042" d="M112.451,251.415c-0.922-1.063-1.898-1.454-1.898-1.454v4.875c0,3.75,0,34.007,0,34.007h1.863h1.637
				c0,0,0-28.007,0-32.757C114.053,253.845,113.273,252.363,112.451,251.415z"/>
			<path fill="#F37042" d="M140.242,232.665h4.209v-9.228h-4.209V232.665z M142.487,224.187c0.438,0,0.794,0.451,0.794,1.005v3.761
				c0,0.555-0.355,1.005-0.794,1.005s-0.793-0.45-0.793-1.005v-3.761C141.694,224.638,142.049,224.187,142.487,224.187z"/>
			<path fill="#F37042" d="M144.451,234.377v-0.401h-4.209v15.984h0.311c0,0,2,1.125,2,4.875v-4.875c0,0,0.977,0.391,1.898,1.454
				v-10.275v-2.138V234.377z"/>
			<polygon fill="#F37042" points="144.421,222.539 144.451,222.559 144.451,222.539 			"/>
			<path fill="#E15A29" d="M135.367,223.437v9.228h4.875v-9.228H135.367z M137.804,229.958c-0.437,0-0.792-0.45-0.792-1.005v-3.761
				c0-0.554,0.355-1.005,0.792-1.005c0.438,0,0.794,0.451,0.794,1.005v3.761C138.598,229.507,138.242,229.958,137.804,229.958z"/>
			<path fill="#E15A29" d="M140.242,233.976h4.209h0.834v-0.437H134.41v0.437h0.957v5.025v2.138v9.961
				c0.417-0.437,0.923-0.831,1.561-1.14h3.314V233.976z"/>
			<polygon fill="#F47C59" points="144.451,232.665 140.242,232.665 135.367,232.665 134.41,232.665 134.41,233.54 145.285,233.54 
				145.285,232.665 			"/>
			<path fill="#734433" d="M137.804,224.187c-0.437,0-0.792,0.451-0.792,1.005v3.761c0,0.555,0.355,1.005,0.792,1.005
				c0.438,0,0.794-0.45,0.794-1.005v-3.761C138.598,224.638,138.242,224.187,137.804,224.187z"/>
			<path fill="#734433" d="M142.487,229.958c0.438,0,0.794-0.45,0.794-1.005v-3.761c0-0.554-0.355-1.005-0.794-1.005
				s-0.793,0.451-0.793,1.005v3.761C141.694,229.507,142.049,229.958,142.487,229.958z"/>
			<polygon fill="#D9552D" points="133.935,223.437 135.367,223.437 140.242,223.437 144.451,223.437 145.76,223.437 
				145.057,222.965 144.451,222.559 144.421,222.539 141.871,220.828 139.912,219.513 137.91,220.828 134.653,222.965 			"/>
			<path fill="#D54D28" d="M136.928,249.96c-0.638,0.309-1.144,0.703-1.561,1.14c-2.115,2.213-1.689,5.61-1.689,5.61v32.132h3.25
				C136.928,288.842,136.928,256.585,136.928,249.96z"/>
			<path fill="#E25A29" d="M142.553,254.835c0-3.75-2-4.875-2-4.875h-0.311h-3.314c0,6.625,0,38.882,0,38.882h5.625
				C142.553,288.842,142.553,258.585,142.553,254.835z"/>
			<path fill="#F37042" d="M144.451,251.415c-0.922-1.063-1.898-1.454-1.898-1.454v4.875c0,3.75,0,34.007,0,34.007h1.898h1.602
				c0,0,0-28.007,0-32.757C146.053,253.845,145.273,252.363,144.451,251.415z"/>
			<rect x="157.529" y="206.173" fill="#F37042" width="1.938" height="10.25"/>
			<polygon fill="#F37042" points="157.529,218.861 157.529,241.298 159.467,241.298 159.467,241.067 159.467,218.861 			"/>
			<polygon fill="#E45929" points="157.529,218.861 155.592,218.861 155.592,239.23 155.592,241.298 157.529,241.298 			"/>
			<polygon fill="#E45929" points="155.592,213.478 155.592,216.423 157.529,216.423 157.529,206.173 155.592,206.173 
				155.592,211.476 			"/>
			<path fill="#DD552B" d="M160.842,205.298v-2h-1.375v-9.938v-0.312c-1.627,0-3.17,3.224-3.69,4.831
				c-0.12,0.37-0.185,0.653-0.185,0.794c0,0.75,0,4.625,0,4.625h-1.375v2H160.842z"/>
			<polygon fill="#CD4C28" points="157.529,206.173 159.467,206.173 160.842,206.173 160.842,205.298 154.217,205.298 
				154.217,206.173 155.592,206.173 			"/>
			<polygon fill="#F47855" points="160.561,218.236 160.561,216.423 159.467,216.423 157.529,216.423 155.592,216.423 
				154.498,216.423 154.498,218.236 			"/>
			<polygon fill="#DD552B" points="157.529,218.861 159.467,218.861 160.561,218.861 160.561,218.236 154.498,218.236 
				154.498,218.861 155.592,218.861 			"/>
			<polygon fill="#F37042" points="167.904,218.861 167.904,241.298 169.842,241.298 169.842,241.067 169.842,218.861 			"/>
			<rect x="167.904" y="206.173" fill="#F37042" width="1.938" height="10.25"/>
			<rect x="165.967" y="206.173" fill="#E45929" width="1.938" height="10.25"/>
			<polygon fill="#E45929" points="167.904,218.861 165.967,218.861 165.967,241.067 165.967,241.298 167.904,241.298 			"/>
			<path fill="#DD552B" d="M171.217,203.298h-1.375v-9.938v-0.312c-2,0-3.875,4.875-3.875,5.625s0,4.625,0,4.625h-1.375v2h6.625
				V203.298z"/>
			<polygon fill="#CD4C28" points="169.842,206.173 171.217,206.173 171.217,205.298 164.592,205.298 164.592,206.173 
				165.967,206.173 167.904,206.173 			"/>
			<polygon fill="#F47855" points="170.936,218.236 170.936,216.423 169.842,216.423 167.904,216.423 165.967,216.423 
				164.873,216.423 164.873,218.236 			"/>
			<polygon fill="#DD552B" points="169.842,218.861 170.936,218.861 170.936,218.236 164.873,218.236 164.873,218.861 
				165.967,218.861 167.904,218.861 			"/>
		</g>
	</g>
	<path class="sea" data-transform-path="M1028.303,331.106c-6.129,0.918-10.64-3.54-10.64-3.54c-4.201,6.177-11.466,8.233-11.466,8.233     c-6.128,1.438-10.642-3.052-10.642-3.052c-4.201,5.915-11.017,6.92-11.017,6.92c-6.13,0.514-10.19-5.305-10.19-5.305     c-4.2,4.812-11.466,3.761-11.466,3.761c-6.129-1.158-10.639-7.752-10.639-7.752c-4.201,4.115-11.464,2.771-11.464,2.771     c-6.129-1.355-10.642-7.646-10.642-7.646c-4.201,4.596-11.463,4.628-11.463,4.628c-6.129-0.072-10.64-6.385-10.64-6.385     c-4.201,4.493-11.464,3.397-11.464,3.397c-6.129-1.352-10.64-8.177-10.64-8.177c-4.201,4.146-11.466,3.193-11.466,3.193     c-6.128-1.165-10.639-7.35-10.639-7.35c-4.202,4.856-11.464,5.796-11.464,5.796c-6.129,0.534-10.638-4.279-10.638-4.279     c-4.201,6.052-11.467,8.296-11.467,8.296c-6.129,1.445-10.637-3.116-10.637-3.116c-4.201,6.082-11.464,7.748-11.464,7.748     c-6.128,0.875-10.642-4.705-10.642-4.705c-0.008,1.288-0.01,1.936-0.018,3.224c0.004-1.288,0.004-1.935,0.008-3.223     c-4.201,5.169-11.465,6.545-11.465,6.545c-6.129,0.913-10.639-3.544-10.639-3.544c-4.201,6.176-11.468,8.232-11.468,8.232     c-6.128,1.439-10.638-3.049-10.638-3.049c-4.201,5.918-11.019,6.93-11.019,6.93c-6.13,0.52-10.188-5.289-10.188-5.289     c-4.201,4.817-11.466,3.77-11.466,3.77c-6.129-1.154-10.643-7.744-10.643-7.744c-4.201,4.116-11.464,2.768-11.464,2.768     c-6.129-1.358-10.64-7.654-10.64-7.654c-4.201,4.592-11.465,4.616-11.465,4.616c-6.129-0.08-10.637-6.372-10.637-6.372     c-4.201,4.498-11.466,3.406-11.466,3.406c-6.129-1.35-10.639-8.178-10.639-8.178c-4.201,4.145-11.467,3.19-11.467,3.19     c-6.128-1.169-10.639-7.359-10.639-7.359c-4.202,4.853-11.462,5.782-11.462,5.782c-6.129,0.527-10.64-4.29-10.64-4.29     c-4.201,6.049-11.465,8.291-11.465,8.291c-6.129,1.444-10.639-3.117-10.639-3.117c-4.201,6.084-11.468,7.757-11.468,7.757     c-6.128,0.881-10.637-4.69-10.637-4.69c-4.201,5.175-11.466,6.531-11.466,6.531c-6.129,0.907-10.638-3.553-10.638-3.553     c-4.201,6.174-11.468,8.231-11.468,8.231c-6.128,1.44-10.641-3.044-10.641-3.044c-4.201,5.921-11.018,6.942-11.018,6.942     c-6.13,0.527-10.191-5.274-10.191-5.274c-4.201,4.824-11.465,3.778-11.465,3.778c-6.129-1.15-10.639-7.737-10.639-7.737     c-4.201,4.116-11.468,2.766-11.468,2.766c-6.129-1.36-10.637-7.66-10.637-7.66c-4.201,4.588-11.465,4.601-11.465,4.601     c-6.129-0.089-10.636-6.36-10.636-6.36c-4.201,4.502-11.464,3.413-11.464,3.413c-6.129-1.347-10.64-8.172-10.64-8.172     c-4.201,4.144-11.466,3.186-11.466,3.186c-6.128-1.173-10.637-7.371-10.637-7.371c-4.202,4.848-11.466,5.766-11.466,5.766     c-6.129,0.52-10.636-4.301-10.636-4.301c-4.202,6.046-11.468,8.287-11.468,8.287c-6.129,1.444-10.639-3.117-10.639-3.117     c-4.201,6.087-11.467,7.766-11.467,7.766c-6.128,0.887-10.64-4.678-10.64-4.678c-4.201,5.181-11.463,6.516-11.463,6.516     c-6.129,0.901-10.642-3.559-10.642-3.559c-4.201,6.173-11.467,8.229-11.467,8.229c-6.128,1.441-10.642-3.04-10.642-3.04     c-4.201,5.925-11.014,6.952-11.014,6.952c-6.13,0.535-10.193-5.257-10.193-5.257c-4.201,4.83-11.466,3.791-11.466,3.791     c-6.129-1.146-10.639-7.732-10.639-7.732c-4.201,4.116-11.465,2.764-11.465,2.764c-6.129-1.362-10.64-7.667-10.64-7.667     c-4.201,4.584-11.464,4.587-11.464,4.587c-6.129-0.099-10.637-6.348-10.637-6.348c-4.201,4.507-11.464,3.423-11.464,3.423     c-6.129-1.345-10.642-8.173-10.642-8.173c-4.201,4.143-11.466,3.182-11.466,3.182c-6.128-1.178-10.639-7.383-10.639-7.383     c-4.202,4.843-11.464,5.749-11.464,5.749c-6.129,0.512-10.638-4.311-10.638-4.311c-4.201,6.043-11.466,8.282-11.466,8.282     c-6.129,1.443-10.638-3.118-10.638-3.118c-4.201,6.089-11.466,7.773-11.466,7.773c-6.128,0.893-10.64-4.66-10.64-4.66     c-0.13,22.34-0.262,44.679-0.39,67.019c80.75,0,161.501,0,242.252,0c0.081,0,0.12,0,0.201,0c80.683,0,161.366,0,242.049,0     c0.081,0,0.12,0,0.201,0c80.686,0,161.37,0,242.056,0c0.077,0,0.116,0,0.193,0c80.753,0,161.507,0,242.26,0     c0.063-22.34,0.124-44.679,0.188-67.019C1035.566,329.708,1028.303,331.106,1028.303,331.106z" fill="#009B97" 
		d="M1028.303,329.142c-6.129-0.918-10.64-7.619-10.64-7.619c-4.201,4.152-11.466,2.922-11.466,2.922     c-6.128-1.439-10.642-8.104-10.642-8.104c-4.201,4.414-11.017,4.236-11.017,4.236c-6.13-0.514-10.19-5.852-10.19-5.852     c-4.2,5.516-11.466,7.396-11.466,7.396c-6.129,1.158-10.639-3.404-10.639-3.404c-4.201,6.213-11.464,8.387-11.464,8.387     c-6.129,1.355-10.642-3.512-10.642-3.512c-4.201,5.732-11.463,6.529-11.463,6.529c-6.129,0.072-10.64-4.773-10.64-4.773     c-4.201,5.836-11.464,7.758-11.464,7.758c-6.129,1.352-10.64-2.979-10.64-2.979c-4.201,6.184-11.466,7.961-11.466,7.961     c-6.128,1.166-10.639-3.805-10.639-3.805c-4.202,5.473-11.464,5.359-11.464,5.359c-6.129-0.535-10.638-6.875-10.638-6.875     c-4.201,4.275-11.467,2.859-11.467,2.859c-6.129-1.445-10.637-8.039-10.637-8.039c-4.201,4.246-11.464,3.408-11.464,3.408     c-6.128-0.875-10.642-6.453-10.642-6.453c-0.008,1.289-0.01,1.936-0.018,3.225c0.004-1.289,0.004-1.936,0.008-3.225     c-4.201,5.158-11.465,4.611-11.465,4.611c-6.129-0.914-10.639-7.611-10.639-7.611c-4.201,4.152-11.468,2.922-11.468,2.922     c-6.128-1.439-10.638-8.105-10.638-8.105c-4.201,4.41-11.019,4.225-11.019,4.225c-6.13-0.52-10.188-5.865-10.188-5.865     c-4.201,5.51-11.466,7.387-11.466,7.387c-6.129,1.154-10.643-3.412-10.643-3.412c-4.201,6.213-11.464,8.389-11.464,8.389     c-6.129,1.357-10.64-3.502-10.64-3.502c-4.201,5.736-11.465,6.539-11.465,6.539c-6.129,0.08-10.637-4.783-10.637-4.783     c-4.201,5.83-11.466,7.748-11.466,7.748c-6.129,1.35-10.639-2.977-10.639-2.977c-4.201,6.184-11.467,7.967-11.467,7.967     c-6.128,1.17-10.639-3.799-10.639-3.799c-4.202,5.477-11.462,5.375-11.462,5.375c-6.129-0.527-10.64-6.867-10.64-6.867     c-4.201,4.279-11.465,2.865-11.465,2.865c-6.129-1.443-10.639-8.039-10.639-8.039c-4.201,4.244-11.468,3.4-11.468,3.4     c-6.128-0.881-10.637-6.467-10.637-6.467c-4.201,5.154-11.466,4.625-11.466,4.625c-6.129-0.906-10.638-7.604-10.638-7.604     c-4.201,4.154-11.468,2.924-11.468,2.924c-6.128-1.441-10.641-8.111-10.641-8.111c-4.201,4.408-11.018,4.217-11.018,4.217     c-6.13-0.527-10.191-5.883-10.191-5.883c-4.201,5.504-11.465,7.375-11.465,7.375c-6.129,1.15-10.639-3.418-10.639-3.418     c-4.201,6.213-11.468,8.391-11.468,8.391c-6.129,1.361-10.637-3.494-10.637-3.494c-4.201,5.74-11.465,6.555-11.465,6.555     c-6.129,0.09-10.636-4.797-10.636-4.797c-4.201,5.826-11.464,7.742-11.464,7.742c-6.129,1.346-10.64-2.982-10.64-2.982     c-4.201,6.186-11.466,7.973-11.466,7.973c-6.128,1.172-10.637-3.787-10.637-3.787c-4.202,5.482-11.466,5.391-11.466,5.391     c-6.129-0.52-10.636-6.855-10.636-6.855c-4.202,4.281-11.468,2.871-11.468,2.871c-6.129-1.445-10.639-8.041-10.639-8.041     c-4.201,4.24-11.467,3.391-11.467,3.391c-6.128-0.887-10.64-6.479-10.64-6.479c-4.201,5.146-11.463,4.451-11.463,4.451     c-6.129-1.082-10.642-8-10.642-8c-4.201,3.955-11.467,2.395-11.467,2.395c-6.128-1.73-10.642-8.623-10.642-8.623     c-4.201,4.252-11.014,3.93-11.014,3.93c-6.13-0.641-10.193-5.961-10.193-5.961c-4.201,5.564-11.466,7.721-11.466,7.721     c-6.129,1.375-10.639-2.992-10.639-2.992c-4.201,6.422-11.465,8.957-11.465,8.957c-6.129,1.635-10.64-3.074-10.64-3.074     c-4.201,5.859-11.464,6.768-11.464,6.768c-6.129,0.119-10.637-4.807-10.637-4.807c-4.201,5.82-11.464,7.734-11.464,7.734     c-6.129,1.346-10.642-2.984-10.642-2.984c-4.201,6.186-11.466,7.977-11.466,7.977c-6.128,1.178-10.639-3.777-10.639-3.777     c-4.202,5.486-11.464,5.41-11.464,5.41c-6.129-0.512-10.638-6.848-10.638-6.848c-4.201,4.285-11.466,2.877-11.466,2.877     c-6.129-1.443-10.638-8.041-10.638-8.041c-4.201,4.24-11.466,3.381-11.466,3.381c-6.128-0.893-10.64-6.494-10.64-6.494     c-0.13,22.34-0.262,44.68-0.39,67.02c80.75,0,161.501,0,242.252,0c0.081,0,0.12,0,0.201,0c80.683,0,161.366,0,242.049,0     c0.081,0,0.12,0,0.201,0c80.686,0,161.37,0,242.056,0c0.077,0,0.116,0,0.193,0c80.753,0,161.507,0,242.26,0     c0.063-22.34,0.124-44.68,0.188-67.02C1035.566,329.708,1028.303,329.142,1028.303,329.142z"/>
</g>
<g xmlns="http://www.w3.org/2000/svg">
	<path class="path-to-follow" fill="#F37042" d="M297.708,88.754c0.438,0.101,0.877,0.191,1.313,0.294c0.063-9.292,0.109-18.583,0.135-27.874   c0-0.113,0-0.227,0-0.34c0.007-2.411,0.011-4.824,0.013-7.236c0.001-0.902,0.001-1.807,0.001-2.71   c-0.002-2.793-0.007-5.587-0.026-8.38c-0.016-2.148,0.021-4.314-0.122-6.461c-1.133-0.04-2.271-0.24-3.39-0.401   c-22.173-3.2-44.885-8.005-67.386-6.203c-16.046,1.284-31.805,4.962-47.744,7.083c-13.853,1.844-27.469,1.957-41.359,0.707   c-19.648-1.766-39.227-4.617-58.686-7.834c-0.367-0.061-0.735-0.123-1.103-0.184c0,4.6,0,9.199,0,13.799v25.168V78.23   c0,0.545-0.012,0.936,0,1.229c0.021,0.531,0.126,0.728,0.528,0.853c0.327,0.102,0.85,0.158,1.695,0.313   c0.032,0.006,0.064,0.011,0.097,0.018c2.402,0.439,4.807,0.866,7.212,1.29c0.134,0.024,0.269,0.049,0.403,0.072   c9.395,1.653,18.812,3.188,28.248,4.573c12.309,1.807,24.766,3.629,37.22,3.946c11.732,0.298,23.559-1.513,35.155-3.065   c27.639-3.697,54.018-7.717,81.868-3.593c5.969,0.883,11.921,1.934,17.839,3.139c1.508,0.306,2.874,0.592,4.066,0.847   C295.03,88.145,296.37,88.443,297.708,88.754z"/>
	<path fill="#D54D28" d="M299.169,49.948c0,0.309,0,0.626,0.001,0.939c0,0.903,0,1.808-0.001,2.71   c-0.001,2.34-0.006,4.78-0.013,7.236c0,0.113,0,0.227,0,0.34c-0.037,13.731-0.135,27.874-0.135,27.874   c-0.437-0.103-0.876-0.193-1.313-0.294l-8.889,13.547l29.585-0.616V49.621L299.169,49.948z"/>
	<path fill="#9B3821" d="M293.688,87.853c-1.192-0.255-2.559-0.541-4.066-0.847c-0.553-0.111-1.121-0.225-1.712-0.342l0.495,16.271   l0.415-0.634l8.889-13.547C296.37,88.443,295.03,88.145,293.688,87.853z"/>
	<path fill="#D54D28" d="M79.354,79.46c-0.012-0.294,0-0.685,0-1.229V68.182V43.014l-20.063-0.34v52.062l30,0.625l-6.625-10.099   l-3.312-5.049V79.46z"/>
	<path fill="#9B3821" d="M81.675,80.644c-0.033-0.007-0.065-0.012-0.097-0.018c-0.846-0.155-1.368-0.212-1.695-0.313   c-0.144-0.027-0.266-0.049-0.351-0.065c-0.117-0.021-0.177-0.033-0.177-0.033h-0.001l3.312,5.049l6.625,10.098V82.006   c-0.135-0.023-0.269-0.048-0.403-0.072C85.811,81.395,83.332,80.946,81.675,80.644z"/>
</g>
<g xmlns="http://www.w3.org/2000/svg">
	<path fill="#FFFFFF" d="M150.26,78.683c-0.202-0.03-0.393,0.102-0.573,0.396c-0.752,1.058-1.828,1.793-3.229,2.205   c-1.401,0.412-2.819,0.514-4.255,0.303c-2.489-0.367-4.239-2.411-5.249-6.134c-0.341-1.265-0.604-2.626-0.791-4.085   s-0.266-2.439-0.237-2.939c0.027-0.5,0.057-0.855,0.088-1.069c0.031-0.213,0.074-0.351,0.13-0.411   c3.062-0.309,7.017-1.857,11.838-4.612c0.044,0.151,0.11,0.294,0.213,0.423c0.221,0.276,0.524,0.418,0.909,0.426   c0.386,0.008,0.739-0.121,1.062-0.387c0.322-0.266,0.521-0.59,0.598-0.974s-0.003-0.714-0.235-0.991   c-0.005-0.006-0.011-0.007-0.016-0.012c4.396-2.785,8.007-5.887,10.823-9.309c0.196-0.246,0.307-0.447,0.329-0.604   c0.023-0.157,0-0.274-0.068-0.354c-0.068-0.078-0.136-0.123-0.203-0.133c-0.202-0.029-0.48,0.148-0.834,0.531   c-2.004,2.248-4.445,4.403-7.326,6.465c-2.881,2.062-5.597,3.702-8.146,4.919c-2.551,1.218-4.802,2.152-6.753,2.804   c-1.952,0.653-3.265,0.93-3.937,0.83c-0.046-0.006-0.079-0.012-0.102-0.015c-0.189,0.041-0.322,0.325-0.4,0.853   c-0.077,0.527-0.13,1.04-0.157,1.54c-0.028,0.5-0.03,1.142-0.008,1.923c0.212,4.477,1.402,7.904,3.572,10.285   c1.242,1.374,2.658,2.179,4.251,2.413c1.592,0.233,3.215-0.015,4.869-0.745c1.653-0.73,2.874-1.668,3.661-2.812   C150.403,78.954,150.462,78.712,150.26,78.683z"/>
	<path fill="#FFFFFF" d="M141.478,52.646c1.57,0.071,2.762-0.166,3.575-0.711c0.481-0.318,0.745-0.624,0.788-0.915   c0.042-0.291-0.005-0.596-0.141-0.914c-0.137-0.318-0.379-0.503-0.727-0.554c-0.348-0.052-0.714-0.054-1.099-0.007   s-0.875,0.341-1.47,0.883c-0.596,0.543-1.048,1.01-1.357,1.398c-0.433-0.018-1.436-0.091-3.009-0.219   c-1.574-0.129-2.976-0.215-4.206-0.258c-4.055-0.161-7.252,0.389-9.59,1.647c-2.532,1.323-3.977,3.207-4.336,5.651   c-0.254,1.727,0.145,3.217,1.198,4.472c0.778,0.939,1.728,1.491,2.849,1.656c0.65,0.096,1.366,0.063,2.145-0.097   c1.277-0.27,2.356-1.062,3.236-2.377c0.548-0.766,0.869-1.47,0.963-2.109c0.094-0.639,0.075-1.209-0.058-1.709   c-0.098-0.266-0.234-0.436-0.406-0.506c-0.113-0.018-0.165,0.102-0.155,0.354c0.008,0.254-0.032,0.683-0.121,1.288   c-0.089,0.605-0.381,1.342-0.875,2.209c-1.021,1.797-2.451,2.561-4.289,2.289c-1.458-0.214-2.323-1.108-2.595-2.684   c-0.098-0.587-0.103-1.172-0.017-1.756c0.162-1.098,0.642-2.185,1.442-3.258c1.656-2.23,4.083-3.547,7.282-3.947   c1.706-0.229,4.046-0.252,7.02-0.066c1.612,0.1,2.59,0.152,2.933,0.156c-1.426,2.059-3.109,4.629-5.052,7.711   s-3.279,5.119-4.009,6.111c-0.73,0.992-1.7,2.127-2.907,3.404c-1.208,1.277-2.43,2.347-3.667,3.207   c-1.238,0.86-2.726,1.627-4.462,2.299c-1.737,0.672-3.557,1.086-5.458,1.242c-0.654,0.086-1.397,0.069-2.226-0.053   c-0.83-0.122-1.866-0.4-3.107-0.836c-1.809-0.633-3.292-1.767-4.448-3.402c-0.953-1.309-1.294-2.883-1.024-4.722   c0.264-1.794,0.978-3.224,2.143-4.29c0.897-0.807,1.634-1.294,2.208-1.462c0.145-0.048,0.225-0.127,0.241-0.239   c0.026-0.18-0.11-0.268-0.407-0.267c-0.571-0.015-1.345,0.301-2.322,0.947c-0.978,0.647-1.667,1.444-2.07,2.394   s-0.673,1.889-0.81,2.818c-0.137,0.932-0.095,1.895,0.125,2.889c0.733,3.27,3.083,5.677,7.048,7.223   c1.084,0.411,2.104,0.688,3.057,0.828c0.953,0.14,1.83,0.211,2.631,0.215c2.475-0.003,4.759-0.463,6.853-1.381   s3.839-2.076,5.236-3.474c1.396-1.397,2.76-3.07,4.089-5.018c1.328-1.946,2.433-3.806,3.312-5.578   C137.845,58.264,139.859,54.769,141.478,52.646z M143.745,50.661c0.289-0.176,0.558-0.245,0.805-0.209   c0.201,0.029,0.284,0.168,0.248,0.414c-0.053,0.359-0.403,0.641-1.052,0.843c-0.363,0.13-0.876,0.192-1.54,0.186   C142.943,51.247,143.456,50.836,143.745,50.661z"/>
	<path fill="#FFFFFF" d="M144.481,71.491c-0.31,0.72-0.47,1.385-0.482,1.997c-0.012,0.612,0.158,1.171,0.511,1.677   c0.352,0.506,0.941,0.768,1.77,0.783c0.827,0.018,1.716-0.498,2.666-1.544c0.348-0.378,0.738-0.921,1.173-1.626   c0.433-0.705,0.727-1.215,0.881-1.529c0.153-0.314,0.324-0.668,0.515-1.061c0.188-0.393,0.284-0.641,0.286-0.742   c0.003-0.103-0.019-0.176-0.063-0.223c-0.155-0.14-0.316-0.041-0.481,0.296c-1.344,2.558-2.444,4.247-3.299,5.069   c-0.484,0.42-0.942,0.627-1.373,0.617c-0.702-0.014-1.047-0.35-1.034-1.006c0.013-0.59,0.219-1.3,0.621-2.131l2.848-6.302   c0.234-0.403,0.309-0.702,0.223-0.896c-0.087-0.194-0.392-0.297-0.912-0.308l-1.87-0.004c0.265,0.369,0.395,0.666,0.39,0.893   s-0.031,0.407-0.079,0.543L144.481,71.491z"/>
	<path fill="#FFFFFF" d="M186.333,65.169c-0.112,0.018-0.182,0.086-0.209,0.205c-0.844,2.539-1.455,4.137-1.835,4.793   c-0.71,1.188-1.513,1.853-2.408,1.992c-0.112,0.018-0.317,0.026-0.615,0.026c0.579-0.549,1.049-1.218,1.408-2.009   c0.358-0.789,0.48-1.554,0.365-2.293s-0.521-1.65-1.217-2.735c-0.297-0.436-0.566-0.841-0.809-1.216s-0.411-0.877-0.509-1.504   c-0.185-1.188,0.075-2.02,0.781-2.496c0.124-0.088,0.275-0.146,0.455-0.174c0.179-0.027,0.399-0.005,0.664,0.068   c0.264,0.074,0.421,0.016,0.472-0.176c0.05-0.191-0.087-0.336-0.412-0.436c-0.325-0.098-0.645-0.123-0.958-0.074   c-1.188,0.185-2.08,1.299-2.68,3.342c-0.36,1.259-0.786,2.636-1.267,4.111c-0.031-0.002-0.055-0.019-0.094-0.005   c-0.154,0.053-0.256,0.151-0.308,0.294c-0.051,0.143-0.15,0.458-0.298,0.943c-0.117,0.389-0.266,0.788-0.418,1.188   c-0.154,0.128-0.296,0.305-0.421,0.546c-0.155,0.299-0.214,0.595-0.229,0.888c-0.1,0.189-0.193,0.373-0.311,0.576   c-0.369,0.638-1.026,1.39-1.972,2.257c0.264-1.79,0.314-3.364,0.15-4.727c-0.164-1.361-0.397-2.538-0.699-3.528   c-0.102,0.104-0.309,0.186-0.621,0.246s-0.589,0.185-0.828,0.373c-0.24,0.189-0.413,0.598-0.52,1.227   c-0.107,0.63-0.428,1.53-0.96,2.701c-0.532,1.172-1.144,2.158-1.835,2.961s-1.296,1.234-1.813,1.297   c-0.157,0.02-0.319,0.004-0.484-0.045c-0.48-0.193-0.764-0.655-0.852-1.387c-0.088-0.73,0.158-1.816,0.738-3.256   c0.478-1.154,1.075-2.254,1.794-3.299c1.285-1.844,2.523-2.838,3.717-2.981c0.652-0.079,1.175,0.281,1.568,1.078   c0.061,0.13,0.173,0.259,0.337,0.388s0.303,0.09,0.414-0.119c0.112-0.207,0.156-0.412,0.132-0.614s-0.234-0.429-0.63-0.678   c-1.049-0.559-2.079-0.776-3.092-0.655c-0.384,0.047-0.759,0.148-1.128,0.307c-1.377,0.509-2.519,1.457-3.425,2.844   c-0.685,1.055-1.199,2.055-1.561,3.004c-0.033-0.029-0.066-0.059-0.117-0.08c-0.14-0.06-0.269,0.073-0.385,0.398   c-1.706,4.033-3.136,6.084-4.29,6.155c-0.43,0.026-0.663-0.255-0.699-0.843c-0.091-1.494,1.105-4.769,3.589-9.826   c-0.116-0.037-0.241-0.053-0.377-0.045c-0.565,0.035-1.438,0.424-2.62,1.166c-1.181,0.742-2.183,1.529-3.006,2.363   s-1.727,1.939-2.71,3.316c1.668-3.916,2.906-6.127,3.716-6.631c-0.178,0.057-0.456,0.062-0.833,0.018   c-0.378-0.046-0.612-0.065-0.702-0.061c-0.475,0.029-0.84,0.188-1.095,0.477c-0.554,0.602-1.659,2.94-3.318,7.016   c-0.926,2.305-1.548,3.83-1.865,4.576c0.152-0.1,0.478-0.178,0.974-0.229c0.496-0.054,0.827-0.114,0.993-0.181   c0.167-0.066,0.311-0.217,0.433-0.451c1.333-3.08,2.769-5.416,4.307-7.009c1.023-1.085,1.727-1.638,2.112-1.662   c0.384-0.023,0.584,0.083,0.599,0.321c0.015,0.237-0.091,0.567-0.314,0.99c-0.918,1.691-1.469,2.906-1.65,3.644   c-0.183,0.737-0.258,1.36-0.227,1.87c0.031,0.509,0.169,0.904,0.413,1.184c0.469,0.607,1.115,0.886,1.941,0.836   c0.826-0.051,1.624-0.56,2.394-1.526c0.65-0.817,1.403-2.188,2.256-4.099c-0.132,0.713-0.169,1.395-0.091,2.038   c0.173,1.44,0.875,2.338,2.104,2.692c1.326,0.205,2.544-0.58,3.654-2.357c0.94-1.483,1.648-2.904,2.124-4.264   c0.069,0.197,0.129,0.499,0.178,0.904c0.243,2.025,0.176,3.929-0.204,5.709c-0.513,0.289-1.343,0.697-2.489,1.225   c-2.485,1.166-4.502,2.334-6.051,3.502c-1.819,1.383-2.643,2.795-2.47,4.235c0.209,1.732,1.371,2.472,3.486,2.218   c1.53-0.185,3.003-0.944,4.417-2.279c1.415-1.334,2.543-2.817,3.386-4.447c0.843-1.632,1.442-3.245,1.798-4.84   c1.083-0.679,1.901-1.514,2.455-2.505c0.068-0.122,0.143-0.28,0.214-0.421c0.034,0.121,0.069,0.243,0.11,0.346   c0.531,1.203,1.591,1.68,3.182,1.433c0.403-0.063,0.845-0.247,1.325-0.55c0.818,0.102,1.621-0.047,2.408-0.444   c0.491-0.236,0.896-0.575,1.219-1.015l0.591-0.85c0.192-0.236,0.373-0.551,0.541-0.944c0.168-0.393,0.306-0.724,0.413-0.993   s0.23-0.621,0.369-1.055c0.139-0.436,0.236-0.766,0.293-0.992s0.119-0.454,0.187-0.684c0.067-0.228,0.098-0.364,0.091-0.409   C186.645,65.179,186.531,65.116,186.333,65.169z M169.464,79.487c-0.927,1.596-1.807,2.82-2.64,3.674   c-0.491,0.471-1.125,0.945-1.899,1.428c-0.776,0.48-1.489,0.762-2.143,0.84c-1.103,0.133-1.705-0.229-1.809-1.084   c-0.029-0.248-0.008-0.547,0.063-0.897c0.207-1.121,0.798-2.095,1.771-2.919c1.326-1.119,3.672-2.496,7.037-4.135l1.132-0.547   C170.66,77.003,170.155,78.217,169.464,79.487z M178.911,72.759c-0.649,0.101-1.11-0.137-1.384-0.715   c-0.047-0.152-0.081-0.297-0.102-0.432c-0.073-0.47,0.061-0.938,0.401-1.404c0.248,1.155,0.826,1.926,1.735,2.312   C179.396,72.638,179.181,72.716,178.911,72.759z M180.087,72.128c-1.011-0.301-1.618-1.113-1.824-2.435   c-0.104-0.672-0.392-0.972-0.862-0.897c0.288-0.803,1.019-3.037,2.191-6.707c0.002,0.16,0.036,0.453,0.102,0.879   c0.066,0.426,0.271,1.23,0.617,2.416c0.345,1.186,0.571,2.125,0.68,2.818C181.255,69.905,180.953,71.214,180.087,72.128z"/>
	<path fill="#FFFFFF" d="M223.336,70.907c-0.801-1.562-2.037-2.785-3.709-3.668c-3.291-1.729-7.243-2.756-11.854-3.082l0.505-1.262   c0.413-1.198,1.062-3.289,1.946-6.273c2.297-0.813,4.42-2.2,6.369-4.161c1.948-1.96,3.368-4.111,4.262-6.452   c0.893-2.341,1.171-4.482,0.833-6.425c-0.043-0.246-0.099-0.501-0.168-0.766c-0.153-0.617-0.574-1.09-1.265-1.419   c-0.689-0.329-1.375-0.435-2.056-0.315c-0.682,0.118-1.354,0.385-2.019,0.799c-2.522,1.635-4.328,5.147-5.416,10.536l-1.601,7.662   c-0.547,0.165-1.15,0.305-1.809,0.418c-0.659,0.115-1.45,0.127-2.375,0.033c-0.926-0.092-1.697-0.4-2.318-0.926   c-0.62-0.523-1.06-1.062-1.316-1.617c-0.257-0.553-0.421-1.036-0.493-1.449s-0.079-0.854-0.023-1.324   c0.229-1.996,0.978-3.575,2.248-4.739c0.732-0.68,1.569-1.158,2.511-1.438c0.282-0.095,0.527-0.207,0.735-0.335   s0.279-0.243,0.216-0.349c-0.064-0.104-0.196-0.138-0.397-0.104c-0.201,0.035-0.441,0.111-0.72,0.229   c-1.758,0.743-3.162,1.631-4.213,2.665c-1.051,1.033-1.68,1.982-1.887,2.847c-0.206,0.864-0.249,1.643-0.129,2.334   c0.229,1.318,0.904,2.42,2.024,3.307c0.854,0.68,1.925,1.149,3.213,1.408c1.287,0.26,2.635,0.268,4.041,0.023   c0.111-0.02,0.234-0.041,0.369-0.064c-0.863,2.979-1.66,5.339-2.394,7.076c-0.97-0.016-2.035,0.078-3.195,0.279   c-3.238,0.562-5.71,1.568-7.414,3.014c-1.508,1.252-2.151,2.514-1.93,3.787c0.221,1.273,1.022,2.111,2.404,2.516   c0.803,0.251,1.679,0.295,2.628,0.129c0.949-0.164,1.985-0.655,3.108-1.472c1.884-1.34,3.544-3.503,4.98-6.491   c1.915,0.036,3.45,0.098,4.604,0.184c1.154,0.088,2.542,0.33,4.164,0.727c1.621,0.396,2.922,0.895,3.9,1.496   c0.979,0.6,1.701,1.319,2.17,2.158c0.468,0.839,0.766,1.627,0.894,2.364c0.129,0.737,0.111,1.401-0.05,1.993   c-0.162,0.592-0.233,0.943-0.214,1.055s0.097,0.156,0.23,0.133s0.343-0.141,0.629-0.352c0.285-0.21,0.51-0.543,0.673-0.996   c0.162-0.454,0.191-0.982,0.086-1.586C224.012,72.412,223.752,71.71,223.336,70.907z M212.588,48.878   c0.782-2.448,1.672-4.575,2.669-6.382c1.285-2.271,2.497-3.506,3.636-3.703c0.781-0.137,1.246,0.221,1.394,1.068   c0.521,2.992-0.229,6.062-2.247,9.208c-2.019,3.146-4.52,5.336-7.503,6.566C211.121,53.579,211.806,51.326,212.588,48.878z    M201.351,71.485c-1.128,0.794-2.216,1.283-3.266,1.465c-0.76,0.133-1.489,0.069-2.189-0.189c-0.701-0.258-1.102-0.677-1.202-1.257   c-0.035-0.201-0.027-0.421,0.023-0.659c0.232-1.307,1.575-2.518,4.027-3.635c1.169-0.548,2.335-0.923,3.496-1.125   c1.161-0.201,2.311-0.274,3.447-0.219C204.494,68.397,203.049,70.271,201.351,71.485z"/>
	<path fill="#FFFFFF" d="M258.39,50.831c-0.347,0.232-0.576,0.537-0.688,0.912c-0.09,0.378-0.038,0.715,0.156,1.011   c0.193,0.296,0.481,0.468,0.864,0.512c0.383,0.045,0.747-0.05,1.094-0.283s0.576-0.537,0.688-0.912   c0.112-0.374,0.066-0.712-0.139-1.009c-0.205-0.298-0.499-0.469-0.881-0.514C259.101,50.503,258.736,50.597,258.39,50.831z"/>
	<path fill="#FFFFFF" d="M284.885,64.785c-0.163-0.005-0.293,0.05-0.392,0.166s-0.303,0.376-0.611,0.777   c-0.31,0.403-0.647,0.804-1.015,1.204c-0.366,0.399-0.835,0.833-1.405,1.299c-0.57,0.467-1.451,0.938-2.642,1.416   c0.879-1.581,1.482-3.037,1.811-4.369c0.328-1.331,0.525-2.514,0.594-3.548c-0.132,0.062-0.354,0.065-0.668,0.011   c-0.314-0.054-0.616-0.035-0.907,0.057s-0.598,0.413-0.92,0.965c-0.322,0.551-0.94,1.279-1.852,2.188   c-0.912,0.908-1.833,1.614-2.764,2.121c-0.93,0.506-1.647,0.697-2.154,0.572c-0.154-0.038-0.3-0.109-0.438-0.213   c-0.381-0.351-0.482-0.883-0.307-1.599s0.79-1.644,1.841-2.786c0.854-0.91,1.803-1.727,2.845-2.451   c1.854-1.271,3.363-1.763,4.53-1.476c0.638,0.157,1,0.679,1.086,1.563c0.012,0.143,0.07,0.303,0.179,0.481   c0.107,0.179,0.251,0.19,0.429,0.036c0.179-0.154,0.292-0.332,0.341-0.529c0.049-0.199-0.068-0.484-0.35-0.857   c-0.784-0.893-1.671-1.461-2.661-1.705c-0.375-0.092-0.763-0.129-1.163-0.111c-1.468-0.012-2.871,0.473-4.209,1.45   c-0.884,0.649-1.635,1.306-2.261,1.968c-0.087,0.039-0.185,0.135-0.294,0.305c-0.053,0.072-0.101,0.132-0.153,0.203   c-0.27,0.32-0.521,0.642-0.73,0.965c-2.131,2.729-3.7,4.012-4.704,3.839c-0.425-0.073-0.587-0.399-0.487-0.98   c0.254-1.475,2.17-4.388,5.747-8.74c-0.104-0.063-0.223-0.106-0.356-0.13c-0.559-0.097-1.498,0.082-2.817,0.533   s-2.477,0.988-3.469,1.611c-0.992,0.622-2.125,1.491-3.397,2.605c2.521-3.43,4.234-5.297,5.138-5.602   c-0.187,0.014-0.458-0.045-0.815-0.175c-0.356-0.13-0.58-0.203-0.669-0.219c-0.47-0.081-0.861-0.01-1.175,0.212   c-0.505,0.342-1.528,1.553-3.069,3.627c-0.097,0.026-0.2,0.123-0.314,0.308c-1.582,2.417-2.839,3.993-3.769,4.729   c-0.523,0.372-0.999,0.533-1.426,0.483c-0.698-0.081-1.009-0.448-0.933-1.102c0.068-0.585,0.342-1.272,0.822-2.061l3.438-6   c0.271-0.379,0.374-0.669,0.307-0.871s-0.36-0.333-0.878-0.394l-1.861-0.183c0.228,0.392,0.329,0.7,0.303,0.925   c-0.026,0.226-0.07,0.402-0.131,0.533l-1.421,2.661c-0.115,0.042-0.205,0.122-0.265,0.246c-0.063,0.133-0.132,0.266-0.207,0.397   c-1.944,3.467-3.448,5.172-4.513,5.119c-0.589-0.03-0.864-0.406-0.828-1.131c0.021-0.43,0.162-0.969,0.422-1.613   c0.677-1.736,2.575-5.182,5.693-10.336c2.449-4.03,3.946-6.27,4.491-6.719c-0.205,0.013-0.493-0.019-0.863-0.095   c-0.371-0.074-0.585-0.114-0.642-0.117s-0.215-0.011-0.475-0.023c-0.261-0.014-0.549,0.08-0.865,0.279   c-0.316,0.2-0.652,0.666-1.007,1.396c-1.21,2.413-2.658,5.03-4.343,7.851c-0.772-0.447-1.48-0.688-2.126-0.721   c-0.646-0.031-1.209,0.02-1.692,0.154c-1.333,0.318-2.491,1.01-3.475,2.072c-0.7,0.756-1.29,1.543-1.78,2.361   c-0.114-0.001-0.223,0.127-0.325,0.399c-1.759,4.011-3.215,6.044-4.37,6.099c-0.43,0.021-0.659-0.263-0.688-0.852   c-0.071-1.494,1.167-4.754,3.717-9.777c-0.116-0.04-0.241-0.057-0.377-0.051c-0.566,0.027-1.444,0.404-2.635,1.131   s-2.203,1.502-3.037,2.325s-1.752,1.917-2.752,3.28c1.719-3.895,2.985-6.088,3.802-6.582c-0.18,0.055-0.457,0.057-0.834,0.006   c-0.377-0.049-0.61-0.072-0.701-0.068c-0.475,0.023-0.842,0.178-1.101,0.462c-0.414,0.438-1.144,1.825-2.183,4.144   c-0.101,0.045-0.184,0.158-0.245,0.359c-0.169,0.482-0.342,0.943-0.518,1.383c-0.114,0.267-0.23,0.538-0.352,0.822   c-0.43,0.984-0.875,1.863-1.341,2.605c-0.538,0.862-1.021,1.318-1.448,1.368c-0.338,0.04-0.532-0.16-0.584-0.599   c-0.052-0.439-0.046-1.021,0.018-1.748s0.383-1.848,0.959-3.365c0.575-1.516,1.042-2.5,1.399-2.953   c-0.175,0.066-0.452,0.087-0.831,0.062c-0.38-0.023-0.614-0.03-0.704-0.02c-0.451,0.053-0.805,0.248-1.062,0.586   s-0.551,0.949-0.881,1.832c-1.698,4.398-3.224,6.676-4.574,6.834c-0.562,0.066-0.896-0.34-0.998-1.218s0.199-2.1,0.905-3.667   c0.556-1.297,1.187-2.443,1.892-3.438c1.238-1.696,2.342-2.603,3.311-2.716c0.832-0.098,1.42,0.244,1.763,1.026   c0.298,0.011,0.479-0.102,0.543-0.337c0.063-0.236-0.032-0.465-0.286-0.686c-0.805-0.637-1.725-0.895-2.76-0.772   c-0.384,0.044-0.782,0.148-1.196,0.312c-1.531,0.566-2.764,1.544-3.696,2.932c-1.647,2.498-2.342,4.85-2.084,7.056   c0.135,1.147,0.567,1.919,1.298,2.313c0.319,0.19,0.659,0.265,1.02,0.223c1.305-0.153,2.688-1.787,4.149-4.902   c-0.13,0.837-0.162,1.537-0.096,2.1c0.065,0.562,0.22,1.002,0.462,1.315c0.479,0.583,1.044,0.836,1.697,0.759   c0.469-0.055,0.947-0.365,1.435-0.886c-0.139,0.323-0.256,0.594-0.347,0.799c0.154-0.099,0.48-0.171,0.978-0.217   c0.496-0.047,0.829-0.103,0.996-0.167s0.312-0.214,0.438-0.447c1.373-3.061,2.839-5.379,4.397-6.951   c1.037-1.07,1.748-1.615,2.134-1.635c0.385-0.018,0.583,0.092,0.595,0.33c0.011,0.237-0.098,0.566-0.327,0.985   c-0.94,1.679-1.507,2.886-1.698,3.622c-0.191,0.735-0.275,1.357-0.25,1.867c0.024,0.509,0.156,0.906,0.397,1.189   c0.46,0.613,1.104,0.899,1.931,0.859c0.826-0.039,1.63-0.537,2.412-1.494c0.361-0.442,0.757-1.055,1.183-1.822   c-0.009,0.088-0.026,0.18-0.03,0.268c-0.074,1.472,0.437,2.383,1.531,2.732c0.245,0.08,0.498,0.127,0.759,0.141   c0.26,0.012,0.529-0.03,0.807-0.131c0.965-0.246,2.159-1.423,3.581-3.53c-0.136,0.447-0.217,0.937-0.244,1.469   c-0.026,0.532,0.128,1.079,0.463,1.64c0.334,0.562,0.808,0.857,1.419,0.889c1.179,0.059,2.392-0.738,3.638-2.379   c-0.019,0.1-0.04,0.199-0.052,0.297c-0.071,0.607,0.044,1.181,0.347,1.718c0.302,0.538,0.864,0.854,1.687,0.95   c0.549,0.064,1.152-0.127,1.802-0.53c-0.225,0.313-0.413,0.573-0.555,0.767c0.172-0.062,0.505-0.062,1,0   c0.495,0.062,0.832,0.079,1.009,0.053c0.177-0.027,0.352-0.141,0.524-0.342c2.004-2.691,3.938-4.635,5.799-5.832   c1.245-0.821,2.058-1.199,2.438-1.134s0.55,0.216,0.509,0.45c-0.04,0.234-0.218,0.531-0.532,0.891   c-1.282,1.436-2.097,2.492-2.442,3.168c-0.347,0.678-0.563,1.266-0.649,1.77c-0.087,0.502-0.044,0.918,0.13,1.246   c0.316,0.699,0.883,1.118,1.698,1.259c0.815,0.14,1.708-0.172,2.68-0.937c0.472-0.371,1.019-0.914,1.638-1.62   c-0.008,0.026-0.019,0.053-0.025,0.079c-0.347,1.409-0.008,2.496,1.018,3.263c1.168,0.661,2.585,0.356,4.252-0.915   c1.403-1.055,2.567-2.133,3.493-3.236c-0.005,0.209-0.057,0.512-0.153,0.908c-0.488,1.98-1.225,3.737-2.208,5.269   c-0.582,0.09-1.503,0.179-2.762,0.266c-2.737,0.213-5.036,0.593-6.897,1.138c-2.191,0.651-3.46,1.682-3.808,3.09   c-0.417,1.695,0.409,2.797,2.478,3.307c1.497,0.368,3.143,0.178,4.938-0.57c1.795-0.749,3.375-1.738,4.739-2.965   c1.364-1.229,2.495-2.526,3.392-3.893c1.253-0.252,2.313-0.744,3.183-1.475c0.868-0.732,2.033-1.98,3.495-3.744   c0.104-0.139,0.169-0.262,0.196-0.372C285.105,64.88,285.046,64.79,284.885,64.785z M246.182,61.565   c-1.212,1.527-2.202,2.271-2.972,2.233c-0.317-0.017-0.542-0.175-0.674-0.477c-0.133-0.302-0.189-0.634-0.171-0.995   c0.039-0.793,0.418-1.783,1.137-2.973c1.089-1.807,2.424-3.306,4.004-4.498c0.991-0.744,1.752-1.104,2.284-1.076   c0.531,0.027,0.938,0.195,1.217,0.504C249.002,57.61,247.394,60.038,246.182,61.565z M272.841,74.022   c-1.431,1.165-2.687,2-3.768,2.504c-0.626,0.267-1.387,0.487-2.282,0.664c-0.896,0.176-1.662,0.186-2.301,0.029   c-1.078-0.266-1.515-0.816-1.309-1.653c0.06-0.242,0.186-0.515,0.377-0.817c0.59-0.976,1.486-1.678,2.688-2.104   c1.636-0.577,4.317-1.038,8.044-1.382l1.253-0.111C274.838,72.121,273.937,73.079,272.841,74.022z"/>
</g>
</svg>
