<?xml version="1.0" encoding="utf-8"?>
<!-- Generator: Adobe Illustrator 16.0.0, SVG Export Plug-In . SVG Version: 6.00 Build 0)  -->
<!DOCTYPE svg PUBLIC "-//W3C//DTD SVG 1.1//EN" "http://www.w3.org/Graphics/SVG/1.1/DTD/svg11.dtd">
<svg version="1.1" id="Layer_3" xmlns="http://www.w3.org/2000/svg" xmlns:xlink="http://www.w3.org/1999/xlink" x="0px" y="0px"
	 width="379.311px" height="379.311px" viewBox="0 0 379.311 379.311" enable-background="new 0 0 379.311 379.311"
	 xml:space="preserve">
<g>
	<path fill="#FFF6E7" d="M379.621,189.552c0,104.744-84.911,189.655-189.655,189.655c-104.743,0-189.655-84.911-189.655-189.655
		S85.223-0.104,189.966-0.104C294.71-0.104,379.621,84.808,379.621,189.552"/>
	<path fill="#B2DFDB" d="M369.966,189.552c0,99.412-80.588,180-180,180c-99.411,0-180-80.588-180-180c0-99.411,80.589-180,180-180
		C289.378,9.552,369.966,90.141,369.966,189.552"/>
</g>
<g>
	<defs>
		<path id="SVGID_1_" d="M369.966,189.552c0,99.412-80.588,180-180,180c-99.411,0-180-80.588-180-180c0-99.411,80.589-180,180-180
			C289.378,9.552,369.966,90.141,369.966,189.552"/>
	</defs>
	<clipPath id="SVGID_2_">
		<use xlink:href="#SVGID_1_"  overflow="visible"/>
	</clipPath>
	<g clip-path="url(#SVGID_2_)">
		<path fill="#FFFFFF" d="M181.604,124.864h-1.498c0.048-1.244,0.009-3.239-0.576-4.729c-0.912-2.322-3.152-3.649-4.812-3.898
			c-1.295-0.193-4.299-0.085-5.561-0.027c-0.837-4.137-4.84-7.273-9.662-7.273c-5.271,0-9.561,3.748-9.807,8.451
			c-1.267,0.027-2.457,0.035-3.509,0.012c-6.357,1.676-6.126,6.105-5.894,7.466h-1.822c-0.641,0-1.161,0.521-1.161,1.161
			c0,0.643,0.521,1.162,1.161,1.162h43.141c0.642,0,1.161-0.52,1.161-1.162C182.765,125.385,182.245,124.864,181.604,124.864"/>
		<path fill="#FFFFFF" d="M97.221,155.128h-1.006c0.032-0.835,0.006-2.175-0.387-3.174c-0.612-1.56-2.116-2.45-3.23-2.618
			c-0.869-0.13-2.886-0.057-3.733-0.018c-0.561-2.777-3.247-4.883-6.485-4.883c-3.538,0-6.417,2.516-6.582,5.674
			c-0.851,0.018-1.649,0.021-2.355,0.006c-4.268,1.127-4.112,4.1-3.956,5.013h-1.224c-0.43,0-0.779,0.349-0.779,0.778
			c0,0.432,0.35,0.781,0.779,0.781h28.959c0.431,0,0.779-0.35,0.779-0.781C98,155.477,97.651,155.128,97.221,155.128"/>
		<path fill="#FFFFFF" d="M223.513,146.128h-1.006c0.032-0.835,0.006-2.175-0.387-3.174c-0.612-1.56-2.116-2.45-3.23-2.618
			c-0.869-0.13-2.886-0.057-3.733-0.018c-0.561-2.777-3.248-4.883-6.485-4.883c-3.538,0-6.417,2.516-6.582,5.674
			c-0.851,0.018-1.649,0.021-2.355,0.006c-4.268,1.127-4.112,4.1-3.956,5.013h-1.224c-0.43,0-0.779,0.349-0.779,0.778
			c0,0.432,0.35,0.781,0.779,0.781h28.959c0.431,0,0.779-0.35,0.779-0.781C224.292,146.477,223.943,146.128,223.513,146.128"/>
		<path fill="#FFFFFF" d="M84.476,104.634H83.8c0.021-0.562,0.004-1.463-0.261-2.135c-0.41-1.048-1.422-1.647-2.171-1.759
			c-0.585-0.088-1.94-0.039-2.51-0.014c-0.378-1.865-2.185-3.281-4.362-3.281c-2.378,0-4.312,1.69-4.424,3.814
			c-0.571,0.012-1.108,0.016-1.584,0.004c-2.87,0.758-2.765,2.756-2.659,3.37h-0.822c-0.289,0-0.524,0.233-0.524,0.522
			c0,0.291,0.235,0.525,0.524,0.525h19.469c0.29,0,0.524-0.234,0.524-0.525C85,104.867,84.766,104.634,84.476,104.634"/>
		<path fill="#FFFFFF" d="M51.476,138.506H50.8c0.021-0.562,0.004-1.463-0.261-2.135c-0.41-1.048-1.422-1.646-2.171-1.759
			c-0.585-0.088-1.94-0.039-2.51-0.013c-0.378-1.866-2.185-3.282-4.362-3.282c-2.378,0-4.312,1.69-4.424,3.815
			c-0.571,0.012-1.108,0.015-1.584,0.004c-2.87,0.757-2.765,2.756-2.659,3.369h-0.822c-0.289,0-0.524,0.234-0.524,0.523
			c0,0.29,0.235,0.525,0.524,0.525h19.469c0.29,0,0.524-0.235,0.524-0.525C52,138.74,51.766,138.506,51.476,138.506"/>
		<path fill="#FFFFFF" d="M125.104,120.143h-0.512c0.017-0.424,0.004-1.106-0.196-1.614c-0.31-0.792-1.076-1.245-1.643-1.33
			c-0.442-0.067-1.468-0.029-1.897-0.011c-0.286-1.412-1.652-2.481-3.299-2.481c-1.799,0-3.264,1.278-3.346,2.886
			c-0.433,0.008-0.839,0.01-1.199,0.002c-2.17,0.573-2.091,2.086-2.01,2.549h-0.623c-0.219,0-0.396,0.178-0.396,0.396
			s0.178,0.396,0.396,0.396h14.725c0.219,0,0.396-0.178,0.396-0.396S125.322,120.143,125.104,120.143"/>
		<path fill="#FFFFFF" d="M226.252,108.004h-0.512c0.017-0.425,0.004-1.105-0.196-1.615c-0.311-0.792-1.076-1.244-1.643-1.33
			c-0.442-0.066-1.468-0.029-1.897-0.01c-0.286-1.412-1.652-2.482-3.299-2.482c-1.799,0-3.263,1.279-3.347,2.886
			c-0.432,0.009-0.839,0.012-1.198,0.003c-2.17,0.572-2.091,2.085-2.011,2.549h-0.622c-0.219,0-0.396,0.177-0.396,0.396
			c0,0.219,0.178,0.396,0.396,0.396h14.725c0.219,0,0.396-0.178,0.396-0.396C226.648,108.181,226.471,108.004,226.252,108.004"/>
		<path fill="#FFFFFF" d="M287.423,129.115h-1.498c0.048-1.244,0.009-3.239-0.576-4.729c-0.912-2.322-3.152-3.65-4.812-3.898
			c-1.295-0.194-4.299-0.086-5.561-0.028c-0.837-4.136-4.84-7.272-9.662-7.272c-5.271,0-9.561,3.747-9.807,8.451
			c-1.267,0.027-2.457,0.034-3.509,0.012c-6.357,1.676-6.126,6.105-5.894,7.465h-1.822c-0.641,0-1.161,0.521-1.161,1.162
			s0.521,1.162,1.161,1.162h43.141c0.642,0,1.161-0.521,1.161-1.162S288.064,129.115,287.423,129.115"/>
		<path fill="#FFFFFF" d="M203.04,159.379h-1.006c0.032-0.834,0.006-2.174-0.387-3.174c-0.612-1.56-2.116-2.449-3.23-2.617
			c-0.869-0.131-2.886-0.058-3.733-0.019c-0.561-2.776-3.247-4.882-6.485-4.882c-3.538,0-6.417,2.516-6.582,5.674
			c-0.851,0.018-1.649,0.021-2.355,0.006c-4.268,1.126-4.112,4.1-3.956,5.012h-1.224c-0.43,0-0.779,0.35-0.779,0.779
			c0,0.432,0.35,0.78,0.779,0.78h28.959c0.431,0,0.779-0.349,0.779-0.78C203.819,159.729,203.471,159.379,203.04,159.379"/>
		<path fill="#FFFFFF" d="M329.332,150.379h-1.006c0.032-0.834,0.006-2.174-0.387-3.174c-0.612-1.56-2.116-2.449-3.23-2.617
			c-0.869-0.131-2.886-0.058-3.733-0.019c-0.561-2.776-3.248-4.882-6.485-4.882c-3.538,0-6.417,2.516-6.582,5.674
			c-0.851,0.018-1.649,0.021-2.355,0.006c-4.268,1.126-4.112,4.1-3.956,5.012h-1.224c-0.43,0-0.779,0.35-0.779,0.779
			c0,0.432,0.35,0.78,0.779,0.78h28.959c0.431,0,0.779-0.349,0.779-0.78C330.111,150.729,329.763,150.379,329.332,150.379"/>
		<path fill="#FFFFFF" d="M190.295,108.885h-0.676c0.021-0.562,0.004-1.463-0.261-2.135c-0.41-1.048-1.422-1.646-2.171-1.759
			c-0.585-0.088-1.94-0.039-2.51-0.013c-0.378-1.866-2.185-3.282-4.362-3.282c-2.378,0-4.312,1.69-4.424,3.815
			c-0.571,0.012-1.108,0.015-1.584,0.004c-2.87,0.757-2.765,2.756-2.659,3.369h-0.822c-0.289,0-0.524,0.234-0.524,0.523
			c0,0.291,0.235,0.525,0.524,0.525h19.469c0.29,0,0.524-0.234,0.524-0.525C190.819,109.119,190.585,108.885,190.295,108.885"/>
		<path fill="#FFFFFF" d="M157.295,142.758h-0.676c0.021-0.562,0.004-1.463-0.261-2.135c-0.41-1.049-1.422-1.647-2.171-1.76
			c-0.585-0.088-1.94-0.039-2.51-0.013c-0.378-1.866-2.185-3.282-4.362-3.282c-2.378,0-4.312,1.691-4.424,3.815
			c-0.571,0.013-1.108,0.015-1.584,0.004c-2.87,0.757-2.765,2.756-2.659,3.37h-0.822c-0.289,0-0.524,0.234-0.524,0.523
			s0.235,0.524,0.524,0.524h19.469c0.29,0,0.524-0.235,0.524-0.524S157.585,142.758,157.295,142.758"/>
		<path fill="#FFFFFF" d="M230.923,124.395h-0.512c0.017-0.425,0.004-1.107-0.196-1.615c-0.31-0.791-1.076-1.244-1.643-1.33
			c-0.442-0.066-1.468-0.029-1.897-0.01c-0.286-1.412-1.652-2.482-3.299-2.482c-1.799,0-3.264,1.279-3.346,2.886
			c-0.433,0.009-0.839,0.011-1.199,0.003c-2.17,0.572-2.091,2.085-2.01,2.549h-0.623c-0.219,0-0.396,0.178-0.396,0.396
			s0.178,0.396,0.396,0.396h14.725c0.219,0,0.396-0.177,0.396-0.396S231.142,124.395,230.923,124.395"/>
		<path fill="#FFFFFF" d="M332.071,112.256h-0.512c0.017-0.426,0.004-1.106-0.196-1.615c-0.311-0.793-1.076-1.245-1.643-1.33
			c-0.442-0.067-1.468-0.029-1.897-0.01c-0.286-1.412-1.652-2.482-3.299-2.482c-1.799,0-3.263,1.279-3.347,2.885
			c-0.432,0.01-0.839,0.012-1.198,0.004c-2.17,0.572-2.091,2.084-2.011,2.549h-0.622c-0.219,0-0.396,0.176-0.396,0.396
			s0.178,0.397,0.396,0.397h14.725c0.219,0,0.396-0.178,0.396-0.397S332.29,112.256,332.071,112.256"/>
	</g>
	<g clip-path="url(#SVGID_2_)">
		<path fill="#5C2823" d="M348.231,275.369c-27.279-0.129-283.134-1.296-294.886,0.011c-8.82,0.98-9.631,12.747-9.362,19.48
			c32.695,45.244,85.896,74.691,145.981,74.691C258.305,369.552,317.747,331.47,348.231,275.369"/>
		<g>
			<rect x="113.967" y="130.837" fill="none" width="0.002" height="9.313"/>
			<path fill="#F37042" d="M288.201,239.758l4.947,15h40.746v-5.833h-1.375v-0.75v-3.25h1.375v-5.167H288.201z M298.727,249.541
				c0,0.783-0.502,1.419-1.119,1.419c-0.619,0-1.119-0.636-1.119-1.419v-5.309c0-0.782,0.5-1.419,1.119-1.419
				c0.617,0,1.119,0.637,1.119,1.419V249.541z M309.227,249.541c0,0.783-0.502,1.419-1.119,1.419c-0.619,0-1.119-0.636-1.119-1.419
				v-5.309c0-0.782,0.5-1.419,1.119-1.419c0.617,0,1.119,0.637,1.119,1.419V249.541z M319.467,249.541
				c0,0.783-0.502,1.419-1.119,1.419c-0.619,0-1.119-0.636-1.119-1.419v-5.309c0-0.782,0.5-1.419,1.119-1.419
				c0.617,0,1.119,0.637,1.119,1.419V249.541z M329.467,249.541c0,0.783-0.502,1.419-1.119,1.419c-0.619,0-1.119-0.636-1.119-1.419
				v-5.309c0-0.782,0.5-1.419,1.119-1.419c0.617,0,1.119,0.637,1.119,1.419V249.541z"/>
			<polygon fill="#F37042" points="286.516,230.508 285.15,230.508 287.102,236.424 333.895,236.424 333.895,229.091 
				286.516,229.091 286.516,229.758 			"/>
			<polygon fill="#F37042" points="294.247,258.092 300.184,276.091 333.895,276.091 333.895,258.092 			"/>
			<polygon fill="#F47C54" points="287.871,238.758 333.895,238.758 333.895,236.424 287.102,236.424 			"/>
			<polygon fill="#E8602E" points="288.201,239.758 333.895,239.758 333.895,238.758 287.871,238.758 			"/>
			<polygon fill="#F47C54" points="293.918,257.092 333.895,257.092 333.895,254.758 293.148,254.758 			"/>
			<polygon fill="#E8602E" points="294.247,258.092 333.895,258.092 333.895,257.092 293.918,257.092 			"/>
			<polygon fill="#D54D28" points="286.516,226.508 286.516,229.091 333.895,229.091 333.895,227.916 331.693,227.916 
				331.693,225.901 328.773,225.901 328.773,227.916 325.281,227.916 325.281,225.901 322.361,225.901 322.361,227.916 
				319.154,227.916 319.154,225.901 316.236,225.901 316.236,227.916 312.742,227.916 312.742,225.901 309.824,225.901 
				309.824,227.916 306.658,227.916 306.658,225.901 303.74,225.901 303.74,227.916 300.246,227.916 300.246,225.901 
				297.328,225.901 297.328,227.916 294.121,227.916 294.121,225.901 291.201,225.901 291.201,227.916 287.709,227.916 
				287.709,225.901 285.141,225.901 285.141,226.508 			"/>
			<path fill="#F37042" d="M340.395,244.925h11.25v-17.023h-11.25V244.925z M343.348,229.351c0.617,0,1.119,0.637,1.119,1.419
				v11.309c0,0.783-0.502,1.419-1.119,1.419c-0.619,0-1.119-0.636-1.119-1.419V230.77
				C342.229,229.987,342.729,229.351,343.348,229.351z"/>
			<rect x="340.395" y="248.925" fill="#F37042" width="11.25" height="27.166"/>
			<polygon fill="#E25A29" points="333.895,248.925 333.895,254.758 333.895,257.092 333.895,258.092 333.895,276.091 
				334.062,276.091 340.395,276.091 340.395,248.925 			"/>
			<path fill="#E25A29" d="M333.895,236.424v2.334v1v5.167h6.5v-17.023h-6.5v0.015v1.175V236.424z M336.354,230.77
				c0-0.782,0.5-1.419,1.119-1.419c0.617,0,1.119,0.637,1.119,1.419v11.309c0,0.783-0.502,1.419-1.119,1.419
				c-0.619,0-1.119-0.636-1.119-1.419V230.77z"/>
			<polygon fill="#F47C59" points="333.895,244.925 332.52,244.925 332.52,248.175 353.02,248.175 353.02,244.925 351.645,244.925 
				340.395,244.925 			"/>
			<polygon fill="#DE592A" points="332.52,248.175 332.52,248.925 333.895,248.925 340.395,248.925 351.645,248.925 353.02,248.925 
				353.02,248.175 			"/>
			<rect x="332.52" y="223.901" fill="#F47C59" width="20.5" height="3.25"/>
			<polygon fill="#DE592A" points="332.52,227.901 333.895,227.901 340.395,227.901 351.645,227.901 353.02,227.901 353.02,227.151 
				332.52,227.151 			"/>
			<polygon fill="#D54D28" points="350.457,222.925 350.457,220.675 347.582,220.675 347.582,222.925 344.082,222.925 
				344.082,220.675 341.207,220.675 341.207,222.925 337.957,222.925 337.957,220.675 335.082,220.675 335.082,222.925 
				332.52,222.925 332.52,223.901 353.02,223.901 353.02,222.925 			"/>
			<path fill="#734433" d="M337.473,243.497c0.617,0,1.119-0.636,1.119-1.419V230.77c0-0.782-0.502-1.419-1.119-1.419
				c-0.619,0-1.119,0.637-1.119,1.419v11.309C336.354,242.861,336.854,243.497,337.473,243.497z"/>
			<path fill="#734433" d="M343.348,243.497c0.617,0,1.119-0.636,1.119-1.419V230.77c0-0.782-0.502-1.419-1.119-1.419
				c-0.619,0-1.119,0.637-1.119,1.419v11.309C342.229,242.861,342.729,243.497,343.348,243.497z"/>
			<path fill="#F37042" d="M288.201,239.758h-3.061v15h8.008L288.201,239.758z M287.607,250.96c-0.619,0-1.119-0.636-1.119-1.419
				v-5.309c0-0.782,0.5-1.419,1.119-1.419c0.617,0,1.119,0.637,1.119,1.419v5.309C288.727,250.324,288.225,250.96,287.607,250.96z"
				/>
			<path opacity="0.6" fill="#F05223" d="M288.201,239.758h-3.061v15h8.008L288.201,239.758z M287.607,250.96
				c-0.619,0-1.119-0.636-1.119-1.419v-5.309c0-0.782,0.5-1.419,1.119-1.419c0.617,0,1.119,0.637,1.119,1.419v5.309
				C288.727,250.324,288.225,250.96,287.607,250.96z"/>
			<polygon fill="#F37042" points="285.15,230.508 285.141,230.508 285.141,236.424 287.102,236.424 			"/>
			<polygon opacity="0.6" fill="#F05223" points="285.15,230.508 285.141,230.508 285.141,236.424 287.102,236.424 			"/>
			<polygon fill="#F37042" points="285.141,258.092 285.141,276.008 284.684,276.008 284.684,276.091 300.184,276.091 
				294.247,258.092 			"/>
			<polygon opacity="0.6" fill="#F05223" points="285.141,258.092 285.141,276.008 284.684,276.008 284.684,276.091 
				300.184,276.091 294.247,258.092 			"/>
			<polygon fill="#F47C54" points="287.102,236.424 285.141,236.424 285.141,238.758 287.871,238.758 			"/>
			<polygon opacity="0.6" fill="#F05223" points="287.102,236.424 285.141,236.424 285.141,238.758 287.871,238.758 			"/>
			<polygon fill="#E8602E" points="287.871,238.758 285.141,238.758 285.141,239.758 288.201,239.758 			"/>
			<polygon opacity="0.6" fill="#F05223" points="287.871,238.758 285.141,238.758 285.141,239.758 288.201,239.758 			"/>
			<polygon fill="#F47C54" points="293.148,254.758 285.141,254.758 285.141,257.092 293.918,257.092 			"/>
			<polygon opacity="0.6" fill="#F05223" points="293.148,254.758 285.141,254.758 285.141,257.092 293.918,257.092 			"/>
			<polygon fill="#E8602E" points="285.141,257.092 285.141,258.092 294.247,258.092 293.918,257.092 			"/>
			<polygon opacity="0.6" fill="#F05223" points="285.141,257.092 285.141,258.092 294.247,258.092 293.918,257.092 			"/>
			<path fill="#734433" d="M297.607,242.813c-0.619,0-1.119,0.637-1.119,1.419v5.309c0,0.783,0.5,1.419,1.119,1.419
				c0.617,0,1.119-0.636,1.119-1.419v-5.309C298.727,243.45,298.225,242.813,297.607,242.813z"/>
			<path fill="#734433" d="M308.107,242.813c-0.619,0-1.119,0.637-1.119,1.419v5.309c0,0.783,0.5,1.419,1.119,1.419
				c0.617,0,1.119-0.636,1.119-1.419v-5.309C309.227,243.45,308.725,242.813,308.107,242.813z"/>
			<path fill="#734433" d="M318.348,242.813c-0.619,0-1.119,0.637-1.119,1.419v5.309c0,0.783,0.5,1.419,1.119,1.419
				c0.617,0,1.119-0.636,1.119-1.419v-5.309C319.467,243.45,318.965,242.813,318.348,242.813z"/>
			<path fill="#734433" d="M328.348,242.813c-0.619,0-1.119,0.637-1.119,1.419v5.309c0,0.783,0.5,1.419,1.119,1.419
				c0.617,0,1.119-0.636,1.119-1.419v-5.309C329.467,243.45,328.965,242.813,328.348,242.813z"/>
			<path fill="#734433" d="M287.607,242.813c-0.619,0-1.119,0.637-1.119,1.419v5.309c0,0.783,0.5,1.419,1.119,1.419
				c0.617,0,1.119-0.636,1.119-1.419v-5.309C288.727,243.45,288.225,242.813,287.607,242.813z"/>
			<polygon fill="#B93926" points="199.016,229.758 199.016,226.508 200.391,226.508 200.391,217.008 200.062,217.008 
				198.062,217.008 195.938,217.008 195.463,217.008 195.463,239.127 196.58,239.127 196.58,240.964 200.316,240.964 
				200.316,239.127 200.391,239.127 200.391,230.508 199.016,230.508 			"/>
			<polygon fill="#CD4C28" points="195.938,217.008 198.062,217.008 200.062,217.008 200.391,217.008 200.391,216.18 
				200.062,216.18 200.062,214.883 198.062,214.883 198.062,216.18 195.938,216.18 195.938,214.883 195.463,214.883 
				195.463,217.008 			"/>
			<path fill="#F37042" d="M273.891,226.508h11.25v-0.606v-16.417h-11.25V226.508z M276.844,210.934
				c0.617,0,1.119,0.637,1.119,1.419v11.309c0,0.783-0.502,1.419-1.119,1.419c-0.619,0-1.119-0.636-1.119-1.419v-11.309
				C275.725,211.57,276.225,210.934,276.844,210.934z"/>
			<polygon fill="#F37042" points="285.141,276.008 285.141,258.092 285.141,257.092 285.141,254.758 285.141,239.758 
				285.141,238.758 285.141,236.424 285.141,230.508 273.891,230.508 273.891,276.008 284.229,276.008 284.229,276.091 
				284.684,276.091 284.684,276.008 			"/>
			<path fill="#E25A29" d="M267.557,219.762v2.537h-0.08v4.209h6.414v-17.023h-6.5v8.64h0.086L267.557,219.762z M269.85,212.353
				c0-0.782,0.5-1.419,1.119-1.419c0.617,0,1.119,0.637,1.119,1.419v11.309c0,0.783-0.502,1.419-1.119,1.419
				c-0.619,0-1.119-0.636-1.119-1.419V212.353z"/>
			<polygon fill="#E25A29" points="267.477,230.508 267.477,254.966 267.477,257.3 267.477,258.3 267.477,276.008 273.891,276.008 
				273.891,230.508 			"/>
			<polygon fill="#F47C59" points="286.516,229.758 286.516,229.091 286.516,226.508 285.141,226.508 273.891,226.508 
				267.477,226.508 267.477,229.758 			"/>
			<polygon fill="#DE592A" points="286.516,230.508 286.516,229.758 267.477,229.758 267.477,230.508 273.891,230.508 
				285.141,230.508 285.15,230.508 			"/>
			<rect x="266.016" y="205.484" fill="#F47C59" width="20.5" height="3.25"/>
			<polygon fill="#DE592A" points="285.141,209.484 286.516,209.484 286.516,208.734 266.016,208.734 266.016,209.484 
				267.391,209.484 273.891,209.484 			"/>
			<polygon fill="#D54D28" points="286.516,204.508 283.953,204.508 283.953,202.258 281.078,202.258 281.078,204.508 
				277.578,204.508 277.578,202.258 274.703,202.258 274.703,204.508 271.453,204.508 271.453,202.258 268.578,202.258 
				268.578,204.508 266.016,204.508 266.016,205.484 286.516,205.484 			"/>
			<path fill="#734433" d="M270.969,225.08c0.617,0,1.119-0.636,1.119-1.419v-11.309c0-0.782-0.502-1.419-1.119-1.419
				c-0.619,0-1.119,0.637-1.119,1.419v11.309C269.85,224.444,270.35,225.08,270.969,225.08z"/>
			<path fill="#734433" d="M276.844,225.08c0.617,0,1.119-0.636,1.119-1.419v-11.309c0-0.782-0.502-1.419-1.119-1.419
				c-0.619,0-1.119,0.637-1.119,1.419v11.309C275.725,224.444,276.225,225.08,276.844,225.08z"/>
			<rect x="236.934" y="258.3" fill="#F37042" width="9.264" height="17.708"/>
			<path fill="#F37042" d="M236.934,230.966v24h9.264v-24H236.934z M241.521,242.168c-0.619,0-1.119-0.636-1.119-1.419v-5.309
				c0-0.782,0.5-1.419,1.119-1.419c0.617,0,1.119,0.637,1.119,1.419v5.309C242.641,241.532,242.139,242.168,241.521,242.168z"/>
			<path fill="#F37042" d="M247.072,230.966v24h9.375v-24H247.072z M251.76,242.168c-0.619,0-1.119-0.636-1.119-1.419v-5.309
				c0-0.782,0.5-1.419,1.119-1.419c0.617,0,1.119,0.637,1.119,1.419v5.309C252.879,241.532,252.377,242.168,251.76,242.168z"/>
			<path fill="#F37042" d="M220.597,230.966l1.108,3.359c0.263,0.26,0.436,0.661,0.436,1.115v0.206l3.668,11.122v-15.803H220.597z"
				/>
			<rect x="247.072" y="258.3" fill="#F37042" width="9.375" height="17.708"/>
			<path fill="#F37042" d="M226.684,230.966v18.456l1.828,5.544h7.547v-24H226.684z M231.021,242.168
				c-0.619,0-1.119-0.636-1.119-1.419v-5.309c0-0.782,0.5-1.419,1.119-1.419c0.617,0,1.119,0.637,1.119,1.419v5.309
				C232.141,241.532,231.639,242.168,231.021,242.168z"/>
			<polygon fill="#F37042" points="229.611,258.3 235.451,276.008 236.059,276.008 236.059,258.3 			"/>
			<polygon fill="#F37042" points="257.322,258.3 257.322,276.008 267.391,276.008 267.477,276.008 267.477,258.3 			"/>
			<polygon fill="#B93926" points="267.557,219.762 218.141,219.762 218.141,222.299 267.477,222.299 267.557,222.299 			"/>
			<polygon fill="#F47C54" points="220.268,229.966 267.436,229.966 267.436,227.632 219.516,227.632 219.516,227.689 			"/>
			<polygon fill="#E8602E" points="220.268,229.966 220.597,230.966 225.809,230.966 225.809,246.769 226.684,249.422 
				226.684,230.966 236.059,230.966 236.059,254.966 236.934,254.966 236.934,230.966 246.197,230.966 246.197,254.966 
				247.072,254.966 247.072,230.966 256.447,230.966 256.447,254.966 257.322,254.966 257.322,230.966 267.436,230.966 
				267.436,229.966 			"/>
			<polygon fill="#F47C54" points="257.322,254.966 256.447,254.966 247.072,254.966 246.197,254.966 236.934,254.966 
				236.059,254.966 228.512,254.966 229.281,257.3 267.477,257.3 267.477,254.966 			"/>
			<polygon fill="#E8602E" points="267.477,258.3 267.477,257.3 229.281,257.3 229.611,258.3 236.059,258.3 236.059,276.008 
				236.934,276.008 236.934,258.3 246.197,258.3 246.197,276.008 247.072,276.008 247.072,258.3 256.447,258.3 256.447,276.008 
				257.322,276.008 257.322,258.3 			"/>
			<polygon fill="#D54D28" points="267.557,219.762 267.477,218.124 267.391,218.124 265.105,218.124 265.105,216.109 
				262.188,216.109 262.188,218.124 258.693,218.124 258.693,216.109 255.775,216.109 255.775,218.124 252.568,218.124 
				252.568,216.109 249.648,216.109 249.648,218.124 246.156,218.124 246.156,216.109 243.236,216.109 243.236,218.124 
				240.072,218.124 240.072,216.109 237.152,216.109 237.152,218.124 233.66,218.124 233.66,216.109 230.74,216.109 230.74,218.124 
				227.533,218.124 227.533,216.109 224.615,216.109 224.615,218.124 221.121,218.124 221.121,216.109 218.203,216.109 
				218.203,218.124 218.141,218.131 218.141,219.762 			"/>
			<polygon opacity="0.6" fill="#F05223" points="225.809,276.008 218.141,276.008 217.643,276.008 217.643,276.091 
				235.479,276.091 235.451,276.008 226.684,276.008 			"/>
			<polygon fill="#F37042" points="218.141,223.52 218.141,226.508 219.127,226.508 			"/>
			<polygon opacity="0.6" fill="#F05223" points="218.141,223.52 218.141,226.508 219.127,226.508 			"/>
			<polygon fill="#F37042" points="226.684,254.966 228.512,254.966 226.684,249.422 			"/>
			<polygon opacity="0.6" fill="#F05223" points="226.684,254.966 228.512,254.966 226.684,249.422 			"/>
			<path fill="#F37042" d="M225.809,246.769l-3.668-11.122v5.103c0,0.783-0.502,1.419-1.119,1.419c-0.619,0-1.119-0.636-1.119-1.419
				v-5.309c0-0.782,0.5-1.419,1.119-1.419c0.258,0,0.493,0.116,0.684,0.304l-1.108-3.359h-2.456v24h7.668V246.769z"/>
			<path opacity="0.6" fill="#F05223" d="M225.809,246.769l-3.668-11.122v5.103c0,0.783-0.502,1.419-1.119,1.419
				c-0.619,0-1.119-0.636-1.119-1.419v-5.309c0-0.782,0.5-1.419,1.119-1.419c0.258,0,0.493,0.116,0.684,0.304l-1.108-3.359h-2.456
				v24h7.668V246.769z"/>
			<rect x="218.141" y="258.3" fill="#F37042" width="7.668" height="17.708"/>
			<rect x="218.141" y="258.3" opacity="0.6" fill="#F05223" width="7.668" height="17.708"/>
			<polygon fill="#F37042" points="226.684,258.3 226.684,276.008 235.451,276.008 229.611,258.3 			"/>
			<polygon opacity="0.6" fill="#F05223" points="226.684,258.3 226.684,276.008 235.451,276.008 229.611,258.3 			"/>
			<polygon fill="#E8602E" points="225.809,246.769 225.809,254.966 226.684,254.966 226.684,249.422 			"/>
			<polygon opacity="0.6" fill="#F05223" points="225.809,246.769 225.809,254.966 226.684,254.966 226.684,249.422 			"/>
			<polygon fill="#F47C54" points="219.516,229.758 219.516,229.966 220.268,229.966 219.516,227.689 			"/>
			<polygon opacity="0.6" fill="#F05223" points="219.516,229.758 219.516,229.966 220.268,229.966 219.516,227.689 			"/>
			<polygon fill="#E8602E" points="220.268,229.966 219.516,229.966 219.516,230.508 218.141,230.508 218.141,230.966 
				220.597,230.966 			"/>
			<polygon opacity="0.6" fill="#F05223" points="220.268,229.966 219.516,229.966 219.516,230.508 218.141,230.508 
				218.141,230.966 220.597,230.966 			"/>
			<polygon fill="#F47C54" points="226.684,254.966 225.809,254.966 218.141,254.966 218.141,257.3 229.281,257.3 228.512,254.966 
							"/>
			<polygon opacity="0.6" fill="#F05223" points="226.684,254.966 225.809,254.966 218.141,254.966 218.141,257.3 229.281,257.3 
				228.512,254.966 			"/>
			<polygon fill="#E8602E" points="218.141,257.3 218.141,258.3 225.809,258.3 225.809,276.008 226.684,276.008 226.684,258.3 
				229.611,258.3 229.281,257.3 			"/>
			<polygon opacity="0.6" fill="#F05223" points="218.141,257.3 218.141,258.3 225.809,258.3 225.809,276.008 226.684,276.008 
				226.684,258.3 229.611,258.3 229.281,257.3 			"/>
			<path fill="#734433" d="M231.021,234.021c-0.619,0-1.119,0.637-1.119,1.419v5.309c0,0.783,0.5,1.419,1.119,1.419
				c0.617,0,1.119-0.636,1.119-1.419v-5.309C232.141,234.658,231.639,234.021,231.021,234.021z"/>
			<path fill="#734433" d="M241.521,234.021c-0.619,0-1.119,0.637-1.119,1.419v5.309c0,0.783,0.5,1.419,1.119,1.419
				c0.617,0,1.119-0.636,1.119-1.419v-5.309C242.641,234.658,242.139,234.021,241.521,234.021z"/>
			<path fill="#734433" d="M251.76,234.021c-0.619,0-1.119,0.637-1.119,1.419v5.309c0,0.783,0.5,1.419,1.119,1.419
				c0.617,0,1.119-0.636,1.119-1.419v-5.309C252.879,234.658,252.377,234.021,251.76,234.021z"/>
			<path fill="#734433" d="M261.76,234.021c-0.619,0-1.119,0.637-1.119,1.419v5.309c0,0.783,0.5,1.419,1.119,1.419
				c0.617,0,1.119-0.636,1.119-1.419v-5.309C262.879,234.658,262.377,234.021,261.76,234.021z"/>
			<path fill="#734433" d="M221.705,234.325c-0.19-0.188-0.426-0.304-0.684-0.304c-0.619,0-1.119,0.637-1.119,1.419v5.309
				c0,0.783,0.5,1.419,1.119,1.419c0.617,0,1.119-0.636,1.119-1.419v-5.103v-0.206C222.141,234.986,221.968,234.585,221.705,234.325
				z"/>
			<path fill="#F37042" d="M206.891,226.508h11.25v-2.988l0.986,2.988h0.389v1.124h47.92v2.334v1h-10.113v24h10.154v-24.458v-0.75
				v-3.25v-4.209h-49.336v-2.537v-1.631v-8.646h-11.25V226.508z M262.879,240.749c0,0.783-0.502,1.419-1.119,1.419
				c-0.619,0-1.119-0.636-1.119-1.419v-5.309c0-0.782,0.5-1.419,1.119-1.419c0.617,0,1.119,0.637,1.119,1.419V240.749z
				 M209.844,210.934c0.617,0,1.119,0.637,1.119,1.419v11.309c0,0.783-0.502,1.419-1.119,1.419c-0.619,0-1.119-0.636-1.119-1.419
				v-11.309C208.725,211.57,209.225,210.934,209.844,210.934z"/>
			<polygon fill="#F37042" points="218.141,258.3 218.141,257.3 218.141,254.966 218.141,230.966 218.141,230.508 206.891,230.508 
				206.891,276.008 217.643,276.008 218.141,276.008 			"/>
			<polygon fill="#E25A29" points="200.391,230.508 200.391,239.127 203.23,239.127 203.23,240.964 204.307,240.964 
				204.307,243.572 204.307,243.602 204.307,253.072 204.807,253.072 204.807,254.239 204.307,254.239 204.307,270.385 
				204.807,270.385 204.807,271.552 204.307,271.552 204.307,276.008 206.891,276.008 206.891,230.508 			"/>
			<path fill="#E25A29" d="M200.391,226.508h6.5v-17.023h-6.5v6.695v0.828V226.508z M202.85,212.353c0-0.782,0.5-1.419,1.119-1.419
				c0.617,0,1.119,0.637,1.119,1.419v11.309c0,0.783-0.502,1.419-1.119,1.419c-0.619,0-1.119-0.636-1.119-1.419V212.353z"/>
			<polygon fill="#F47C59" points="199.016,229.758 219.516,229.758 219.516,227.689 219.516,227.632 219.516,226.508 
				219.127,226.508 218.141,226.508 206.891,226.508 200.391,226.508 199.016,226.508 			"/>
			<polygon fill="#DE592A" points="219.516,229.966 219.516,229.758 199.016,229.758 199.016,230.508 200.391,230.508 
				206.891,230.508 218.141,230.508 219.516,230.508 			"/>
			<rect x="199.016" y="205.484" fill="#F47C59" width="20.5" height="3.25"/>
			<polygon fill="#DE592A" points="218.141,209.484 219.516,209.484 219.516,208.734 199.016,208.734 199.016,209.484 
				200.391,209.484 206.891,209.484 			"/>
			<polygon fill="#D54D28" points="219.516,204.508 216.953,204.508 216.953,202.258 214.078,202.258 214.078,204.508 
				210.578,204.508 210.578,202.258 207.703,202.258 207.703,204.508 204.453,204.508 204.453,202.258 201.578,202.258 
				201.578,204.508 199.016,204.508 199.016,205.484 219.516,205.484 			"/>
			<path fill="#734433" d="M203.969,225.08c0.617,0,1.119-0.636,1.119-1.419v-11.309c0-0.782-0.502-1.419-1.119-1.419
				c-0.619,0-1.119,0.637-1.119,1.419v11.309C202.85,224.444,203.35,225.08,203.969,225.08z"/>
			<path fill="#734433" d="M209.844,225.08c0.617,0,1.119-0.636,1.119-1.419v-11.309c0-0.782-0.502-1.419-1.119-1.419
				c-0.619,0-1.119,0.637-1.119,1.419v11.309C208.725,224.444,209.225,225.08,209.844,225.08z"/>
			<polygon fill="#D54D28" points="146.501,154.124 146.501,161.588 152.055,157.943 152.055,152.777 146.421,152.777 
				146.421,153.218 146.501,153.218 			"/>
			<polygon fill="#D54D28" points="146.564,172.398 146.564,171.962 146.564,171.087 147.521,171.087 147.521,161.859 
				146.501,161.859 146.501,183.517 147.521,183.517 147.521,172.398 			"/>
			<path fill="#F37042" d="M152.055,157.943l0.012-0.008l5.848,3.924h-5.518v9.228h5.043v0.875v0.437h-5.043v38.975h0.014v-1.471
				h2.807v1.471h0.686v-5.303h-1.375v-0.875v-2h1.375c0,0,0-3.875,0-4.625c0-0.141,0.064-0.424,0.185-0.794v-7.381v-0.216v-0.879
				h1.354v-1.527h2.521v1.527h1.953v-36.523h-9.861V157.943z M155.436,167.375c0,0.555-0.355,1.005-0.794,1.005
				s-0.793-0.45-0.793-1.005v-3.761c0-0.554,0.354-1.005,0.793-1.005s0.794,0.451,0.794,1.005V167.375z"/>
			<path fill="#F37042" d="M163.398,151.955L163.398,151.955l0.002,0.001v-7.864h-5.852v7.863h-0.002l0,0H163.398z M159.359,146.436
				c0-0.469,0.434-0.849,0.969-0.849c0.537,0,0.971,0.38,0.971,0.849v3.176c0,0.468-0.434,0.848-0.971,0.848
				c-0.535,0-0.969-0.38-0.969-0.848V146.436z"/>
			<path fill="#D54D28" d="M150.788,151.955v-7.863h-5.853v7.863H150.788z M147.034,146.436c0-0.469,0.435-0.849,0.97-0.849
				c0.537,0,0.971,0.38,0.971,0.849v3.176c0,0.468-0.434,0.848-0.971,0.848c-0.535,0-0.97-0.38-0.97-0.848V146.436z"/>
			<path fill="#DD552B" d="M150.788,151.955h6.759l0,0v-7.863h-6.759V151.955z M153.197,146.436c0-0.469,0.434-0.849,0.969-0.849
				c0.537,0,0.971,0.38,0.971,0.849v3.176c0,0.468-0.434,0.848-0.971,0.848c-0.535,0-0.969-0.38-0.969-0.848V146.436z"/>
			<polygon fill="#C74427" points="161.916,152.777 163.398,152.777 163.398,151.956 163.398,151.955 157.547,151.955 
				150.788,151.955 144.936,151.955 144.934,151.955 144.934,152.777 146.421,152.777 152.055,152.777 			"/>
			<polygon fill="#B93926" points="155.398,139.263 155.398,137.048 152.934,137.048 152.934,139.263 154.166,138.809 			"/>
			<polygon fill="#D54D28" points="166.609,143.387 166.607,143.387 166.607,143.387 			"/>
			<polygon fill="#D54D28" points="155.398,139.263 154.166,138.809 152.934,139.263 141.729,143.386 166.605,143.386 			"/>
			<polygon fill="#BF4127" points="166.607,143.387 166.607,143.387 166.607,143.386 166.605,143.386 141.729,143.386 
				141.725,143.386 141.725,144.091 166.607,144.091 			"/>
			<path fill="#734433" d="M160.328,150.459c0.537,0,0.971-0.38,0.971-0.848v-3.176c0-0.469-0.434-0.849-0.971-0.849
				c-0.535,0-0.969,0.38-0.969,0.849v3.176C159.359,150.079,159.793,150.459,160.328,150.459z"/>
			<path fill="#734433" d="M148.004,150.459c0.537,0,0.971-0.38,0.971-0.848v-3.176c0-0.469-0.434-0.849-0.971-0.849
				c-0.535,0-0.97,0.38-0.97,0.849v3.176C147.034,150.079,147.469,150.459,148.004,150.459z"/>
			<path fill="#734433" d="M154.166,150.459c0.537,0,0.971-0.38,0.971-0.848v-3.176c0-0.469-0.434-0.849-0.971-0.849
				c-0.535,0-0.969,0.38-0.969,0.849v3.176C153.197,150.079,153.631,150.459,154.166,150.459z"/>
			<polygon fill="#B93926" points="119.324,181.99 119.324,183.517 121.734,183.517 121.734,181.99 124.258,181.99 124.258,183.517 
				126.51,183.517 126.51,181.99 129.032,181.99 129.032,183.517 132.549,183.517 132.549,181.99 135.07,181.99 135.07,183.517 
				137.572,183.517 137.572,181.99 140.094,181.99 140.094,183.517 142.811,183.517 142.811,181.99 145.333,181.99 145.333,183.517 
				146.501,183.517 146.501,161.859 146.089,161.859 146.501,161.588 146.501,154.124 143.859,154.124 141.773,154.124 
				140.088,154.124 138.003,154.124 135.878,154.124 135.878,159.074 136.712,159.074 136.712,159.949 136.712,160.386 
				135.878,160.386 135.878,181.962 131.67,181.962 126.795,181.962 126.795,170.039 119.139,170.039 119.139,181.99 			"/>
			<polygon fill="#B93926" points="125.837,160.386 125.837,159.949 125.837,159.074 126.795,159.074 126.795,154.124 
				123.911,154.124 121.826,154.124 119.139,154.124 119.139,162.812 126.795,162.812 126.795,160.386 			"/>
			<polygon fill="#CD4C28" points="138.003,154.124 140.088,154.124 141.773,154.124 143.859,154.124 146.501,154.124 
				146.501,153.218 146.421,153.218 143.859,153.218 143.859,151.956 141.773,151.956 141.773,153.218 140.088,153.218 
				140.088,151.956 138.003,151.956 138.003,153.218 135.878,153.218 135.878,154.124 			"/>
			<polygon fill="#CD4C28" points="121.826,154.124 123.911,154.124 126.795,154.124 126.795,153.218 123.911,153.218 
				123.911,151.956 121.826,151.956 121.826,153.218 119.139,153.218 119.139,154.124 			"/>
			<polygon fill="#D54D28" points="105.969,153.585 105.969,154.124 104.786,154.124 104.786,170.646 105.969,170.646 
				105.969,174.02 105.969,174.559 104.786,174.559 104.786,183.517 105.988,183.517 105.988,181.99 107.462,181.99 
				107.462,170.039 119.139,170.039 126.795,170.039 126.795,168.865 104.823,168.865 104.823,168.093 126.795,168.093 
				126.795,162.812 119.139,162.812 107.462,162.812 107.462,141.124 100.789,141.124 100.789,147.164 100.182,147.164 
				100.182,149.189 98.057,149.189 98.057,147.164 94.432,147.164 94.432,149.189 91.432,149.189 91.432,147.164 87.807,147.164 
				87.807,149.189 86.389,149.189 86.389,150.21 87.807,150.21 91.432,150.21 94.432,150.21 98.057,150.21 100.182,150.21 
				100.789,150.21 100.789,150.211 105.969,150.211 			"/>
			<polygon fill="#F37042" points="107.462,162.812 119.139,162.812 119.139,154.124 119.139,153.218 119.139,141.124 
				107.462,141.124 			"/>
			<polygon fill="#F37042" points="108.51,183.517 110.612,183.517 110.612,181.99 113.135,181.99 113.135,183.517 116.803,183.517 
				116.803,181.99 119.139,181.99 119.139,170.039 107.462,170.039 107.462,181.99 108.51,181.99 			"/>
			<path fill="#F37042" d="M113.969,140.15h5.17h1.76h0.002v-9.313h-6.932V140.15z M116.113,133.613
				c0-0.555,0.514-1.006,1.147-1.006c0.636,0,1.149,0.451,1.149,1.006v3.761c0,0.555-0.514,1.005-1.149,1.005
				c-0.634,0-1.147-0.45-1.147-1.005V133.613z"/>
			<path fill="#D54D28" d="M105.962,140.15v-9.313H99.03v9.313h1.759H105.962z M101.516,133.613c0-0.555,0.514-1.006,1.148-1.006
				c0.636,0,1.15,0.451,1.15,1.006v3.761c0,0.555-0.515,1.005-1.15,1.005c-0.635,0-1.148-0.45-1.148-1.005V133.613z"/>
			<path fill="#DD552B" d="M105.962,130.837v9.313h1.5h6.505v-9.313H105.962z M111.112,137.374c0,0.555-0.515,1.005-1.149,1.005
				s-1.148-0.45-1.148-1.005v-3.761c0-0.555,0.514-1.006,1.148-1.006s1.149,0.451,1.149,1.006V137.374z"/>
			<polygon fill="#C74427" points="119.139,141.124 120.898,141.124 120.898,140.15 119.139,140.15 113.969,140.15 113.967,140.15 
				107.462,140.15 105.962,140.15 100.789,140.15 99.03,140.15 99.028,140.15 99.028,141.124 100.789,141.124 107.462,141.124 			
				"/>
			<polygon fill="#B93926" points="111.424,125.117 111.424,122.496 108.504,122.496 108.504,125.117 109.963,124.58 			"/>
			<polygon fill="#D54D28" points="124.699,130.002 111.424,125.117 109.963,124.58 108.504,125.117 95.228,130.002 			"/>
			<polygon fill="#BF4127" points="113.967,130.837 113.969,130.837 120.9,130.837 124.699,130.837 124.699,130.003 95.229,130.003 
				95.229,130.837 99.03,130.837 105.962,130.837 			"/>
			<path fill="#734433" d="M117.261,138.379c0.636,0,1.149-0.45,1.149-1.005v-3.761c0-0.555-0.514-1.006-1.149-1.006
				c-0.634,0-1.147,0.451-1.147,1.006v3.761C116.113,137.929,116.627,138.379,117.261,138.379z"/>
			<path fill="#734433" d="M102.664,138.379c0.636,0,1.15-0.45,1.15-1.005v-3.761c0-0.555-0.515-1.006-1.15-1.006
				c-0.635,0-1.148,0.451-1.148,1.006v3.761C101.516,137.929,102.029,138.379,102.664,138.379z"/>
			<path fill="#734433" d="M109.963,132.607c-0.635,0-1.148,0.451-1.148,1.006v3.761c0,0.555,0.514,1.005,1.148,1.005
				s1.149-0.45,1.149-1.005v-3.761C111.112,133.059,110.598,132.607,109.963,132.607z"/>
			<path fill="#902A1D" d="M84.684,174.559v-0.331h-13.65v9.431c0.678-1.241,2.926-4.681,7.025-4.681c5,0,6.375,5.375,6.375,5.375
				v34.501c-0.584-0.51-1.194-0.876-1.75-0.876c-1.875,0-2.25,2-2.25,2v55.75h6.142V174.559H84.684z"/>
			<rect x="66.825" y="172.165" fill="#F37042" width="4.208" height="0.001"/>
			<path fill="#F37042" d="M66.825,171.29h4.208v-9.228h-4.208V171.29z M69.07,162.812c0.438,0,0.793,0.451,0.793,1.005v3.761
				c0,0.556-0.355,1.006-0.793,1.006c-0.438,0-0.793-0.45-0.793-1.006v-3.761C68.277,163.264,68.632,162.812,69.07,162.812z"/>
			<polygon fill="#F37042" points="71.033,172.604 66.825,172.604 66.825,190.158 67.309,190.158 67.309,188.133 70.934,188.133 
				70.934,190.158 71.033,190.158 71.033,183.658 71.033,174.228 			"/>
			<polygon fill="#F37042" points="71.033,161.165 71.004,161.165 71.033,161.185 			"/>
			<polygon fill="#E15A29" points="65.184,190.158 66.825,190.158 66.825,172.604 71.033,172.604 71.867,172.604 71.867,172.166 
				71.033,172.166 66.825,172.166 66.825,172.165 61.95,172.165 61.95,172.166 60.992,172.166 60.992,172.604 61.95,172.604 
				61.95,188.133 65.184,188.133 			"/>
			<path fill="#E15A29" d="M66.825,171.29v-9.228H61.95v9.228H66.825z M65.18,167.578c0,0.556-0.354,1.006-0.793,1.006
				c-0.438,0-0.793-0.45-0.793-1.006v-3.761c0-0.554,0.355-1.005,0.793-1.005c0.438,0,0.793,0.451,0.793,1.005V167.578z"/>
			<polygon fill="#F47C59" points="66.825,172.165 71.033,172.165 71.867,172.165 71.867,171.29 71.033,171.29 66.825,171.29 
				61.95,171.29 60.992,171.29 60.992,172.165 61.95,172.165 			"/>
			<path fill="#734433" d="M64.387,162.812c-0.438,0-0.793,0.451-0.793,1.005v3.761c0,0.556,0.355,1.006,0.793,1.006
				c0.438,0,0.793-0.45,0.793-1.006v-3.761C65.18,163.264,64.825,162.812,64.387,162.812z"/>
			<path fill="#734433" d="M69.07,168.584c0.438,0,0.793-0.45,0.793-1.006v-3.761c0-0.554-0.355-1.005-0.793-1.005
				c-0.438,0-0.793,0.451-0.793,1.005v3.761C68.277,168.134,68.632,168.584,69.07,168.584z"/>
			<polygon fill="#D9552D" points="66.825,162.062 71.033,162.062 72.342,162.062 71.033,161.185 71.004,161.165 66.494,158.14 
				60.517,162.062 61.95,162.062 			"/>
			<rect x="53.516" y="210.927" fill="#E15A29" width="7.941" height="77.856"/>
			<path fill="#F37042" d="M61.457,207.014h10.489v-11.921H61.457V207.014z M67.763,197.9c0-0.828,0.495-1.5,1.104-1.5
				c0.611,0,1.106,0.672,1.106,1.5v5.607c0,0.828-0.495,1.499-1.106,1.499c-0.609,0-1.104-0.671-1.104-1.499V197.9z M64.535,196.4
				c0.609,0,1.105,0.672,1.105,1.5v5.607c0,0.828-0.496,1.499-1.105,1.499c-0.611,0-1.105-0.671-1.105-1.499V197.9
				C63.43,197.072,63.924,196.4,64.535,196.4z"/>
			<rect x="61.457" y="210.927" fill="#F37042" width="10.489" height="77.856"/>
			<polygon fill="#F47C59" points="53.516,207.014 52.088,207.014 52.088,210.388 73.374,210.388 73.374,207.014 71.946,207.014 
				61.457,207.014 			"/>
			<polygon fill="#F47C59" points="67.309,191.18 65.184,191.18 61.559,191.18 58.559,191.18 54.934,191.18 53.516,191.18 
				52.088,191.18 52.088,194.554 73.374,194.554 73.374,191.18 71.946,191.18 70.934,191.18 			"/>
			<path fill="#E15A29" d="M52.088,194.554v0.539h1.428v11.921h7.941v-11.921h10.489h1.428v-0.539H52.088z M58.602,203.508
				c0,0.828-0.495,1.499-1.105,1.499s-1.105-0.671-1.105-1.499V197.9c0-0.828,0.495-1.5,1.105-1.5s1.105,0.672,1.105,1.5V203.508z"
				/>
			<polygon fill="#D54D28" points="52.088,210.388 52.088,210.927 53.516,210.927 61.457,210.927 71.946,210.927 73.374,210.927 
				73.374,210.388 			"/>
			<path fill="#734433" d="M57.496,196.4c-0.61,0-1.105,0.672-1.105,1.5v5.607c0,0.828,0.495,1.499,1.105,1.499
				s1.105-0.671,1.105-1.499V197.9C58.602,197.072,58.106,196.4,57.496,196.4z"/>
			<path fill="#734433" d="M64.535,205.007c0.609,0,1.105-0.671,1.105-1.499V197.9c0-0.828-0.496-1.5-1.105-1.5
				c-0.611,0-1.105,0.672-1.105,1.5v5.607C63.43,204.336,63.924,205.007,64.535,205.007z"/>
			<path fill="#734433" d="M68.867,205.007c0.611,0,1.106-0.671,1.106-1.499V197.9c0-0.828-0.495-1.5-1.106-1.5
				c-0.609,0-1.104,0.672-1.104,1.5v5.607C67.763,204.336,68.258,205.007,68.867,205.007z"/>
			<polygon fill="#D54D28" points="70.934,188.133 67.309,188.133 67.309,190.158 66.825,190.158 65.184,190.158 65.184,188.133 
				61.95,188.133 61.559,188.133 61.559,190.158 58.559,190.158 58.559,188.133 54.934,188.133 54.934,190.158 53.516,190.158 
				53.516,191.18 54.934,191.18 58.559,191.18 61.559,191.18 65.184,191.18 67.309,191.18 70.934,191.18 71.946,191.18 
				71.946,190.158 71.033,190.158 70.934,190.158 			"/>
			<polygon fill="#F37042" points="135.878,148.947 135.848,148.947 135.878,148.969 			"/>
			<path fill="#F37042" d="M131.67,159.074h4.208v-4.95v-0.906v-3.372h-4.208V159.074z M133.914,150.596
				c0.439,0,0.794,0.451,0.794,1.006v3.761c0,0.555-0.354,1.005-0.794,1.005c-0.438,0-0.792-0.45-0.792-1.005v-3.761
				C133.122,151.047,133.477,150.596,133.914,150.596z"/>
			<rect x="131.67" y="160.386" fill="#F37042" width="4.208" height="21.576"/>
			<polygon fill="#E15A29" points="131.67,181.962 131.67,160.386 135.878,160.386 136.712,160.386 136.712,159.949 
				125.837,159.949 125.837,160.386 126.795,160.386 126.795,162.812 126.795,168.093 126.795,168.865 126.795,170.039 
				126.795,181.962 			"/>
			<path fill="#E15A29" d="M126.795,159.074h4.875v-9.229h-4.875v3.372v0.906V159.074z M128.439,151.602
				c0-0.555,0.355-1.006,0.792-1.006c0.438,0,0.794,0.451,0.794,1.006v3.761c0,0.555-0.355,1.005-0.794,1.005
				c-0.437,0-0.792-0.45-0.792-1.005V151.602z"/>
			<polygon fill="#F47C59" points="125.837,159.949 136.712,159.949 136.712,159.074 135.878,159.074 131.67,159.074 
				126.795,159.074 125.837,159.074 			"/>
			<path fill="#734433" d="M128.439,155.362c0,0.555,0.355,1.005,0.792,1.005c0.438,0,0.794-0.45,0.794-1.005v-3.761
				c0-0.555-0.355-1.006-0.794-1.006c-0.437,0-0.792,0.451-0.792,1.006V155.362z"/>
			<path fill="#734433" d="M133.122,155.362c0,0.555,0.354,1.005,0.792,1.005c0.439,0,0.794-0.45,0.794-1.005v-3.761
				c0-0.555-0.354-1.006-0.794-1.006c-0.438,0-0.792,0.451-0.792,1.006V155.362z"/>
			<polygon fill="#D9552D" points="135.878,149.846 137.188,149.846 135.878,148.969 135.848,148.947 131.339,145.924 
				125.361,149.846 126.795,149.846 131.67,149.846 			"/>
			<rect x="104.823" y="168.093" fill="#F37042" width="21.972" height="0.772"/>
			<path fill="#E15A29" d="M147.521,161.859v9.228h4.875v-9.228H147.521z M150.752,167.375c0,0.555-0.355,1.005-0.794,1.005
				c-0.437,0-0.792-0.45-0.792-1.005v-3.761c0-0.554,0.355-1.005,0.792-1.005c0.438,0,0.794,0.451,0.794,1.005V167.375z"/>
			<polygon fill="#F47C59" points="147.521,171.087 146.564,171.087 146.564,171.962 157.439,171.962 157.439,171.087 
				152.396,171.087 			"/>
			<polygon fill="#E15A29" points="146.564,171.962 146.564,172.398 147.521,172.398 147.521,183.517 147.76,183.517 
				147.76,184.611 147.76,185.361 147.76,189.029 147.76,190.736 147.76,209.902 149.781,209.902 149.781,211.373 152.396,211.373 
				152.396,172.398 157.439,172.398 157.439,171.962 			"/>
			<path fill="#734433" d="M149.958,162.609c-0.437,0-0.792,0.451-0.792,1.005v3.761c0,0.555,0.355,1.005,0.792,1.005
				c0.438,0,0.794-0.45,0.794-1.005v-3.761C150.752,163.061,150.396,162.609,149.958,162.609z"/>
			<path fill="#734433" d="M154.642,162.609c-0.438,0-0.793,0.451-0.793,1.005v3.761c0,0.555,0.354,1.005,0.793,1.005
				s0.794-0.45,0.794-1.005v-3.761C155.436,163.061,155.08,162.609,154.642,162.609z"/>
			<polygon fill="#D9552D" points="146.089,161.859 146.501,161.859 147.521,161.859 152.396,161.859 157.914,161.859 
				152.066,157.936 152.055,157.943 146.501,161.588 			"/>
			<path fill="#E96439" d="M130.578,190.736v19.166h1.709v1.471h3.069v-1.471h2.806v1.471h0.035v-20.637H130.578z M135.322,200.078
				c0,0.709-0.434,1.284-0.971,1.284c-0.535,0-0.969-0.575-0.969-1.284v-4.807c0-0.709,0.434-1.284,0.969-1.284
				c0.537,0,0.971,0.575,0.971,1.284V200.078z"/>
			<path fill="#E96439" d="M106.354,209.902h2.807v1.471h3.006v-20.637h-7.38v20.637h1.567V209.902z M107.383,195.271
				c0-0.709,0.434-1.284,0.969-1.284c0.537,0,0.971,0.575,0.971,1.284v4.807c0,0.709-0.434,1.284-0.971,1.284
				c-0.535,0-0.969-0.575-0.969-1.284V195.271z"/>
			<polygon fill="#E96439" points="111.164,187.983 112.166,187.983 112.166,185.361 104.786,185.361 104.786,189.029 
				111.164,189.029 			"/>
			<path fill="#E96439" d="M113.134,190.736v19.166h2.188v1.471h2.255v-1.471h2.807v1.471h0.938v-20.637H113.134z M117.822,200.078
				c0,0.709-0.434,1.284-0.971,1.284c-0.535,0-0.969-0.575-0.969-1.284v-4.807c0-0.709,0.434-1.284,0.969-1.284
				c0.537,0,0.971,0.575,0.971,1.284V200.078z"/>
			<polygon fill="#E96439" points="137.197,187.983 138.197,187.983 138.197,185.361 131.548,185.361 131.548,187.983 
				132.548,187.983 132.548,188.856 131.553,189.029 137.197,189.029 			"/>
			<path fill="#E96439" d="M122.288,190.736v20.637h1.187v-1.471h2.806v1.471h3.2v-1.471h0.131v-19.166H122.288z M126.197,200.078
				c0,0.709-0.434,1.284-0.971,1.284c-0.535,0-0.969-0.575-0.969-1.284v-4.807c0-0.709,0.434-1.284,0.969-1.284
				c0.537,0,0.971,0.575,0.971,1.284V200.078z"/>
			<polygon fill="#E96439" points="128.609,187.983 129.611,187.983 129.611,185.361 123.258,185.361 123.258,187.983 
				124.258,187.983 124.258,188.856 123.264,189.029 128.609,189.029 			"/>
			<polygon fill="#E96439" points="120.319,187.983 121.32,187.983 121.32,185.361 114.104,185.361 114.104,187.983 
				115.104,187.983 115.104,188.856 114.109,189.029 120.319,189.029 			"/>
			<path fill="#E96439" d="M139.166,190.736v20.637h1.867v-1.471h2.807v1.471h3.135v-1.471h0.785v-19.166H139.166z M144.072,200.078
				c0,0.709-0.434,1.284-0.971,1.284c-0.535,0-0.969-0.575-0.969-1.284v-4.807c0-0.709,0.434-1.284,0.969-1.284
				c0.537,0,0.971,0.575,0.971,1.284V200.078z"/>
			<polygon fill="#E96439" points="147.76,189.029 147.76,185.361 140.135,185.361 140.135,187.983 141.135,187.983 
				141.135,188.856 140.141,189.029 			"/>
			<polygon fill="#F47C59" points="121.32,189.03 120.319,189.03 120.319,189.029 114.109,189.029 114.104,189.03 113.134,189.03 
				113.134,190.736 121.32,190.736 			"/>
			<polygon fill="#F47C59" points="112.166,189.03 111.164,189.03 111.164,189.029 104.786,189.029 104.786,190.736 
				112.166,190.736 			"/>
			<polygon fill="#F47C59" points="129.611,189.03 128.609,189.03 128.609,189.029 123.264,189.029 123.258,189.03 122.288,189.03 
				122.288,190.736 129.611,190.736 			"/>
			<polygon fill="#F47C59" points="138.197,189.03 137.197,189.03 137.197,189.029 131.553,189.029 131.548,189.03 130.578,189.03 
				130.578,190.736 138.197,190.736 			"/>
			<polygon fill="#F47C59" points="147.76,190.736 147.76,189.029 140.141,189.029 140.135,189.03 139.166,189.03 139.166,190.736 
							"/>
			<path fill="#734433" d="M125.227,193.987c-0.535,0-0.969,0.575-0.969,1.284v4.807c0,0.709,0.434,1.284,0.969,1.284
				c0.537,0,0.971-0.575,0.971-1.284v-4.807C126.197,194.562,125.764,193.987,125.227,193.987z"/>
			<path fill="#734433" d="M134.352,193.987c-0.535,0-0.969,0.575-0.969,1.284v4.807c0,0.709,0.434,1.284,0.969,1.284
				c0.537,0,0.971-0.575,0.971-1.284v-4.807C135.322,194.562,134.889,193.987,134.352,193.987z"/>
			<path fill="#734433" d="M143.102,193.987c-0.535,0-0.969,0.575-0.969,1.284v4.807c0,0.709,0.434,1.284,0.969,1.284
				c0.537,0,0.971-0.575,0.971-1.284v-4.807C144.072,194.562,143.639,193.987,143.102,193.987z"/>
			<path fill="#734433" d="M116.852,193.987c-0.535,0-0.969,0.575-0.969,1.284v4.807c0,0.709,0.434,1.284,0.969,1.284
				c0.537,0,0.971-0.575,0.971-1.284v-4.807C117.822,194.562,117.389,193.987,116.852,193.987z"/>
			<path fill="#734433" d="M108.352,201.362c0.537,0,0.971-0.575,0.971-1.284v-4.807c0-0.709-0.434-1.284-0.971-1.284
				c-0.535,0-0.969,0.575-0.969,1.284v4.807C107.383,200.787,107.816,201.362,108.352,201.362z"/>
			<polygon fill="#CD4C28" points="108.51,184.611 110.612,184.611 113.135,184.611 116.803,184.611 119.324,184.611 
				121.734,184.611 124.258,184.611 126.51,184.611 129.032,184.611 132.549,184.611 135.07,184.611 137.572,184.611 
				140.094,184.611 142.811,184.611 145.333,184.611 147.76,184.611 147.76,183.517 147.521,183.517 146.501,183.517 
				145.333,183.517 145.333,181.99 142.811,181.99 142.811,183.517 140.094,183.517 140.094,181.99 137.572,181.99 137.572,183.517 
				135.07,183.517 135.07,181.99 132.549,181.99 132.549,183.517 129.032,183.517 129.032,181.99 126.51,181.99 126.51,183.517 
				124.258,183.517 124.258,181.99 121.734,181.99 121.734,183.517 119.324,183.517 119.324,181.99 119.139,181.99 116.803,181.99 
				116.803,183.517 113.135,183.517 113.135,181.99 110.612,181.99 110.612,183.517 108.51,183.517 108.51,181.99 107.462,181.99 
				105.988,181.99 105.988,183.517 104.786,183.517 104.786,184.611 105.988,184.611 			"/>
			<polygon fill="#B93926" points="112.166,187.983 111.164,187.983 111.164,189.029 111.164,189.03 112.166,189.03 
				112.166,190.736 112.166,211.373 112.516,211.373 112.516,209.902 113.134,209.902 113.134,190.736 113.134,189.03 
				114.104,189.03 114.109,189.029 115.104,188.856 115.104,187.983 114.104,187.983 114.104,185.361 121.32,185.361 
				121.32,187.983 120.319,187.983 120.319,189.029 120.319,189.03 121.32,189.03 121.32,190.736 121.32,211.373 122.288,211.373 
				122.288,190.736 122.288,189.03 123.258,189.03 123.264,189.029 124.258,188.856 124.258,187.983 123.258,187.983 
				123.258,185.361 129.611,185.361 129.611,187.983 128.609,187.983 128.609,189.029 128.609,189.03 129.611,189.03 
				129.611,190.736 129.611,209.902 130.578,209.902 130.578,190.736 130.578,189.03 131.548,189.03 131.553,189.029 
				132.548,188.856 132.548,187.983 131.548,187.983 131.548,185.361 138.197,185.361 138.197,187.983 137.197,187.983 
				137.197,189.029 137.197,189.03 138.197,189.03 138.197,190.736 138.197,211.373 139.166,211.373 139.166,190.736 
				139.166,189.03 140.135,189.03 140.141,189.029 141.135,188.856 141.135,187.983 140.135,187.983 140.135,185.361 
				147.76,185.361 147.76,184.611 145.333,184.611 142.811,184.611 140.094,184.611 137.572,184.611 135.07,184.611 
				132.549,184.611 129.032,184.611 126.51,184.611 124.258,184.611 121.734,184.611 119.324,184.611 116.803,184.611 
				113.135,184.611 110.612,184.611 108.51,184.611 105.988,184.611 104.786,184.611 104.786,185.361 112.166,185.361 			"/>
			<path fill="#E15A29" d="M93.387,154.124h11.399h1.183v-0.539H84.684v0.539h1.892v16.522h6.812V154.124z M89.98,168.745
				c-0.609,0-1.105-0.671-1.105-1.499v-10.607c0-0.828,0.496-1.5,1.105-1.5c0.611,0,1.105,0.672,1.105,1.5v10.607
				C91.086,168.074,90.592,168.745,89.98,168.745z"/>
			<path fill="#F37042" d="M101.988,288.739v-32.132c0,0-0.426-3.397,1.689-5.61v-17.124h-0.957v-0.437v-0.875h0.957v-9.228h-1.433
				l2.103-1.38v-8.579h0.269v-2.002h0.17v-20.637v-1.707v-3.668v-0.75v-1.095v-8.958H93.387v114.225h11.399v-0.044h-0.438H101.988z"
				/>
			<path fill="#F37042" d="M93.387,154.124v16.522h11.399v-16.522H93.387z M97.537,167.366c0,0.828-0.496,1.499-1.106,1.499
				s-1.104-0.671-1.104-1.499V156.76c0-0.83,0.494-1.5,1.104-1.5s1.106,0.67,1.106,1.5V167.366z"/>
			<polygon fill="#F47C59" points="105.969,174.02 105.969,170.646 104.786,170.646 93.387,170.646 86.575,170.646 84.684,170.646 
				84.684,174.02 			"/>
			<polygon fill="#E15A29" points="104.786,174.559 105.969,174.559 105.969,174.02 84.684,174.02 84.684,174.228 84.684,174.559 
				86.575,174.559 86.575,275.728 86.575,288.783 93.387,288.783 93.387,174.559 			"/>
			<polygon fill="#F47C59" points="105.969,153.585 105.969,150.211 100.789,150.211 84.684,150.211 84.684,153.585 			"/>
			<path fill="#734433" d="M96.431,155.26c-0.61,0-1.104,0.67-1.104,1.5v10.606c0,0.828,0.494,1.499,1.104,1.499
				s1.106-0.671,1.106-1.499V156.76C97.537,155.93,97.041,155.26,96.431,155.26z"/>
			<path fill="#734433" d="M89.98,155.139c-0.609,0-1.105,0.672-1.105,1.5v10.607c0,0.828,0.496,1.499,1.105,1.499
				c0.611,0,1.105-0.671,1.105-1.499v-10.607C91.086,155.811,90.592,155.139,89.98,155.139z"/>
			<polygon fill="#CD4C28" points="159.963,187.773 157.441,187.773 157.441,189.301 156.087,189.301 156.087,190.18 
				175.773,190.18 175.773,189.301 174.328,189.301 174.328,187.773 171.805,187.773 171.805,189.301 169.516,189.301 
				169.516,187.773 166.994,187.773 166.994,189.301 164.586,189.301 164.586,187.773 162.064,187.773 162.064,189.301 
				161.916,189.301 159.963,189.301 			"/>
			<polygon fill="#CD4C28" points="194.125,190.18 195.463,190.18 195.463,190.396 195.561,190.396 195.561,189.301 
				194.635,189.301 194.635,187.773 194.125,187.773 			"/>
			<rect x="183.469" y="240.693" fill="#B93926" width="3.863" height="0.271"/>
			<rect x="176.818" y="240.693" fill="#B93926" width="3.736" height="0.271"/>
			<rect x="190.246" y="240.693" fill="#B93926" width="3.42" height="0.271"/>
			<polygon fill="#B93926" points="194.125,239.127 195.463,239.127 195.463,217.008 195.463,214.883 195.463,198.006 
				194.125,198.006 			"/>
			<path fill="#B93926" d="M159.777,192.945v0.312v9.938h1.375v2v0.875h-1.375v10.25h1.094v1.812v0.625h-1.094v22.206h1.016v-1.837
				h2.912v1.837h2.572v-22.206h-1.094v-0.625v-1.812h1.094v-10.25h-1.375v-0.875v-2h1.375c0,0,0-3.875,0-4.625
				s1.875-5.625,3.875-5.625v0.312v9.938h1.375v2v0.875h-1.375v10.25h1.094v1.812v0.625h-1.094v22.206h3.752v-1.837h1.869v-41.121
				h-1.469v-0.539v-2.614h1.469v-4.673h-19.687v0.216v7.381C156.607,196.169,158.15,192.945,159.777,192.945z"/>
			<polygon fill="#B93926" points="194.125,190.18 194.125,194.853 195.463,194.853 195.463,190.396 195.463,190.18 			"/>
			<polygon fill="#D54D28" points="176.818,239.127 176.818,240.693 180.555,240.693 180.555,239.127 182.447,239.127 
				182.447,198.006 175.773,198.006 175.773,239.127 			"/>
			<polygon fill="#D54D28" points="175.773,194.853 182.447,194.853 182.447,178.294 175.773,178.294 175.773,189.301 
				175.773,190.18 			"/>
			<polygon fill="#F37042" points="182.447,194.853 194.125,194.853 194.125,190.18 194.125,187.773 194.125,178.294 
				182.447,178.294 			"/>
			<polygon fill="#F37042" points="183.469,239.127 183.469,240.693 187.332,240.693 187.332,239.127 190.246,239.127 
				190.246,240.693 193.666,240.693 193.666,239.127 194.125,239.127 194.125,198.006 182.447,198.006 182.447,239.127 			"/>
			<path fill="#F37042" d="M188.953,177.32h5.172h1.758h0.002v-9.313h-6.932V177.32z M191.098,170.783
				c0-0.555,0.514-1.006,1.148-1.006c0.637,0,1.15,0.451,1.15,1.006v3.761c0,0.556-0.514,1.005-1.15,1.005
				c-0.635,0-1.148-0.449-1.148-1.005V170.783z"/>
			<path fill="#D54D28" d="M180.947,177.32v-9.313h-6.932v9.313h1.758H180.947z M176.502,170.783c0-0.555,0.514-1.006,1.146-1.006
				c0.637,0,1.15,0.451,1.15,1.006v3.761c0,0.556-0.514,1.005-1.15,1.005c-0.633,0-1.146-0.449-1.146-1.005V170.783z"/>
			<path fill="#DD552B" d="M180.947,168.007v9.313h1.5h6.506v-9.313H180.947z M186.098,174.544c0,0.556-0.514,1.005-1.15,1.005
				c-0.633,0-1.148-0.449-1.148-1.005v-3.761c0-0.555,0.516-1.006,1.148-1.006c0.637,0,1.15,0.451,1.15,1.006V174.544z"/>
			<polygon fill="#C74427" points="194.125,178.294 195.883,178.294 195.883,177.32 194.125,177.32 188.953,177.32 182.447,177.32 
				180.947,177.32 175.773,177.32 174.016,177.32 174.014,177.32 174.014,178.294 175.773,178.294 182.447,178.294 			"/>
			<polygon fill="#B93926" points="186.408,162.287 186.408,159.666 183.49,159.666 183.49,162.287 184.949,161.75 			"/>
			<polygon fill="#D54D28" points="199.684,167.172 186.408,162.287 184.949,161.75 183.49,162.287 170.213,167.172 			"/>
			<polygon fill="#BF4127" points="188.953,168.007 195.885,168.007 199.684,168.007 199.684,167.173 170.213,167.173 
				170.213,168.007 174.016,168.007 180.947,168.007 			"/>
			<path fill="#734433" d="M192.246,175.549c0.637,0,1.15-0.449,1.15-1.005v-3.761c0-0.555-0.514-1.006-1.15-1.006
				c-0.635,0-1.148,0.451-1.148,1.006v3.761C191.098,175.1,191.611,175.549,192.246,175.549z"/>
			<path fill="#734433" d="M177.648,175.549c0.637,0,1.15-0.449,1.15-1.005v-3.761c0-0.555-0.514-1.006-1.15-1.006
				c-0.633,0-1.146,0.451-1.146,1.006v3.761C176.502,175.1,177.016,175.549,177.648,175.549z"/>
			<path fill="#734433" d="M184.947,169.777c-0.633,0-1.148,0.451-1.148,1.006v3.761c0,0.556,0.516,1.005,1.148,1.005
				c0.637,0,1.15-0.449,1.15-1.005v-3.761C186.098,170.229,185.584,169.777,184.947,169.777z"/>
			<polygon fill="#F47C59" points="182.447,194.853 175.773,194.853 174.305,194.853 174.305,197.467 195.592,197.467 
				195.592,194.853 195.463,194.853 194.125,194.853 			"/>
			<polygon fill="#E15A29" points="174.305,197.467 174.305,198.006 175.773,198.006 182.447,198.006 194.125,198.006 
				195.463,198.006 195.592,198.006 195.592,197.467 			"/>
			<path fill="#E96439" d="M135.678,232.562v-9.228h-1.433l0.719-0.472h-21.597l0.703,0.472h-1.309v9.228h0.834v0.875v0.437h-0.834
				v0.509l1.472,4.517h21.444v-5.025h-0.957v-0.437v-0.875H135.678z M120.598,232.855c0,0.783-0.501,1.419-1.119,1.419
				c-0.619,0-1.119-0.636-1.119-1.419v-5.309c0-0.782,0.5-1.419,1.119-1.419c0.618,0,1.119,0.637,1.119,1.419V232.855z
				 M131.021,232.855c0,0.783-0.502,1.419-1.121,1.419c-0.617,0-1.119-0.636-1.119-1.419v-5.309c0-0.782,0.502-1.419,1.119-1.419
				c0.619,0,1.121,0.637,1.121,1.419V232.855z"/>
			<polygon fill="#E96439" points="152.641,253.072 152.641,250.572 152.641,243.602 152.559,243.602 152.559,241.036 
				146.965,241.036 152.641,258.449 152.641,254.239 			"/>
			<path fill="#E96439" d="M135.678,250.997v-9.961H114.93l15.547,47.703h3.512v-32.132
				C133.988,256.607,133.562,253.21,135.678,250.997z"/>
			<path fill="#E96439" d="M104.615,220.725h1.604l2.003-1.314l1.959,1.314h28.039l2.002-1.314l1.959,1.314h13.344v2.138h-10.158
				l0.703,0.472h-1.309v9.228h0.834v0.875v0.437h-0.834v0.401l1.507,4.624h9.547v0.229h0.087v-20.369h-1.094v-0.625v-1.812h1.094
				v-2.945h-51.286h-0.269v8.579l0.268-0.176V220.725z M151.6,232.855c0,0.783-0.502,1.419-1.12,1.419s-1.119-0.636-1.119-1.419
				v-5.309c0-0.782,0.501-1.419,1.119-1.419s1.12,0.637,1.12,1.419V232.855z"/>
			<polygon fill="#F47C59" points="138.221,220.725 110.182,220.725 112.731,222.436 112.762,222.436 112.762,222.456 
				113.367,222.862 134.964,222.862 			"/>
			<polygon fill="#F47C59" points="144.762,222.436 144.762,222.456 145.367,222.862 155.525,222.862 155.525,220.725 
				142.182,220.725 144.731,222.436 			"/>
			<polygon fill="#F47C59" points="104.615,220.725 104.615,221.778 106.22,220.725 			"/>
			<polygon fill="#F47C59" points="152.559,240.964 154.016,240.964 154.016,239.127 155.815,239.127 155.815,238.898 
				146.269,238.898 146.965,241.036 152.559,241.036 			"/>
			<polygon fill="#F47C59" points="114.233,238.898 114.93,241.036 135.678,241.036 135.678,238.898 			"/>
			<path fill="#734433" d="M119.479,226.128c-0.619,0-1.119,0.637-1.119,1.419v5.309c0,0.783,0.5,1.419,1.119,1.419
				c0.618,0,1.119-0.636,1.119-1.419v-5.309C120.598,226.765,120.097,226.128,119.479,226.128z"/>
			<path fill="#734433" d="M129.9,226.128c-0.617,0-1.119,0.637-1.119,1.419v5.309c0,0.783,0.502,1.419,1.119,1.419
				c0.619,0,1.121-0.636,1.121-1.419v-5.309C131.021,226.765,130.52,226.128,129.9,226.128z"/>
			<path fill="#734433" d="M150.479,226.128c-0.618,0-1.119,0.637-1.119,1.419v5.309c0,0.783,0.501,1.419,1.119,1.419
				s1.12-0.636,1.12-1.419v-5.309C151.6,226.765,151.098,226.128,150.479,226.128z"/>
			<polygon fill="#D54D28" points="155.902,213.375 155.902,211.373 155.217,211.373 155.217,209.902 152.41,209.902 
				152.41,211.373 152.396,211.373 149.781,211.373 149.781,209.902 147.76,209.902 146.975,209.902 146.975,211.373 
				143.84,211.373 143.84,209.902 141.033,209.902 141.033,211.373 139.166,211.373 138.197,211.373 138.162,211.373 
				138.162,209.902 135.356,209.902 135.356,211.373 132.287,211.373 132.287,209.902 130.578,209.902 129.611,209.902 
				129.48,209.902 129.48,211.373 126.28,211.373 126.28,209.902 123.475,209.902 123.475,211.373 122.288,211.373 121.32,211.373 
				120.383,211.373 120.383,209.902 117.576,209.902 117.576,211.373 115.321,211.373 115.321,209.902 113.134,209.902 
				112.516,209.902 112.516,211.373 112.166,211.373 109.16,211.373 109.16,209.902 106.354,209.902 106.354,211.373 
				104.786,211.373 104.616,211.373 104.616,213.375 			"/>
			<path fill="#F37042" d="M152.641,254.239v4.21l3.074,9.436h48.426v2.5h0.166v-16.146H152.641z M157.975,262.583
				c0,0.783-0.502,1.419-1.119,1.419c-0.619,0-1.119-0.636-1.119-1.419v-5.309c0-0.782,0.5-1.419,1.119-1.419
				c0.617,0,1.119,0.637,1.119,1.419V262.583z M168.535,262.583c0,0.783-0.502,1.419-1.119,1.419c-0.619,0-1.119-0.636-1.119-1.419
				v-5.309c0-0.782,0.5-1.419,1.119-1.419c0.617,0,1.119,0.637,1.119,1.419V262.583z M178.869,262.583
				c0,0.783-0.502,1.419-1.121,1.419c-0.617,0-1.119-0.636-1.119-1.419v-5.309c0-0.782,0.502-1.419,1.119-1.419
				c0.619,0,1.121,0.637,1.121,1.419V262.583z M188.934,262.583c0,0.783-0.502,1.419-1.119,1.419c-0.619,0-1.119-0.636-1.119-1.419
				v-5.309c0-0.782,0.5-1.419,1.119-1.419c0.617,0,1.119,0.637,1.119,1.419V262.583z M199.457,262.583
				c0,0.783-0.502,1.419-1.121,1.419c-0.617,0-1.119-0.636-1.119-1.419v-5.309c0-0.782,0.502-1.419,1.119-1.419
				c0.619,0,1.121,0.637,1.121,1.419V262.583z"/>
			<polygon fill="#F37042" points="152.641,243.602 152.641,250.572 204.141,250.572 204.141,253.072 204.307,253.072 
				204.307,243.602 			"/>
			<polygon fill="#F37042" points="156.91,271.552 162.512,288.739 204.307,288.739 204.307,276.008 204.307,271.552 			"/>
			<rect x="152.641" y="250.572" fill="#F47C59" width="51.5" height="2.5"/>
			<polygon fill="#D26239" points="152.641,253.072 152.641,254.239 204.307,254.239 204.807,254.239 204.807,253.072 
				204.307,253.072 204.141,253.072 			"/>
			<polygon fill="#F47C59" points="156.529,270.385 204.141,270.385 204.141,267.885 155.715,267.885 			"/>
			<polygon fill="#D26239" points="156.529,270.385 156.91,271.552 204.307,271.552 204.807,271.552 204.807,270.385 
				204.307,270.385 204.141,270.385 			"/>
			<path fill="#734433" d="M156.855,255.855c-0.619,0-1.119,0.637-1.119,1.419v5.309c0,0.783,0.5,1.419,1.119,1.419
				c0.617,0,1.119-0.636,1.119-1.419v-5.309C157.975,256.492,157.473,255.855,156.855,255.855z"/>
			<path fill="#734433" d="M167.416,255.855c-0.619,0-1.119,0.637-1.119,1.419v5.309c0,0.783,0.5,1.419,1.119,1.419
				c0.617,0,1.119-0.636,1.119-1.419v-5.309C168.535,256.492,168.033,255.855,167.416,255.855z"/>
			<path fill="#734433" d="M177.748,255.855c-0.617,0-1.119,0.637-1.119,1.419v5.309c0,0.783,0.502,1.419,1.119,1.419
				c0.619,0,1.121-0.636,1.121-1.419v-5.309C178.869,256.492,178.367,255.855,177.748,255.855z"/>
			<path fill="#734433" d="M187.814,255.855c-0.619,0-1.119,0.637-1.119,1.419v5.309c0,0.783,0.5,1.419,1.119,1.419
				c0.617,0,1.119-0.636,1.119-1.419v-5.309C188.934,256.492,188.432,255.855,187.814,255.855z"/>
			<path fill="#734433" d="M198.336,255.855c-0.617,0-1.119,0.637-1.119,1.419v5.309c0,0.783,0.502,1.419,1.119,1.419
				c0.619,0,1.121-0.636,1.121-1.419v-5.309C199.457,256.492,198.955,255.855,198.336,255.855z"/>
			<polygon fill="#D54D28" points="200.316,240.964 196.58,240.964 196.58,239.127 195.463,239.127 194.125,239.127 
				193.666,239.127 193.666,240.693 193.666,240.964 190.246,240.964 190.246,240.693 190.246,239.127 187.332,239.127 
				187.332,240.693 187.332,240.964 183.469,240.964 183.469,240.693 183.469,239.127 182.447,239.127 180.555,239.127 
				180.555,240.693 180.555,240.964 176.818,240.964 176.818,240.693 176.818,239.127 175.773,239.127 173.904,239.127 
				173.904,240.964 170.152,240.964 170.152,241.195 168.215,241.195 166.277,241.195 166.277,240.964 163.705,240.964 
				163.705,239.127 160.793,239.127 160.793,240.964 159.777,240.964 159.777,241.195 157.84,241.195 155.902,241.195 
				155.902,239.127 155.815,239.127 154.016,239.127 154.016,240.964 152.559,240.964 152.559,241.036 152.559,243.602 
				152.641,243.602 204.307,243.602 204.307,243.572 204.307,240.964 203.23,240.964 203.23,239.127 200.391,239.127 
				200.316,239.127 			"/>
			<polygon fill="#E96439" points="112.762,238.898 114.233,238.898 112.762,234.382 			"/>
			<polygon opacity="0.6" fill="#E04A26" points="112.762,238.898 114.233,238.898 112.762,234.382 			"/>
			<path fill="#E96439" d="M112.762,241.036v10.275c0.822,0.948,1.602,2.431,1.602,4.671c0,4.75,0,32.757,0,32.757h16.113
				l-15.547-47.703H112.762z"/>
			<path opacity="0.6" fill="#E04A26" d="M112.762,241.036v10.275c0.822,0.948,1.602,2.431,1.602,4.671c0,4.75,0,32.757,0,32.757
				h16.113l-15.547-47.703H112.762z"/>
			<polygon fill="#F47C59" points="112.762,238.898 112.762,241.036 114.93,241.036 114.233,238.898 			"/>
			<polygon opacity="0.6" fill="#E04A26" points="112.762,238.898 112.762,241.036 114.93,241.036 114.233,238.898 			"/>
			<polygon fill="#E96439" points="144.762,238.898 146.269,238.898 144.762,234.274 			"/>
			<polygon opacity="0.6" fill="#E04A26" points="144.762,238.898 146.269,238.898 144.762,234.274 			"/>
			<path fill="#E96439" d="M152.641,270.385v-2.5v-9.436l-5.676-17.413h-2.203v10.275c0.822,0.948,1.602,2.431,1.602,4.671
				c0,4.75,0,32.757,0,32.757h6.277v-17.188V270.385z"/>
			<path opacity="0.6" fill="#E04A26" d="M152.641,270.385v-2.5v-9.436l-5.676-17.413h-2.203v10.275
				c0.822,0.948,1.602,2.431,1.602,4.671c0,4.75,0,32.757,0,32.757h6.277v-17.188V270.385z"/>
			<polygon fill="#F47C59" points="144.762,238.898 144.762,241.036 146.965,241.036 146.269,238.898 			"/>
			<polygon opacity="0.6" fill="#E04A26" points="144.762,238.898 144.762,241.036 146.965,241.036 146.269,238.898 			"/>
			<polygon fill="#F37042" points="152.641,271.552 152.641,288.739 156.061,288.739 162.512,288.739 156.91,271.552 			"/>
			<polygon opacity="0.6" fill="#E04A26" points="152.641,271.552 152.641,288.739 156.061,288.739 162.512,288.739 156.91,271.552 
							"/>
			<polygon fill="#F37042" points="152.641,258.449 152.641,267.885 155.715,267.885 			"/>
			<polygon opacity="0.6" fill="#E04A26" points="152.641,258.449 152.641,267.885 155.715,267.885 			"/>
			<polygon fill="#F47C59" points="156.529,270.385 155.715,267.885 152.641,267.885 152.641,270.385 			"/>
			<polygon opacity="0.6" fill="#E04A26" points="156.529,270.385 155.715,267.885 152.641,267.885 152.641,270.385 			"/>
			<polygon fill="#D26239" points="152.641,270.385 152.641,271.552 156.91,271.552 156.529,270.385 			"/>
			<polygon opacity="0.6" fill="#E04A26" points="152.641,270.385 152.641,271.552 156.91,271.552 156.529,270.385 			"/>
			<path fill="#F37042" d="M108.553,223.334v9.228h4.209v-9.228H108.553z M110.798,229.854c-0.438,0-0.793-0.45-0.793-1.005v-3.761
				c0-0.554,0.354-1.005,0.793-1.005s0.794,0.451,0.794,1.005v3.761C111.592,229.404,111.236,229.854,110.798,229.854z"/>
			<polygon fill="#F37042" points="112.731,222.436 112.762,222.456 112.762,222.436 			"/>
			<path fill="#F37042" d="M112.762,234.382v-0.509h-4.209v15.984h0.311c0,0,2,1.125,2,4.875v-4.875c0,0,0.977,0.391,1.898,1.454
				v-10.275v-2.138V234.382z"/>
			<path fill="#E15A29" d="M108.553,232.562v-9.228h-4.875v9.228H108.553z M105.322,225.089c0-0.554,0.355-1.005,0.792-1.005
				c0.438,0,0.794,0.451,0.794,1.005v3.761c0,0.555-0.355,1.005-0.794,1.005c-0.437,0-0.792-0.45-0.792-1.005V225.089z"/>
			<path fill="#E15A29" d="M108.553,233.873h4.209h0.834v-0.437h-10.875v0.437h0.957v17.124c0.418-0.437,0.924-0.831,1.561-1.14
				h3.314V233.873z"/>
			<polygon fill="#F47C59" points="113.596,233.437 113.596,232.562 112.762,232.562 108.553,232.562 103.678,232.562 
				102.721,232.562 102.721,233.437 			"/>
			<path fill="#734433" d="M106.114,229.854c0.438,0,0.794-0.45,0.794-1.005v-3.761c0-0.554-0.355-1.005-0.794-1.005
				c-0.437,0-0.792,0.451-0.792,1.005v3.761C105.322,229.404,105.678,229.854,106.114,229.854z"/>
			<path fill="#734433" d="M110.798,224.084c-0.438,0-0.793,0.451-0.793,1.005v3.761c0,0.555,0.354,1.005,0.793,1.005
				s0.794-0.45,0.794-1.005v-3.761C111.592,224.535,111.236,224.084,110.798,224.084z"/>
			<polygon fill="#D9552D" points="108.553,223.334 112.762,223.334 114.07,223.334 113.367,222.862 112.762,222.456 
				112.731,222.436 110.182,220.725 108.223,219.41 106.22,220.725 104.615,221.778 104.348,221.954 102.245,223.334 
				103.678,223.334 			"/>
			<path fill="#D54D28" d="M105.238,249.857c-0.637,0.309-1.143,0.703-1.561,1.14c-2.115,2.213-1.689,5.61-1.689,5.61v32.132h2.359
				h0.438h0.452C105.238,288.739,105.238,256.482,105.238,249.857z"/>
			<path fill="#E25A29" d="M110.863,254.732c0-3.75-2-4.875-2-4.875h-0.311h-3.314c0,6.625,0,38.882,0,38.882h5.625
				C110.863,288.739,110.863,258.482,110.863,254.732z"/>
			<path fill="#F37042" d="M112.762,251.312c-0.922-1.063-1.898-1.454-1.898-1.454v4.875c0,3.75,0,34.007,0,34.007h1.863h1.637
				c0,0,0-28.007,0-32.757C114.363,253.742,113.584,252.26,112.762,251.312z"/>
			<path fill="#F37042" d="M140.553,232.562h4.209v-9.228h-4.209V232.562z M142.798,224.084c0.438,0,0.794,0.451,0.794,1.005v3.761
				c0,0.555-0.355,1.005-0.794,1.005s-0.793-0.45-0.793-1.005v-3.761C142.005,224.535,142.359,224.084,142.798,224.084z"/>
			<path fill="#F37042" d="M144.762,234.274v-0.401h-4.209v15.984h0.311c0,0,2,1.125,2,4.875v-4.875c0,0,0.977,0.391,1.898,1.454
				v-10.275v-2.138V234.274z"/>
			<polygon fill="#F37042" points="144.731,222.436 144.762,222.456 144.762,222.436 			"/>
			<path fill="#E15A29" d="M135.678,223.334v9.228h4.875v-9.228H135.678z M138.114,229.854c-0.437,0-0.792-0.45-0.792-1.005v-3.761
				c0-0.554,0.355-1.005,0.792-1.005c0.438,0,0.794,0.451,0.794,1.005v3.761C138.908,229.404,138.553,229.854,138.114,229.854z"/>
			<path fill="#E15A29" d="M140.553,233.873h4.209h0.834v-0.437h-10.875v0.437h0.957v5.025v2.138v9.961
				c0.417-0.437,0.923-0.831,1.561-1.14h3.314V233.873z"/>
			<polygon fill="#F47C59" points="144.762,232.562 140.553,232.562 135.678,232.562 134.721,232.562 134.721,233.437 
				145.596,233.437 145.596,232.562 			"/>
			<path fill="#734433" d="M138.114,224.084c-0.437,0-0.792,0.451-0.792,1.005v3.761c0,0.555,0.355,1.005,0.792,1.005
				c0.438,0,0.794-0.45,0.794-1.005v-3.761C138.908,224.535,138.553,224.084,138.114,224.084z"/>
			<path fill="#734433" d="M142.798,229.854c0.438,0,0.794-0.45,0.794-1.005v-3.761c0-0.554-0.355-1.005-0.794-1.005
				s-0.793,0.451-0.793,1.005v3.761C142.005,229.404,142.359,229.854,142.798,229.854z"/>
			<polygon fill="#D9552D" points="134.245,223.334 135.678,223.334 140.553,223.334 144.762,223.334 146.07,223.334 
				145.367,222.862 144.762,222.456 144.731,222.436 142.182,220.725 140.223,219.41 138.221,220.725 134.964,222.862 			"/>
			<path fill="#D54D28" d="M137.238,249.857c-0.638,0.309-1.144,0.703-1.561,1.14c-2.115,2.213-1.689,5.61-1.689,5.61v32.132h3.25
				C137.238,288.739,137.238,256.482,137.238,249.857z"/>
			<path fill="#E25A29" d="M142.863,254.732c0-3.75-2-4.875-2-4.875h-0.311h-3.314c0,6.625,0,38.882,0,38.882h5.625
				C142.863,288.739,142.863,258.482,142.863,254.732z"/>
			<path fill="#F37042" d="M144.762,251.312c-0.922-1.063-1.898-1.454-1.898-1.454v4.875c0,3.75,0,34.007,0,34.007h1.898h1.602
				c0,0,0-28.007,0-32.757C146.363,253.742,145.584,252.26,144.762,251.312z"/>
			<rect x="157.84" y="206.07" fill="#F37042" width="1.938" height="10.25"/>
			<polygon fill="#F37042" points="157.84,218.758 157.84,241.195 159.777,241.195 159.777,240.964 159.777,218.758 			"/>
			<polygon fill="#E45929" points="157.84,218.758 155.902,218.758 155.902,239.127 155.902,241.195 157.84,241.195 			"/>
			<polygon fill="#E45929" points="155.902,213.375 155.902,216.32 157.84,216.32 157.84,206.07 155.902,206.07 155.902,211.373 			
				"/>
			<path fill="#DD552B" d="M161.152,205.195v-2h-1.375v-9.938v-0.312c-1.627,0-3.17,3.224-3.69,4.831
				c-0.12,0.37-0.185,0.653-0.185,0.794c0,0.75,0,4.625,0,4.625h-1.375v2H161.152z"/>
			<polygon fill="#CD4C28" points="157.84,206.07 159.777,206.07 161.152,206.07 161.152,205.195 154.527,205.195 154.527,206.07 
				155.902,206.07 			"/>
			<polygon fill="#F47855" points="160.871,218.133 160.871,216.32 159.777,216.32 157.84,216.32 155.902,216.32 154.809,216.32 
				154.809,218.133 			"/>
			<polygon fill="#DD552B" points="157.84,218.758 159.777,218.758 160.871,218.758 160.871,218.133 154.809,218.133 
				154.809,218.758 155.902,218.758 			"/>
			<polygon fill="#F37042" points="168.215,218.758 168.215,241.195 170.152,241.195 170.152,240.964 170.152,218.758 			"/>
			<rect x="168.215" y="206.07" fill="#F37042" width="1.938" height="10.25"/>
			<rect x="166.277" y="206.07" fill="#E45929" width="1.938" height="10.25"/>
			<polygon fill="#E45929" points="168.215,218.758 166.277,218.758 166.277,240.964 166.277,241.195 168.215,241.195 			"/>
			<path fill="#DD552B" d="M171.527,203.195h-1.375v-9.938v-0.312c-2,0-3.875,4.875-3.875,5.625s0,4.625,0,4.625h-1.375v2h6.625
				V203.195z"/>
			<polygon fill="#CD4C28" points="170.152,206.07 171.527,206.07 171.527,205.195 164.902,205.195 164.902,206.07 166.277,206.07 
				168.215,206.07 			"/>
			<polygon fill="#F47855" points="171.246,218.133 171.246,216.32 170.152,216.32 168.215,216.32 166.277,216.32 165.184,216.32 
				165.184,218.133 			"/>
			<polygon fill="#DD552B" points="170.152,218.758 171.246,218.758 171.246,218.133 165.184,218.133 165.184,218.758 
				166.277,218.758 168.215,218.758 			"/>
		</g>
	</g>
	<path display="none" clip-path="url(#SVGID_2_)" fill="#009B97" d="M313.318,324.441c-4.201,5.164-11.465,5.577-11.465,5.577l0,0
		c-6.129,0-10.64-5.577-10.64-5.577c-4.201,5.164-11.466,5.577-11.466,5.577l0,0c-6.128,0-10.64-5.577-10.64-5.577
		c-4.201,5.164-11.018,5.577-11.018,5.577c-6.13,0-10.191-5.577-10.191-5.577c-4.201,5.164-11.466,5.577-11.466,5.577l0,0
		c-6.129,0-10.639-5.577-10.639-5.577c-4.201,5.164-11.466,5.577-11.466,5.577l0,0c-6.129,0-10.64-5.577-10.64-5.577
		c-4.201,5.164-11.463,5.577-11.463,5.577l0,0c-6.129,0-10.638-5.577-10.638-5.577c-4.201,5.164-11.466,5.577-11.466,5.577l0,0
		c-6.129,0-10.639-5.577-10.639-5.577c-4.201,5.164-11.466,5.577-11.466,5.577l0,0c-6.128,0-10.639-5.577-10.639-5.577
		c-4.202,5.164-11.464,5.577-11.464,5.577l0,0c-6.129,0-10.638-5.577-10.638-5.577c-4.201,5.164-11.465,5.577-11.465,5.577l0,0
		c-6.129,0-10.639-5.577-10.639-5.577c-4.201,5.164-11.466,5.577-11.466,5.577l0,0c-6.128,0-10.64-5.577-10.64-5.577l-0.39,67.019
		h242.453L313.318,324.441z"/>
	<g clip-path="url(#SVGID_2_)">
		<g>
			<g>
				<g>
					<path fill="#009B97" d="M555.383,391.46c-161.568,0-323.137,0-484.705,0c0.129-22.337,0.257-44.675,0.392-67.012
						c0,0,4.51,5.609,10.638,6.003c0,0,7.265,0.129,11.466-4.466c0,0,4.51,5.935,10.639,6.68c0,0,7.265,0.55,11.466-4.109
						c0,0,4.51,5.985,10.639,6.273c0,0,7.261-0.193,11.463-5.528c0,0,4.511,5.272,10.639,4.625c0,0,7.265-1.218,11.466-6.771
						c0,0,4.516,4.844,10.645,4.215c0,0,7.263-1.085,11.464-6.481c0,0,4.505,5.208,10.634,5.126c0,0,7.266-0.575,11.467-6.117
						c0,0,4.508,5.371,10.637,4.938c0,0,7.265-0.847,11.466-6.762c0,0,4.51,5.776,10.639,5.606c0,0,7.263-0.503,11.464-6.694
						c0,0,4.063,6.418,10.193,6.488c0,0,6.818-0.431,11.02-6.049c0,0,4.51,6.355,10.638,6.686c0,0,7.266-0.058,11.467-5.063
						c0,0,4.514,6.164,10.643,6.532c0,0,7.262-0.041,11.463-5.136c0,0,4.514,5.606,10.642,5.993c0,0,7.265,0.118,11.466-4.48
						c0,0,4.51,5.931,10.639,6.676c0,0,7.265,0.551,11.467-4.104c0,0,4.505,5.992,10.634,6.291c0,0,7.266-0.177,11.468-5.504
						c0,0,4.511,5.28,10.639,4.637c0,0,7.265-1.207,11.466-6.758c0,0,4.508,4.84,10.637,4.205c0,0,7.265-1.086,11.466-6.487
						c0,0,4.506,5.191,10.635,5.108c0,0,7.265-0.604,11.466-6.203c0,0,4.507,5.315,10.636,4.764c0,0,7.267-0.993,11.468-7.024
						c0,0,4.508,5.709,10.637,5.438c0,0,7.261-0.628,11.462-6.899c0,0,4.063,6.433,10.193,6.542c0,0,6.815-0.396,11.017-5.985
						c0,0,4.514,6.475,10.642,6.926c0,0,7.267,0.082,11.468-4.848c0,0,4.509,6.282,10.638,6.739c0,0,7.265,0.075,11.466-5.027
						C555.508,346.781,555.448,369.12,555.383,391.46z"/>
				</g>
			</g>
		</g>
	</g>
</g>
<g>
	<g>
		<path fill="none" d="M299.479,57.273l-0.013,7.23L299.479,57.273z"/>
		<path fill="none" d="M299.467,64.842c0,0-0.071,18.545-0.135,27.802L299.467,64.842z"/>
		<path fill="none" d="M81.986,82.57l7.213-2.857L81.986,82.57z"/>
		<path fill="none" d="M79.666,83.437c0,0,0.06-0.02,0.177-0.062c0.085-0.03,0.206-0.075,0.35-0.128
			c-0.402,0.098-0.506-0.041-0.527-0.561c0,0.302,0,0.451,0,0.753L79.666,83.437z"/>
		<path fill="#F37042" d="M298.021,91.629c0.438,0.344,0.875,0.675,1.312,1.015c0.063-9.257,0.109-18.523,0.135-27.802
			c0-0.113,0-0.225,0-0.338c0.004-2.404,0.011-4.819,0.013-7.23c0.001-0.902,0.001-1.807,0.001-2.71
			c-0.001-2.793-0.005-5.589-0.024-8.393c-0.016-2.157,0.02-4.306-0.124-6.528c-1.133-0.655-2.272-1.492-3.39-2.293
			c-26.871-19.24-40.314-14.191-67.384-1.37c-18.761,8.886-30.692-1.29-47.743-11.553c-13.357-8.04-25.657-6.091-41.361-2.909
			c-20.229,4.098-38.795,2.521-58.687,10.493c-0.364,0.146-0.735,0.287-1.103,0.427c0,4.6,0,9.201,0,13.801
			c0,10.067,0.001,15.102,0.001,25.168c0,4.02-0.001,6.029-0.001,10.049c0,0.545-0.012,0.943,0,1.23
			c0.021,0.52,0.125,0.658,0.527,0.561c0.327-0.08,0.851-0.314,1.696-0.641c0.032-0.012,0.065-0.023,0.098-0.035
			c2.395-0.909,4.808-1.918,7.213-2.857c0.134-0.053,0.272-0.104,0.402-0.158c8.702-3.633,19.789-4.027,28.248-3.502
			c11.036,0.686,25.357-3.693,37.221-4.962c14.711-1.573,22.351,3.562,35.156,12.191c12.231,8.242,20.131,13.757,35.054,7.786
			c17.82-7.131,29.485-20.463,46.812-16.742c5.385,1.157,11.921,6.336,17.839,10.92c1.507,1.168,2.876,2.25,4.066,3.194
			C295.341,89.506,296.683,90.576,298.021,91.629z"/>
		<path fill="#D54D28" d="M299.479,53.624c0,0.309,0.001,0.626,0.001,0.939c0.001,0.901,0,1.808-0.001,2.71
			c-0.002,2.338-0.006,4.777-0.013,7.23c0,0.113,0,0.225,0,0.338c-0.019,13.693-0.135,27.802-0.135,27.802
			c-0.437-0.34-0.874-0.671-1.312-1.015c-3.556,3.443-5.334,5.053-8.89,8.455c9.54,5.235,18.379,10.874,29.584,11.497
			c0-17.354,0-34.708,0-52.063C311.021,59.648,307.174,57.652,299.479,53.624z"/>
		<path fill="#9B3821" d="M293.998,88.44c-1.19-0.944-2.559-2.026-4.066-3.194c-0.553-0.428-1.12-0.863-1.711-1.312
			c0.198,6.619,0.296,9.929,0.494,16.549c0.166-0.159,0.25-0.241,0.416-0.399c3.556-3.402,5.334-5.012,8.89-8.455
			C296.683,90.576,295.341,89.506,293.998,88.44z"/>
		<path fill="#D54D28" d="M79.665,82.686c-0.012-0.287,0-0.686,0-1.23c0-4.02,0.001-6.029,0.001-10.049
			c0-10.066-0.001-15.101-0.001-25.168c-8.025,4.273-12.038,6.467-20.063,6.33c0,17.355,0,34.71,0,52.064
			c11.357-0.656,20.331-6.412,30-11.723c-2.65-2.543-3.974-3.768-6.624-6.287c-1.325-1.26-1.988-1.893-3.313-3.185
			C79.665,83.137,79.665,82.987,79.665,82.686z"/>
		<path fill="#9B3821" d="M81.986,82.57c-0.033,0.012-0.065,0.023-0.098,0.035c-0.846,0.326-1.369,0.561-1.696,0.641
			c-0.144,0.053-0.265,0.098-0.35,0.128c-0.117,0.043-0.177,0.062-0.177,0.062l-0.001,0.002c1.325,1.292,1.988,1.925,3.313,3.185
			c2.65,2.52,3.974,3.743,6.624,6.286c0-5.342,0-8.013,0-13.354c-0.135,0.053-0.268,0.105-0.402,0.158
			C86.125,80.913,83.643,81.932,81.986,82.57z"/>
	</g>
	<g>
		<path fill="#FFFFFF" d="M150.569,60.08c-0.202,0.014-0.391,0.188-0.571,0.522c-0.752,1.224-1.828,2.205-3.229,2.969
			c-1.401,0.765-2.819,1.245-4.255,1.433c-2.488,0.325-4.243-1.205-5.249-4.634c-0.342-1.165-0.604-2.45-0.79-3.855
			s-0.267-2.364-0.238-2.872c0.027-0.508,0.057-0.871,0.088-1.094c0.031-0.222,0.074-0.373,0.13-0.449
			c3.062-1.193,7.017-3.949,11.838-7.85c0.044,0.141,0.11,0.269,0.213,0.373c0.221,0.225,0.522,0.294,0.907,0.215
			c0.386-0.08,0.741-0.287,1.064-0.621c0.322-0.336,0.521-0.699,0.598-1.1c0.076-0.398-0.003-0.714-0.235-0.942
			c-0.005-0.005-0.011-0.005-0.016-0.009c4.396-3.713,8.055-7.215,10.825-10.729c0.196-0.25,0.305-0.457,0.327-0.615
			c0.023-0.158,0-0.273-0.068-0.352c-0.068-0.076-0.136-0.121-0.203-0.128c-0.202-0.022-0.486,0.167-0.834,0.567
			c-2.007,2.312-4.445,4.753-7.326,7.322c-2.881,2.57-5.597,4.857-8.146,6.74c-2.551,1.885-4.803,3.471-6.753,4.686
			c-1.952,1.215-3.265,1.873-3.937,1.966c-0.046,0.007-0.079,0.012-0.102,0.015c-0.189,0.096-0.322,0.417-0.4,0.967
			c-0.077,0.549-0.131,1.078-0.158,1.586c-0.028,0.508-0.036,1.156-0.007,1.924c0.168,4.376,1.413,7.504,3.573,9.258
			c1.242,1.008,2.658,1.406,4.25,1.194c1.592-0.214,3.213-0.901,4.867-2.048c1.653-1.146,2.875-2.362,3.663-3.67
			C150.713,60.322,150.771,60.066,150.569,60.08z"/>
		<path fill="#FFFFFF" d="M141.789,36.267c1.57-0.37,2.762-0.931,3.575-1.685c0.479-0.444,0.745-0.816,0.788-1.118
			c0.042-0.302-0.005-0.595-0.141-0.878c-0.137-0.283-0.379-0.405-0.727-0.365s-0.714,0.135-1.099,0.285s-0.875,0.578-1.47,1.284
			c-0.596,0.708-1.048,1.302-1.357,1.778c-0.433,0.104-1.437,0.316-3.01,0.644c-1.574,0.326-2.977,0.649-4.205,0.954
			c-4.044,1.002-7.255,2.377-9.591,4.128c-2.51,1.881-3.978,3.983-4.337,6.485c-0.254,1.769,0.154,3.201,1.198,4.266
			c0.778,0.793,1.727,1.169,2.849,1.092c0.65-0.045,1.37-0.237,2.146-0.584c1.275-0.569,2.347-1.675,3.235-3.191
			c0.53-0.906,0.87-1.702,0.964-2.367c0.094-0.664,0.074-1.229-0.059-1.693c-0.098-0.239-0.232-0.372-0.405-0.396
			c-0.113,0.013-0.164,0.145-0.155,0.395c0.009,0.251-0.033,0.692-0.122,1.322c-0.089,0.629-0.381,1.442-0.875,2.438
			c-1.021,2.061-2.452,3.189-4.289,3.324c-1.458,0.107-2.33-0.631-2.596-2.15c-0.099-0.566-0.1-1.152-0.015-1.752
			c0.162-1.129,0.642-2.305,1.44-3.544c1.657-2.571,4.102-4.442,7.282-5.718c1.702-0.682,4.047-1.383,7.021-2.058
			c1.612-0.366,2.59-0.593,2.933-0.687c-1.426,2.463-3.109,5.525-5.052,9.167s-3.279,6.053-4.009,7.246
			c-0.73,1.194-1.701,2.594-2.908,4.183c-1.208,1.589-2.429,2.957-3.667,4.097c-1.238,1.14-2.727,2.219-4.463,3.186
			c-1.737,0.967-3.556,1.626-5.457,1.932c-0.654,0.138-1.397,0.167-2.227,0.073c-0.83-0.094-1.866-0.405-3.107-0.757
			c-1.808-0.513-3.29-1.375-4.448-2.715c-0.935-1.081-1.295-2.548-1.025-4.46c0.264-1.866,0.979-3.508,2.144-4.795
			c0.891-0.983,1.647-1.567,2.209-1.806c0.143-0.061,0.225-0.151,0.242-0.266c0.026-0.183-0.114-0.254-0.408-0.222
			c-0.562,0.061-1.344,0.48-2.321,1.329c-0.978,0.851-1.668,1.835-2.071,2.896s-0.673,2.083-0.811,3.054
			c-0.137,0.974-0.095,1.926,0.126,2.852c0.728,3.047,3.095,4.613,7.048,5.983c1.078,0.374,2.102,0.664,3.056,0.76
			c0.953,0.095,1.833,0.1,2.633,0.022c2.468-0.236,4.758-1.09,6.852-2.432s3.84-2.926,5.237-4.68
			c1.396-1.753,2.76-3.794,4.089-6.112c1.328-2.317,2.433-4.497,3.312-6.522C138.157,42.925,140.171,38.844,141.789,36.267z
			 M144.057,33.655c0.289-0.254,0.558-0.394,0.805-0.423c0.201-0.023,0.284,0.092,0.248,0.348c-0.053,0.373-0.403,0.747-1.052,1.124
			c-0.363,0.228-0.876,0.429-1.54,0.606C143.255,34.458,143.768,33.908,144.057,33.655z"/>
		<path fill="#FFFFFF" d="M144.793,54.289c-0.31,0.803-0.47,1.51-0.482,2.126c-0.012,0.615,0.158,1.128,0.511,1.54
			c0.352,0.412,0.94,0.518,1.768,0.324c0.826-0.191,1.715-0.928,2.666-2.186c0.346-0.457,0.741-1.088,1.175-1.887
			c0.433-0.797,0.727-1.368,0.881-1.715c0.153-0.346,0.325-0.734,0.515-1.164c0.188-0.43,0.284-0.696,0.286-0.799
			c0.003-0.103-0.019-0.172-0.063-0.209c-0.155-0.109-0.314,0.028-0.481,0.393c-1.294,2.811-2.442,4.77-3.297,5.795
			c-0.484,0.535-0.945,0.855-1.375,0.954c-0.701,0.161-1.048-0.085-1.034-0.744c0.012-0.593,0.217-1.356,0.619-2.29
			c1.139-2.81,1.71-4.207,2.85-6.986c0.234-0.457,0.309-0.773,0.223-0.947c-0.087-0.176-0.39-0.21-0.91-0.099
			c-0.748,0.174-1.124,0.265-1.872,0.45c0.265,0.303,0.393,0.568,0.388,0.796s-0.029,0.415-0.077,0.562
			C146.165,50.63,145.708,51.848,144.793,54.289z"/>
		<path fill="#FFFFFF" d="M186.645,57.889c-0.112-0.08-0.182-0.07-0.209,0.025c-0.844,1.814-1.458,2.906-1.837,3.232
			c-0.689,0.592-1.514,0.588-2.409,0.007c-0.112-0.073-0.317-0.231-0.615-0.468c0.579-0.088,1.052-0.375,1.411-0.872
			c0.358-0.495,0.482-1.158,0.367-1.993c-0.115-0.834-0.518-2.098-1.221-3.726c-0.29-0.672-0.567-1.296-0.81-1.861
			s-0.408-1.199-0.506-1.902c-0.185-1.331,0.086-1.954,0.781-1.882c0.122,0.012,0.275,0.073,0.455,0.19
			c0.179,0.116,0.398,0.315,0.663,0.604c0.264,0.289,0.42,0.361,0.47,0.211c0.05-0.149-0.082-0.408-0.407-0.772
			c-0.325-0.362-0.646-0.646-0.96-0.849c-1.188-0.764-2.091-0.316-2.68,1.278c-0.363,0.985-0.784,2.06-1.265,3.197
			c-0.031-0.024-0.056-0.056-0.095-0.069c-0.154-0.055-0.258-0.027-0.309,0.079s-0.149,0.354-0.296,0.737
			c-0.117,0.309-0.271,0.609-0.423,0.906c-0.154,0.024-0.293,0.109-0.418,0.268c-0.155,0.197-0.214,0.455-0.229,0.739
			c-0.1,0.125-0.192,0.247-0.31,0.375c-0.368,0.402-1.025,0.738-1.971,1.072c0.264-1.642,0.312-3.187,0.148-4.643
			c-0.164-1.455-0.399-2.764-0.701-3.917c-0.102,0.048-0.309,0.019-0.621-0.082s-0.586-0.114-0.825-0.041
			c-0.24,0.074-0.416,0.404-0.522,0.984c-0.107,0.582-0.426,1.332-0.958,2.285s-1.146,1.711-1.837,2.294s-1.294,0.86-1.812,0.811
			c-0.157-0.015-0.319-0.062-0.484-0.142c-0.48-0.283-0.764-0.781-0.852-1.524c-0.088-0.742,0.154-1.815,0.738-3.14
			c0.47-1.064,1.076-2.047,1.796-2.882c1.274-1.479,2.52-1.987,3.713-1.57c0.652,0.228,1.188,0.865,1.571,1.869
			c0.062,0.161,0.172,0.353,0.336,0.571c0.164,0.22,0.303,0.258,0.414,0.114c0.11-0.144,0.155-0.323,0.131-0.54
			s-0.233-0.564-0.629-1.03c-1.049-1.134-2.079-1.849-3.092-2.144c-0.384-0.11-0.757-0.153-1.126-0.125
			c-1.377,0.021-2.524,0.713-3.427,1.952c-0.686,0.94-1.199,1.899-1.561,2.825c-0.033-0.031-0.066-0.062-0.117-0.086
			c-0.14-0.067-0.269,0.06-0.385,0.381c-1.706,3.979-3.138,6.141-4.292,6.303c-0.43,0.061-0.659-0.198-0.695-0.783
			c-0.092-1.484,1.104-4.923,3.587-10.031c-0.116-0.034-0.241-0.047-0.377-0.035c-0.564,0.05-1.437,0.473-2.618,1.311
			c-1.181,0.838-2.183,1.744-3.006,2.689c-0.823,0.943-1.729,2.188-2.712,3.737c1.668-4.208,2.906-6.581,3.716-7.18
			c-0.178,0.077-0.456,0.116-0.833,0.12c-0.378,0.004-0.612,0.02-0.702,0.037c-0.474,0.095-0.839,0.318-1.095,0.643
			c-0.543,0.688-1.672,3.213-3.318,7.621c-0.929,2.486-1.548,4.16-1.865,4.979c0.152-0.135,0.477-0.283,0.972-0.443
			c0.495-0.158,0.829-0.289,0.995-0.389c0.167-0.101,0.311-0.28,0.433-0.539c1.333-3.344,2.785-5.932,4.307-7.732
			c1.024-1.213,1.727-1.849,2.112-1.912c0.384-0.061,0.582,0.029,0.597,0.266s-0.088,0.579-0.312,1.02
			c-0.904,1.773-1.467,3.063-1.648,3.823c-0.183,0.76-0.262,1.393-0.23,1.898c0.031,0.505,0.171,0.882,0.415,1.132
			c0.469,0.552,1.115,0.757,1.941,0.637c0.826-0.121,1.624-0.68,2.394-1.676c0.65-0.842,1.401-2.241,2.254-4.123
			c-0.132,0.708-0.167,1.39-0.089,2.035c0.174,1.443,0.873,2.34,2.103,2.891c1.326,0.418,2.547-0.027,3.658-1.389
			c0.931-1.141,1.646-2.243,2.122-3.381c0.069,0.23,0.129,0.56,0.178,0.988c0.243,2.141,0.178,4.01-0.202,5.613
			c-0.513,0.051-1.351,0.077-2.491,0.215c-2.476,0.299-4.507,1.291-6.051,2.469c-1.818,1.389-2.641,2.886-2.468,4.315
			c0.208,1.72,1.371,2.306,3.486,2.155c1.53-0.109,3.001-0.573,4.415-1.467c1.414-0.895,2.543-1.875,3.386-3.103
			c0.843-1.229,1.442-2.513,1.798-3.911c1.083-0.078,1.901-0.393,2.455-1.027c0.068-0.078,0.144-0.188,0.215-0.281
			c0.034,0.143,0.068,0.287,0.109,0.417c0.531,1.552,1.591,2.732,3.182,3.677c0.403,0.238,0.847,0.391,1.327,0.463
			c0.818,0.739,1.631,1.232,2.407,1.488c0.487,0.161,0.896,0.168,1.219,0c0.236-0.141,0.353-0.212,0.589-0.352
			c0.192-0.073,0.374-0.233,0.542-0.484c0.168-0.249,0.304-0.463,0.411-0.641s0.232-0.423,0.371-0.737
			c0.139-0.316,0.235-0.563,0.292-0.741s0.12-0.352,0.188-0.522c0.067-0.169,0.099-0.28,0.092-0.331
			C186.957,58.167,186.843,58.006,186.645,57.889z M169.775,60.691c-0.885,1.234-1.807,2.195-2.64,2.848
			c-0.491,0.353-1.126,0.693-1.899,1.075c-0.774,0.382-1.489,0.63-2.143,0.711c-1.103,0.137-1.705-0.191-1.809-1.042
			c-0.029-0.247-0.002-0.549,0.065-0.899c0.215-1.118,0.794-2.133,1.768-2.958c1.324-1.123,3.672-2.391,7.037-2.679
			c0.453-0.037,0.681-0.048,1.134-0.062C170.972,58.697,170.473,59.718,169.775,60.691z M179.223,59.449
			c-0.649-0.379-1.113-0.943-1.387-1.713c-0.047-0.186-0.077-0.354-0.098-0.503c-0.072-0.521,0.06-0.897,0.4-1.122
			c0.248,1.332,0.825,2.514,1.734,3.587C179.707,59.691,179.491,59.605,179.223,59.449z M180.398,59.706
			c-1.011-1.078-1.618-2.327-1.824-3.797c-0.104-0.747-0.393-1.255-0.863-1.51c0.288-0.602,1.019-2.329,2.191-5.11
			c0.002,0.162,0.039,0.481,0.104,0.957c0.066,0.477,0.267,1.436,0.612,2.889c0.345,1.452,0.571,2.572,0.68,3.351
			C181.564,58.396,181.265,59.458,180.398,59.706z"/>
		<path fill="#FFFFFF" d="M223.645,79.342c-0.803-1.301-2.034-2.152-3.705-2.702c-3.286-1.083-7.244-1.88-11.855-4.075
			c0.202-0.422,0.304-0.636,0.506-1.063c0.413-1.041,1.06-2.893,1.944-5.632c2.297-0.176,4.42-1.47,6.369-3.585
			c1.948-2.114,3.372-4.587,4.266-7.144c0.893-2.555,1.169-4.785,0.831-6.638c-0.043-0.233-0.101-0.476-0.168-0.72
			c-0.156-0.572-0.574-0.938-1.265-1.114c-0.689-0.177-1.375-0.157-2.056,0.06c-0.682,0.215-1.365,0.55-2.021,1.006
			c-2.517,1.756-4.326,4.953-5.414,10.073c-0.641,2.907-0.962,4.346-1.603,7.196c-0.547-0.018-1.149-0.105-1.807-0.271
			c-0.658-0.165-1.452-0.522-2.377-1.106c-0.925-0.585-1.695-1.354-2.316-2.266c-0.62-0.908-1.06-1.739-1.316-2.465
			c-0.257-0.724-0.422-1.318-0.494-1.781s-0.079-0.91-0.024-1.341c0.232-1.835,0.989-2.89,2.252-3.288
			c0.73-0.23,1.567-0.234,2.509-0.037c0.282,0.049,0.529,0.055,0.737,0.025s0.277-0.114,0.214-0.248
			c-0.063-0.133-0.194-0.229-0.396-0.291c-0.201-0.062-0.443-0.104-0.722-0.128c-1.758-0.159-3.162-0.174-4.213,0.155
			c-1.051,0.33-1.681,0.814-1.887,1.527c-0.206,0.714-0.249,1.461-0.129,2.24c0.229,1.486,0.905,3.088,2.023,4.726
			c0.854,1.251,1.926,2.41,3.214,3.383c1.287,0.974,2.633,1.629,4.039,1.905c0.111,0.021,0.234,0.045,0.369,0.068
			c-0.863,2.676-1.658,4.699-2.392,6.094c-0.97-0.469-2.037-0.938-3.197-1.434c-3.238-1.38-5.723-2.341-7.412-2.283
			c-1.494,0.051-2.15,0.744-1.929,2.203c0.221,1.458,1.034,2.977,2.403,4.48c0.803,0.883,1.681,1.613,2.629,2.146
			c0.949,0.534,1.992,0.764,3.107,0.678c1.868-0.142,3.544-1.41,4.98-3.765c1.915,0.88,3.449,1.358,4.603,1.673
			c1.153,0.313,2.544,0.693,4.166,1.017c1.621,0.321,2.92,0.604,3.898,1.01c0.978,0.405,1.701,0.932,2.17,1.642
			c0.468,0.711,0.765,1.408,0.893,2.106s0.113,1.368-0.048,2.009c-0.162,0.641-0.235,1.014-0.216,1.119s0.099,0.127,0.232,0.063
			s0.344-0.245,0.63-0.548c0.285-0.301,0.509-0.709,0.671-1.218s0.191-1.048,0.086-1.614
			C224.322,80.624,224.058,80.01,223.645,79.342z M212.9,58.621c0.782-2.34,1.667-4.42,2.669-6.234
			c1.267-2.293,2.497-3.668,3.636-4.06c0.781-0.269,1.248-0.019,1.396,0.797c0.521,2.878-0.23,6.188-2.249,9.612
			s-4.52,5.775-7.503,6.23C211.434,63.062,212.118,60.961,212.9,58.621z M201.662,76.396c-1.121,0.049-2.214-0.255-3.264-0.868
			c-0.759-0.443-1.492-1.081-2.192-1.902c-0.701-0.821-1.1-1.571-1.2-2.235c-0.035-0.229-0.021-0.447,0.023-0.64
			c0.253-1.083,1.586-1.151,4.027-0.47c1.16,0.324,2.335,0.758,3.496,1.294c1.161,0.538,2.311,1.126,3.447,1.751
			C204.807,75.26,203.351,76.322,201.662,76.396z"/>
		<path fill="#FFFFFF" d="M258.701,42.068c-0.346,0.34-0.578,0.72-0.69,1.132c-0.09,0.407-0.038,0.728,0.156,0.96
			c0.193,0.233,0.483,0.313,0.866,0.243c0.383-0.069,0.747-0.267,1.094-0.591s0.576-0.684,0.688-1.086
			c0.112-0.4,0.064-0.728-0.141-0.975s-0.497-0.344-0.879-0.285C259.412,41.527,259.048,41.729,258.701,42.068z"/>
		<path fill="#FFFFFF" d="M285.195,60.404c-0.163-0.092-0.291-0.105-0.39-0.041s-0.304,0.217-0.612,0.46
			c-0.31,0.244-0.648,0.472-1.016,0.689c-0.366,0.217-0.834,0.421-1.404,0.616c-0.57,0.196-1.452,0.254-2.643,0.234
			c0.879-1.215,1.482-2.394,1.811-3.575c0.328-1.181,0.525-2.271,0.594-3.273c-0.132-0.001-0.354-0.101-0.668-0.298
			c-0.314-0.197-0.614-0.314-0.905-0.35s-0.598,0.156-0.92,0.574c-0.322,0.417-0.94,0.889-1.852,1.461
			c-0.912,0.572-1.835,0.971-2.766,1.21c-0.93,0.238-1.646,0.263-2.153,0.028c-0.154-0.07-0.303-0.172-0.44-0.303
			c-0.381-0.427-0.479-0.975-0.304-1.658c0.176-0.682,0.79-1.516,1.84-2.379c0.844-0.695,1.806-1.239,2.845-1.602
			c1.843-0.643,3.363-0.479,4.53,0.338c0.638,0.447,1.007,1.149,1.086,2.068c0.013,0.147,0.07,0.336,0.179,0.566
			c0.107,0.23,0.251,0.311,0.429,0.243c0.179-0.067,0.293-0.188,0.342-0.362c0.049-0.176-0.068-0.52-0.35-1.029
			c-0.784-1.273-1.672-2.256-2.662-2.929c-0.375-0.254-0.763-0.454-1.163-0.599c-1.468-0.606-2.873-0.611-4.207-0.016
			c-0.883,0.394-1.636,0.873-2.262,1.403c-0.087,0.021-0.188,0.095-0.297,0.243c-0.053,0.062-0.099,0.113-0.151,0.174
			c-0.27,0.268-0.521,0.545-0.73,0.834c-2.131,2.373-3.701,3.641-4.705,3.496c-0.425-0.061-0.586-0.375-0.486-0.961
			c0.253-1.486,2.169-4.639,5.746-8.319c-0.104-0.083-0.222-0.146-0.355-0.193c-0.558-0.194-1.498-0.174-2.817,0.194
			s-2.477,0.945-3.469,1.654s-2.124,1.736-3.396,3.126c2.521-3.977,4.234-5.894,5.138-6.209c-0.187,0.017-0.459-0.037-0.816-0.149
			c-0.356-0.113-0.582-0.169-0.671-0.178c-0.469-0.046-0.858,0.074-1.172,0.33c-0.497,0.405-1.527,1.745-3.068,4.186
			c-0.097,0.049-0.2,0.175-0.315,0.385c-1.538,2.797-2.841,4.814-3.771,5.889c-0.523,0.562-0.997,0.906-1.424,1.027
			c-0.698,0.198-1.009-0.031-0.933-0.717c0.068-0.614,0.342-1.419,0.822-2.4c1.375-2.955,2.062-4.404,3.437-7.229
			c0.271-0.463,0.374-0.781,0.307-0.964s-0.357-0.229-0.875-0.12c-0.744,0.169-1.118,0.265-1.862,0.473
			c0.228,0.306,0.329,0.578,0.303,0.812s-0.07,0.428-0.131,0.581c-0.568,1.276-0.854,1.92-1.423,3.217
			c-0.115,0.089-0.203,0.206-0.263,0.355c-0.063,0.159-0.133,0.321-0.207,0.484c-1.95,4.268-3.448,6.737-4.513,7.226
			c-0.589,0.27-0.866,0.039-0.83-0.704c0.021-0.44,0.166-1.056,0.422-1.831c0.683-2.073,2.573-6.571,5.693-12.971
			c2.443-5.012,3.948-7.648,4.493-8.246c-0.205,0.068-0.492,0.117-0.862,0.153c-0.371,0.036-0.586,0.065-0.643,0.081
			s-0.215,0.059-0.475,0.133c-0.261,0.074-0.551,0.266-0.867,0.579s-0.647,0.909-1.005,1.771c-1.189,2.871-2.66,6.112-4.345,9.744
			c-0.772-0.076-1.479,0.039-2.124,0.34c-0.646,0.301-1.209,0.654-1.692,1.05c-1.333,1.036-2.493,2.381-3.477,4.003
			c-0.7,1.154-1.288,2.281-1.778,3.383c-0.114,0.064-0.221,0.254-0.323,0.586c-1.759,5.026-3.217,7.904-4.372,8.618
			c-0.43,0.267-0.659,0.114-0.688-0.458c-0.071-1.454,1.167-5.414,3.717-11.914c-0.116,0.027-0.241,0.082-0.377,0.167
			c-0.566,0.354-1.444,1.241-2.635,2.647s-2.203,2.746-3.037,4.025s-1.752,2.862-2.752,4.736c1.719-4.771,2.987-7.669,3.804-8.617
			c-0.18,0.154-0.46,0.311-0.836,0.467s-0.608,0.26-0.699,0.313c-0.474,0.278-0.843,0.633-1.103,1.05
			c-0.408,0.655-1.144,2.429-2.183,5.26c-0.101,0.096-0.184,0.248-0.245,0.48c-0.169,0.564-0.339,1.116-0.518,1.634
			c-0.11,0.319-0.229,0.65-0.352,0.99c-0.425,1.186-0.877,2.272-1.342,3.223c-0.539,1.101-1.021,1.766-1.448,1.992
			c-0.338,0.181-0.531,0.057-0.583-0.361c-0.052-0.419-0.047-1.003,0.017-1.755s0.383-1.999,0.959-3.761
			c0.575-1.759,1.042-2.951,1.399-3.566c-0.175,0.146-0.451,0.292-0.83,0.433c-0.38,0.143-0.615,0.233-0.705,0.281
			c-0.451,0.242-0.804,0.58-1.061,1.019s-0.548,1.169-0.881,2.169c-1.67,5.016-3.224,7.756-4.574,8.227
			c-0.562,0.196-0.895-0.147-0.997-1.006c-0.103-0.857,0.219-2.138,0.906-3.857c0.562-1.408,1.181-2.74,1.889-3.93
			c1.221-2.052,2.343-3.354,3.312-3.841c0.832-0.419,1.421-0.327,1.764,0.309c0.298-0.116,0.476-0.31,0.539-0.573
			s-0.029-0.451-0.283-0.561c-0.805-0.287-1.727-0.163-2.761,0.336c-0.383,0.184-0.785,0.434-1.198,0.729
			c-1.511,1.078-2.769,2.362-3.692,3.946c-1.652,2.833-2.344,5.248-2.086,7.419c0.135,1.13,0.567,1.848,1.298,2.107
			c0.319,0.131,0.66,0.137,1.021,0.016c1.305-0.441,2.688-2.473,4.149-6.102c-0.13,0.883-0.162,1.594-0.097,2.133
			s0.221,0.936,0.462,1.151c0.46,0.411,1.046,0.448,1.699,0.105c0.469-0.245,0.946-0.758,1.434-1.492
			c-0.139,0.384-0.256,0.706-0.347,0.95c0.154-0.165,0.48-0.377,0.978-0.648c0.496-0.271,0.829-0.486,0.996-0.629
			c0.167-0.145,0.312-0.361,0.438-0.655c1.373-3.721,2.85-6.801,4.395-9.22c1.039-1.627,1.751-2.584,2.137-2.82
			c0.384-0.234,0.583-0.237,0.595-0.006c0.011,0.231-0.097,0.625-0.327,1.172c-0.931,2.207-1.507,3.729-1.698,4.572
			c-0.191,0.841-0.275,1.509-0.25,2.004c0.024,0.496,0.156,0.82,0.397,0.971c0.46,0.358,1.102,0.284,1.929-0.227
			c0.826-0.508,1.634-1.468,2.416-2.877c0.361-0.651,0.755-1.492,1.181-2.507c-0.009,0.093-0.027,0.194-0.031,0.284
			c-0.069,1.511,0.44,2.124,1.532,1.847c0.244-0.062,0.499-0.159,0.759-0.296c0.26-0.136,0.529-0.333,0.807-0.592
			c0.965-0.797,2.159-2.65,3.581-5.524c-0.136,0.521-0.217,1.056-0.244,1.603c-0.026,0.546,0.128,1.008,0.461,1.389
			c0.334,0.381,0.811,0.426,1.421,0.141c1.179-0.552,2.392-1.947,3.638-4.153c-0.019,0.108-0.04,0.216-0.052,0.319
			c-0.072,0.639,0.043,1.16,0.345,1.561c0.302,0.402,0.866,0.469,1.688,0.228c0.549-0.16,1.152-0.588,1.802-1.228
			c-0.225,0.396-0.414,0.725-0.556,0.972c0.172-0.128,0.506-0.253,1.001-0.364c0.495-0.112,0.83-0.203,1.007-0.286
			c0.177-0.084,0.352-0.253,0.524-0.507c2.004-3.305,3.955-5.649,5.8-7.033c1.243-0.934,2.058-1.317,2.438-1.25
			s0.55,0.226,0.509,0.459c-0.04,0.233-0.218,0.528-0.532,0.883c-1.269,1.43-2.095,2.575-2.44,3.285
			c-0.347,0.713-0.565,1.33-0.652,1.844c-0.086,0.512-0.041,0.923,0.133,1.23c0.316,0.66,0.88,1.013,1.695,1.111
			s1.71-0.215,2.682-0.916c0.472-0.34,1.02-0.832,1.639-1.457c-0.008,0.025-0.02,0.051-0.026,0.076
			c-0.354,1.352-0.011,2.474,1.015,3.415c1.168,0.86,2.593,0.863,4.256,0.127c1.394-0.617,2.565-1.241,3.491-1.966
			c-0.005,0.207-0.055,0.489-0.151,0.846c-0.484,1.78-1.227,3.246-2.21,4.436c-0.582-0.112-1.507-0.342-2.762-0.58
			c-2.724-0.516-5.04-0.354-6.896,0.204c-2.188,0.658-3.462,1.954-3.809,3.419c-0.418,1.762,0.409,2.646,2.478,3.024
			c1.497,0.272,3.142,0.129,4.937-0.358c1.795-0.489,3.377-1.069,4.74-1.875c1.364-0.806,2.497-1.674,3.394-2.68
			c1.253,0.252,2.313,0.241,3.181-0.08c0.867-0.32,2.033-0.996,3.495-1.987c0.104-0.084,0.169-0.173,0.196-0.269
			C285.416,60.615,285.356,60.494,285.195,60.404z M246.493,58.319c-1.212,2.197-2.202,3.508-2.972,3.911
			c-0.317,0.166-0.542,0.135-0.674-0.091c-0.133-0.226-0.188-0.525-0.169-0.897c0.04-0.814,0.415-2.023,1.133-3.624
			c1.089-2.429,2.426-4.689,4.006-6.73c0.989-1.278,1.752-2.03,2.284-2.272c0.531-0.242,0.938-0.274,1.217-0.102
			C249.313,52.816,247.705,56.122,246.493,58.319z M273.15,64.725c-1.392,0.822-2.688,1.443-3.769,1.832
			c-0.626,0.201-1.386,0.363-2.281,0.531s-1.663,0.223-2.301,0.123c-1.077-0.168-1.513-0.635-1.307-1.502
			c0.06-0.25,0.188-0.541,0.375-0.866c0.594-1.036,1.489-1.856,2.69-2.3c1.634-0.603,4.316-0.936,8.043-0.187
			c0.501,0.103,0.752,0.158,1.253,0.28C275.148,63.372,274.238,64.08,273.15,64.725z"/>
	</g>
</g>
</svg>
