<?xml version="1.0" encoding="utf-8"?>
<!-- Generator: Adobe Illustrator 16.0.0, SVG Export Plug-In . SVG Version: 6.00 Build 0)  -->
<!DOCTYPE svg PUBLIC "-//W3C//DTD SVG 1.1//EN" "http://www.w3.org/Graphics/SVG/1.1/DTD/svg11.dtd">
<svg version="1.1" id="Layer_1" xmlns="http://www.w3.org/2000/svg" xmlns:xlink="http://www.w3.org/1999/xlink" x="0px" y="0px"
	 width="841.89px" height="595.28px" viewBox="0 0 841.89 595.28" enable-background="new 0 0 841.89 595.28" xml:space="preserve">
<g>
	<path fill="#009B97" d="M772.354,275.671c-6.129-0.324-10.64-6.281-10.64-6.281c-4.201,4.704-11.466,4.354-11.466,4.354
		c-6.128-0.707-10.641-6.928-10.641-6.928c-4.201,4.527-11.018,4.084-11.018,4.084c-6.13-0.867-10.191-7.174-10.191-7.174
		c-4.201,4.562-11.466,4.144-11.466,4.144c-6.129-0.812-10.639-7.165-10.639-7.165c-4.201,4.746-11.466,4.664-11.466,4.664
		c-6.129-0.538-10.642-6.62-10.642-6.62c-4.201,5.014-11.459,5.508-11.459,5.508c-6.129,0.038-10.64-5.558-10.64-5.558
		c-4.201,5.423-11.467,6.652-11.467,6.652c-6.129,0.534-10.639-4.765-10.639-4.765c-4.201,5.739-11.464,7.258-11.464,7.258
		c-6.128,0.812-10.639-4.269-10.639-4.269c-4.202,5.805-11.466,7.36-11.466,7.36c-6.129,0.866-10.637-4.137-10.637-4.137
		c-4.201,5.686-11.467,7.024-11.467,7.024c-6.129,0.698-10.639-4.447-10.639-4.447c-4.201,5.45-11.466,6.331-11.466,6.331
		c-6.128,0.309-10.64-5.267-10.64-5.267c-4.201,5.166-11.465,5.92-11.465,5.92c-6.129,0.321-10.642-4.878-10.642-4.878
		c-4.201,5.622-11.464,6.798-11.464,6.798c-6.128,0.705-10.64-4.232-10.64-4.232c-4.201,5.8-11.02,7.075-11.02,7.075
		c-6.13,0.866-10.188-3.984-10.188-3.984c-4.201,5.767-11.467,7.015-11.467,7.015c-6.129,0.813-10.638-3.992-10.638-3.992
		c-4.201,5.584-11.466,6.501-11.466,6.501c-6.129,0.54-10.638-4.533-10.638-4.533c-4.201,5.316-11.466,5.655-11.466,5.655
		c-6.129,0.045-10.637-5.594-10.637-5.594c-4.201,4.908-11.468,4.512-11.468,4.512c-6.129-0.532-10.637-6.389-10.637-6.389
		c-4.201,4.59-11.466,3.899-11.466,3.899c-6.128-0.811-10.639-6.887-10.639-6.887c-4.202,4.523-11.464,3.796-11.464,3.796
		c-6.129-0.866-10.638-7.02-10.638-7.02c-4.201,4.642-11.468,4.127-11.468,4.127c-6.129-0.7-10.637-6.712-10.637-6.712
		c-4.201,4.876-11.466,4.82-11.466,4.82c-6.128-0.312-10.639-5.896-10.639-5.896c-4.201,5.161-11.468,5.243-11.468,5.243
		c-6.129-0.318-10.638-6.273-10.638-6.273c-4.201,4.708-11.465,4.362-11.465,4.362c-6.128-0.704-10.639-6.922-10.639-6.922
		c-4.201,4.528-11.02,4.085-11.02,4.085c-6.13-0.866-10.191-7.172-10.191-7.172c-4.201,4.561-11.465,4.14-11.465,4.14
		c-6.129-0.814-10.639-7.168-10.639-7.168c-4.201,4.743-11.464,4.655-11.464,4.655c-6.129-0.543-10.642-6.631-10.642-6.631
		c-4.201,5.01-11.463,5.497-11.463,5.497c-6.129-0.049-10.64-5.572-10.64-5.572c-4.201,5.418-11.464,6.643-11.464,6.643
		c-6.129,0.53-10.639-4.773-10.639-4.773c-4.201,5.737-11.466,7.255-11.466,7.255c-6.128,0.81-10.639-4.271-10.639-4.271
		c-4.202,5.805-11.464,7.36-11.464,7.36c-6.129,0.866-10.638-4.136-10.638-4.136c-4.201,5.688-11.465,7.029-11.465,7.029
		c-6.129,0.702-10.64-4.438-10.64-4.438c-4.201,5.454-11.466,6.339-11.466,6.339c-6.128,0.314-10.64-5.251-10.64-5.251
		c-0.13,22.339-0.262,44.679-0.39,67.018c80.749,0,161.498,0,242.247,0c0.081,0,0.126,0,0.207,0c80.682,0,161.362,0,242.044,0
		c0.081,0,0.122,0,0.203,0c80.751,0,161.501,0,242.252,0c0.065-22.34,0.122-44.679,0.188-67.019
		C779.617,275.605,772.354,275.671,772.354,275.671z"/>
</g>
</svg>
